<?xml version="1.0" encoding="UTF-8" standalone="no"?>
<!DOCTYPE svg PUBLIC "-//W3C//DTD SVG 1.1//EN"
 "http://www.w3.org/Graphics/SVG/1.1/DTD/svg11.dtd">
<!-- Generated by graphviz version 2.40.1 (20161225.0304)
 -->
<!-- Title: oneDegreeRelationshipsDiagram Pages: 1 -->
<svg width="265pt" height="404pt"
 viewBox="0.00 0.00 265.00 404.20" xmlns="http://www.w3.org/2000/svg" xmlns:xlink="http://www.w3.org/1999/xlink">
<g id="graph0" class="graph" transform="scale(1 1) rotate(0) translate(4 400.2)">
<title>oneDegreeRelationshipsDiagram</title>
<polygon fill="#ffffff" stroke="transparent" points="-4,4 -4,-400.2 261,-400.2 261,4 -4,4"/>
<text text-anchor="middle" x="72.4936" y="-7.3" font-family="Helvetica,sans-Serif" font-size="11.00" fill="#000000">Generated by SchemaSpy</text>
<!-- databasechangelog -->
<g id="node1" class="node">
<title>databasechangelog</title>
<g id="a_node1"><a xlink:href="../../tables/databasechangelog.html" xlink:title="databasechangelog" target="_top">
<polygon fill="#ffffff" stroke="transparent" points="8,-38.2 8,-392.2 249,-392.2 249,-38.2 8,-38.2"/>
<polygon fill="#f5f5f5" stroke="transparent" points="10.5,-367.2 10.5,-390.2 247.5,-390.2 247.5,-367.2 10.5,-367.2"/>
<polygon fill="none" stroke="#000000" points="10.5,-367.2 10.5,-390.2 247.5,-390.2 247.5,-367.2 10.5,-367.2"/>
<text text-anchor="start" x="15.5" y="-375.8" font-family="Helvetica,sans-Serif" font-weight="bold" font-size="11.00" fill="#000000">databasechangelog</text>
<text text-anchor="start" x="212.5437" y="-375.3" font-family="Helvetica,sans-Serif" font-size="11.00" fill="#000000">[table]</text>
<polygon fill="none" stroke="#000000" points="10.5,-345.2 10.5,-367.2 163.5,-367.2 163.5,-345.2 10.5,-345.2"/>
<text text-anchor="start" x="30.5" y="-352.3" font-family="Helvetica,sans-Serif" font-size="11.00" fill="#000000">id</text>
<polygon fill="none" stroke="#000000" points="163.5,-345.2 163.5,-367.2 247.5,-367.2 247.5,-345.2 163.5,-345.2"/>
<text text-anchor="start" x="166.5" y="-352.9" font-family="Helvetica,sans-Serif" font-size="11.00" fill="#000000">varchar[255]</text>
<polygon fill="none" stroke="#000000" points="10.5,-323.2 10.5,-345.2 163.5,-345.2 163.5,-323.2 10.5,-323.2"/>
<text text-anchor="start" x="30.5" y="-330.3" font-family="Helvetica,sans-Serif" font-size="11.00" fill="#000000">author</text>
<polygon fill="none" stroke="#000000" points="163.5,-323.2 163.5,-345.2 247.5,-345.2 247.5,-323.2 163.5,-323.2"/>
<text text-anchor="start" x="166.5" y="-330.9" font-family="Helvetica,sans-Serif" font-size="11.00" fill="#000000">varchar[255]</text>
<polygon fill="none" stroke="#000000" points="10.5,-301.2 10.5,-323.2 163.5,-323.2 163.5,-301.2 10.5,-301.2"/>
<text text-anchor="start" x="30.5" y="-308.3" font-family="Helvetica,sans-Serif" font-size="11.00" fill="#000000">filename</text>
<polygon fill="none" stroke="#000000" points="163.5,-301.2 163.5,-323.2 247.5,-323.2 247.5,-301.2 163.5,-301.2"/>
<text text-anchor="start" x="166.5" y="-308.9" font-family="Helvetica,sans-Serif" font-size="11.00" fill="#000000">varchar[255]</text>
<polygon fill="none" stroke="#000000" points="10.5,-279.2 10.5,-301.2 163.5,-301.2 163.5,-279.2 10.5,-279.2"/>
<text text-anchor="start" x="30.5" y="-286.3" font-family="Helvetica,sans-Serif" font-size="11.00" fill="#000000">dateexecuted</text>
<polygon fill="none" stroke="#000000" points="163.5,-279.2 163.5,-301.2 247.5,-301.2 247.5,-279.2 163.5,-279.2"/>
<text text-anchor="start" x="166.3807" y="-286.9" font-family="Helvetica,sans-Serif" font-size="11.00" fill="#000000">timestamp[29,6]</text>
<polygon fill="none" stroke="#000000" points="10.5,-257.2 10.5,-279.2 163.5,-279.2 163.5,-257.2 10.5,-257.2"/>
<text text-anchor="start" x="30.5" y="-264.3" font-family="Helvetica,sans-Serif" font-size="11.00" fill="#000000">orderexecuted</text>
<polygon fill="none" stroke="#000000" points="163.5,-257.2 163.5,-279.2 247.5,-279.2 247.5,-257.2 163.5,-257.2"/>
<text text-anchor="start" x="166.5" y="-264.9" font-family="Helvetica,sans-Serif" font-size="11.00" fill="#000000">int4[10]</text>
<polygon fill="none" stroke="#000000" points="10.5,-235.2 10.5,-257.2 163.5,-257.2 163.5,-235.2 10.5,-235.2"/>
<text text-anchor="start" x="30.5" y="-242.3" font-family="Helvetica,sans-Serif" font-size="11.00" fill="#000000">exectype</text>
<polygon fill="none" stroke="#000000" points="163.5,-235.2 163.5,-257.2 247.5,-257.2 247.5,-235.2 163.5,-235.2"/>
<text text-anchor="start" x="166.5" y="-242.9" font-family="Helvetica,sans-Serif" font-size="11.00" fill="#000000">varchar[10]</text>
<polygon fill="none" stroke="#000000" points="10.5,-213.2 10.5,-235.2 163.5,-235.2 163.5,-213.2 10.5,-213.2"/>
<text text-anchor="start" x="30.5" y="-220.3" font-family="Helvetica,sans-Serif" font-size="11.00" fill="#000000">md5sum</text>
<polygon fill="none" stroke="#000000" points="163.5,-213.2 163.5,-235.2 247.5,-235.2 247.5,-213.2 163.5,-213.2"/>
<text text-anchor="start" x="166.5" y="-220.9" font-family="Helvetica,sans-Serif" font-size="11.00" fill="#000000">varchar[35]</text>
<polygon fill="none" stroke="#000000" points="10.5,-191.2 10.5,-213.2 163.5,-213.2 163.5,-191.2 10.5,-191.2"/>
<text text-anchor="start" x="30.5" y="-198.3" font-family="Helvetica,sans-Serif" font-size="11.00" fill="#000000">description</text>
<polygon fill="none" stroke="#000000" points="163.5,-191.2 163.5,-213.2 247.5,-213.2 247.5,-191.2 163.5,-191.2"/>
<text text-anchor="start" x="166.5" y="-198.9" font-family="Helvetica,sans-Serif" font-size="11.00" fill="#000000">varchar[255]</text>
<polygon fill="none" stroke="#000000" points="10.5,-169.2 10.5,-191.2 163.5,-191.2 163.5,-169.2 10.5,-169.2"/>
<text text-anchor="start" x="30.5" y="-176.3" font-family="Helvetica,sans-Serif" font-size="11.00" fill="#000000">comments</text>
<polygon fill="none" stroke="#000000" points="163.5,-169.2 163.5,-191.2 247.5,-191.2 247.5,-169.2 163.5,-169.2"/>
<text text-anchor="start" x="166.5" y="-176.9" font-family="Helvetica,sans-Serif" font-size="11.00" fill="#000000">varchar[255]</text>
<polygon fill="none" stroke="#000000" points="10.5,-147.2 10.5,-169.2 163.5,-169.2 163.5,-147.2 10.5,-147.2"/>
<text text-anchor="start" x="30.5" y="-154.3" font-family="Helvetica,sans-Serif" font-size="11.00" fill="#000000">tag</text>
<polygon fill="none" stroke="#000000" points="163.5,-147.2 163.5,-169.2 247.5,-169.2 247.5,-147.2 163.5,-147.2"/>
<text text-anchor="start" x="166.5" y="-154.9" font-family="Helvetica,sans-Serif" font-size="11.00" fill="#000000">varchar[255]</text>
<polygon fill="none" stroke="#000000" points="10.5,-125.2 10.5,-147.2 163.5,-147.2 163.5,-125.2 10.5,-125.2"/>
<text text-anchor="start" x="30.5" y="-132.3" font-family="Helvetica,sans-Serif" font-size="11.00" fill="#000000">liquibase</text>
<polygon fill="none" stroke="#000000" points="163.5,-125.2 163.5,-147.2 247.5,-147.2 247.5,-125.2 163.5,-125.2"/>
<text text-anchor="start" x="166.5" y="-132.9" font-family="Helvetica,sans-Serif" font-size="11.00" fill="#000000">varchar[20]</text>
<polygon fill="none" stroke="#000000" points="10.5,-103.2 10.5,-125.2 163.5,-125.2 163.5,-103.2 10.5,-103.2"/>
<text text-anchor="start" x="30.5" y="-110.3" font-family="Helvetica,sans-Serif" font-size="11.00" fill="#000000">contexts</text>
<polygon fill="none" stroke="#000000" points="163.5,-103.2 163.5,-125.2 247.5,-125.2 247.5,-103.2 163.5,-103.2"/>
<text text-anchor="start" x="166.5" y="-110.9" font-family="Helvetica,sans-Serif" font-size="11.00" fill="#000000">varchar[255]</text>
<polygon fill="none" stroke="#000000" points="10.5,-81.2 10.5,-103.2 163.5,-103.2 163.5,-81.2 10.5,-81.2"/>
<text text-anchor="start" x="30.5" y="-88.3" font-family="Helvetica,sans-Serif" font-size="11.00" fill="#000000">labels</text>
<polygon fill="none" stroke="#000000" points="163.5,-81.2 163.5,-103.2 247.5,-103.2 247.5,-81.2 163.5,-81.2"/>
<text text-anchor="start" x="166.5" y="-88.9" font-family="Helvetica,sans-Serif" font-size="11.00" fill="#000000">varchar[255]</text>
<polygon fill="none" stroke="#000000" points="10.5,-59.2 10.5,-81.2 163.5,-81.2 163.5,-59.2 10.5,-59.2"/>
<text text-anchor="start" x="30.5" y="-66.3" font-family="Helvetica,sans-Serif" font-size="11.00" fill="#000000">deployment_id</text>
<polygon fill="none" stroke="#000000" points="163.5,-59.2 163.5,-81.2 247.5,-81.2 247.5,-59.2 163.5,-59.2"/>
<text text-anchor="start" x="166.5" y="-66.9" font-family="Helvetica,sans-Serif" font-size="11.00" fill="#000000">varchar[10]</text>
<polygon fill="#ffffff" stroke="transparent" points="10.5,-40.2 10.5,-59.2 91.5,-59.2 91.5,-40.2 10.5,-40.2"/>
<polygon fill="none" stroke="#000000" points="10.5,-40.2 10.5,-59.2 91.5,-59.2 91.5,-40.2 10.5,-40.2"/>
<text text-anchor="start" x="13.5" y="-46.3" font-family="Helvetica,sans-Serif" font-size="11.00" fill="#000000">&lt; 0</text>
<polygon fill="#ffffff" stroke="transparent" points="91.5,-40.2 91.5,-59.2 163.5,-59.2 163.5,-40.2 91.5,-40.2"/>
<polygon fill="none" stroke="#000000" points="91.5,-40.2 91.5,-59.2 163.5,-59.2 163.5,-40.2 91.5,-40.2"/>
<text text-anchor="start" x="154.3862" y="-46.3" font-family="Helvetica,sans-Serif" font-size="11.00" fill="#000000"> &#160;</text>
<polygon fill="#ffffff" stroke="transparent" points="163.5,-40.2 163.5,-59.2 247.5,-59.2 247.5,-40.2 163.5,-40.2"/>
<polygon fill="none" stroke="#000000" points="163.5,-40.2 163.5,-59.2 247.5,-59.2 247.5,-40.2 163.5,-40.2"/>
<text text-anchor="start" x="228.9053" y="-46.3" font-family="Helvetica,sans-Serif" font-size="11.00" fill="#000000">0 &gt;</text>
<polygon fill="none" stroke="#000000" stroke-width="2" points="9,-39.2 9,-391.2 248,-391.2 248,-39.2 9,-39.2"/>
</a>
</g>
</g>
</g>
</svg>
