<?xml version="1.0" encoding="UTF-8" standalone="no"?>
<!DOCTYPE svg PUBLIC "-//W3C//DTD SVG 1.1//EN"
 "http://www.w3.org/Graphics/SVG/1.1/DTD/svg11.dtd">
<!-- Generated by graphviz version 2.40.1 (20161225.0304)
 -->
<!-- Title: oneDegreeRelationshipsDiagram Pages: 1 -->
<svg width="632pt" height="281pt"
 viewBox="0.00 0.00 632.00 281.20" xmlns="http://www.w3.org/2000/svg" xmlns:xlink="http://www.w3.org/1999/xlink">
<g id="graph0" class="graph" transform="scale(1 1) rotate(0) translate(4 277.2)">
<title>oneDegreeRelationshipsDiagram</title>
<polygon fill="#ffffff" stroke="transparent" points="-4,4 -4,-277.2 628,-277.2 628,4 -4,4"/>
<text text-anchor="middle" x="72.4936" y="-7.3" font-family="Helvetica,sans-Serif" font-size="11.00" fill="#000000">Generated by SchemaSpy</text>
<!-- group_subtype -->
<g id="node1" class="node">
<title>group_subtype</title>
<g id="a_node1"><a xlink:href="../../tables/group_subtype.html" xlink:title="group_subtype" target="_top">
<polygon fill="#ffffff" stroke="transparent" points="172,-84.7 172,-240.7 391,-240.7 391,-84.7 172,-84.7"/>
<polygon fill="#f5f5f5" stroke="transparent" points="174.5,-215.7 174.5,-238.7 389.5,-238.7 389.5,-215.7 174.5,-215.7"/>
<polygon fill="none" stroke="#000000" points="174.5,-215.7 174.5,-238.7 389.5,-238.7 389.5,-215.7 174.5,-215.7"/>
<text text-anchor="start" x="179.5" y="-224.3" font-family="Helvetica,sans-Serif" font-weight="bold" font-size="11.00" fill="#000000">group_subtype</text>
<text text-anchor="start" x="354.5437" y="-223.8" font-family="Helvetica,sans-Serif" font-size="11.00" fill="#000000">[table]</text>
<polygon fill="none" stroke="#000000" points="174.5,-193.7 174.5,-215.7 295.5,-215.7 295.5,-193.7 174.5,-193.7"/>
<image xlink:href="../../images/primaryKeys.png" width="11px" height="12px" preserveAspectRatio="xMinYMin meet" x="179.5" y="-210.7"/>
<text text-anchor="start" x="194.5" y="-200.8" font-family="Helvetica,sans-Serif" font-size="11.00" fill="#000000">id</text>
<polygon fill="none" stroke="#000000" points="295.5,-193.7 295.5,-215.7 389.5,-215.7 389.5,-193.7 295.5,-193.7"/>
<text text-anchor="start" x="298.5" y="-201.4" font-family="Helvetica,sans-Serif" font-size="11.00" fill="#000000">bigserial[19]</text>
<polygon fill="#ffffff" stroke="transparent" points="174.5,-171.7 174.5,-193.7 295.5,-193.7 295.5,-171.7 174.5,-171.7"/>
<polygon fill="none" stroke="#000000" points="174.5,-171.7 174.5,-193.7 295.5,-193.7 295.5,-171.7 174.5,-171.7"/>
<image xlink:href="../../images/foreignKeys.png" width="11px" height="12px" preserveAspectRatio="xMinYMin meet" x="179.5" y="-188.7"/>
<text text-anchor="start" x="194.5" y="-178.8" font-family="Helvetica,sans-Serif" font-size="11.00" fill="#000000">group_note</text>
<polygon fill="none" stroke="#000000" points="295.5,-171.7 295.5,-193.7 389.5,-193.7 389.5,-171.7 295.5,-171.7"/>
<text text-anchor="start" x="298.4758" y="-179.4" font-family="Helvetica,sans-Serif" font-size="11.00" fill="#000000">uuid[2147483647]</text>
<polygon fill="#ffffff" stroke="transparent" points="174.5,-149.7 174.5,-171.7 295.5,-171.7 295.5,-149.7 174.5,-149.7"/>
<polygon fill="none" stroke="#000000" points="174.5,-149.7 174.5,-171.7 295.5,-171.7 295.5,-149.7 174.5,-149.7"/>
<image xlink:href="../../images/foreignKeys.png" width="11px" height="12px" preserveAspectRatio="xMinYMin meet" x="179.5" y="-166.7"/>
<text text-anchor="start" x="194.5" y="-156.8" font-family="Helvetica,sans-Serif" font-size="11.00" fill="#000000">subtype</text>
<polygon fill="none" stroke="#000000" points="295.5,-149.7 295.5,-171.7 389.5,-171.7 389.5,-149.7 295.5,-149.7"/>
<text text-anchor="start" x="298.4758" y="-157.4" font-family="Helvetica,sans-Serif" font-size="11.00" fill="#000000">uuid[2147483647]</text>
<polygon fill="#ffffff" stroke="transparent" points="174.5,-127.7 174.5,-149.7 295.5,-149.7 295.5,-127.7 174.5,-127.7"/>
<polygon fill="none" stroke="#000000" points="174.5,-127.7 174.5,-149.7 295.5,-149.7 295.5,-127.7 174.5,-127.7"/>
<text text-anchor="start" x="194.5" y="-134.8" font-family="Helvetica,sans-Serif" font-size="11.00" fill="#000000">index</text>
<polygon fill="none" stroke="#000000" points="295.5,-127.7 295.5,-149.7 389.5,-149.7 389.5,-127.7 295.5,-127.7"/>
<text text-anchor="start" x="298.5" y="-135.4" font-family="Helvetica,sans-Serif" font-size="11.00" fill="#000000">int4[10]</text>
<polygon fill="none" stroke="#000000" points="174.5,-105.7 174.5,-127.7 295.5,-127.7 295.5,-105.7 174.5,-105.7"/>
<text text-anchor="start" x="194.5" y="-112.8" font-family="Helvetica,sans-Serif" font-size="11.00" fill="#000000">color</text>
<polygon fill="none" stroke="#000000" points="295.5,-105.7 295.5,-127.7 389.5,-127.7 389.5,-105.7 295.5,-105.7"/>
<text text-anchor="start" x="298.5" y="-113.4" font-family="Helvetica,sans-Serif" font-size="11.00" fill="#000000">varchar[50]</text>
<polygon fill="#ffffff" stroke="transparent" points="174.5,-86.7 174.5,-105.7 226.5,-105.7 226.5,-86.7 174.5,-86.7"/>
<polygon fill="none" stroke="#000000" points="174.5,-86.7 174.5,-105.7 226.5,-105.7 226.5,-86.7 174.5,-86.7"/>
<text text-anchor="start" x="177.5" y="-92.8" font-family="Helvetica,sans-Serif" font-size="11.00" fill="#000000">&lt; 2</text>
<polygon fill="#ffffff" stroke="transparent" points="226.5,-86.7 226.5,-105.7 295.5,-105.7 295.5,-86.7 226.5,-86.7"/>
<polygon fill="none" stroke="#000000" points="226.5,-86.7 226.5,-105.7 295.5,-105.7 295.5,-86.7 226.5,-86.7"/>
<text text-anchor="start" x="260.1105" y="-92.8" font-family="Helvetica,sans-Serif" font-size="11.00" fill="#000000">5 rows</text>
<polygon fill="#ffffff" stroke="transparent" points="295.5,-86.7 295.5,-105.7 389.5,-105.7 389.5,-86.7 295.5,-86.7"/>
<polygon fill="none" stroke="#000000" points="295.5,-86.7 295.5,-105.7 389.5,-105.7 389.5,-86.7 295.5,-86.7"/>
<text text-anchor="start" x="370.9053" y="-92.8" font-family="Helvetica,sans-Serif" font-size="11.00" fill="#000000">1 &gt;</text>
<polygon fill="none" stroke="#000000" stroke-width="2" points="173,-85.7 173,-239.7 390,-239.7 390,-85.7 173,-85.7"/>
</a>
</g>
</g>
<!-- group_note -->
<g id="node2" class="node">
<title>group_note</title>
<g id="a_node2"><a xlink:href="../../tables/group_note.html" xlink:title="group_note" target="_top">
<polygon fill="#ffffff" stroke="transparent" points="8,-164.2 8,-269.2 123,-269.2 123,-164.2 8,-164.2"/>
<polygon fill="#f5f5f5" stroke="transparent" points="8.5,-245.7 8.5,-268.7 123.5,-268.7 123.5,-245.7 8.5,-245.7"/>
<polygon fill="none" stroke="#000000" points="8.5,-245.7 8.5,-268.7 123.5,-268.7 123.5,-245.7 8.5,-245.7"/>
<text text-anchor="start" x="13.5" y="-254.3" font-family="Helvetica,sans-Serif" font-weight="bold" font-size="11.00" fill="#000000">group_note</text>
<text text-anchor="start" x="89.0219" y="-253.8" font-family="Helvetica,sans-Serif" font-size="11.00" fill="#000000">[table]</text>
<polygon fill="none" stroke="#000000" points="8.5,-223.7 8.5,-245.7 123.5,-245.7 123.5,-223.7 8.5,-223.7"/>
<image xlink:href="../../images/primaryKeys.png" width="11px" height="12px" preserveAspectRatio="xMinYMin meet" x="13.5" y="-240.7"/>
<text text-anchor="start" x="37.5" y="-230.8" font-family="Helvetica,sans-Serif" font-size="11.00" fill="#000000">id</text>
<polygon fill="#ffffff" stroke="transparent" points="8.5,-201.7 8.5,-223.7 123.5,-223.7 123.5,-201.7 8.5,-201.7"/>
<polygon fill="none" stroke="#000000" points="8.5,-201.7 8.5,-223.7 123.5,-223.7 123.5,-201.7 8.5,-201.7"/>
<text text-anchor="start" x="37.5" y="-208.8" font-family="Helvetica,sans-Serif" font-size="11.00" fill="#000000">name</text>
<polygon fill="none" stroke="#000000" points="8.5,-182.7 8.5,-201.7 123.5,-201.7 123.5,-182.7 8.5,-182.7"/>
<text text-anchor="start" x="11.5" y="-188.8" font-family="Helvetica,sans-Serif" font-size="11.00" fill="#000000">...</text>
<polygon fill="#ffffff" stroke="transparent" points="8.5,-163.7 8.5,-182.7 55.5,-182.7 55.5,-163.7 8.5,-163.7"/>
<polygon fill="none" stroke="#000000" points="8.5,-163.7 8.5,-182.7 55.5,-182.7 55.5,-163.7 8.5,-163.7"/>
<text text-anchor="start" x="11.5" y="-169.8" font-family="Helvetica,sans-Serif" font-size="11.00" fill="#000000"> &#160;</text>
<polygon fill="#ffffff" stroke="transparent" points="55.5,-163.7 55.5,-182.7 84.5,-182.7 84.5,-163.7 55.5,-163.7"/>
<polygon fill="none" stroke="#000000" points="55.5,-163.7 55.5,-182.7 84.5,-182.7 84.5,-163.7 55.5,-163.7"/>
<text text-anchor="start" x="75.3862" y="-169.8" font-family="Helvetica,sans-Serif" font-size="11.00" fill="#000000"> &#160;</text>
<polygon fill="#ffffff" stroke="transparent" points="84.5,-163.7 84.5,-182.7 123.5,-182.7 123.5,-163.7 84.5,-163.7"/>
<polygon fill="none" stroke="#000000" points="84.5,-163.7 84.5,-182.7 123.5,-182.7 123.5,-163.7 84.5,-163.7"/>
<text text-anchor="start" x="104.9053" y="-169.8" font-family="Helvetica,sans-Serif" font-size="11.00" fill="#000000">2 &gt;</text>
</a>
</g>
</g>
<!-- group_subtype&#45;&gt;group_note -->
<g id="edge1" class="edge">
<title>group_subtype:w&#45;&gt;group_note:e</title>
<path fill="none" stroke="#000000" d="M160.5468,-187.4988C145.661,-200.3719 149.8017,-234.7 123.5,-234.7"/>
<polygon fill="#000000" stroke="#000000" points="166.9349,-185.3018 175.6708,-186.1043 170.7175,-184.0009 174.5,-182.7 174.5,-182.7 174.5,-182.7 170.7175,-184.0009 173.3292,-179.2957 166.9349,-185.3018 166.9349,-185.3018"/>
<ellipse fill="none" stroke="#000000" cx="163.9089" cy="-186.3426" rx="3.2" ry="3.2"/>
</g>
<!-- subtype -->
<g id="node3" class="node">
<title>subtype</title>
<g id="a_node3"><a xlink:href="../../tables/subtype.html" xlink:title="subtype" target="_top">
<polygon fill="#ffffff" stroke="transparent" points="19,-38.2 19,-143.2 112,-143.2 112,-38.2 19,-38.2"/>
<polygon fill="#f5f5f5" stroke="transparent" points="19.5,-119.7 19.5,-142.7 112.5,-142.7 112.5,-119.7 19.5,-119.7"/>
<polygon fill="none" stroke="#000000" points="19.5,-119.7 19.5,-142.7 112.5,-142.7 112.5,-119.7 19.5,-119.7"/>
<text text-anchor="start" x="24.5" y="-128.3" font-family="Helvetica,sans-Serif" font-weight="bold" font-size="11.00" fill="#000000">subtype</text>
<text text-anchor="start" x="78.0219" y="-127.8" font-family="Helvetica,sans-Serif" font-size="11.00" fill="#000000">[table]</text>
<polygon fill="none" stroke="#000000" points="19.5,-97.7 19.5,-119.7 112.5,-119.7 112.5,-97.7 19.5,-97.7"/>
<image xlink:href="../../images/primaryKeys.png" width="11px" height="12px" preserveAspectRatio="xMinYMin meet" x="24.5" y="-114.7"/>
<text text-anchor="start" x="48.5" y="-104.8" font-family="Helvetica,sans-Serif" font-size="11.00" fill="#000000">id</text>
<polygon fill="#ffffff" stroke="transparent" points="19.5,-75.7 19.5,-97.7 112.5,-97.7 112.5,-75.7 19.5,-75.7"/>
<polygon fill="none" stroke="#000000" points="19.5,-75.7 19.5,-97.7 112.5,-97.7 112.5,-75.7 19.5,-75.7"/>
<text text-anchor="start" x="48.5" y="-82.8" font-family="Helvetica,sans-Serif" font-size="11.00" fill="#000000">name</text>
<polygon fill="none" stroke="#000000" points="19.5,-56.7 19.5,-75.7 112.5,-75.7 112.5,-56.7 19.5,-56.7"/>
<text text-anchor="start" x="22.5" y="-62.8" font-family="Helvetica,sans-Serif" font-size="11.00" fill="#000000">...</text>
<polygon fill="#ffffff" stroke="transparent" points="19.5,-37.7 19.5,-56.7 42.5,-56.7 42.5,-37.7 19.5,-37.7"/>
<polygon fill="none" stroke="#000000" points="19.5,-37.7 19.5,-56.7 42.5,-56.7 42.5,-37.7 19.5,-37.7"/>
<text text-anchor="start" x="22.5" y="-43.8" font-family="Helvetica,sans-Serif" font-size="11.00" fill="#000000"> &#160;</text>
<polygon fill="#ffffff" stroke="transparent" points="42.5,-37.7 42.5,-56.7 85.5,-56.7 85.5,-37.7 42.5,-37.7"/>
<polygon fill="none" stroke="#000000" points="42.5,-37.7 42.5,-56.7 85.5,-56.7 85.5,-37.7 42.5,-37.7"/>
<text text-anchor="start" x="50.1105" y="-43.8" font-family="Helvetica,sans-Serif" font-size="11.00" fill="#000000">9 rows</text>
<polygon fill="#ffffff" stroke="transparent" points="85.5,-37.7 85.5,-56.7 112.5,-56.7 112.5,-37.7 85.5,-37.7"/>
<polygon fill="none" stroke="#000000" points="85.5,-37.7 85.5,-56.7 112.5,-56.7 112.5,-37.7 85.5,-37.7"/>
<text text-anchor="start" x="93.9053" y="-43.8" font-family="Helvetica,sans-Serif" font-size="11.00" fill="#000000">2 &gt;</text>
</a>
</g>
</g>
<!-- group_subtype&#45;&gt;subtype -->
<g id="edge2" class="edge">
<title>group_subtype:w&#45;&gt;subtype:e</title>
<path fill="none" stroke="#000000" d="M160.3747,-157.1258C140.5388,-145.3776 142.7044,-108.7 112.5,-108.7"/>
<polygon fill="#000000" stroke="#000000" points="166.7444,-158.7375 173.6169,-164.19 170.6222,-159.7188 174.5,-160.7 174.5,-160.7 174.5,-160.7 170.6222,-159.7188 175.3831,-157.21 166.7444,-158.7375 166.7444,-158.7375"/>
<ellipse fill="none" stroke="#000000" cx="163.6422" cy="-157.9526" rx="3.2" ry="3.2"/>
</g>
<!-- subtype_note_group -->
<g id="node4" class="node">
<title>subtype_note_group</title>
<g id="a_node4"><a xlink:href="../../tables/subtype_note_group.html" xlink:title="subtype_note_group" target="_top">
<polygon fill="#ffffff" stroke="transparent" points="440,-152.7 440,-260.7 616,-260.7 616,-152.7 440,-152.7"/>
<polygon fill="#f5f5f5" stroke="transparent" points="440,-237.7 440,-260.7 616,-260.7 616,-237.7 440,-237.7"/>
<polygon fill="none" stroke="#000000" points="440,-237.7 440,-260.7 616,-260.7 616,-237.7 440,-237.7"/>
<text text-anchor="start" x="445" y="-246.3" font-family="Helvetica,sans-Serif" font-weight="bold" font-size="11.00" fill="#000000">subtype_note_group</text>
<text text-anchor="start" x="581.5219" y="-245.8" font-family="Helvetica,sans-Serif" font-size="11.00" fill="#000000">[table]</text>
<polygon fill="none" stroke="#000000" points="440,-215.7 440,-237.7 616,-237.7 616,-215.7 440,-215.7"/>
<image xlink:href="../../images/primaryKeys.png" width="11px" height="12px" preserveAspectRatio="xMinYMin meet" x="445" y="-232.7"/>
<text text-anchor="start" x="469" y="-222.8" font-family="Helvetica,sans-Serif" font-size="11.00" fill="#000000">id</text>
<polygon fill="#ffffff" stroke="transparent" points="440,-193.7 440,-215.7 616,-215.7 616,-193.7 440,-193.7"/>
<polygon fill="none" stroke="#000000" points="440,-193.7 440,-215.7 616,-215.7 616,-193.7 440,-193.7"/>
<image xlink:href="../../images/foreignKeys.png" width="11px" height="12px" preserveAspectRatio="xMinYMin meet" x="445" y="-210.7"/>
<text text-anchor="start" x="469" y="-200.8" font-family="Helvetica,sans-Serif" font-size="11.00" fill="#000000">subtype_group</text>
<polygon fill="none" stroke="#000000" points="440,-171.7 440,-193.7 616,-193.7 616,-171.7 440,-171.7"/>
<image xlink:href="../../images/foreignKeys.png" width="11px" height="12px" preserveAspectRatio="xMinYMin meet" x="445" y="-188.7"/>
<text text-anchor="start" x="469" y="-178.8" font-family="Helvetica,sans-Serif" font-size="11.00" fill="#000000">note</text>
<polygon fill="#ffffff" stroke="transparent" points="440,-152.7 440,-171.7 510,-171.7 510,-152.7 440,-152.7"/>
<polygon fill="none" stroke="#000000" points="440,-152.7 440,-171.7 510,-171.7 510,-152.7 440,-152.7"/>
<text text-anchor="start" x="443" y="-158.8" font-family="Helvetica,sans-Serif" font-size="11.00" fill="#000000">&lt; 2</text>
<polygon fill="#ffffff" stroke="transparent" points="510,-152.7 510,-171.7 579,-171.7 579,-152.7 510,-152.7"/>
<polygon fill="none" stroke="#000000" points="510,-152.7 510,-171.7 579,-171.7 579,-152.7 510,-152.7"/>
<text text-anchor="start" x="537.4956" y="-158.8" font-family="Helvetica,sans-Serif" font-size="11.00" fill="#000000">31 rows</text>
<polygon fill="#ffffff" stroke="transparent" points="579,-152.7 579,-171.7 616,-171.7 616,-152.7 579,-152.7"/>
<polygon fill="none" stroke="#000000" points="579,-152.7 579,-171.7 616,-171.7 616,-152.7 579,-152.7"/>
<text text-anchor="start" x="606.8862" y="-158.8" font-family="Helvetica,sans-Serif" font-size="11.00" fill="#000000"> &#160;</text>
</a>
</g>
</g>
<!-- subtype_note_group&#45;&gt;group_subtype -->
<g id="edge3" class="edge">
<title>subtype_note_group:w&#45;&gt;group_subtype:e</title>
<path fill="none" stroke="#000000" d="M425.4203,-204.7C413.5435,-204.7 406.158,-204.7 389.5,-204.7"/>
<polygon fill="#000000" stroke="#000000" points="432,-204.7001 440,-208.3 436,-204.7 440,-204.7 440,-204.7 440,-204.7 436,-204.7 440,-201.1 432,-204.7001 432,-204.7001"/>
<ellipse fill="none" stroke="#000000" cx="428.8" cy="-204.7001" rx="3.2" ry="3.2"/>
</g>
</g>
</svg>
