<?xml version="1.0" encoding="UTF-8" standalone="no"?>
<!DOCTYPE svg PUBLIC "-//W3C//DTD SVG 1.1//EN"
 "http://www.w3.org/Graphics/SVG/1.1/DTD/svg11.dtd">
<!-- Generated by graphviz version 2.40.1 (20161225.0304)
 -->
<!-- Title: oneDegreeRelationshipsDiagram Pages: 1 -->
<svg width="408pt" height="281pt"
 viewBox="0.00 0.00 408.00 281.20" xmlns="http://www.w3.org/2000/svg" xmlns:xlink="http://www.w3.org/1999/xlink">
<g id="graph0" class="graph" transform="scale(1 1) rotate(0) translate(4 277.2)">
<title>oneDegreeRelationshipsDiagram</title>
<polygon fill="#ffffff" stroke="transparent" points="-4,4 -4,-277.2 404,-277.2 404,4 -4,4"/>
<text text-anchor="middle" x="72.4936" y="-7.3" font-family="Helvetica,sans-Serif" font-size="11.00" fill="#000000">Generated by SchemaSpy</text>
<!-- group_member -->
<g id="node1" class="node">
<title>group_member</title>
<g id="a_node1"><a xlink:href="../../tables/group_member.html" xlink:title="group_member" target="_top">
<polygon fill="#ffffff" stroke="transparent" points="172,-40.7 172,-240.7 392,-240.7 392,-40.7 172,-40.7"/>
<polygon fill="#f5f5f5" stroke="transparent" points="174,-215.7 174,-238.7 390,-238.7 390,-215.7 174,-215.7"/>
<polygon fill="none" stroke="#000000" points="174,-215.7 174,-238.7 390,-238.7 390,-215.7 174,-215.7"/>
<text text-anchor="start" x="179" y="-224.3" font-family="Helvetica,sans-Serif" font-weight="bold" font-size="11.00" fill="#000000">group_member</text>
<text text-anchor="start" x="355.0437" y="-223.8" font-family="Helvetica,sans-Serif" font-size="11.00" fill="#000000">[table]</text>
<polygon fill="none" stroke="#000000" points="174,-193.7 174,-215.7 296,-215.7 296,-193.7 174,-193.7"/>
<image xlink:href="../../images/primaryKeys.png" width="11px" height="12px" preserveAspectRatio="xMinYMin meet" x="179" y="-210.7"/>
<text text-anchor="start" x="194" y="-200.8" font-family="Helvetica,sans-Serif" font-size="11.00" fill="#000000">id</text>
<polygon fill="none" stroke="#000000" points="296,-193.7 296,-215.7 390,-215.7 390,-193.7 296,-193.7"/>
<text text-anchor="start" x="299" y="-201.4" font-family="Helvetica,sans-Serif" font-size="11.00" fill="#000000">bigserial[19]</text>
<polygon fill="#ffffff" stroke="transparent" points="174,-171.7 174,-193.7 296,-193.7 296,-171.7 174,-171.7"/>
<polygon fill="none" stroke="#000000" points="174,-171.7 174,-193.7 296,-193.7 296,-171.7 174,-171.7"/>
<image xlink:href="../../images/foreignKeys.png" width="11px" height="12px" preserveAspectRatio="xMinYMin meet" x="179" y="-188.7"/>
<text text-anchor="start" x="194" y="-178.8" font-family="Helvetica,sans-Serif" font-size="11.00" fill="#000000">group_note</text>
<polygon fill="none" stroke="#000000" points="296,-171.7 296,-193.7 390,-193.7 390,-171.7 296,-171.7"/>
<text text-anchor="start" x="298.9758" y="-179.4" font-family="Helvetica,sans-Serif" font-size="11.00" fill="#000000">uuid[2147483647]</text>
<polygon fill="#ffffff" stroke="transparent" points="174,-149.7 174,-171.7 296,-171.7 296,-149.7 174,-149.7"/>
<polygon fill="none" stroke="#000000" points="174,-149.7 174,-171.7 296,-171.7 296,-149.7 174,-149.7"/>
<image xlink:href="../../images/foreignKeys.png" width="11px" height="12px" preserveAspectRatio="xMinYMin meet" x="179" y="-166.7"/>
<text text-anchor="start" x="194" y="-156.8" font-family="Helvetica,sans-Serif" font-size="11.00" fill="#000000">member</text>
<polygon fill="none" stroke="#000000" points="296,-149.7 296,-171.7 390,-171.7 390,-149.7 296,-149.7"/>
<text text-anchor="start" x="298.9758" y="-157.4" font-family="Helvetica,sans-Serif" font-size="11.00" fill="#000000">uuid[2147483647]</text>
<polygon fill="none" stroke="#000000" points="174,-127.7 174,-149.7 296,-149.7 296,-127.7 174,-127.7"/>
<text text-anchor="start" x="194" y="-134.8" font-family="Helvetica,sans-Serif" font-size="11.00" fill="#000000">role</text>
<polygon fill="none" stroke="#000000" points="296,-127.7 296,-149.7 390,-149.7 390,-127.7 296,-127.7"/>
<text text-anchor="start" x="299" y="-135.4" font-family="Helvetica,sans-Serif" font-size="11.00" fill="#000000">varchar[255]</text>
<polygon fill="none" stroke="#000000" points="174,-105.7 174,-127.7 296,-127.7 296,-105.7 174,-105.7"/>
<text text-anchor="start" x="194" y="-112.8" font-family="Helvetica,sans-Serif" font-size="11.00" fill="#000000">isconfirmed</text>
<polygon fill="none" stroke="#000000" points="296,-105.7 296,-127.7 390,-127.7 390,-105.7 296,-105.7"/>
<text text-anchor="start" x="299" y="-113.4" font-family="Helvetica,sans-Serif" font-size="11.00" fill="#000000">int4[10]</text>
<polygon fill="none" stroke="#000000" points="174,-83.7 174,-105.7 296,-105.7 296,-83.7 174,-83.7"/>
<text text-anchor="start" x="194" y="-90.8" font-family="Helvetica,sans-Serif" font-size="11.00" fill="#000000">isdeleted</text>
<polygon fill="none" stroke="#000000" points="296,-83.7 296,-105.7 390,-105.7 390,-83.7 296,-83.7"/>
<text text-anchor="start" x="299" y="-91.4" font-family="Helvetica,sans-Serif" font-size="11.00" fill="#000000">int4[10]</text>
<polygon fill="none" stroke="#000000" points="174,-61.7 174,-83.7 296,-83.7 296,-61.7 174,-61.7"/>
<text text-anchor="start" x="194" y="-68.8" font-family="Helvetica,sans-Serif" font-size="11.00" fill="#000000">userfrom</text>
<polygon fill="none" stroke="#000000" points="296,-61.7 296,-83.7 390,-83.7 390,-61.7 296,-61.7"/>
<text text-anchor="start" x="298.9758" y="-69.4" font-family="Helvetica,sans-Serif" font-size="11.00" fill="#000000">uuid[2147483647]</text>
<polygon fill="#ffffff" stroke="transparent" points="174,-42.7 174,-61.7 226,-61.7 226,-42.7 174,-42.7"/>
<polygon fill="none" stroke="#000000" points="174,-42.7 174,-61.7 226,-61.7 226,-42.7 174,-42.7"/>
<text text-anchor="start" x="177" y="-48.8" font-family="Helvetica,sans-Serif" font-size="11.00" fill="#000000">&lt; 2</text>
<polygon fill="#ffffff" stroke="transparent" points="226,-42.7 226,-61.7 296,-61.7 296,-42.7 226,-42.7"/>
<polygon fill="none" stroke="#000000" points="226,-42.7 226,-61.7 296,-61.7 296,-42.7 226,-42.7"/>
<text text-anchor="start" x="260.6105" y="-48.8" font-family="Helvetica,sans-Serif" font-size="11.00" fill="#000000">7 rows</text>
<polygon fill="#ffffff" stroke="transparent" points="296,-42.7 296,-61.7 390,-61.7 390,-42.7 296,-42.7"/>
<polygon fill="none" stroke="#000000" points="296,-42.7 296,-61.7 390,-61.7 390,-42.7 296,-42.7"/>
<text text-anchor="start" x="371.4053" y="-48.8" font-family="Helvetica,sans-Serif" font-size="11.00" fill="#000000">0 &gt;</text>
<polygon fill="none" stroke="#000000" stroke-width="2" points="173,-41.7 173,-239.7 391,-239.7 391,-41.7 173,-41.7"/>
</a>
</g>
</g>
<!-- group_note -->
<g id="node2" class="node">
<title>group_note</title>
<g id="a_node2"><a xlink:href="../../tables/group_note.html" xlink:title="group_note" target="_top">
<polygon fill="#ffffff" stroke="transparent" points="8,-164.2 8,-269.2 123,-269.2 123,-164.2 8,-164.2"/>
<polygon fill="#f5f5f5" stroke="transparent" points="8.5,-245.7 8.5,-268.7 123.5,-268.7 123.5,-245.7 8.5,-245.7"/>
<polygon fill="none" stroke="#000000" points="8.5,-245.7 8.5,-268.7 123.5,-268.7 123.5,-245.7 8.5,-245.7"/>
<text text-anchor="start" x="13.5" y="-254.3" font-family="Helvetica,sans-Serif" font-weight="bold" font-size="11.00" fill="#000000">group_note</text>
<text text-anchor="start" x="89.0219" y="-253.8" font-family="Helvetica,sans-Serif" font-size="11.00" fill="#000000">[table]</text>
<polygon fill="none" stroke="#000000" points="8.5,-223.7 8.5,-245.7 123.5,-245.7 123.5,-223.7 8.5,-223.7"/>
<image xlink:href="../../images/primaryKeys.png" width="11px" height="12px" preserveAspectRatio="xMinYMin meet" x="13.5" y="-240.7"/>
<text text-anchor="start" x="37.5" y="-230.8" font-family="Helvetica,sans-Serif" font-size="11.00" fill="#000000">id</text>
<polygon fill="#ffffff" stroke="transparent" points="8.5,-201.7 8.5,-223.7 123.5,-223.7 123.5,-201.7 8.5,-201.7"/>
<polygon fill="none" stroke="#000000" points="8.5,-201.7 8.5,-223.7 123.5,-223.7 123.5,-201.7 8.5,-201.7"/>
<text text-anchor="start" x="37.5" y="-208.8" font-family="Helvetica,sans-Serif" font-size="11.00" fill="#000000">name</text>
<polygon fill="none" stroke="#000000" points="8.5,-182.7 8.5,-201.7 123.5,-201.7 123.5,-182.7 8.5,-182.7"/>
<text text-anchor="start" x="11.5" y="-188.8" font-family="Helvetica,sans-Serif" font-size="11.00" fill="#000000">...</text>
<polygon fill="#ffffff" stroke="transparent" points="8.5,-163.7 8.5,-182.7 55.5,-182.7 55.5,-163.7 8.5,-163.7"/>
<polygon fill="none" stroke="#000000" points="8.5,-163.7 8.5,-182.7 55.5,-182.7 55.5,-163.7 8.5,-163.7"/>
<text text-anchor="start" x="11.5" y="-169.8" font-family="Helvetica,sans-Serif" font-size="11.00" fill="#000000"> &#160;</text>
<polygon fill="#ffffff" stroke="transparent" points="55.5,-163.7 55.5,-182.7 84.5,-182.7 84.5,-163.7 55.5,-163.7"/>
<polygon fill="none" stroke="#000000" points="55.5,-163.7 55.5,-182.7 84.5,-182.7 84.5,-163.7 55.5,-163.7"/>
<text text-anchor="start" x="75.3862" y="-169.8" font-family="Helvetica,sans-Serif" font-size="11.00" fill="#000000"> &#160;</text>
<polygon fill="#ffffff" stroke="transparent" points="84.5,-163.7 84.5,-182.7 123.5,-182.7 123.5,-163.7 84.5,-163.7"/>
<polygon fill="none" stroke="#000000" points="84.5,-163.7 84.5,-182.7 123.5,-182.7 123.5,-163.7 84.5,-163.7"/>
<text text-anchor="start" x="104.9053" y="-169.8" font-family="Helvetica,sans-Serif" font-size="11.00" fill="#000000">2 &gt;</text>
</a>
</g>
</g>
<!-- group_member&#45;&gt;group_note -->
<g id="edge1" class="edge">
<title>group_member:w&#45;&gt;group_note:e</title>
<path fill="none" stroke="#000000" d="M160.1372,-187.4988C145.3861,-200.3719 149.6756,-234.7 123.5,-234.7"/>
<polygon fill="#000000" stroke="#000000" points="166.4401,-185.317 175.1777,-186.1019 170.2201,-184.0085 174,-182.7 174,-182.7 174,-182.7 170.2201,-184.0085 172.8223,-179.2981 166.4401,-185.317 166.4401,-185.317"/>
<ellipse fill="none" stroke="#000000" cx="163.4162" cy="-186.3638" rx="3.2" ry="3.2"/>
</g>
<!-- member -->
<g id="node3" class="node">
<title>member</title>
<g id="a_node3"><a xlink:href="../../tables/member.html" xlink:title="member" target="_top">
<polygon fill="#ffffff" stroke="transparent" points="18.5,-38.2 18.5,-143.2 112.5,-143.2 112.5,-38.2 18.5,-38.2"/>
<polygon fill="#f5f5f5" stroke="transparent" points="18.5,-119.7 18.5,-142.7 112.5,-142.7 112.5,-119.7 18.5,-119.7"/>
<polygon fill="none" stroke="#000000" points="18.5,-119.7 18.5,-142.7 112.5,-142.7 112.5,-119.7 18.5,-119.7"/>
<text text-anchor="start" x="23.5" y="-128.3" font-family="Helvetica,sans-Serif" font-weight="bold" font-size="11.00" fill="#000000">member</text>
<text text-anchor="start" x="78.0219" y="-127.8" font-family="Helvetica,sans-Serif" font-size="11.00" fill="#000000">[table]</text>
<polygon fill="none" stroke="#000000" points="18.5,-97.7 18.5,-119.7 112.5,-119.7 112.5,-97.7 18.5,-97.7"/>
<image xlink:href="../../images/primaryKeys.png" width="11px" height="12px" preserveAspectRatio="xMinYMin meet" x="23.5" y="-114.7"/>
<text text-anchor="start" x="43.5" y="-104.8" font-family="Helvetica,sans-Serif" font-size="11.00" fill="#000000">id</text>
<polygon fill="#ffffff" stroke="transparent" points="18.5,-75.7 18.5,-97.7 112.5,-97.7 112.5,-75.7 18.5,-75.7"/>
<polygon fill="none" stroke="#000000" points="18.5,-75.7 18.5,-97.7 112.5,-97.7 112.5,-75.7 18.5,-75.7"/>
<text text-anchor="start" x="43.5" y="-82.8" font-family="Helvetica,sans-Serif" font-size="11.00" fill="#000000">name</text>
<polygon fill="none" stroke="#000000" points="18.5,-56.7 18.5,-75.7 112.5,-75.7 112.5,-56.7 18.5,-56.7"/>
<text text-anchor="start" x="21.5" y="-62.8" font-family="Helvetica,sans-Serif" font-size="11.00" fill="#000000">...</text>
<polygon fill="#ffffff" stroke="transparent" points="18.5,-37.7 18.5,-56.7 44.5,-56.7 44.5,-37.7 18.5,-37.7"/>
<polygon fill="none" stroke="#000000" points="18.5,-37.7 18.5,-56.7 44.5,-56.7 44.5,-37.7 18.5,-37.7"/>
<text text-anchor="start" x="21.5" y="-43.8" font-family="Helvetica,sans-Serif" font-size="11.00" fill="#000000"> &#160;</text>
<polygon fill="#ffffff" stroke="transparent" points="44.5,-37.7 44.5,-56.7 83.5,-56.7 83.5,-37.7 44.5,-37.7"/>
<polygon fill="none" stroke="#000000" points="44.5,-37.7 44.5,-56.7 83.5,-56.7 83.5,-37.7 44.5,-37.7"/>
<text text-anchor="start" x="53.6105" y="-43.8" font-family="Helvetica,sans-Serif" font-size="11.00" fill="#000000">1 row</text>
<polygon fill="#ffffff" stroke="transparent" points="83.5,-37.7 83.5,-56.7 112.5,-56.7 112.5,-37.7 83.5,-37.7"/>
<polygon fill="none" stroke="#000000" points="83.5,-37.7 83.5,-56.7 112.5,-56.7 112.5,-37.7 83.5,-37.7"/>
<text text-anchor="start" x="93.9053" y="-43.8" font-family="Helvetica,sans-Serif" font-size="11.00" fill="#000000">4 &gt;</text>
</a>
</g>
</g>
<!-- group_member&#45;&gt;member -->
<g id="edge2" class="edge">
<title>group_member:w&#45;&gt;member:e</title>
<path fill="none" stroke="#000000" d="M159.9557,-157.1258C140.2603,-145.3776 142.5617,-108.7 112.5,-108.7"/>
<polygon fill="#000000" stroke="#000000" points="166.2471,-158.7269 173.1121,-164.1888 170.1236,-159.7135 174,-160.7 174,-160.7 174,-160.7 170.1236,-159.7135 174.8879,-157.2112 166.2471,-158.7269 166.2471,-158.7269"/>
<ellipse fill="none" stroke="#000000" cx="163.146" cy="-157.9377" rx="3.2" ry="3.2"/>
</g>
</g>
</svg>
