<?xml version="1.0" encoding="UTF-8" standalone="no"?>
<!DOCTYPE svg PUBLIC "-//W3C//DTD SVG 1.1//EN"
 "http://www.w3.org/Graphics/SVG/1.1/DTD/svg11.dtd">
<!-- Generated by graphviz version 2.40.1 (20161225.0304)
 -->
<!-- Title: twoDegreesRelationshipsDiagram Pages: 1 -->
<svg width="633pt" height="381pt"
 viewBox="0.00 0.00 633.00 381.20" xmlns="http://www.w3.org/2000/svg" xmlns:xlink="http://www.w3.org/1999/xlink">
<g id="graph0" class="graph" transform="scale(1 1) rotate(0) translate(4 377.2)">
<title>twoDegreesRelationshipsDiagram</title>
<polygon fill="#ffffff" stroke="transparent" points="-4,4 -4,-377.2 629,-377.2 629,4 -4,4"/>
<text text-anchor="middle" x="72.4936" y="-7.3" font-family="Helvetica,sans-Serif" font-size="11.00" fill="#000000">Generated by SchemaSpy</text>
<!-- group_member -->
<g id="node1" class="node">
<title>group_member</title>
<g id="a_node1"><a xlink:href="../../tables/group_member.html" xlink:title="group_member" target="_top">
<polygon fill="#ffffff" stroke="transparent" points="252,-38.2 252,-165.2 392,-165.2 392,-38.2 252,-38.2"/>
<polygon fill="#f5f5f5" stroke="transparent" points="252,-141.7 252,-164.7 392,-164.7 392,-141.7 252,-141.7"/>
<polygon fill="none" stroke="#000000" points="252,-141.7 252,-164.7 392,-164.7 392,-141.7 252,-141.7"/>
<text text-anchor="start" x="257" y="-150.3" font-family="Helvetica,sans-Serif" font-weight="bold" font-size="11.00" fill="#000000">group_member</text>
<text text-anchor="start" x="357.5219" y="-149.8" font-family="Helvetica,sans-Serif" font-size="11.00" fill="#000000">[table]</text>
<polygon fill="none" stroke="#000000" points="252,-119.7 252,-141.7 392,-141.7 392,-119.7 252,-119.7"/>
<image xlink:href="../../images/primaryKeys.png" width="11px" height="12px" preserveAspectRatio="xMinYMin meet" x="257" y="-136.7"/>
<text text-anchor="start" x="281" y="-126.8" font-family="Helvetica,sans-Serif" font-size="11.00" fill="#000000">id</text>
<polygon fill="#ffffff" stroke="transparent" points="252,-97.7 252,-119.7 392,-119.7 392,-97.7 252,-97.7"/>
<polygon fill="none" stroke="#000000" points="252,-97.7 252,-119.7 392,-119.7 392,-97.7 252,-97.7"/>
<image xlink:href="../../images/foreignKeys.png" width="11px" height="12px" preserveAspectRatio="xMinYMin meet" x="257" y="-114.7"/>
<text text-anchor="start" x="281" y="-104.8" font-family="Helvetica,sans-Serif" font-size="11.00" fill="#000000">group_note</text>
<polygon fill="#ffffff" stroke="transparent" points="252,-75.7 252,-97.7 392,-97.7 392,-75.7 252,-75.7"/>
<polygon fill="none" stroke="#000000" points="252,-75.7 252,-97.7 392,-97.7 392,-75.7 252,-75.7"/>
<image xlink:href="../../images/foreignKeys.png" width="11px" height="12px" preserveAspectRatio="xMinYMin meet" x="257" y="-92.7"/>
<text text-anchor="start" x="281" y="-82.8" font-family="Helvetica,sans-Serif" font-size="11.00" fill="#000000">member</text>
<polygon fill="none" stroke="#000000" points="252,-56.7 252,-75.7 392,-75.7 392,-56.7 252,-56.7"/>
<text text-anchor="start" x="255" y="-62.8" font-family="Helvetica,sans-Serif" font-size="11.00" fill="#000000">...</text>
<polygon fill="#ffffff" stroke="transparent" points="252,-37.7 252,-56.7 307,-56.7 307,-37.7 252,-37.7"/>
<polygon fill="none" stroke="#000000" points="252,-37.7 252,-56.7 307,-56.7 307,-37.7 252,-37.7"/>
<text text-anchor="start" x="255" y="-43.8" font-family="Helvetica,sans-Serif" font-size="11.00" fill="#000000">&lt; 2</text>
<polygon fill="#ffffff" stroke="transparent" points="307,-37.7 307,-56.7 362,-56.7 362,-37.7 307,-37.7"/>
<polygon fill="none" stroke="#000000" points="307,-37.7 307,-56.7 362,-56.7 362,-37.7 307,-37.7"/>
<text text-anchor="start" x="326.6105" y="-43.8" font-family="Helvetica,sans-Serif" font-size="11.00" fill="#000000">7 rows</text>
<polygon fill="#ffffff" stroke="transparent" points="362,-37.7 362,-56.7 392,-56.7 392,-37.7 362,-37.7"/>
<polygon fill="none" stroke="#000000" points="362,-37.7 362,-56.7 392,-56.7 392,-37.7 362,-37.7"/>
<text text-anchor="start" x="382.8862" y="-43.8" font-family="Helvetica,sans-Serif" font-size="11.00" fill="#000000"> &#160;</text>
</a>
</g>
</g>
<!-- group_note -->
<g id="node2" class="node">
<title>group_note</title>
<g id="a_node2"><a xlink:href="../../tables/group_note.html" xlink:title="group_note" target="_top">
<polygon fill="#ffffff" stroke="transparent" points="8,-124.7 8,-258.7 203,-258.7 203,-124.7 8,-124.7"/>
<polygon fill="#f5f5f5" stroke="transparent" points="10.5,-233.7 10.5,-256.7 201.5,-256.7 201.5,-233.7 10.5,-233.7"/>
<polygon fill="none" stroke="#000000" points="10.5,-233.7 10.5,-256.7 201.5,-256.7 201.5,-233.7 10.5,-233.7"/>
<text text-anchor="start" x="15.5" y="-242.3" font-family="Helvetica,sans-Serif" font-weight="bold" font-size="11.00" fill="#000000">group_note</text>
<text text-anchor="start" x="166.5437" y="-241.8" font-family="Helvetica,sans-Serif" font-size="11.00" fill="#000000">[table]</text>
<polygon fill="none" stroke="#000000" points="10.5,-211.7 10.5,-233.7 107.5,-233.7 107.5,-211.7 10.5,-211.7"/>
<image xlink:href="../../images/primaryKeys.png" width="11px" height="12px" preserveAspectRatio="xMinYMin meet" x="15.5" y="-228.7"/>
<text text-anchor="start" x="30.5" y="-218.8" font-family="Helvetica,sans-Serif" font-size="11.00" fill="#000000">id</text>
<polygon fill="none" stroke="#000000" points="107.5,-211.7 107.5,-233.7 201.5,-233.7 201.5,-211.7 107.5,-211.7"/>
<text text-anchor="start" x="110.4758" y="-219.4" font-family="Helvetica,sans-Serif" font-size="11.00" fill="#000000">uuid[2147483647]</text>
<polygon fill="#ffffff" stroke="transparent" points="10.5,-189.7 10.5,-211.7 107.5,-211.7 107.5,-189.7 10.5,-189.7"/>
<polygon fill="none" stroke="#000000" points="10.5,-189.7 10.5,-211.7 107.5,-211.7 107.5,-189.7 10.5,-189.7"/>
<text text-anchor="start" x="30.5" y="-196.8" font-family="Helvetica,sans-Serif" font-size="11.00" fill="#000000">name</text>
<polygon fill="none" stroke="#000000" points="107.5,-189.7 107.5,-211.7 201.5,-211.7 201.5,-189.7 107.5,-189.7"/>
<text text-anchor="start" x="110.5" y="-197.4" font-family="Helvetica,sans-Serif" font-size="11.00" fill="#000000">varchar[255]</text>
<polygon fill="none" stroke="#000000" points="10.5,-167.7 10.5,-189.7 107.5,-189.7 107.5,-167.7 10.5,-167.7"/>
<text text-anchor="start" x="30.5" y="-174.8" font-family="Helvetica,sans-Serif" font-size="11.00" fill="#000000">avatar</text>
<polygon fill="none" stroke="#000000" points="107.5,-167.7 107.5,-189.7 201.5,-189.7 201.5,-167.7 107.5,-167.7"/>
<text text-anchor="start" x="110.5" y="-175.4" font-family="Helvetica,sans-Serif" font-size="11.00" fill="#000000">varchar[255]</text>
<polygon fill="none" stroke="#000000" points="10.5,-145.7 10.5,-167.7 107.5,-167.7 107.5,-145.7 10.5,-145.7"/>
<text text-anchor="start" x="30.5" y="-152.8" font-family="Helvetica,sans-Serif" font-size="11.00" fill="#000000">userfrom</text>
<polygon fill="none" stroke="#000000" points="107.5,-145.7 107.5,-167.7 201.5,-167.7 201.5,-145.7 107.5,-145.7"/>
<text text-anchor="start" x="110.4758" y="-153.4" font-family="Helvetica,sans-Serif" font-size="11.00" fill="#000000">uuid[2147483647]</text>
<polygon fill="#ffffff" stroke="transparent" points="10.5,-126.7 10.5,-145.7 63.5,-145.7 63.5,-126.7 10.5,-126.7"/>
<polygon fill="none" stroke="#000000" points="10.5,-126.7 10.5,-145.7 63.5,-145.7 63.5,-126.7 10.5,-126.7"/>
<text text-anchor="start" x="13.5" y="-132.8" font-family="Helvetica,sans-Serif" font-size="11.00" fill="#000000">&lt; 0</text>
<polygon fill="#ffffff" stroke="transparent" points="63.5,-126.7 63.5,-145.7 107.5,-145.7 107.5,-126.7 63.5,-126.7"/>
<polygon fill="none" stroke="#000000" points="63.5,-126.7 63.5,-145.7 107.5,-145.7 107.5,-126.7 63.5,-126.7"/>
<text text-anchor="start" x="98.3862" y="-132.8" font-family="Helvetica,sans-Serif" font-size="11.00" fill="#000000"> &#160;</text>
<polygon fill="#ffffff" stroke="transparent" points="107.5,-126.7 107.5,-145.7 201.5,-145.7 201.5,-126.7 107.5,-126.7"/>
<polygon fill="none" stroke="#000000" points="107.5,-126.7 107.5,-145.7 201.5,-145.7 201.5,-126.7 107.5,-126.7"/>
<text text-anchor="start" x="182.9053" y="-132.8" font-family="Helvetica,sans-Serif" font-size="11.00" fill="#000000">2 &gt;</text>
<polygon fill="none" stroke="#000000" stroke-width="2" points="9,-125.7 9,-257.7 202,-257.7 202,-125.7 9,-125.7"/>
</a>
</g>
</g>
<!-- group_member&#45;&gt;group_note -->
<g id="edge1" class="edge">
<title>group_member:w&#45;&gt;group_note:e</title>
<path fill="none" stroke="#000000" d="M237.6679,-112.493C208.3973,-132.2737 250.8543,-222.7 201.5,-222.7"/>
<polygon fill="#000000" stroke="#000000" points="244.2662,-110.7468 252.921,-112.1802 248.1331,-109.7234 252,-108.7 252,-108.7 252,-108.7 248.1331,-109.7234 251.079,-105.2198 244.2662,-110.7468 244.2662,-110.7468"/>
<ellipse fill="none" stroke="#000000" cx="241.1727" cy="-111.5655" rx="3.2" ry="3.2"/>
</g>
<!-- member -->
<g id="node3" class="node">
<title>member</title>
<g id="a_node3"><a xlink:href="../../tables/member.html" xlink:title="member" target="_top">
<polygon fill="#ffffff" stroke="transparent" points="58.5,-42.2 58.5,-103.2 152.5,-103.2 152.5,-42.2 58.5,-42.2"/>
<polygon fill="#f5f5f5" stroke="transparent" points="58.5,-79.7 58.5,-102.7 152.5,-102.7 152.5,-79.7 58.5,-79.7"/>
<polygon fill="none" stroke="#000000" points="58.5,-79.7 58.5,-102.7 152.5,-102.7 152.5,-79.7 58.5,-79.7"/>
<text text-anchor="start" x="63.5" y="-88.3" font-family="Helvetica,sans-Serif" font-weight="bold" font-size="11.00" fill="#000000">member</text>
<text text-anchor="start" x="118.0219" y="-87.8" font-family="Helvetica,sans-Serif" font-size="11.00" fill="#000000">[table]</text>
<polygon fill="none" stroke="#000000" points="58.5,-60.7 58.5,-79.7 152.5,-79.7 152.5,-60.7 58.5,-60.7"/>
<text text-anchor="start" x="61.5" y="-66.8" font-family="Helvetica,sans-Serif" font-size="11.00" fill="#000000">...</text>
<polygon fill="#ffffff" stroke="transparent" points="58.5,-41.7 58.5,-60.7 84.5,-60.7 84.5,-41.7 58.5,-41.7"/>
<polygon fill="none" stroke="#000000" points="58.5,-41.7 58.5,-60.7 84.5,-60.7 84.5,-41.7 58.5,-41.7"/>
<text text-anchor="start" x="61.5" y="-47.8" font-family="Helvetica,sans-Serif" font-size="11.00" fill="#000000"> &#160;</text>
<polygon fill="#ffffff" stroke="transparent" points="84.5,-41.7 84.5,-60.7 123.5,-60.7 123.5,-41.7 84.5,-41.7"/>
<polygon fill="none" stroke="#000000" points="84.5,-41.7 84.5,-60.7 123.5,-60.7 123.5,-41.7 84.5,-41.7"/>
<text text-anchor="start" x="93.6105" y="-47.8" font-family="Helvetica,sans-Serif" font-size="11.00" fill="#000000">1 row</text>
<polygon fill="#ffffff" stroke="transparent" points="123.5,-41.7 123.5,-60.7 152.5,-60.7 152.5,-41.7 123.5,-41.7"/>
<polygon fill="none" stroke="#000000" points="123.5,-41.7 123.5,-60.7 152.5,-60.7 152.5,-41.7 123.5,-41.7"/>
<text text-anchor="start" x="133.9053" y="-47.8" font-family="Helvetica,sans-Serif" font-size="11.00" fill="#000000">4 &gt;</text>
</a>
</g>
</g>
<!-- group_member&#45;&gt;member -->
<g id="edge2" class="edge">
<title>group_member:w&#45;&gt;member:e</title>
<path fill="none" stroke="#000000" d="M237.5605,-86.0543C204.3643,-82.9491 192.1056,-69.7 152.5,-69.7"/>
<polygon fill="#000000" stroke="#000000" points="244.008,-86.3426 251.8392,-90.2964 248.004,-86.5213 252,-86.7 252,-86.7 252,-86.7 248.004,-86.5213 252.1608,-83.1036 244.008,-86.3426 244.008,-86.3426"/>
<ellipse fill="none" stroke="#000000" cx="240.8112" cy="-86.1996" rx="3.2" ry="3.2"/>
</g>
<!-- group_subtype -->
<g id="node4" class="node">
<title>group_subtype</title>
<g id="a_node4"><a xlink:href="../../tables/group_subtype.html" xlink:title="group_subtype" target="_top">
<polygon fill="#ffffff" stroke="transparent" points="252.5,-220.2 252.5,-369.2 391.5,-369.2 391.5,-220.2 252.5,-220.2"/>
<polygon fill="#f5f5f5" stroke="transparent" points="253,-345.7 253,-368.7 392,-368.7 392,-345.7 253,-345.7"/>
<polygon fill="none" stroke="#000000" points="253,-345.7 253,-368.7 392,-368.7 392,-345.7 253,-345.7"/>
<text text-anchor="start" x="258" y="-354.3" font-family="Helvetica,sans-Serif" font-weight="bold" font-size="11.00" fill="#000000">group_subtype</text>
<text text-anchor="start" x="357.5219" y="-353.8" font-family="Helvetica,sans-Serif" font-size="11.00" fill="#000000">[table]</text>
<polygon fill="none" stroke="#000000" points="253,-323.7 253,-345.7 392,-345.7 392,-323.7 253,-323.7"/>
<image xlink:href="../../images/primaryKeys.png" width="11px" height="12px" preserveAspectRatio="xMinYMin meet" x="258" y="-340.7"/>
<text text-anchor="start" x="282" y="-330.8" font-family="Helvetica,sans-Serif" font-size="11.00" fill="#000000">id</text>
<polygon fill="#ffffff" stroke="transparent" points="253,-301.7 253,-323.7 392,-323.7 392,-301.7 253,-301.7"/>
<polygon fill="none" stroke="#000000" points="253,-301.7 253,-323.7 392,-323.7 392,-301.7 253,-301.7"/>
<image xlink:href="../../images/foreignKeys.png" width="11px" height="12px" preserveAspectRatio="xMinYMin meet" x="258" y="-318.7"/>
<text text-anchor="start" x="282" y="-308.8" font-family="Helvetica,sans-Serif" font-size="11.00" fill="#000000">group_note</text>
<polygon fill="#ffffff" stroke="transparent" points="253,-279.7 253,-301.7 392,-301.7 392,-279.7 253,-279.7"/>
<polygon fill="none" stroke="#000000" points="253,-279.7 253,-301.7 392,-301.7 392,-279.7 253,-279.7"/>
<image xlink:href="../../images/foreignKeys.png" width="11px" height="12px" preserveAspectRatio="xMinYMin meet" x="258" y="-296.7"/>
<text text-anchor="start" x="282" y="-286.8" font-family="Helvetica,sans-Serif" font-size="11.00" fill="#000000">subtype</text>
<polygon fill="#ffffff" stroke="transparent" points="253,-257.7 253,-279.7 392,-279.7 392,-257.7 253,-257.7"/>
<polygon fill="none" stroke="#000000" points="253,-257.7 253,-279.7 392,-279.7 392,-257.7 253,-257.7"/>
<text text-anchor="start" x="282" y="-264.8" font-family="Helvetica,sans-Serif" font-size="11.00" fill="#000000">index</text>
<polygon fill="none" stroke="#000000" points="253,-238.7 253,-257.7 392,-257.7 392,-238.7 253,-238.7"/>
<text text-anchor="start" x="256" y="-244.8" font-family="Helvetica,sans-Serif" font-size="11.00" fill="#000000">...</text>
<polygon fill="#ffffff" stroke="transparent" points="253,-219.7 253,-238.7 303,-238.7 303,-219.7 253,-219.7"/>
<polygon fill="none" stroke="#000000" points="253,-219.7 253,-238.7 303,-238.7 303,-219.7 253,-219.7"/>
<text text-anchor="start" x="256" y="-225.8" font-family="Helvetica,sans-Serif" font-size="11.00" fill="#000000">&lt; 2</text>
<polygon fill="#ffffff" stroke="transparent" points="303,-219.7 303,-238.7 356,-238.7 356,-219.7 303,-219.7"/>
<polygon fill="none" stroke="#000000" points="303,-219.7 303,-238.7 356,-238.7 356,-219.7 303,-219.7"/>
<text text-anchor="start" x="320.6105" y="-225.8" font-family="Helvetica,sans-Serif" font-size="11.00" fill="#000000">5 rows</text>
<polygon fill="#ffffff" stroke="transparent" points="356,-219.7 356,-238.7 392,-238.7 392,-219.7 356,-219.7"/>
<polygon fill="none" stroke="#000000" points="356,-219.7 356,-238.7 392,-238.7 392,-219.7 356,-219.7"/>
<text text-anchor="start" x="373.4053" y="-225.8" font-family="Helvetica,sans-Serif" font-size="11.00" fill="#000000">1 &gt;</text>
</a>
</g>
</g>
<!-- group_subtype&#45;&gt;group_note -->
<g id="edge3" class="edge">
<title>group_subtype:w&#45;&gt;group_note:e</title>
<path fill="none" stroke="#000000" d="M239.131,-308.599C215.9582,-290.9924 241.6451,-222.7 201.5,-222.7"/>
<polygon fill="#000000" stroke="#000000" points="245.3284,-310.4315 251.9792,-316.1522 249.1642,-311.5658 253,-312.7 253,-312.7 253,-312.7 249.1642,-311.5658 254.0208,-309.2478 245.3284,-310.4315 245.3284,-310.4315"/>
<ellipse fill="none" stroke="#000000" cx="242.2597" cy="-309.5241" rx="3.2" ry="3.2"/>
</g>
<!-- subtype -->
<g id="node5" class="node">
<title>subtype</title>
<g id="a_node5"><a xlink:href="../../tables/subtype.html" xlink:title="subtype" target="_top">
<polygon fill="#ffffff" stroke="transparent" points="59,-280.2 59,-341.2 152,-341.2 152,-280.2 59,-280.2"/>
<polygon fill="#f5f5f5" stroke="transparent" points="59.5,-317.7 59.5,-340.7 152.5,-340.7 152.5,-317.7 59.5,-317.7"/>
<polygon fill="none" stroke="#000000" points="59.5,-317.7 59.5,-340.7 152.5,-340.7 152.5,-317.7 59.5,-317.7"/>
<text text-anchor="start" x="64.5" y="-326.3" font-family="Helvetica,sans-Serif" font-weight="bold" font-size="11.00" fill="#000000">subtype</text>
<text text-anchor="start" x="118.0219" y="-325.8" font-family="Helvetica,sans-Serif" font-size="11.00" fill="#000000">[table]</text>
<polygon fill="none" stroke="#000000" points="59.5,-298.7 59.5,-317.7 152.5,-317.7 152.5,-298.7 59.5,-298.7"/>
<text text-anchor="start" x="62.5" y="-304.8" font-family="Helvetica,sans-Serif" font-size="11.00" fill="#000000">...</text>
<polygon fill="#ffffff" stroke="transparent" points="59.5,-279.7 59.5,-298.7 82.5,-298.7 82.5,-279.7 59.5,-279.7"/>
<polygon fill="none" stroke="#000000" points="59.5,-279.7 59.5,-298.7 82.5,-298.7 82.5,-279.7 59.5,-279.7"/>
<text text-anchor="start" x="62.5" y="-285.8" font-family="Helvetica,sans-Serif" font-size="11.00" fill="#000000"> &#160;</text>
<polygon fill="#ffffff" stroke="transparent" points="82.5,-279.7 82.5,-298.7 125.5,-298.7 125.5,-279.7 82.5,-279.7"/>
<polygon fill="none" stroke="#000000" points="82.5,-279.7 82.5,-298.7 125.5,-298.7 125.5,-279.7 82.5,-279.7"/>
<text text-anchor="start" x="90.1105" y="-285.8" font-family="Helvetica,sans-Serif" font-size="11.00" fill="#000000">9 rows</text>
<polygon fill="#ffffff" stroke="transparent" points="125.5,-279.7 125.5,-298.7 152.5,-298.7 152.5,-279.7 125.5,-279.7"/>
<polygon fill="none" stroke="#000000" points="125.5,-279.7 125.5,-298.7 152.5,-298.7 152.5,-279.7 125.5,-279.7"/>
<text text-anchor="start" x="133.9053" y="-285.8" font-family="Helvetica,sans-Serif" font-size="11.00" fill="#000000">2 &gt;</text>
</a>
</g>
</g>
<!-- group_subtype&#45;&gt;subtype -->
<g id="edge4" class="edge">
<title>group_subtype:w&#45;&gt;subtype:e</title>
<path fill="none" stroke="#000000" d="M238.4184,-291.3457C204.8929,-294.4509 192.4925,-307.7 152.5,-307.7"/>
<polygon fill="#000000" stroke="#000000" points="245.0078,-291.0539 253.1593,-294.2965 249.0039,-290.877 253,-290.7 253,-290.7 253,-290.7 249.0039,-290.877 252.8407,-287.1035 245.0078,-291.0539 245.0078,-291.0539"/>
<ellipse fill="none" stroke="#000000" cx="241.811" cy="-291.1955" rx="3.2" ry="3.2"/>
</g>
<!-- subtype_note_group -->
<g id="node6" class="node">
<title>subtype_note_group</title>
<g id="a_node6"><a xlink:href="../../tables/subtype_note_group.html" xlink:title="subtype_note_group" target="_top">
<polygon fill="#ffffff" stroke="transparent" points="441,-307.2 441,-368.2 617,-368.2 617,-307.2 441,-307.2"/>
<polygon fill="#f5f5f5" stroke="transparent" points="441,-344.7 441,-367.7 617,-367.7 617,-344.7 441,-344.7"/>
<polygon fill="none" stroke="#000000" points="441,-344.7 441,-367.7 617,-367.7 617,-344.7 441,-344.7"/>
<text text-anchor="start" x="446" y="-353.3" font-family="Helvetica,sans-Serif" font-weight="bold" font-size="11.00" fill="#000000">subtype_note_group</text>
<text text-anchor="start" x="582.5219" y="-352.8" font-family="Helvetica,sans-Serif" font-size="11.00" fill="#000000">[table]</text>
<polygon fill="none" stroke="#000000" points="441,-325.7 441,-344.7 617,-344.7 617,-325.7 441,-325.7"/>
<text text-anchor="start" x="444" y="-331.8" font-family="Helvetica,sans-Serif" font-size="11.00" fill="#000000">...</text>
<polygon fill="#ffffff" stroke="transparent" points="441,-306.7 441,-325.7 511,-325.7 511,-306.7 441,-306.7"/>
<polygon fill="none" stroke="#000000" points="441,-306.7 441,-325.7 511,-325.7 511,-306.7 441,-306.7"/>
<text text-anchor="start" x="444" y="-312.8" font-family="Helvetica,sans-Serif" font-size="11.00" fill="#000000">&lt; 2</text>
<polygon fill="#ffffff" stroke="transparent" points="511,-306.7 511,-325.7 580,-325.7 580,-306.7 511,-306.7"/>
<polygon fill="none" stroke="#000000" points="511,-306.7 511,-325.7 580,-325.7 580,-306.7 511,-306.7"/>
<text text-anchor="start" x="538.4956" y="-312.8" font-family="Helvetica,sans-Serif" font-size="11.00" fill="#000000">31 rows</text>
<polygon fill="#ffffff" stroke="transparent" points="580,-306.7 580,-325.7 617,-325.7 617,-306.7 580,-306.7"/>
<polygon fill="none" stroke="#000000" points="580,-306.7 580,-325.7 617,-325.7 617,-306.7 580,-306.7"/>
<text text-anchor="start" x="607.8862" y="-312.8" font-family="Helvetica,sans-Serif" font-size="11.00" fill="#000000"> &#160;</text>
</a>
</g>
</g>
<!-- subtype_note_group&#45;&gt;group_subtype -->
<g id="edge5" class="edge">
<title>subtype_note_group:w&#45;&gt;group_subtype:e</title>
<path fill="none" stroke="#000000" d="M426.4909,-334.7C415.1774,-334.7 407.9931,-334.7 392,-334.7"/>
<polygon fill="#000000" stroke="#000000" points="433,-334.7001 441,-338.3 437,-334.7 441,-334.7 441,-334.7 441,-334.7 437,-334.7 441,-331.1 433,-334.7001 433,-334.7001"/>
<ellipse fill="none" stroke="#000000" cx="429.8" cy="-334.7001" rx="3.2" ry="3.2"/>
</g>
</g>
</svg>
