<?xml version="1.0" encoding="UTF-8" standalone="no"?>
<!DOCTYPE svg PUBLIC "-//W3C//DTD SVG 1.1//EN"
 "http://www.w3.org/Graphics/SVG/1.1/DTD/svg11.dtd">
<!-- Generated by graphviz version 2.40.1 (20161225.0304)
 -->
<!-- Title: oneDegreeRelationshipsDiagram Pages: 1 -->
<svg width="408pt" height="347pt"
 viewBox="0.00 0.00 408.00 347.20" xmlns="http://www.w3.org/2000/svg" xmlns:xlink="http://www.w3.org/1999/xlink">
<g id="graph0" class="graph" transform="scale(1 1) rotate(0) translate(4 343.2)">
<title>oneDegreeRelationshipsDiagram</title>
<polygon fill="#ffffff" stroke="transparent" points="-4,4 -4,-343.2 404,-343.2 404,4 -4,4"/>
<text text-anchor="middle" x="72.4936" y="-7.3" font-family="Helvetica,sans-Serif" font-size="11.00" fill="#000000">Generated by SchemaSpy</text>
<!-- group_member -->
<g id="node1" class="node">
<title>group_member</title>
<g id="a_node1"><a xlink:href="../../tables/group_member.html" xlink:title="group_member" target="_top">
<polygon fill="#ffffff" stroke="transparent" points="252,-208.2 252,-335.2 392,-335.2 392,-208.2 252,-208.2"/>
<polygon fill="#f5f5f5" stroke="transparent" points="252,-311.7 252,-334.7 392,-334.7 392,-311.7 252,-311.7"/>
<polygon fill="none" stroke="#000000" points="252,-311.7 252,-334.7 392,-334.7 392,-311.7 252,-311.7"/>
<text text-anchor="start" x="257" y="-320.3" font-family="Helvetica,sans-Serif" font-weight="bold" font-size="11.00" fill="#000000">group_member</text>
<text text-anchor="start" x="357.5219" y="-319.8" font-family="Helvetica,sans-Serif" font-size="11.00" fill="#000000">[table]</text>
<polygon fill="none" stroke="#000000" points="252,-289.7 252,-311.7 392,-311.7 392,-289.7 252,-289.7"/>
<image xlink:href="../../images/primaryKeys.png" width="11px" height="12px" preserveAspectRatio="xMinYMin meet" x="257" y="-306.7"/>
<text text-anchor="start" x="281" y="-296.8" font-family="Helvetica,sans-Serif" font-size="11.00" fill="#000000">id</text>
<polygon fill="#ffffff" stroke="transparent" points="252,-267.7 252,-289.7 392,-289.7 392,-267.7 252,-267.7"/>
<polygon fill="none" stroke="#000000" points="252,-267.7 252,-289.7 392,-289.7 392,-267.7 252,-267.7"/>
<image xlink:href="../../images/foreignKeys.png" width="11px" height="12px" preserveAspectRatio="xMinYMin meet" x="257" y="-284.7"/>
<text text-anchor="start" x="281" y="-274.8" font-family="Helvetica,sans-Serif" font-size="11.00" fill="#000000">group_note</text>
<polygon fill="#ffffff" stroke="transparent" points="252,-245.7 252,-267.7 392,-267.7 392,-245.7 252,-245.7"/>
<polygon fill="none" stroke="#000000" points="252,-245.7 252,-267.7 392,-267.7 392,-245.7 252,-245.7"/>
<image xlink:href="../../images/foreignKeys.png" width="11px" height="12px" preserveAspectRatio="xMinYMin meet" x="257" y="-262.7"/>
<text text-anchor="start" x="281" y="-252.8" font-family="Helvetica,sans-Serif" font-size="11.00" fill="#000000">member</text>
<polygon fill="none" stroke="#000000" points="252,-226.7 252,-245.7 392,-245.7 392,-226.7 252,-226.7"/>
<text text-anchor="start" x="255" y="-232.8" font-family="Helvetica,sans-Serif" font-size="11.00" fill="#000000">...</text>
<polygon fill="#ffffff" stroke="transparent" points="252,-207.7 252,-226.7 307,-226.7 307,-207.7 252,-207.7"/>
<polygon fill="none" stroke="#000000" points="252,-207.7 252,-226.7 307,-226.7 307,-207.7 252,-207.7"/>
<text text-anchor="start" x="255" y="-213.8" font-family="Helvetica,sans-Serif" font-size="11.00" fill="#000000">&lt; 2</text>
<polygon fill="#ffffff" stroke="transparent" points="307,-207.7 307,-226.7 362,-226.7 362,-207.7 307,-207.7"/>
<polygon fill="none" stroke="#000000" points="307,-207.7 307,-226.7 362,-226.7 362,-207.7 307,-207.7"/>
<text text-anchor="start" x="326.6105" y="-213.8" font-family="Helvetica,sans-Serif" font-size="11.00" fill="#000000">7 rows</text>
<polygon fill="#ffffff" stroke="transparent" points="362,-207.7 362,-226.7 392,-226.7 392,-207.7 362,-207.7"/>
<polygon fill="none" stroke="#000000" points="362,-207.7 362,-226.7 392,-226.7 392,-207.7 362,-207.7"/>
<text text-anchor="start" x="382.8862" y="-213.8" font-family="Helvetica,sans-Serif" font-size="11.00" fill="#000000"> &#160;</text>
</a>
</g>
</g>
<!-- group_note -->
<g id="node2" class="node">
<title>group_note</title>
<g id="a_node2"><a xlink:href="../../tables/group_note.html" xlink:title="group_note" target="_top">
<polygon fill="#ffffff" stroke="transparent" points="8,-106.7 8,-240.7 203,-240.7 203,-106.7 8,-106.7"/>
<polygon fill="#f5f5f5" stroke="transparent" points="10.5,-215.7 10.5,-238.7 201.5,-238.7 201.5,-215.7 10.5,-215.7"/>
<polygon fill="none" stroke="#000000" points="10.5,-215.7 10.5,-238.7 201.5,-238.7 201.5,-215.7 10.5,-215.7"/>
<text text-anchor="start" x="15.5" y="-224.3" font-family="Helvetica,sans-Serif" font-weight="bold" font-size="11.00" fill="#000000">group_note</text>
<text text-anchor="start" x="166.5437" y="-223.8" font-family="Helvetica,sans-Serif" font-size="11.00" fill="#000000">[table]</text>
<polygon fill="none" stroke="#000000" points="10.5,-193.7 10.5,-215.7 107.5,-215.7 107.5,-193.7 10.5,-193.7"/>
<image xlink:href="../../images/primaryKeys.png" width="11px" height="12px" preserveAspectRatio="xMinYMin meet" x="15.5" y="-210.7"/>
<text text-anchor="start" x="30.5" y="-200.8" font-family="Helvetica,sans-Serif" font-size="11.00" fill="#000000">id</text>
<polygon fill="none" stroke="#000000" points="107.5,-193.7 107.5,-215.7 201.5,-215.7 201.5,-193.7 107.5,-193.7"/>
<text text-anchor="start" x="110.4758" y="-201.4" font-family="Helvetica,sans-Serif" font-size="11.00" fill="#000000">uuid[2147483647]</text>
<polygon fill="#ffffff" stroke="transparent" points="10.5,-171.7 10.5,-193.7 107.5,-193.7 107.5,-171.7 10.5,-171.7"/>
<polygon fill="none" stroke="#000000" points="10.5,-171.7 10.5,-193.7 107.5,-193.7 107.5,-171.7 10.5,-171.7"/>
<text text-anchor="start" x="30.5" y="-178.8" font-family="Helvetica,sans-Serif" font-size="11.00" fill="#000000">name</text>
<polygon fill="none" stroke="#000000" points="107.5,-171.7 107.5,-193.7 201.5,-193.7 201.5,-171.7 107.5,-171.7"/>
<text text-anchor="start" x="110.5" y="-179.4" font-family="Helvetica,sans-Serif" font-size="11.00" fill="#000000">varchar[255]</text>
<polygon fill="none" stroke="#000000" points="10.5,-149.7 10.5,-171.7 107.5,-171.7 107.5,-149.7 10.5,-149.7"/>
<text text-anchor="start" x="30.5" y="-156.8" font-family="Helvetica,sans-Serif" font-size="11.00" fill="#000000">avatar</text>
<polygon fill="none" stroke="#000000" points="107.5,-149.7 107.5,-171.7 201.5,-171.7 201.5,-149.7 107.5,-149.7"/>
<text text-anchor="start" x="110.5" y="-157.4" font-family="Helvetica,sans-Serif" font-size="11.00" fill="#000000">varchar[255]</text>
<polygon fill="none" stroke="#000000" points="10.5,-127.7 10.5,-149.7 107.5,-149.7 107.5,-127.7 10.5,-127.7"/>
<text text-anchor="start" x="30.5" y="-134.8" font-family="Helvetica,sans-Serif" font-size="11.00" fill="#000000">userfrom</text>
<polygon fill="none" stroke="#000000" points="107.5,-127.7 107.5,-149.7 201.5,-149.7 201.5,-127.7 107.5,-127.7"/>
<text text-anchor="start" x="110.4758" y="-135.4" font-family="Helvetica,sans-Serif" font-size="11.00" fill="#000000">uuid[2147483647]</text>
<polygon fill="#ffffff" stroke="transparent" points="10.5,-108.7 10.5,-127.7 63.5,-127.7 63.5,-108.7 10.5,-108.7"/>
<polygon fill="none" stroke="#000000" points="10.5,-108.7 10.5,-127.7 63.5,-127.7 63.5,-108.7 10.5,-108.7"/>
<text text-anchor="start" x="13.5" y="-114.8" font-family="Helvetica,sans-Serif" font-size="11.00" fill="#000000">&lt; 0</text>
<polygon fill="#ffffff" stroke="transparent" points="63.5,-108.7 63.5,-127.7 107.5,-127.7 107.5,-108.7 63.5,-108.7"/>
<polygon fill="none" stroke="#000000" points="63.5,-108.7 63.5,-127.7 107.5,-127.7 107.5,-108.7 63.5,-108.7"/>
<text text-anchor="start" x="98.3862" y="-114.8" font-family="Helvetica,sans-Serif" font-size="11.00" fill="#000000"> &#160;</text>
<polygon fill="#ffffff" stroke="transparent" points="107.5,-108.7 107.5,-127.7 201.5,-127.7 201.5,-108.7 107.5,-108.7"/>
<polygon fill="none" stroke="#000000" points="107.5,-108.7 107.5,-127.7 201.5,-127.7 201.5,-108.7 107.5,-108.7"/>
<text text-anchor="start" x="182.9053" y="-114.8" font-family="Helvetica,sans-Serif" font-size="11.00" fill="#000000">2 &gt;</text>
<polygon fill="none" stroke="#000000" stroke-width="2" points="9,-107.7 9,-239.7 202,-239.7 202,-107.7 9,-107.7"/>
</a>
</g>
</g>
<!-- group_member&#45;&gt;group_note -->
<g id="edge1" class="edge">
<title>group_member:w&#45;&gt;group_note:e</title>
<path fill="none" stroke="#000000" d="M238.1154,-274.071C219.4593,-257.8706 235.2515,-204.7 201.5,-204.7"/>
<polygon fill="#000000" stroke="#000000" points="244.4107,-276.1697 250.8614,-282.1152 248.2053,-277.4349 252,-278.7 252,-278.7 252,-278.7 248.2053,-277.4349 253.1386,-275.2848 244.4107,-276.1697 244.4107,-276.1697"/>
<ellipse fill="none" stroke="#000000" cx="241.3749" cy="-275.1576" rx="3.2" ry="3.2"/>
</g>
<!-- group_subtype -->
<g id="node3" class="node">
<title>group_subtype</title>
<g id="a_node3"><a xlink:href="../../tables/group_subtype.html" xlink:title="group_subtype" target="_top">
<polygon fill="#ffffff" stroke="transparent" points="252.5,-38.2 252.5,-187.2 391.5,-187.2 391.5,-38.2 252.5,-38.2"/>
<polygon fill="#f5f5f5" stroke="transparent" points="253,-163.7 253,-186.7 392,-186.7 392,-163.7 253,-163.7"/>
<polygon fill="none" stroke="#000000" points="253,-163.7 253,-186.7 392,-186.7 392,-163.7 253,-163.7"/>
<text text-anchor="start" x="258" y="-172.3" font-family="Helvetica,sans-Serif" font-weight="bold" font-size="11.00" fill="#000000">group_subtype</text>
<text text-anchor="start" x="357.5219" y="-171.8" font-family="Helvetica,sans-Serif" font-size="11.00" fill="#000000">[table]</text>
<polygon fill="none" stroke="#000000" points="253,-141.7 253,-163.7 392,-163.7 392,-141.7 253,-141.7"/>
<image xlink:href="../../images/primaryKeys.png" width="11px" height="12px" preserveAspectRatio="xMinYMin meet" x="258" y="-158.7"/>
<text text-anchor="start" x="282" y="-148.8" font-family="Helvetica,sans-Serif" font-size="11.00" fill="#000000">id</text>
<polygon fill="#ffffff" stroke="transparent" points="253,-119.7 253,-141.7 392,-141.7 392,-119.7 253,-119.7"/>
<polygon fill="none" stroke="#000000" points="253,-119.7 253,-141.7 392,-141.7 392,-119.7 253,-119.7"/>
<image xlink:href="../../images/foreignKeys.png" width="11px" height="12px" preserveAspectRatio="xMinYMin meet" x="258" y="-136.7"/>
<text text-anchor="start" x="282" y="-126.8" font-family="Helvetica,sans-Serif" font-size="11.00" fill="#000000">group_note</text>
<polygon fill="#ffffff" stroke="transparent" points="253,-97.7 253,-119.7 392,-119.7 392,-97.7 253,-97.7"/>
<polygon fill="none" stroke="#000000" points="253,-97.7 253,-119.7 392,-119.7 392,-97.7 253,-97.7"/>
<image xlink:href="../../images/foreignKeys.png" width="11px" height="12px" preserveAspectRatio="xMinYMin meet" x="258" y="-114.7"/>
<text text-anchor="start" x="282" y="-104.8" font-family="Helvetica,sans-Serif" font-size="11.00" fill="#000000">subtype</text>
<polygon fill="#ffffff" stroke="transparent" points="253,-75.7 253,-97.7 392,-97.7 392,-75.7 253,-75.7"/>
<polygon fill="none" stroke="#000000" points="253,-75.7 253,-97.7 392,-97.7 392,-75.7 253,-75.7"/>
<text text-anchor="start" x="282" y="-82.8" font-family="Helvetica,sans-Serif" font-size="11.00" fill="#000000">index</text>
<polygon fill="none" stroke="#000000" points="253,-56.7 253,-75.7 392,-75.7 392,-56.7 253,-56.7"/>
<text text-anchor="start" x="256" y="-62.8" font-family="Helvetica,sans-Serif" font-size="11.00" fill="#000000">...</text>
<polygon fill="#ffffff" stroke="transparent" points="253,-37.7 253,-56.7 303,-56.7 303,-37.7 253,-37.7"/>
<polygon fill="none" stroke="#000000" points="253,-37.7 253,-56.7 303,-56.7 303,-37.7 253,-37.7"/>
<text text-anchor="start" x="256" y="-43.8" font-family="Helvetica,sans-Serif" font-size="11.00" fill="#000000">&lt; 2</text>
<polygon fill="#ffffff" stroke="transparent" points="303,-37.7 303,-56.7 356,-56.7 356,-37.7 303,-37.7"/>
<polygon fill="none" stroke="#000000" points="303,-37.7 303,-56.7 356,-56.7 356,-37.7 303,-37.7"/>
<text text-anchor="start" x="320.6105" y="-43.8" font-family="Helvetica,sans-Serif" font-size="11.00" fill="#000000">5 rows</text>
<polygon fill="#ffffff" stroke="transparent" points="356,-37.7 356,-56.7 392,-56.7 392,-37.7 356,-37.7"/>
<polygon fill="none" stroke="#000000" points="356,-37.7 356,-56.7 392,-56.7 392,-37.7 356,-37.7"/>
<text text-anchor="start" x="373.4053" y="-43.8" font-family="Helvetica,sans-Serif" font-size="11.00" fill="#000000">1 &gt;</text>
</a>
</g>
</g>
<!-- group_subtype&#45;&gt;group_note -->
<g id="edge2" class="edge">
<title>group_subtype:w&#45;&gt;group_note:e</title>
<path fill="none" stroke="#000000" d="M239.2488,-135.1074C219.9187,-151.0383 235.6218,-204.7 201.5,-204.7"/>
<polygon fill="#000000" stroke="#000000" points="245.3817,-133.1418 254.0988,-134.1282 249.1909,-131.9209 253,-130.7 253,-130.7 253,-130.7 249.1909,-131.9209 251.9012,-127.2718 245.3817,-133.1418 245.3817,-133.1418"/>
<ellipse fill="none" stroke="#000000" cx="242.3344" cy="-134.1185" rx="3.2" ry="3.2"/>
</g>
</g>
</svg>
