<?xml version="1.0" encoding="UTF-8" standalone="no"?>
<!DOCTYPE svg PUBLIC "-//W3C//DTD SVG 1.1//EN"
 "http://www.w3.org/Graphics/SVG/1.1/DTD/svg11.dtd">
<!-- Generated by graphviz version 2.40.1 (20161225.0304)
 -->
<!-- Title: twoDegreesRelationshipsDiagram Pages: 1 -->
<svg width="408pt" height="579pt"
 viewBox="0.00 0.00 408.00 579.20" xmlns="http://www.w3.org/2000/svg" xmlns:xlink="http://www.w3.org/1999/xlink">
<g id="graph0" class="graph" transform="scale(1 1) rotate(0) translate(4 575.2)">
<title>twoDegreesRelationshipsDiagram</title>
<polygon fill="#ffffff" stroke="transparent" points="-4,4 -4,-575.2 404,-575.2 404,4 -4,4"/>
<text text-anchor="middle" x="72.4936" y="-7.3" font-family="Helvetica,sans-Serif" font-size="11.00" fill="#000000">Generated by SchemaSpy</text>
<!-- group_member -->
<g id="node1" class="node">
<title>group_member</title>
<g id="a_node1"><a xlink:href="../../tables/group_member.html" xlink:title="group_member" target="_top">
<polygon fill="#ffffff" stroke="transparent" points="172,-284.7 172,-484.7 392,-484.7 392,-284.7 172,-284.7"/>
<polygon fill="#f5f5f5" stroke="transparent" points="174,-459.7 174,-482.7 390,-482.7 390,-459.7 174,-459.7"/>
<polygon fill="none" stroke="#000000" points="174,-459.7 174,-482.7 390,-482.7 390,-459.7 174,-459.7"/>
<text text-anchor="start" x="179" y="-468.3" font-family="Helvetica,sans-Serif" font-weight="bold" font-size="11.00" fill="#000000">group_member</text>
<text text-anchor="start" x="355.0437" y="-467.8" font-family="Helvetica,sans-Serif" font-size="11.00" fill="#000000">[table]</text>
<polygon fill="none" stroke="#000000" points="174,-437.7 174,-459.7 296,-459.7 296,-437.7 174,-437.7"/>
<image xlink:href="../../images/primaryKeys.png" width="11px" height="12px" preserveAspectRatio="xMinYMin meet" x="179" y="-454.7"/>
<text text-anchor="start" x="194" y="-444.8" font-family="Helvetica,sans-Serif" font-size="11.00" fill="#000000">id</text>
<polygon fill="none" stroke="#000000" points="296,-437.7 296,-459.7 390,-459.7 390,-437.7 296,-437.7"/>
<text text-anchor="start" x="299" y="-445.4" font-family="Helvetica,sans-Serif" font-size="11.00" fill="#000000">bigserial[19]</text>
<polygon fill="#ffffff" stroke="transparent" points="174,-415.7 174,-437.7 296,-437.7 296,-415.7 174,-415.7"/>
<polygon fill="none" stroke="#000000" points="174,-415.7 174,-437.7 296,-437.7 296,-415.7 174,-415.7"/>
<image xlink:href="../../images/foreignKeys.png" width="11px" height="12px" preserveAspectRatio="xMinYMin meet" x="179" y="-432.7"/>
<text text-anchor="start" x="194" y="-422.8" font-family="Helvetica,sans-Serif" font-size="11.00" fill="#000000">group_note</text>
<polygon fill="none" stroke="#000000" points="296,-415.7 296,-437.7 390,-437.7 390,-415.7 296,-415.7"/>
<text text-anchor="start" x="298.9758" y="-423.4" font-family="Helvetica,sans-Serif" font-size="11.00" fill="#000000">uuid[2147483647]</text>
<polygon fill="#ffffff" stroke="transparent" points="174,-393.7 174,-415.7 296,-415.7 296,-393.7 174,-393.7"/>
<polygon fill="none" stroke="#000000" points="174,-393.7 174,-415.7 296,-415.7 296,-393.7 174,-393.7"/>
<image xlink:href="../../images/foreignKeys.png" width="11px" height="12px" preserveAspectRatio="xMinYMin meet" x="179" y="-410.7"/>
<text text-anchor="start" x="194" y="-400.8" font-family="Helvetica,sans-Serif" font-size="11.00" fill="#000000">member</text>
<polygon fill="none" stroke="#000000" points="296,-393.7 296,-415.7 390,-415.7 390,-393.7 296,-393.7"/>
<text text-anchor="start" x="298.9758" y="-401.4" font-family="Helvetica,sans-Serif" font-size="11.00" fill="#000000">uuid[2147483647]</text>
<polygon fill="none" stroke="#000000" points="174,-371.7 174,-393.7 296,-393.7 296,-371.7 174,-371.7"/>
<text text-anchor="start" x="194" y="-378.8" font-family="Helvetica,sans-Serif" font-size="11.00" fill="#000000">role</text>
<polygon fill="none" stroke="#000000" points="296,-371.7 296,-393.7 390,-393.7 390,-371.7 296,-371.7"/>
<text text-anchor="start" x="299" y="-379.4" font-family="Helvetica,sans-Serif" font-size="11.00" fill="#000000">varchar[255]</text>
<polygon fill="none" stroke="#000000" points="174,-349.7 174,-371.7 296,-371.7 296,-349.7 174,-349.7"/>
<text text-anchor="start" x="194" y="-356.8" font-family="Helvetica,sans-Serif" font-size="11.00" fill="#000000">isconfirmed</text>
<polygon fill="none" stroke="#000000" points="296,-349.7 296,-371.7 390,-371.7 390,-349.7 296,-349.7"/>
<text text-anchor="start" x="299" y="-357.4" font-family="Helvetica,sans-Serif" font-size="11.00" fill="#000000">int4[10]</text>
<polygon fill="none" stroke="#000000" points="174,-327.7 174,-349.7 296,-349.7 296,-327.7 174,-327.7"/>
<text text-anchor="start" x="194" y="-334.8" font-family="Helvetica,sans-Serif" font-size="11.00" fill="#000000">isdeleted</text>
<polygon fill="none" stroke="#000000" points="296,-327.7 296,-349.7 390,-349.7 390,-327.7 296,-327.7"/>
<text text-anchor="start" x="299" y="-335.4" font-family="Helvetica,sans-Serif" font-size="11.00" fill="#000000">int4[10]</text>
<polygon fill="none" stroke="#000000" points="174,-305.7 174,-327.7 296,-327.7 296,-305.7 174,-305.7"/>
<text text-anchor="start" x="194" y="-312.8" font-family="Helvetica,sans-Serif" font-size="11.00" fill="#000000">userfrom</text>
<polygon fill="none" stroke="#000000" points="296,-305.7 296,-327.7 390,-327.7 390,-305.7 296,-305.7"/>
<text text-anchor="start" x="298.9758" y="-313.4" font-family="Helvetica,sans-Serif" font-size="11.00" fill="#000000">uuid[2147483647]</text>
<polygon fill="#ffffff" stroke="transparent" points="174,-286.7 174,-305.7 226,-305.7 226,-286.7 174,-286.7"/>
<polygon fill="none" stroke="#000000" points="174,-286.7 174,-305.7 226,-305.7 226,-286.7 174,-286.7"/>
<text text-anchor="start" x="177" y="-292.8" font-family="Helvetica,sans-Serif" font-size="11.00" fill="#000000">&lt; 2</text>
<polygon fill="#ffffff" stroke="transparent" points="226,-286.7 226,-305.7 296,-305.7 296,-286.7 226,-286.7"/>
<polygon fill="none" stroke="#000000" points="226,-286.7 226,-305.7 296,-305.7 296,-286.7 226,-286.7"/>
<text text-anchor="start" x="260.6105" y="-292.8" font-family="Helvetica,sans-Serif" font-size="11.00" fill="#000000">7 rows</text>
<polygon fill="#ffffff" stroke="transparent" points="296,-286.7 296,-305.7 390,-305.7 390,-286.7 296,-286.7"/>
<polygon fill="none" stroke="#000000" points="296,-286.7 296,-305.7 390,-305.7 390,-286.7 296,-286.7"/>
<text text-anchor="start" x="371.4053" y="-292.8" font-family="Helvetica,sans-Serif" font-size="11.00" fill="#000000">0 &gt;</text>
<polygon fill="none" stroke="#000000" stroke-width="2" points="173,-285.7 173,-483.7 391,-483.7 391,-285.7 173,-285.7"/>
</a>
</g>
</g>
<!-- group_note -->
<g id="node2" class="node">
<title>group_note</title>
<g id="a_node2"><a xlink:href="../../tables/group_note.html" xlink:title="group_note" target="_top">
<polygon fill="#ffffff" stroke="transparent" points="8,-409.2 8,-514.2 123,-514.2 123,-409.2 8,-409.2"/>
<polygon fill="#f5f5f5" stroke="transparent" points="8.5,-490.7 8.5,-513.7 123.5,-513.7 123.5,-490.7 8.5,-490.7"/>
<polygon fill="none" stroke="#000000" points="8.5,-490.7 8.5,-513.7 123.5,-513.7 123.5,-490.7 8.5,-490.7"/>
<text text-anchor="start" x="13.5" y="-499.3" font-family="Helvetica,sans-Serif" font-weight="bold" font-size="11.00" fill="#000000">group_note</text>
<text text-anchor="start" x="89.0219" y="-498.8" font-family="Helvetica,sans-Serif" font-size="11.00" fill="#000000">[table]</text>
<polygon fill="none" stroke="#000000" points="8.5,-468.7 8.5,-490.7 123.5,-490.7 123.5,-468.7 8.5,-468.7"/>
<image xlink:href="../../images/primaryKeys.png" width="11px" height="12px" preserveAspectRatio="xMinYMin meet" x="13.5" y="-485.7"/>
<text text-anchor="start" x="37.5" y="-475.8" font-family="Helvetica,sans-Serif" font-size="11.00" fill="#000000">id</text>
<polygon fill="#ffffff" stroke="transparent" points="8.5,-446.7 8.5,-468.7 123.5,-468.7 123.5,-446.7 8.5,-446.7"/>
<polygon fill="none" stroke="#000000" points="8.5,-446.7 8.5,-468.7 123.5,-468.7 123.5,-446.7 8.5,-446.7"/>
<text text-anchor="start" x="37.5" y="-453.8" font-family="Helvetica,sans-Serif" font-size="11.00" fill="#000000">name</text>
<polygon fill="none" stroke="#000000" points="8.5,-427.7 8.5,-446.7 123.5,-446.7 123.5,-427.7 8.5,-427.7"/>
<text text-anchor="start" x="11.5" y="-433.8" font-family="Helvetica,sans-Serif" font-size="11.00" fill="#000000">...</text>
<polygon fill="#ffffff" stroke="transparent" points="8.5,-408.7 8.5,-427.7 55.5,-427.7 55.5,-408.7 8.5,-408.7"/>
<polygon fill="none" stroke="#000000" points="8.5,-408.7 8.5,-427.7 55.5,-427.7 55.5,-408.7 8.5,-408.7"/>
<text text-anchor="start" x="11.5" y="-414.8" font-family="Helvetica,sans-Serif" font-size="11.00" fill="#000000"> &#160;</text>
<polygon fill="#ffffff" stroke="transparent" points="55.5,-408.7 55.5,-427.7 84.5,-427.7 84.5,-408.7 55.5,-408.7"/>
<polygon fill="none" stroke="#000000" points="55.5,-408.7 55.5,-427.7 84.5,-427.7 84.5,-408.7 55.5,-408.7"/>
<text text-anchor="start" x="75.3862" y="-414.8" font-family="Helvetica,sans-Serif" font-size="11.00" fill="#000000"> &#160;</text>
<polygon fill="#ffffff" stroke="transparent" points="84.5,-408.7 84.5,-427.7 123.5,-427.7 123.5,-408.7 84.5,-408.7"/>
<polygon fill="none" stroke="#000000" points="84.5,-408.7 84.5,-427.7 123.5,-427.7 123.5,-408.7 84.5,-408.7"/>
<text text-anchor="start" x="104.9053" y="-414.8" font-family="Helvetica,sans-Serif" font-size="11.00" fill="#000000">2 &gt;</text>
</a>
</g>
</g>
<!-- group_member&#45;&gt;group_note -->
<g id="edge1" class="edge">
<title>group_member:w&#45;&gt;group_note:e</title>
<path fill="none" stroke="#000000" d="M160.0458,-431.5911C145.2722,-444.7117 149.9358,-479.7 123.5,-479.7"/>
<polygon fill="#000000" stroke="#000000" points="166.4503,-429.3463 175.1908,-430.0974 170.2252,-428.0231 174,-426.7 174,-426.7 174,-426.7 170.2252,-428.0231 172.8092,-423.3026 166.4503,-429.3463 166.4503,-429.3463"/>
<ellipse fill="none" stroke="#000000" cx="163.4305" cy="-430.4048" rx="3.2" ry="3.2"/>
</g>
<!-- member -->
<g id="node3" class="node">
<title>member</title>
<g id="a_node3"><a xlink:href="../../tables/member.html" xlink:title="member" target="_top">
<polygon fill="#ffffff" stroke="transparent" points="18.5,-118.2 18.5,-223.2 112.5,-223.2 112.5,-118.2 18.5,-118.2"/>
<polygon fill="#f5f5f5" stroke="transparent" points="18.5,-199.7 18.5,-222.7 112.5,-222.7 112.5,-199.7 18.5,-199.7"/>
<polygon fill="none" stroke="#000000" points="18.5,-199.7 18.5,-222.7 112.5,-222.7 112.5,-199.7 18.5,-199.7"/>
<text text-anchor="start" x="23.5" y="-208.3" font-family="Helvetica,sans-Serif" font-weight="bold" font-size="11.00" fill="#000000">member</text>
<text text-anchor="start" x="78.0219" y="-207.8" font-family="Helvetica,sans-Serif" font-size="11.00" fill="#000000">[table]</text>
<polygon fill="none" stroke="#000000" points="18.5,-177.7 18.5,-199.7 112.5,-199.7 112.5,-177.7 18.5,-177.7"/>
<image xlink:href="../../images/primaryKeys.png" width="11px" height="12px" preserveAspectRatio="xMinYMin meet" x="23.5" y="-194.7"/>
<text text-anchor="start" x="43.5" y="-184.8" font-family="Helvetica,sans-Serif" font-size="11.00" fill="#000000">id</text>
<polygon fill="#ffffff" stroke="transparent" points="18.5,-155.7 18.5,-177.7 112.5,-177.7 112.5,-155.7 18.5,-155.7"/>
<polygon fill="none" stroke="#000000" points="18.5,-155.7 18.5,-177.7 112.5,-177.7 112.5,-155.7 18.5,-155.7"/>
<text text-anchor="start" x="43.5" y="-162.8" font-family="Helvetica,sans-Serif" font-size="11.00" fill="#000000">name</text>
<polygon fill="none" stroke="#000000" points="18.5,-136.7 18.5,-155.7 112.5,-155.7 112.5,-136.7 18.5,-136.7"/>
<text text-anchor="start" x="21.5" y="-142.8" font-family="Helvetica,sans-Serif" font-size="11.00" fill="#000000">...</text>
<polygon fill="#ffffff" stroke="transparent" points="18.5,-117.7 18.5,-136.7 44.5,-136.7 44.5,-117.7 18.5,-117.7"/>
<polygon fill="none" stroke="#000000" points="18.5,-117.7 18.5,-136.7 44.5,-136.7 44.5,-117.7 18.5,-117.7"/>
<text text-anchor="start" x="21.5" y="-123.8" font-family="Helvetica,sans-Serif" font-size="11.00" fill="#000000"> &#160;</text>
<polygon fill="#ffffff" stroke="transparent" points="44.5,-117.7 44.5,-136.7 83.5,-136.7 83.5,-117.7 44.5,-117.7"/>
<polygon fill="none" stroke="#000000" points="44.5,-117.7 44.5,-136.7 83.5,-136.7 83.5,-117.7 44.5,-117.7"/>
<text text-anchor="start" x="53.6105" y="-123.8" font-family="Helvetica,sans-Serif" font-size="11.00" fill="#000000">1 row</text>
<polygon fill="#ffffff" stroke="transparent" points="83.5,-117.7 83.5,-136.7 112.5,-136.7 112.5,-117.7 83.5,-117.7"/>
<polygon fill="none" stroke="#000000" points="83.5,-117.7 83.5,-136.7 112.5,-136.7 112.5,-117.7 83.5,-117.7"/>
<text text-anchor="start" x="93.9053" y="-123.8" font-family="Helvetica,sans-Serif" font-size="11.00" fill="#000000">4 &gt;</text>
</a>
</g>
</g>
<!-- group_member&#45;&gt;member -->
<g id="edge2" class="edge">
<title>group_member:w&#45;&gt;member:e</title>
<path fill="none" stroke="#000000" d="M159.6811,-402.8327C88.581,-381.721 206.8567,-188.7 112.5,-188.7"/>
<polygon fill="#000000" stroke="#000000" points="166.0672,-403.6654 173.5344,-408.2698 170.0336,-404.1827 174,-404.7 174,-404.7 174,-404.7 170.0336,-404.1827 174.4656,-401.1302 166.0672,-403.6654 166.0672,-403.6654"/>
<ellipse fill="none" stroke="#000000" cx="162.894" cy="-403.2516" rx="3.2" ry="3.2"/>
</g>
<!-- group_subtype -->
<g id="node4" class="node">
<title>group_subtype</title>
<g id="a_node4"><a xlink:href="../../tables/group_subtype.html" xlink:title="group_subtype" target="_top">
<polygon fill="#ffffff" stroke="transparent" points="212.5,-506.2 212.5,-567.2 351.5,-567.2 351.5,-506.2 212.5,-506.2"/>
<polygon fill="#f5f5f5" stroke="transparent" points="213,-543.7 213,-566.7 352,-566.7 352,-543.7 213,-543.7"/>
<polygon fill="none" stroke="#000000" points="213,-543.7 213,-566.7 352,-566.7 352,-543.7 213,-543.7"/>
<text text-anchor="start" x="218" y="-552.3" font-family="Helvetica,sans-Serif" font-weight="bold" font-size="11.00" fill="#000000">group_subtype</text>
<text text-anchor="start" x="317.5219" y="-551.8" font-family="Helvetica,sans-Serif" font-size="11.00" fill="#000000">[table]</text>
<polygon fill="none" stroke="#000000" points="213,-524.7 213,-543.7 352,-543.7 352,-524.7 213,-524.7"/>
<text text-anchor="start" x="216" y="-530.8" font-family="Helvetica,sans-Serif" font-size="11.00" fill="#000000">...</text>
<polygon fill="#ffffff" stroke="transparent" points="213,-505.7 213,-524.7 263,-524.7 263,-505.7 213,-505.7"/>
<polygon fill="none" stroke="#000000" points="213,-505.7 213,-524.7 263,-524.7 263,-505.7 213,-505.7"/>
<text text-anchor="start" x="216" y="-511.8" font-family="Helvetica,sans-Serif" font-size="11.00" fill="#000000">&lt; 2</text>
<polygon fill="#ffffff" stroke="transparent" points="263,-505.7 263,-524.7 316,-524.7 316,-505.7 263,-505.7"/>
<polygon fill="none" stroke="#000000" points="263,-505.7 263,-524.7 316,-524.7 316,-505.7 263,-505.7"/>
<text text-anchor="start" x="280.6105" y="-511.8" font-family="Helvetica,sans-Serif" font-size="11.00" fill="#000000">5 rows</text>
<polygon fill="#ffffff" stroke="transparent" points="316,-505.7 316,-524.7 352,-524.7 352,-505.7 316,-505.7"/>
<polygon fill="none" stroke="#000000" points="316,-505.7 316,-524.7 352,-524.7 352,-505.7 316,-505.7"/>
<text text-anchor="start" x="333.4053" y="-511.8" font-family="Helvetica,sans-Serif" font-size="11.00" fill="#000000">1 &gt;</text>
</a>
</g>
</g>
<!-- group_subtype&#45;&gt;group_note -->
<g id="edge3" class="edge">
<title>group_subtype:w&#45;&gt;group_note:e</title>
<path fill="none" stroke="#000000" d="M198.5615,-531.6491C166.6582,-521.7853 164.513,-479.7 123.5,-479.7"/>
<polygon fill="#000000" stroke="#000000" points="205.0795,-532.5749 212.4937,-537.2642 209.0398,-533.1374 213,-533.7 213,-533.7 213,-533.7 209.0398,-533.1374 213.5063,-530.1358 205.0795,-532.5749 205.0795,-532.5749"/>
<ellipse fill="none" stroke="#000000" cx="201.9113" cy="-532.1248" rx="3.2" ry="3.2"/>
</g>
<!-- login -->
<g id="node5" class="node">
<title>login</title>
<g id="a_node5"><a xlink:href="../../tables/login.html" xlink:title="login" target="_top">
<polygon fill="#ffffff" stroke="transparent" points="246,-202.2 246,-263.2 318,-263.2 318,-202.2 246,-202.2"/>
<polygon fill="#f5f5f5" stroke="transparent" points="246,-239.7 246,-262.7 318,-262.7 318,-239.7 246,-239.7"/>
<polygon fill="none" stroke="#000000" points="246,-239.7 246,-262.7 318,-262.7 318,-239.7 246,-239.7"/>
<text text-anchor="start" x="251" y="-248.3" font-family="Helvetica,sans-Serif" font-weight="bold" font-size="11.00" fill="#000000">login</text>
<text text-anchor="start" x="283.5219" y="-247.8" font-family="Helvetica,sans-Serif" font-size="11.00" fill="#000000">[table]</text>
<polygon fill="none" stroke="#000000" points="246,-220.7 246,-239.7 318,-239.7 318,-220.7 246,-220.7"/>
<text text-anchor="start" x="249" y="-226.8" font-family="Helvetica,sans-Serif" font-size="11.00" fill="#000000">...</text>
<polygon fill="#ffffff" stroke="transparent" points="246,-201.7 246,-220.7 267,-220.7 267,-201.7 246,-201.7"/>
<polygon fill="none" stroke="#000000" points="246,-201.7 246,-220.7 267,-220.7 267,-201.7 246,-201.7"/>
<text text-anchor="start" x="248.7027" y="-207.8" font-family="Helvetica,sans-Serif" font-size="11.00" fill="#000000">&lt; 1</text>
<polygon fill="#ffffff" stroke="transparent" points="267,-201.7 267,-220.7 305,-220.7 305,-201.7 267,-201.7"/>
<polygon fill="none" stroke="#000000" points="267,-201.7 267,-220.7 305,-220.7 305,-201.7 267,-201.7"/>
<text text-anchor="start" x="269.8053" y="-207.8" font-family="Helvetica,sans-Serif" font-size="11.00" fill="#000000">3 rows</text>
<polygon fill="#ffffff" stroke="transparent" points="305,-201.7 305,-220.7 318,-220.7 318,-201.7 305,-201.7"/>
<polygon fill="none" stroke="#000000" points="305,-201.7 305,-220.7 318,-220.7 318,-201.7 305,-201.7"/>
<text text-anchor="start" x="308.8862" y="-207.8" font-family="Helvetica,sans-Serif" font-size="11.00" fill="#000000"> &#160;</text>
</a>
</g>
</g>
<!-- login&#45;&gt;member -->
<g id="edge4" class="edge">
<title>login:w&#45;&gt;member:e</title>
<path fill="none" stroke="#000000" d="M235.2821,-229.2673C182.6045,-224.8855 170.8104,-188.7 112.5,-188.7"/>
<polygon fill="#000000" stroke="#000000" points="245.362,-225.671 245.0393,-233.6645 243.4406,-233.5999 243.7633,-225.6064 245.362,-225.671"/>
<polyline fill="none" stroke="#000000" points="246,-229.7 242.0033,-229.5386 "/>
<ellipse fill="none" stroke="#000000" cx="238.8059" cy="-229.4095" rx="3.2" ry="3.2"/>
</g>
<!-- note -->
<g id="node6" class="node">
<title>note</title>
<g id="a_node6"><a xlink:href="../../tables/note.html" xlink:title="note" target="_top">
<polygon fill="#ffffff" stroke="transparent" points="239,-120.2 239,-181.2 325,-181.2 325,-120.2 239,-120.2"/>
<polygon fill="#f5f5f5" stroke="transparent" points="239,-157.7 239,-180.7 325,-180.7 325,-157.7 239,-157.7"/>
<polygon fill="none" stroke="#000000" points="239,-157.7 239,-180.7 325,-180.7 325,-157.7 239,-157.7"/>
<text text-anchor="start" x="244" y="-166.3" font-family="Helvetica,sans-Serif" font-weight="bold" font-size="11.00" fill="#000000">note</text>
<text text-anchor="start" x="290.0437" y="-165.8" font-family="Helvetica,sans-Serif" font-size="11.00" fill="#000000">[table]</text>
<polygon fill="none" stroke="#000000" points="239,-138.7 239,-157.7 325,-157.7 325,-138.7 239,-138.7"/>
<text text-anchor="start" x="242" y="-144.8" font-family="Helvetica,sans-Serif" font-size="11.00" fill="#000000">...</text>
<polygon fill="#ffffff" stroke="transparent" points="239,-119.7 239,-138.7 260,-138.7 260,-119.7 239,-119.7"/>
<polygon fill="none" stroke="#000000" points="239,-119.7 239,-138.7 260,-138.7 260,-119.7 239,-119.7"/>
<text text-anchor="start" x="241.7027" y="-125.8" font-family="Helvetica,sans-Serif" font-size="11.00" fill="#000000">&lt; 2</text>
<polygon fill="#ffffff" stroke="transparent" points="260,-119.7 260,-138.7 304,-138.7 304,-119.7 260,-119.7"/>
<polygon fill="none" stroke="#000000" points="260,-119.7 260,-138.7 304,-138.7 304,-119.7 260,-119.7"/>
<text text-anchor="start" x="262.7478" y="-125.8" font-family="Helvetica,sans-Serif" font-size="11.00" fill="#000000">63 rows</text>
<polygon fill="#ffffff" stroke="transparent" points="304,-119.7 304,-138.7 325,-138.7 325,-119.7 304,-119.7"/>
<polygon fill="none" stroke="#000000" points="304,-119.7 304,-138.7 325,-138.7 325,-119.7 304,-119.7"/>
<text text-anchor="start" x="306.7027" y="-125.8" font-family="Helvetica,sans-Serif" font-size="11.00" fill="#000000">1 &gt;</text>
</a>
</g>
</g>
<!-- note&#45;&gt;member -->
<g id="edge5" class="edge">
<title>note:w&#45;&gt;member:e</title>
<path fill="none" stroke="#000000" d="M224.525,-148.5945C178.0476,-154.5903 166.407,-188.7 112.5,-188.7"/>
<polygon fill="#000000" stroke="#000000" points="231.0152,-148.1935 239.2221,-151.2931 235.0076,-147.9467 239,-147.7 239,-147.7 239,-147.7 235.0076,-147.9467 238.7779,-144.1069 231.0152,-148.1935 231.0152,-148.1935"/>
<ellipse fill="none" stroke="#000000" cx="227.8213" cy="-148.3908" rx="3.2" ry="3.2"/>
</g>
<!-- theme_member -->
<g id="node7" class="node">
<title>theme_member</title>
<g id="a_node7"><a xlink:href="../../tables/theme_member.html" xlink:title="theme_member" target="_top">
<polygon fill="#ffffff" stroke="transparent" points="210.5,-38.2 210.5,-99.2 353.5,-99.2 353.5,-38.2 210.5,-38.2"/>
<polygon fill="#f5f5f5" stroke="transparent" points="211,-75.7 211,-98.7 354,-98.7 354,-75.7 211,-75.7"/>
<polygon fill="none" stroke="#000000" points="211,-75.7 211,-98.7 354,-98.7 354,-75.7 211,-75.7"/>
<text text-anchor="start" x="216" y="-84.3" font-family="Helvetica,sans-Serif" font-weight="bold" font-size="11.00" fill="#000000">theme_member</text>
<text text-anchor="start" x="319.5219" y="-83.8" font-family="Helvetica,sans-Serif" font-size="11.00" fill="#000000">[table]</text>
<polygon fill="none" stroke="#000000" points="211,-56.7 211,-75.7 354,-75.7 354,-56.7 211,-56.7"/>
<text text-anchor="start" x="214" y="-62.8" font-family="Helvetica,sans-Serif" font-size="11.00" fill="#000000">...</text>
<polygon fill="#ffffff" stroke="transparent" points="211,-37.7 211,-56.7 265,-56.7 265,-37.7 211,-37.7"/>
<polygon fill="none" stroke="#000000" points="211,-37.7 211,-56.7 265,-56.7 265,-37.7 211,-37.7"/>
<text text-anchor="start" x="214" y="-43.8" font-family="Helvetica,sans-Serif" font-size="11.00" fill="#000000">&lt; 2</text>
<polygon fill="#ffffff" stroke="transparent" points="265,-37.7 265,-56.7 325,-56.7 325,-37.7 265,-37.7"/>
<polygon fill="none" stroke="#000000" points="265,-37.7 265,-56.7 325,-56.7 325,-37.7 265,-37.7"/>
<text text-anchor="start" x="283.4956" y="-43.8" font-family="Helvetica,sans-Serif" font-size="11.00" fill="#000000">30 rows</text>
<polygon fill="#ffffff" stroke="transparent" points="325,-37.7 325,-56.7 354,-56.7 354,-37.7 325,-37.7"/>
<polygon fill="none" stroke="#000000" points="325,-37.7 325,-56.7 354,-56.7 354,-37.7 325,-37.7"/>
<text text-anchor="start" x="344.8862" y="-43.8" font-family="Helvetica,sans-Serif" font-size="11.00" fill="#000000"> &#160;</text>
</a>
</g>
</g>
<!-- theme_member&#45;&gt;member -->
<g id="edge6" class="edge">
<title>theme_member:w&#45;&gt;member:e</title>
<path fill="none" stroke="#000000" d="M196.7117,-68.2465C181.6288,-74.6629 178.655,-92.2313 164,-109.7 137.0621,-141.8099 154.4129,-188.7 112.5,-188.7"/>
<polygon fill="#000000" stroke="#000000" points="203.1241,-67.1037 211.6317,-69.2442 207.0621,-66.4019 211,-65.7 211,-65.7 211,-65.7 207.0621,-66.4019 210.3683,-62.1558 203.1241,-67.1037 203.1241,-67.1037"/>
<ellipse fill="none" stroke="#000000" cx="199.9737" cy="-67.6652" rx="3.2" ry="3.2"/>
</g>
</g>
</svg>
