<?xml version="1.0" encoding="UTF-8" standalone="no"?>
<!DOCTYPE svg PUBLIC "-//W3C//DTD SVG 1.1//EN"
 "http://www.w3.org/Graphics/SVG/1.1/DTD/svg11.dtd">
<!-- Generated by graphviz version 2.40.1 (20161225.0304)
 -->
<!-- Title: twoDegreesRelationshipsDiagram Pages: 1 -->
<svg width="632pt" height="371pt"
 viewBox="0.00 0.00 632.00 371.20" xmlns="http://www.w3.org/2000/svg" xmlns:xlink="http://www.w3.org/1999/xlink">
<g id="graph0" class="graph" transform="scale(1 1) rotate(0) translate(4 367.2)">
<title>twoDegreesRelationshipsDiagram</title>
<polygon fill="#ffffff" stroke="transparent" points="-4,4 -4,-367.2 628,-367.2 628,4 -4,4"/>
<text text-anchor="middle" x="72.4936" y="-7.3" font-family="Helvetica,sans-Serif" font-size="11.00" fill="#000000">Generated by SchemaSpy</text>
<!-- group_member -->
<g id="node1" class="node">
<title>group_member</title>
<g id="a_node1"><a xlink:href="../../tables/group_member.html" xlink:title="group_member" target="_top">
<polygon fill="#ffffff" stroke="transparent" points="211.5,-298.2 211.5,-359.2 351.5,-359.2 351.5,-298.2 211.5,-298.2"/>
<polygon fill="#f5f5f5" stroke="transparent" points="211.5,-335.7 211.5,-358.7 351.5,-358.7 351.5,-335.7 211.5,-335.7"/>
<polygon fill="none" stroke="#000000" points="211.5,-335.7 211.5,-358.7 351.5,-358.7 351.5,-335.7 211.5,-335.7"/>
<text text-anchor="start" x="216.5" y="-344.3" font-family="Helvetica,sans-Serif" font-weight="bold" font-size="11.00" fill="#000000">group_member</text>
<text text-anchor="start" x="317.0219" y="-343.8" font-family="Helvetica,sans-Serif" font-size="11.00" fill="#000000">[table]</text>
<polygon fill="none" stroke="#000000" points="211.5,-316.7 211.5,-335.7 351.5,-335.7 351.5,-316.7 211.5,-316.7"/>
<text text-anchor="start" x="214.5" y="-322.8" font-family="Helvetica,sans-Serif" font-size="11.00" fill="#000000">...</text>
<polygon fill="#ffffff" stroke="transparent" points="211.5,-297.7 211.5,-316.7 266.5,-316.7 266.5,-297.7 211.5,-297.7"/>
<polygon fill="none" stroke="#000000" points="211.5,-297.7 211.5,-316.7 266.5,-316.7 266.5,-297.7 211.5,-297.7"/>
<text text-anchor="start" x="214.5" y="-303.8" font-family="Helvetica,sans-Serif" font-size="11.00" fill="#000000">&lt; 2</text>
<polygon fill="#ffffff" stroke="transparent" points="266.5,-297.7 266.5,-316.7 321.5,-316.7 321.5,-297.7 266.5,-297.7"/>
<polygon fill="none" stroke="#000000" points="266.5,-297.7 266.5,-316.7 321.5,-316.7 321.5,-297.7 266.5,-297.7"/>
<text text-anchor="start" x="286.1105" y="-303.8" font-family="Helvetica,sans-Serif" font-size="11.00" fill="#000000">7 rows</text>
<polygon fill="#ffffff" stroke="transparent" points="321.5,-297.7 321.5,-316.7 351.5,-316.7 351.5,-297.7 321.5,-297.7"/>
<polygon fill="none" stroke="#000000" points="321.5,-297.7 321.5,-316.7 351.5,-316.7 351.5,-297.7 321.5,-297.7"/>
<text text-anchor="start" x="342.3862" y="-303.8" font-family="Helvetica,sans-Serif" font-size="11.00" fill="#000000"> &#160;</text>
</a>
</g>
</g>
<!-- group_note -->
<g id="node2" class="node">
<title>group_note</title>
<g id="a_node2"><a xlink:href="../../tables/group_note.html" xlink:title="group_note" target="_top">
<polygon fill="#ffffff" stroke="transparent" points="8,-201.2 8,-306.2 123,-306.2 123,-201.2 8,-201.2"/>
<polygon fill="#f5f5f5" stroke="transparent" points="8.5,-282.7 8.5,-305.7 123.5,-305.7 123.5,-282.7 8.5,-282.7"/>
<polygon fill="none" stroke="#000000" points="8.5,-282.7 8.5,-305.7 123.5,-305.7 123.5,-282.7 8.5,-282.7"/>
<text text-anchor="start" x="13.5" y="-291.3" font-family="Helvetica,sans-Serif" font-weight="bold" font-size="11.00" fill="#000000">group_note</text>
<text text-anchor="start" x="89.0219" y="-290.8" font-family="Helvetica,sans-Serif" font-size="11.00" fill="#000000">[table]</text>
<polygon fill="none" stroke="#000000" points="8.5,-260.7 8.5,-282.7 123.5,-282.7 123.5,-260.7 8.5,-260.7"/>
<image xlink:href="../../images/primaryKeys.png" width="11px" height="12px" preserveAspectRatio="xMinYMin meet" x="13.5" y="-277.7"/>
<text text-anchor="start" x="37.5" y="-267.8" font-family="Helvetica,sans-Serif" font-size="11.00" fill="#000000">id</text>
<polygon fill="#ffffff" stroke="transparent" points="8.5,-238.7 8.5,-260.7 123.5,-260.7 123.5,-238.7 8.5,-238.7"/>
<polygon fill="none" stroke="#000000" points="8.5,-238.7 8.5,-260.7 123.5,-260.7 123.5,-238.7 8.5,-238.7"/>
<text text-anchor="start" x="37.5" y="-245.8" font-family="Helvetica,sans-Serif" font-size="11.00" fill="#000000">name</text>
<polygon fill="none" stroke="#000000" points="8.5,-219.7 8.5,-238.7 123.5,-238.7 123.5,-219.7 8.5,-219.7"/>
<text text-anchor="start" x="11.5" y="-225.8" font-family="Helvetica,sans-Serif" font-size="11.00" fill="#000000">...</text>
<polygon fill="#ffffff" stroke="transparent" points="8.5,-200.7 8.5,-219.7 55.5,-219.7 55.5,-200.7 8.5,-200.7"/>
<polygon fill="none" stroke="#000000" points="8.5,-200.7 8.5,-219.7 55.5,-219.7 55.5,-200.7 8.5,-200.7"/>
<text text-anchor="start" x="11.5" y="-206.8" font-family="Helvetica,sans-Serif" font-size="11.00" fill="#000000"> &#160;</text>
<polygon fill="#ffffff" stroke="transparent" points="55.5,-200.7 55.5,-219.7 84.5,-219.7 84.5,-200.7 55.5,-200.7"/>
<polygon fill="none" stroke="#000000" points="55.5,-200.7 55.5,-219.7 84.5,-219.7 84.5,-200.7 55.5,-200.7"/>
<text text-anchor="start" x="75.3862" y="-206.8" font-family="Helvetica,sans-Serif" font-size="11.00" fill="#000000"> &#160;</text>
<polygon fill="#ffffff" stroke="transparent" points="84.5,-200.7 84.5,-219.7 123.5,-219.7 123.5,-200.7 84.5,-200.7"/>
<polygon fill="none" stroke="#000000" points="84.5,-200.7 84.5,-219.7 123.5,-219.7 123.5,-200.7 84.5,-200.7"/>
<text text-anchor="start" x="104.9053" y="-206.8" font-family="Helvetica,sans-Serif" font-size="11.00" fill="#000000">2 &gt;</text>
</a>
</g>
</g>
<!-- group_member&#45;&gt;group_note -->
<g id="edge1" class="edge">
<title>group_member:w&#45;&gt;group_note:e</title>
<path fill="none" stroke="#000000" d="M196.8382,-323.5163C165.7984,-313.4137 163.831,-271.7 123.5,-271.7"/>
<polygon fill="#000000" stroke="#000000" points="203.5873,-324.5214 210.9696,-329.2607 207.5436,-325.1107 211.5,-325.7 211.5,-325.7 211.5,-325.7 207.5436,-325.1107 212.0304,-322.1393 203.5873,-324.5214 203.5873,-324.5214"/>
<ellipse fill="none" stroke="#000000" cx="200.4222" cy="-324.05" rx="3.2" ry="3.2"/>
</g>
<!-- group_subtype -->
<g id="node3" class="node">
<title>group_subtype</title>
<g id="a_node3"><a xlink:href="../../tables/group_subtype.html" xlink:title="group_subtype" target="_top">
<polygon fill="#ffffff" stroke="transparent" points="172,-120.7 172,-276.7 391,-276.7 391,-120.7 172,-120.7"/>
<polygon fill="#f5f5f5" stroke="transparent" points="174.5,-251.7 174.5,-274.7 389.5,-274.7 389.5,-251.7 174.5,-251.7"/>
<polygon fill="none" stroke="#000000" points="174.5,-251.7 174.5,-274.7 389.5,-274.7 389.5,-251.7 174.5,-251.7"/>
<text text-anchor="start" x="179.5" y="-260.3" font-family="Helvetica,sans-Serif" font-weight="bold" font-size="11.00" fill="#000000">group_subtype</text>
<text text-anchor="start" x="354.5437" y="-259.8" font-family="Helvetica,sans-Serif" font-size="11.00" fill="#000000">[table]</text>
<polygon fill="none" stroke="#000000" points="174.5,-229.7 174.5,-251.7 295.5,-251.7 295.5,-229.7 174.5,-229.7"/>
<image xlink:href="../../images/primaryKeys.png" width="11px" height="12px" preserveAspectRatio="xMinYMin meet" x="179.5" y="-246.7"/>
<text text-anchor="start" x="194.5" y="-236.8" font-family="Helvetica,sans-Serif" font-size="11.00" fill="#000000">id</text>
<polygon fill="none" stroke="#000000" points="295.5,-229.7 295.5,-251.7 389.5,-251.7 389.5,-229.7 295.5,-229.7"/>
<text text-anchor="start" x="298.5" y="-237.4" font-family="Helvetica,sans-Serif" font-size="11.00" fill="#000000">bigserial[19]</text>
<polygon fill="#ffffff" stroke="transparent" points="174.5,-207.7 174.5,-229.7 295.5,-229.7 295.5,-207.7 174.5,-207.7"/>
<polygon fill="none" stroke="#000000" points="174.5,-207.7 174.5,-229.7 295.5,-229.7 295.5,-207.7 174.5,-207.7"/>
<image xlink:href="../../images/foreignKeys.png" width="11px" height="12px" preserveAspectRatio="xMinYMin meet" x="179.5" y="-224.7"/>
<text text-anchor="start" x="194.5" y="-214.8" font-family="Helvetica,sans-Serif" font-size="11.00" fill="#000000">group_note</text>
<polygon fill="none" stroke="#000000" points="295.5,-207.7 295.5,-229.7 389.5,-229.7 389.5,-207.7 295.5,-207.7"/>
<text text-anchor="start" x="298.4758" y="-215.4" font-family="Helvetica,sans-Serif" font-size="11.00" fill="#000000">uuid[2147483647]</text>
<polygon fill="#ffffff" stroke="transparent" points="174.5,-185.7 174.5,-207.7 295.5,-207.7 295.5,-185.7 174.5,-185.7"/>
<polygon fill="none" stroke="#000000" points="174.5,-185.7 174.5,-207.7 295.5,-207.7 295.5,-185.7 174.5,-185.7"/>
<image xlink:href="../../images/foreignKeys.png" width="11px" height="12px" preserveAspectRatio="xMinYMin meet" x="179.5" y="-202.7"/>
<text text-anchor="start" x="194.5" y="-192.8" font-family="Helvetica,sans-Serif" font-size="11.00" fill="#000000">subtype</text>
<polygon fill="none" stroke="#000000" points="295.5,-185.7 295.5,-207.7 389.5,-207.7 389.5,-185.7 295.5,-185.7"/>
<text text-anchor="start" x="298.4758" y="-193.4" font-family="Helvetica,sans-Serif" font-size="11.00" fill="#000000">uuid[2147483647]</text>
<polygon fill="#ffffff" stroke="transparent" points="174.5,-163.7 174.5,-185.7 295.5,-185.7 295.5,-163.7 174.5,-163.7"/>
<polygon fill="none" stroke="#000000" points="174.5,-163.7 174.5,-185.7 295.5,-185.7 295.5,-163.7 174.5,-163.7"/>
<text text-anchor="start" x="194.5" y="-170.8" font-family="Helvetica,sans-Serif" font-size="11.00" fill="#000000">index</text>
<polygon fill="none" stroke="#000000" points="295.5,-163.7 295.5,-185.7 389.5,-185.7 389.5,-163.7 295.5,-163.7"/>
<text text-anchor="start" x="298.5" y="-171.4" font-family="Helvetica,sans-Serif" font-size="11.00" fill="#000000">int4[10]</text>
<polygon fill="none" stroke="#000000" points="174.5,-141.7 174.5,-163.7 295.5,-163.7 295.5,-141.7 174.5,-141.7"/>
<text text-anchor="start" x="194.5" y="-148.8" font-family="Helvetica,sans-Serif" font-size="11.00" fill="#000000">color</text>
<polygon fill="none" stroke="#000000" points="295.5,-141.7 295.5,-163.7 389.5,-163.7 389.5,-141.7 295.5,-141.7"/>
<text text-anchor="start" x="298.5" y="-149.4" font-family="Helvetica,sans-Serif" font-size="11.00" fill="#000000">varchar[50]</text>
<polygon fill="#ffffff" stroke="transparent" points="174.5,-122.7 174.5,-141.7 226.5,-141.7 226.5,-122.7 174.5,-122.7"/>
<polygon fill="none" stroke="#000000" points="174.5,-122.7 174.5,-141.7 226.5,-141.7 226.5,-122.7 174.5,-122.7"/>
<text text-anchor="start" x="177.5" y="-128.8" font-family="Helvetica,sans-Serif" font-size="11.00" fill="#000000">&lt; 2</text>
<polygon fill="#ffffff" stroke="transparent" points="226.5,-122.7 226.5,-141.7 295.5,-141.7 295.5,-122.7 226.5,-122.7"/>
<polygon fill="none" stroke="#000000" points="226.5,-122.7 226.5,-141.7 295.5,-141.7 295.5,-122.7 226.5,-122.7"/>
<text text-anchor="start" x="260.1105" y="-128.8" font-family="Helvetica,sans-Serif" font-size="11.00" fill="#000000">5 rows</text>
<polygon fill="#ffffff" stroke="transparent" points="295.5,-122.7 295.5,-141.7 389.5,-141.7 389.5,-122.7 295.5,-122.7"/>
<polygon fill="none" stroke="#000000" points="295.5,-122.7 295.5,-141.7 389.5,-141.7 389.5,-122.7 295.5,-122.7"/>
<text text-anchor="start" x="370.9053" y="-128.8" font-family="Helvetica,sans-Serif" font-size="11.00" fill="#000000">1 &gt;</text>
<polygon fill="none" stroke="#000000" stroke-width="2" points="173,-121.7 173,-275.7 390,-275.7 390,-121.7 173,-121.7"/>
</a>
</g>
</g>
<!-- group_subtype&#45;&gt;group_note -->
<g id="edge2" class="edge">
<title>group_subtype:w&#45;&gt;group_note:e</title>
<path fill="none" stroke="#000000" d="M160.4557,-223.5911C145.5477,-236.7117 150.0607,-271.7 123.5,-271.7"/>
<polygon fill="#000000" stroke="#000000" points="166.945,-221.3311 175.684,-222.0997 170.7225,-220.0156 174.5,-218.7 174.5,-218.7 174.5,-218.7 170.7225,-220.0156 173.316,-215.3003 166.945,-221.3311 166.945,-221.3311"/>
<ellipse fill="none" stroke="#000000" cx="163.9231" cy="-222.3836" rx="3.2" ry="3.2"/>
</g>
<!-- subtype -->
<g id="node4" class="node">
<title>subtype</title>
<g id="a_node4"><a xlink:href="../../tables/subtype.html" xlink:title="subtype" target="_top">
<polygon fill="#ffffff" stroke="transparent" points="19,-62.2 19,-167.2 112,-167.2 112,-62.2 19,-62.2"/>
<polygon fill="#f5f5f5" stroke="transparent" points="19.5,-143.7 19.5,-166.7 112.5,-166.7 112.5,-143.7 19.5,-143.7"/>
<polygon fill="none" stroke="#000000" points="19.5,-143.7 19.5,-166.7 112.5,-166.7 112.5,-143.7 19.5,-143.7"/>
<text text-anchor="start" x="24.5" y="-152.3" font-family="Helvetica,sans-Serif" font-weight="bold" font-size="11.00" fill="#000000">subtype</text>
<text text-anchor="start" x="78.0219" y="-151.8" font-family="Helvetica,sans-Serif" font-size="11.00" fill="#000000">[table]</text>
<polygon fill="none" stroke="#000000" points="19.5,-121.7 19.5,-143.7 112.5,-143.7 112.5,-121.7 19.5,-121.7"/>
<image xlink:href="../../images/primaryKeys.png" width="11px" height="12px" preserveAspectRatio="xMinYMin meet" x="24.5" y="-138.7"/>
<text text-anchor="start" x="48.5" y="-128.8" font-family="Helvetica,sans-Serif" font-size="11.00" fill="#000000">id</text>
<polygon fill="#ffffff" stroke="transparent" points="19.5,-99.7 19.5,-121.7 112.5,-121.7 112.5,-99.7 19.5,-99.7"/>
<polygon fill="none" stroke="#000000" points="19.5,-99.7 19.5,-121.7 112.5,-121.7 112.5,-99.7 19.5,-99.7"/>
<text text-anchor="start" x="48.5" y="-106.8" font-family="Helvetica,sans-Serif" font-size="11.00" fill="#000000">name</text>
<polygon fill="none" stroke="#000000" points="19.5,-80.7 19.5,-99.7 112.5,-99.7 112.5,-80.7 19.5,-80.7"/>
<text text-anchor="start" x="22.5" y="-86.8" font-family="Helvetica,sans-Serif" font-size="11.00" fill="#000000">...</text>
<polygon fill="#ffffff" stroke="transparent" points="19.5,-61.7 19.5,-80.7 42.5,-80.7 42.5,-61.7 19.5,-61.7"/>
<polygon fill="none" stroke="#000000" points="19.5,-61.7 19.5,-80.7 42.5,-80.7 42.5,-61.7 19.5,-61.7"/>
<text text-anchor="start" x="22.5" y="-67.8" font-family="Helvetica,sans-Serif" font-size="11.00" fill="#000000"> &#160;</text>
<polygon fill="#ffffff" stroke="transparent" points="42.5,-61.7 42.5,-80.7 85.5,-80.7 85.5,-61.7 42.5,-61.7"/>
<polygon fill="none" stroke="#000000" points="42.5,-61.7 42.5,-80.7 85.5,-80.7 85.5,-61.7 42.5,-61.7"/>
<text text-anchor="start" x="50.1105" y="-67.8" font-family="Helvetica,sans-Serif" font-size="11.00" fill="#000000">9 rows</text>
<polygon fill="#ffffff" stroke="transparent" points="85.5,-61.7 85.5,-80.7 112.5,-80.7 112.5,-61.7 85.5,-61.7"/>
<polygon fill="none" stroke="#000000" points="85.5,-61.7 85.5,-80.7 112.5,-80.7 112.5,-61.7 85.5,-61.7"/>
<text text-anchor="start" x="93.9053" y="-67.8" font-family="Helvetica,sans-Serif" font-size="11.00" fill="#000000">2 &gt;</text>
</a>
</g>
</g>
<!-- group_subtype&#45;&gt;subtype -->
<g id="edge3" class="edge">
<title>group_subtype:w&#45;&gt;subtype:e</title>
<path fill="none" stroke="#000000" d="M160.5455,-193.0757C138.6839,-179.5369 146.3791,-132.7 112.5,-132.7"/>
<polygon fill="#000000" stroke="#000000" points="166.7569,-194.6889 173.595,-200.1844 170.6284,-195.6945 174.5,-196.7 174.5,-196.7 174.5,-196.7 170.6284,-195.6945 175.405,-193.2156 166.7569,-194.6889 166.7569,-194.6889"/>
<ellipse fill="none" stroke="#000000" cx="163.6597" cy="-193.8845" rx="3.2" ry="3.2"/>
</g>
<!-- note -->
<g id="node5" class="node">
<title>note</title>
<g id="a_node5"><a xlink:href="../../tables/note.html" xlink:title="note" target="_top">
<polygon fill="#ffffff" stroke="transparent" points="238.5,-38.2 238.5,-99.2 324.5,-99.2 324.5,-38.2 238.5,-38.2"/>
<polygon fill="#f5f5f5" stroke="transparent" points="238.5,-75.7 238.5,-98.7 324.5,-98.7 324.5,-75.7 238.5,-75.7"/>
<polygon fill="none" stroke="#000000" points="238.5,-75.7 238.5,-98.7 324.5,-98.7 324.5,-75.7 238.5,-75.7"/>
<text text-anchor="start" x="243.5" y="-84.3" font-family="Helvetica,sans-Serif" font-weight="bold" font-size="11.00" fill="#000000">note</text>
<text text-anchor="start" x="289.5437" y="-83.8" font-family="Helvetica,sans-Serif" font-size="11.00" fill="#000000">[table]</text>
<polygon fill="none" stroke="#000000" points="238.5,-56.7 238.5,-75.7 324.5,-75.7 324.5,-56.7 238.5,-56.7"/>
<text text-anchor="start" x="241.5" y="-62.8" font-family="Helvetica,sans-Serif" font-size="11.00" fill="#000000">...</text>
<polygon fill="#ffffff" stroke="transparent" points="238.5,-37.7 238.5,-56.7 259.5,-56.7 259.5,-37.7 238.5,-37.7"/>
<polygon fill="none" stroke="#000000" points="238.5,-37.7 238.5,-56.7 259.5,-56.7 259.5,-37.7 238.5,-37.7"/>
<text text-anchor="start" x="241.2027" y="-43.8" font-family="Helvetica,sans-Serif" font-size="11.00" fill="#000000">&lt; 2</text>
<polygon fill="#ffffff" stroke="transparent" points="259.5,-37.7 259.5,-56.7 303.5,-56.7 303.5,-37.7 259.5,-37.7"/>
<polygon fill="none" stroke="#000000" points="259.5,-37.7 259.5,-56.7 303.5,-56.7 303.5,-37.7 259.5,-37.7"/>
<text text-anchor="start" x="262.2478" y="-43.8" font-family="Helvetica,sans-Serif" font-size="11.00" fill="#000000">63 rows</text>
<polygon fill="#ffffff" stroke="transparent" points="303.5,-37.7 303.5,-56.7 324.5,-56.7 324.5,-37.7 303.5,-37.7"/>
<polygon fill="none" stroke="#000000" points="303.5,-37.7 303.5,-56.7 324.5,-56.7 324.5,-37.7 303.5,-37.7"/>
<text text-anchor="start" x="306.2027" y="-43.8" font-family="Helvetica,sans-Serif" font-size="11.00" fill="#000000">1 &gt;</text>
</a>
</g>
</g>
<!-- note&#45;&gt;subtype -->
<g id="edge4" class="edge">
<title>note:w&#45;&gt;subtype:e</title>
<path fill="none" stroke="#000000" d="M224.376,-68.9315C190.7104,-82.3151 140.0006,-132.7 112.5,-132.7"/>
<polygon fill="#000000" stroke="#000000" points="230.7015,-67.4843 239.3029,-69.2093 234.6008,-66.5922 238.5,-65.7 238.5,-65.7 238.5,-65.7 234.6008,-66.5922 237.6971,-62.1907 230.7015,-67.4843 230.7015,-67.4843"/>
<ellipse fill="none" stroke="#000000" cx="227.5821" cy="-68.1981" rx="3.2" ry="3.2"/>
</g>
<!-- subtype_note_group -->
<g id="node6" class="node">
<title>subtype_note_group</title>
<g id="a_node6"><a xlink:href="../../tables/subtype_note_group.html" xlink:title="subtype_note_group" target="_top">
<polygon fill="#ffffff" stroke="transparent" points="440,-111.7 440,-219.7 616,-219.7 616,-111.7 440,-111.7"/>
<polygon fill="#f5f5f5" stroke="transparent" points="440,-196.7 440,-219.7 616,-219.7 616,-196.7 440,-196.7"/>
<polygon fill="none" stroke="#000000" points="440,-196.7 440,-219.7 616,-219.7 616,-196.7 440,-196.7"/>
<text text-anchor="start" x="445" y="-205.3" font-family="Helvetica,sans-Serif" font-weight="bold" font-size="11.00" fill="#000000">subtype_note_group</text>
<text text-anchor="start" x="581.5219" y="-204.8" font-family="Helvetica,sans-Serif" font-size="11.00" fill="#000000">[table]</text>
<polygon fill="none" stroke="#000000" points="440,-174.7 440,-196.7 616,-196.7 616,-174.7 440,-174.7"/>
<image xlink:href="../../images/primaryKeys.png" width="11px" height="12px" preserveAspectRatio="xMinYMin meet" x="445" y="-191.7"/>
<text text-anchor="start" x="469" y="-181.8" font-family="Helvetica,sans-Serif" font-size="11.00" fill="#000000">id</text>
<polygon fill="#ffffff" stroke="transparent" points="440,-152.7 440,-174.7 616,-174.7 616,-152.7 440,-152.7"/>
<polygon fill="none" stroke="#000000" points="440,-152.7 440,-174.7 616,-174.7 616,-152.7 440,-152.7"/>
<image xlink:href="../../images/foreignKeys.png" width="11px" height="12px" preserveAspectRatio="xMinYMin meet" x="445" y="-169.7"/>
<text text-anchor="start" x="469" y="-159.8" font-family="Helvetica,sans-Serif" font-size="11.00" fill="#000000">subtype_group</text>
<polygon fill="none" stroke="#000000" points="440,-130.7 440,-152.7 616,-152.7 616,-130.7 440,-130.7"/>
<image xlink:href="../../images/foreignKeys.png" width="11px" height="12px" preserveAspectRatio="xMinYMin meet" x="445" y="-147.7"/>
<text text-anchor="start" x="469" y="-137.8" font-family="Helvetica,sans-Serif" font-size="11.00" fill="#000000">note</text>
<polygon fill="#ffffff" stroke="transparent" points="440,-111.7 440,-130.7 510,-130.7 510,-111.7 440,-111.7"/>
<polygon fill="none" stroke="#000000" points="440,-111.7 440,-130.7 510,-130.7 510,-111.7 440,-111.7"/>
<text text-anchor="start" x="443" y="-117.8" font-family="Helvetica,sans-Serif" font-size="11.00" fill="#000000">&lt; 2</text>
<polygon fill="#ffffff" stroke="transparent" points="510,-111.7 510,-130.7 579,-130.7 579,-111.7 510,-111.7"/>
<polygon fill="none" stroke="#000000" points="510,-111.7 510,-130.7 579,-130.7 579,-111.7 510,-111.7"/>
<text text-anchor="start" x="537.4956" y="-117.8" font-family="Helvetica,sans-Serif" font-size="11.00" fill="#000000">31 rows</text>
<polygon fill="#ffffff" stroke="transparent" points="579,-111.7 579,-130.7 616,-130.7 616,-111.7 579,-111.7"/>
<polygon fill="none" stroke="#000000" points="579,-111.7 579,-130.7 616,-130.7 616,-111.7 579,-111.7"/>
<text text-anchor="start" x="606.8862" y="-117.8" font-family="Helvetica,sans-Serif" font-size="11.00" fill="#000000"> &#160;</text>
</a>
</g>
</g>
<!-- subtype_note_group&#45;&gt;group_subtype -->
<g id="edge6" class="edge">
<title>subtype_note_group:w&#45;&gt;group_subtype:e</title>
<path fill="none" stroke="#000000" d="M426.0801,-168.2861C406.7892,-184.8628 424.3508,-240.7 389.5,-240.7"/>
<polygon fill="#000000" stroke="#000000" points="432.4018,-166.2034 441.1265,-167.1192 436.2009,-164.9517 440,-163.7 440,-163.7 440,-163.7 436.2009,-164.9517 438.8735,-160.2808 432.4018,-166.2034 432.4018,-166.2034"/>
<ellipse fill="none" stroke="#000000" cx="429.3625" cy="-167.2047" rx="3.2" ry="3.2"/>
</g>
<!-- subtype_note_group&#45;&gt;note -->
<g id="edge5" class="edge">
<title>subtype_note_group:w&#45;&gt;note:e</title>
<path fill="none" stroke="#000000" d="M425.9807,-138.2918C416.1703,-132.4169 412.8898,-120.1087 399,-110.7 366.9734,-89.0058 363.1826,-65.7 324.5,-65.7"/>
<polygon fill="#000000" stroke="#000000" points="432.2264,-139.8101 439.1496,-145.1981 436.1132,-140.7551 440,-141.7 440,-141.7 440,-141.7 436.1132,-140.7551 440.8504,-138.2019 432.2264,-139.8101 432.2264,-139.8101"/>
<ellipse fill="none" stroke="#000000" cx="429.117" cy="-139.0542" rx="3.2" ry="3.2"/>
</g>
</g>
</svg>
