<?xml version="1.0" encoding="UTF-8" standalone="no"?>
<!DOCTYPE svg PUBLIC "-//W3C//DTD SVG 1.1//EN"
 "http://www.w3.org/Graphics/SVG/1.1/DTD/svg11.dtd">
<!-- Generated by graphviz version 2.40.1 (20161225.0304)
 -->
<!-- Title: oneDegreeRelationshipsDiagram Pages: 1 -->
<svg width="341pt" height="157pt"
 viewBox="0.00 0.00 341.00 156.70" xmlns="http://www.w3.org/2000/svg" xmlns:xlink="http://www.w3.org/1999/xlink">
<g id="graph0" class="graph" transform="scale(1 1) rotate(0) translate(4 152.7)">
<title>oneDegreeRelationshipsDiagram</title>
<polygon fill="#ffffff" stroke="transparent" points="-4,4 -4,-152.7 337,-152.7 337,4 -4,4"/>
<text text-anchor="middle" x="72.4936" y="-7.3" font-family="Helvetica,sans-Serif" font-size="11.00" fill="#000000">Generated by SchemaSpy</text>
<!-- login -->
<g id="node1" class="node">
<title>login</title>
<g id="a_node1"><a xlink:href="../../tables/login.html" xlink:title="login" target="_top">
<polygon fill="#ffffff" stroke="transparent" points="151,-54.7 151,-144.7 325,-144.7 325,-54.7 151,-54.7"/>
<polygon fill="#f5f5f5" stroke="transparent" points="153,-119.7 153,-142.7 323,-142.7 323,-119.7 153,-119.7"/>
<polygon fill="none" stroke="#000000" points="153,-119.7 153,-142.7 323,-142.7 323,-119.7 153,-119.7"/>
<text text-anchor="start" x="158" y="-128.3" font-family="Helvetica,sans-Serif" font-weight="bold" font-size="11.00" fill="#000000">login</text>
<text text-anchor="start" x="288.0437" y="-127.8" font-family="Helvetica,sans-Serif" font-size="11.00" fill="#000000">[table]</text>
<polygon fill="none" stroke="#000000" points="153,-97.7 153,-119.7 229,-119.7 229,-97.7 153,-97.7"/>
<image xlink:href="../../images/primaryKeys.png" width="11px" height="12px" preserveAspectRatio="xMinYMin meet" x="158" y="-114.7"/>
<text text-anchor="start" x="173" y="-104.8" font-family="Helvetica,sans-Serif" font-size="11.00" fill="#000000">member</text>
<polygon fill="none" stroke="#000000" points="229,-97.7 229,-119.7 323,-119.7 323,-97.7 229,-97.7"/>
<text text-anchor="start" x="231.9758" y="-105.4" font-family="Helvetica,sans-Serif" font-size="11.00" fill="#000000">uuid[2147483647]</text>
<polygon fill="none" stroke="#000000" points="153,-75.7 153,-97.7 229,-97.7 229,-75.7 153,-75.7"/>
<text text-anchor="start" x="173" y="-82.8" font-family="Helvetica,sans-Serif" font-size="11.00" fill="#000000">token</text>
<polygon fill="none" stroke="#000000" points="229,-75.7 229,-97.7 323,-97.7 323,-75.7 229,-75.7"/>
<text text-anchor="start" x="232" y="-83.4" font-family="Helvetica,sans-Serif" font-size="11.00" fill="#000000">varchar[5000]</text>
<polygon fill="#ffffff" stroke="transparent" points="153,-56.7 153,-75.7 182,-75.7 182,-56.7 153,-56.7"/>
<polygon fill="none" stroke="#000000" points="153,-56.7 153,-75.7 182,-75.7 182,-56.7 153,-56.7"/>
<text text-anchor="start" x="156" y="-62.8" font-family="Helvetica,sans-Serif" font-size="11.00" fill="#000000">&lt; 1</text>
<polygon fill="#ffffff" stroke="transparent" points="182,-56.7 182,-75.7 229,-75.7 229,-56.7 182,-56.7"/>
<polygon fill="none" stroke="#000000" points="182,-56.7 182,-75.7 229,-75.7 229,-56.7 182,-56.7"/>
<text text-anchor="start" x="193.6105" y="-62.8" font-family="Helvetica,sans-Serif" font-size="11.00" fill="#000000">3 rows</text>
<polygon fill="#ffffff" stroke="transparent" points="229,-56.7 229,-75.7 323,-75.7 323,-56.7 229,-56.7"/>
<polygon fill="none" stroke="#000000" points="229,-56.7 229,-75.7 323,-75.7 323,-56.7 229,-56.7"/>
<text text-anchor="start" x="304.4053" y="-62.8" font-family="Helvetica,sans-Serif" font-size="11.00" fill="#000000">0 &gt;</text>
<polygon fill="none" stroke="#000000" stroke-width="2" points="152,-55.7 152,-143.7 324,-143.7 324,-55.7 152,-55.7"/>
</a>
</g>
</g>
<!-- member -->
<g id="node2" class="node">
<title>member</title>
<g id="a_node2"><a xlink:href="../../tables/member.html" xlink:title="member" target="_top">
<polygon fill="#ffffff" stroke="transparent" points="8,-38.2 8,-143.2 102,-143.2 102,-38.2 8,-38.2"/>
<polygon fill="#f5f5f5" stroke="transparent" points="8,-119.7 8,-142.7 102,-142.7 102,-119.7 8,-119.7"/>
<polygon fill="none" stroke="#000000" points="8,-119.7 8,-142.7 102,-142.7 102,-119.7 8,-119.7"/>
<text text-anchor="start" x="13" y="-128.3" font-family="Helvetica,sans-Serif" font-weight="bold" font-size="11.00" fill="#000000">member</text>
<text text-anchor="start" x="67.5219" y="-127.8" font-family="Helvetica,sans-Serif" font-size="11.00" fill="#000000">[table]</text>
<polygon fill="none" stroke="#000000" points="8,-97.7 8,-119.7 102,-119.7 102,-97.7 8,-97.7"/>
<image xlink:href="../../images/primaryKeys.png" width="11px" height="12px" preserveAspectRatio="xMinYMin meet" x="13" y="-114.7"/>
<text text-anchor="start" x="33" y="-104.8" font-family="Helvetica,sans-Serif" font-size="11.00" fill="#000000">id</text>
<polygon fill="#ffffff" stroke="transparent" points="8,-75.7 8,-97.7 102,-97.7 102,-75.7 8,-75.7"/>
<polygon fill="none" stroke="#000000" points="8,-75.7 8,-97.7 102,-97.7 102,-75.7 8,-75.7"/>
<text text-anchor="start" x="33" y="-82.8" font-family="Helvetica,sans-Serif" font-size="11.00" fill="#000000">name</text>
<polygon fill="none" stroke="#000000" points="8,-56.7 8,-75.7 102,-75.7 102,-56.7 8,-56.7"/>
<text text-anchor="start" x="11" y="-62.8" font-family="Helvetica,sans-Serif" font-size="11.00" fill="#000000">...</text>
<polygon fill="#ffffff" stroke="transparent" points="8,-37.7 8,-56.7 34,-56.7 34,-37.7 8,-37.7"/>
<polygon fill="none" stroke="#000000" points="8,-37.7 8,-56.7 34,-56.7 34,-37.7 8,-37.7"/>
<text text-anchor="start" x="11" y="-43.8" font-family="Helvetica,sans-Serif" font-size="11.00" fill="#000000"> &#160;</text>
<polygon fill="#ffffff" stroke="transparent" points="34,-37.7 34,-56.7 73,-56.7 73,-37.7 34,-37.7"/>
<polygon fill="none" stroke="#000000" points="34,-37.7 34,-56.7 73,-56.7 73,-37.7 34,-37.7"/>
<text text-anchor="start" x="43.1105" y="-43.8" font-family="Helvetica,sans-Serif" font-size="11.00" fill="#000000">1 row</text>
<polygon fill="#ffffff" stroke="transparent" points="73,-37.7 73,-56.7 102,-56.7 102,-37.7 73,-37.7"/>
<polygon fill="none" stroke="#000000" points="73,-37.7 73,-56.7 102,-56.7 102,-37.7 73,-37.7"/>
<text text-anchor="start" x="83.4053" y="-43.8" font-family="Helvetica,sans-Serif" font-size="11.00" fill="#000000">4 &gt;</text>
</a>
</g>
</g>
<!-- login&#45;&gt;member -->
<g id="edge1" class="edge">
<title>login:w&#45;&gt;member:e</title>
<path fill="none" stroke="#000000" d="M142.2307,-108.7C127.748,-108.7 120.5938,-108.7 102,-108.7"/>
<polygon fill="#000000" stroke="#000000" points="152.2,-104.7 152.2,-112.7 150.6,-112.7 150.6,-104.7 152.2,-104.7"/>
<polyline fill="none" stroke="#000000" points="153,-108.7 149,-108.7 "/>
<ellipse fill="none" stroke="#000000" cx="145.8" cy="-108.7001" rx="3.2" ry="3.2"/>
</g>
</g>
</svg>
