<?xml version="1.0" encoding="UTF-8" standalone="no"?>
<!DOCTYPE svg PUBLIC "-//W3C//DTD SVG 1.1//EN"
 "http://www.w3.org/Graphics/SVG/1.1/DTD/svg11.dtd">
<!-- Generated by graphviz version 2.40.1 (20161225.0304)
 -->
<!-- Title: twoDegreesRelationshipsDiagram Pages: 1 -->
<svg width="341pt" height="387pt"
 viewBox="0.00 0.00 341.00 387.20" xmlns="http://www.w3.org/2000/svg" xmlns:xlink="http://www.w3.org/1999/xlink">
<g id="graph0" class="graph" transform="scale(1 1) rotate(0) translate(4 383.2)">
<title>twoDegreesRelationshipsDiagram</title>
<polygon fill="#ffffff" stroke="transparent" points="-4,4 -4,-383.2 337,-383.2 337,4 -4,4"/>
<text text-anchor="middle" x="72.4936" y="-7.3" font-family="Helvetica,sans-Serif" font-size="11.00" fill="#000000">Generated by SchemaSpy</text>
<!-- group_member -->
<g id="node1" class="node">
<title>group_member</title>
<g id="a_node1"><a xlink:href="../../tables/group_member.html" xlink:title="group_member" target="_top">
<polygon fill="#ffffff" stroke="transparent" points="168,-314.2 168,-375.2 308,-375.2 308,-314.2 168,-314.2"/>
<polygon fill="#f5f5f5" stroke="transparent" points="168,-351.7 168,-374.7 308,-374.7 308,-351.7 168,-351.7"/>
<polygon fill="none" stroke="#000000" points="168,-351.7 168,-374.7 308,-374.7 308,-351.7 168,-351.7"/>
<text text-anchor="start" x="173" y="-360.3" font-family="Helvetica,sans-Serif" font-weight="bold" font-size="11.00" fill="#000000">group_member</text>
<text text-anchor="start" x="273.5219" y="-359.8" font-family="Helvetica,sans-Serif" font-size="11.00" fill="#000000">[table]</text>
<polygon fill="none" stroke="#000000" points="168,-332.7 168,-351.7 308,-351.7 308,-332.7 168,-332.7"/>
<text text-anchor="start" x="171" y="-338.8" font-family="Helvetica,sans-Serif" font-size="11.00" fill="#000000">...</text>
<polygon fill="#ffffff" stroke="transparent" points="168,-313.7 168,-332.7 223,-332.7 223,-313.7 168,-313.7"/>
<polygon fill="none" stroke="#000000" points="168,-313.7 168,-332.7 223,-332.7 223,-313.7 168,-313.7"/>
<text text-anchor="start" x="171" y="-319.8" font-family="Helvetica,sans-Serif" font-size="11.00" fill="#000000">&lt; 2</text>
<polygon fill="#ffffff" stroke="transparent" points="223,-313.7 223,-332.7 278,-332.7 278,-313.7 223,-313.7"/>
<polygon fill="none" stroke="#000000" points="223,-313.7 223,-332.7 278,-332.7 278,-313.7 223,-313.7"/>
<text text-anchor="start" x="242.6105" y="-319.8" font-family="Helvetica,sans-Serif" font-size="11.00" fill="#000000">7 rows</text>
<polygon fill="#ffffff" stroke="transparent" points="278,-313.7 278,-332.7 308,-332.7 308,-313.7 278,-313.7"/>
<polygon fill="none" stroke="#000000" points="278,-313.7 278,-332.7 308,-332.7 308,-313.7 278,-313.7"/>
<text text-anchor="start" x="298.8862" y="-319.8" font-family="Helvetica,sans-Serif" font-size="11.00" fill="#000000"> &#160;</text>
</a>
</g>
</g>
<!-- member -->
<g id="node2" class="node">
<title>member</title>
<g id="a_node2"><a xlink:href="../../tables/member.html" xlink:title="member" target="_top">
<polygon fill="#ffffff" stroke="transparent" points="8,-131.2 8,-236.2 102,-236.2 102,-131.2 8,-131.2"/>
<polygon fill="#f5f5f5" stroke="transparent" points="8,-212.7 8,-235.7 102,-235.7 102,-212.7 8,-212.7"/>
<polygon fill="none" stroke="#000000" points="8,-212.7 8,-235.7 102,-235.7 102,-212.7 8,-212.7"/>
<text text-anchor="start" x="13" y="-221.3" font-family="Helvetica,sans-Serif" font-weight="bold" font-size="11.00" fill="#000000">member</text>
<text text-anchor="start" x="67.5219" y="-220.8" font-family="Helvetica,sans-Serif" font-size="11.00" fill="#000000">[table]</text>
<polygon fill="none" stroke="#000000" points="8,-190.7 8,-212.7 102,-212.7 102,-190.7 8,-190.7"/>
<image xlink:href="../../images/primaryKeys.png" width="11px" height="12px" preserveAspectRatio="xMinYMin meet" x="13" y="-207.7"/>
<text text-anchor="start" x="33" y="-197.8" font-family="Helvetica,sans-Serif" font-size="11.00" fill="#000000">id</text>
<polygon fill="#ffffff" stroke="transparent" points="8,-168.7 8,-190.7 102,-190.7 102,-168.7 8,-168.7"/>
<polygon fill="none" stroke="#000000" points="8,-168.7 8,-190.7 102,-190.7 102,-168.7 8,-168.7"/>
<text text-anchor="start" x="33" y="-175.8" font-family="Helvetica,sans-Serif" font-size="11.00" fill="#000000">name</text>
<polygon fill="none" stroke="#000000" points="8,-149.7 8,-168.7 102,-168.7 102,-149.7 8,-149.7"/>
<text text-anchor="start" x="11" y="-155.8" font-family="Helvetica,sans-Serif" font-size="11.00" fill="#000000">...</text>
<polygon fill="#ffffff" stroke="transparent" points="8,-130.7 8,-149.7 34,-149.7 34,-130.7 8,-130.7"/>
<polygon fill="none" stroke="#000000" points="8,-130.7 8,-149.7 34,-149.7 34,-130.7 8,-130.7"/>
<text text-anchor="start" x="11" y="-136.8" font-family="Helvetica,sans-Serif" font-size="11.00" fill="#000000"> &#160;</text>
<polygon fill="#ffffff" stroke="transparent" points="34,-130.7 34,-149.7 73,-149.7 73,-130.7 34,-130.7"/>
<polygon fill="none" stroke="#000000" points="34,-130.7 34,-149.7 73,-149.7 73,-130.7 34,-130.7"/>
<text text-anchor="start" x="43.1105" y="-136.8" font-family="Helvetica,sans-Serif" font-size="11.00" fill="#000000">1 row</text>
<polygon fill="#ffffff" stroke="transparent" points="73,-130.7 73,-149.7 102,-149.7 102,-130.7 73,-130.7"/>
<polygon fill="none" stroke="#000000" points="73,-130.7 73,-149.7 102,-149.7 102,-130.7 73,-130.7"/>
<text text-anchor="start" x="83.4053" y="-136.8" font-family="Helvetica,sans-Serif" font-size="11.00" fill="#000000">4 &gt;</text>
</a>
</g>
</g>
<!-- group_member&#45;&gt;member -->
<g id="edge1" class="edge">
<title>group_member:w&#45;&gt;member:e</title>
<path fill="none" stroke="#000000" d="M153.75,-339.0283C110.0091,-319.6733 165.147,-201.7 102,-201.7"/>
<polygon fill="#000000" stroke="#000000" points="160.137,-340.2258 167.3366,-345.2383 164.0685,-340.9629 168,-341.7 168,-341.7 168,-341.7 164.0685,-340.9629 168.6634,-338.1617 160.137,-340.2258 160.137,-340.2258"/>
<ellipse fill="none" stroke="#000000" cx="156.9918" cy="-339.6361" rx="3.2" ry="3.2"/>
</g>
<!-- login -->
<g id="node3" class="node">
<title>login</title>
<g id="a_node3"><a xlink:href="../../tables/login.html" xlink:title="login" target="_top">
<polygon fill="#ffffff" stroke="transparent" points="151,-202.7 151,-292.7 325,-292.7 325,-202.7 151,-202.7"/>
<polygon fill="#f5f5f5" stroke="transparent" points="153,-267.7 153,-290.7 323,-290.7 323,-267.7 153,-267.7"/>
<polygon fill="none" stroke="#000000" points="153,-267.7 153,-290.7 323,-290.7 323,-267.7 153,-267.7"/>
<text text-anchor="start" x="158" y="-276.3" font-family="Helvetica,sans-Serif" font-weight="bold" font-size="11.00" fill="#000000">login</text>
<text text-anchor="start" x="288.0437" y="-275.8" font-family="Helvetica,sans-Serif" font-size="11.00" fill="#000000">[table]</text>
<polygon fill="none" stroke="#000000" points="153,-245.7 153,-267.7 229,-267.7 229,-245.7 153,-245.7"/>
<image xlink:href="../../images/primaryKeys.png" width="11px" height="12px" preserveAspectRatio="xMinYMin meet" x="158" y="-262.7"/>
<text text-anchor="start" x="173" y="-252.8" font-family="Helvetica,sans-Serif" font-size="11.00" fill="#000000">member</text>
<polygon fill="none" stroke="#000000" points="229,-245.7 229,-267.7 323,-267.7 323,-245.7 229,-245.7"/>
<text text-anchor="start" x="231.9758" y="-253.4" font-family="Helvetica,sans-Serif" font-size="11.00" fill="#000000">uuid[2147483647]</text>
<polygon fill="none" stroke="#000000" points="153,-223.7 153,-245.7 229,-245.7 229,-223.7 153,-223.7"/>
<text text-anchor="start" x="173" y="-230.8" font-family="Helvetica,sans-Serif" font-size="11.00" fill="#000000">token</text>
<polygon fill="none" stroke="#000000" points="229,-223.7 229,-245.7 323,-245.7 323,-223.7 229,-223.7"/>
<text text-anchor="start" x="232" y="-231.4" font-family="Helvetica,sans-Serif" font-size="11.00" fill="#000000">varchar[5000]</text>
<polygon fill="#ffffff" stroke="transparent" points="153,-204.7 153,-223.7 182,-223.7 182,-204.7 153,-204.7"/>
<polygon fill="none" stroke="#000000" points="153,-204.7 153,-223.7 182,-223.7 182,-204.7 153,-204.7"/>
<text text-anchor="start" x="156" y="-210.8" font-family="Helvetica,sans-Serif" font-size="11.00" fill="#000000">&lt; 1</text>
<polygon fill="#ffffff" stroke="transparent" points="182,-204.7 182,-223.7 229,-223.7 229,-204.7 182,-204.7"/>
<polygon fill="none" stroke="#000000" points="182,-204.7 182,-223.7 229,-223.7 229,-204.7 182,-204.7"/>
<text text-anchor="start" x="193.6105" y="-210.8" font-family="Helvetica,sans-Serif" font-size="11.00" fill="#000000">3 rows</text>
<polygon fill="#ffffff" stroke="transparent" points="229,-204.7 229,-223.7 323,-223.7 323,-204.7 229,-204.7"/>
<polygon fill="none" stroke="#000000" points="229,-204.7 229,-223.7 323,-223.7 323,-204.7 229,-204.7"/>
<text text-anchor="start" x="304.4053" y="-210.8" font-family="Helvetica,sans-Serif" font-size="11.00" fill="#000000">0 &gt;</text>
<polygon fill="none" stroke="#000000" stroke-width="2" points="152,-203.7 152,-291.7 324,-291.7 324,-203.7 152,-203.7"/>
</a>
</g>
</g>
<!-- login&#45;&gt;member -->
<g id="edge2" class="edge">
<title>login:w&#45;&gt;member:e</title>
<path fill="none" stroke="#000000" d="M142.6047,-254.3367C122.8161,-243.8094 131.1693,-201.7 102,-201.7"/>
<polygon fill="#000000" stroke="#000000" points="153.1067,-252.6222 151.3331,-260.4231 149.7729,-260.0684 151.5465,-252.2675 153.1067,-252.6222"/>
<polyline fill="none" stroke="#000000" points="153,-256.7 149.0995,-255.8132 "/>
<ellipse fill="none" stroke="#000000" cx="145.9791" cy="-255.1038" rx="3.2" ry="3.2"/>
</g>
<!-- note -->
<g id="node4" class="node">
<title>note</title>
<g id="a_node4"><a xlink:href="../../tables/note.html" xlink:title="note" target="_top">
<polygon fill="#ffffff" stroke="transparent" points="195,-120.2 195,-181.2 281,-181.2 281,-120.2 195,-120.2"/>
<polygon fill="#f5f5f5" stroke="transparent" points="195,-157.7 195,-180.7 281,-180.7 281,-157.7 195,-157.7"/>
<polygon fill="none" stroke="#000000" points="195,-157.7 195,-180.7 281,-180.7 281,-157.7 195,-157.7"/>
<text text-anchor="start" x="200" y="-166.3" font-family="Helvetica,sans-Serif" font-weight="bold" font-size="11.00" fill="#000000">note</text>
<text text-anchor="start" x="246.0437" y="-165.8" font-family="Helvetica,sans-Serif" font-size="11.00" fill="#000000">[table]</text>
<polygon fill="none" stroke="#000000" points="195,-138.7 195,-157.7 281,-157.7 281,-138.7 195,-138.7"/>
<text text-anchor="start" x="198" y="-144.8" font-family="Helvetica,sans-Serif" font-size="11.00" fill="#000000">...</text>
<polygon fill="#ffffff" stroke="transparent" points="195,-119.7 195,-138.7 216,-138.7 216,-119.7 195,-119.7"/>
<polygon fill="none" stroke="#000000" points="195,-119.7 195,-138.7 216,-138.7 216,-119.7 195,-119.7"/>
<text text-anchor="start" x="197.7027" y="-125.8" font-family="Helvetica,sans-Serif" font-size="11.00" fill="#000000">&lt; 2</text>
<polygon fill="#ffffff" stroke="transparent" points="216,-119.7 216,-138.7 260,-138.7 260,-119.7 216,-119.7"/>
<polygon fill="none" stroke="#000000" points="216,-119.7 216,-138.7 260,-138.7 260,-119.7 216,-119.7"/>
<text text-anchor="start" x="218.7478" y="-125.8" font-family="Helvetica,sans-Serif" font-size="11.00" fill="#000000">63 rows</text>
<polygon fill="#ffffff" stroke="transparent" points="260,-119.7 260,-138.7 281,-138.7 281,-119.7 260,-119.7"/>
<polygon fill="none" stroke="#000000" points="260,-119.7 260,-138.7 281,-138.7 281,-119.7 260,-119.7"/>
<text text-anchor="start" x="262.7027" y="-125.8" font-family="Helvetica,sans-Serif" font-size="11.00" fill="#000000">1 &gt;</text>
</a>
</g>
</g>
<!-- note&#45;&gt;member -->
<g id="edge3" class="edge">
<title>note:w&#45;&gt;member:e</title>
<path fill="none" stroke="#000000" d="M180.5502,-149.6219C147.1447,-159.2414 144.3815,-201.7 102,-201.7"/>
<polygon fill="#000000" stroke="#000000" points="187.0698,-148.7548 195.4747,-151.2686 191.0349,-148.2274 195,-147.7 195,-147.7 195,-147.7 191.0349,-148.2274 194.5253,-144.1314 187.0698,-148.7548 187.0698,-148.7548"/>
<ellipse fill="none" stroke="#000000" cx="183.8978" cy="-149.1767" rx="3.2" ry="3.2"/>
</g>
<!-- theme_member -->
<g id="node5" class="node">
<title>theme_member</title>
<g id="a_node5"><a xlink:href="../../tables/theme_member.html" xlink:title="theme_member" target="_top">
<polygon fill="#ffffff" stroke="transparent" points="166.5,-38.2 166.5,-99.2 309.5,-99.2 309.5,-38.2 166.5,-38.2"/>
<polygon fill="#f5f5f5" stroke="transparent" points="167,-75.7 167,-98.7 310,-98.7 310,-75.7 167,-75.7"/>
<polygon fill="none" stroke="#000000" points="167,-75.7 167,-98.7 310,-98.7 310,-75.7 167,-75.7"/>
<text text-anchor="start" x="172" y="-84.3" font-family="Helvetica,sans-Serif" font-weight="bold" font-size="11.00" fill="#000000">theme_member</text>
<text text-anchor="start" x="275.5219" y="-83.8" font-family="Helvetica,sans-Serif" font-size="11.00" fill="#000000">[table]</text>
<polygon fill="none" stroke="#000000" points="167,-56.7 167,-75.7 310,-75.7 310,-56.7 167,-56.7"/>
<text text-anchor="start" x="170" y="-62.8" font-family="Helvetica,sans-Serif" font-size="11.00" fill="#000000">...</text>
<polygon fill="#ffffff" stroke="transparent" points="167,-37.7 167,-56.7 221,-56.7 221,-37.7 167,-37.7"/>
<polygon fill="none" stroke="#000000" points="167,-37.7 167,-56.7 221,-56.7 221,-37.7 167,-37.7"/>
<text text-anchor="start" x="170" y="-43.8" font-family="Helvetica,sans-Serif" font-size="11.00" fill="#000000">&lt; 2</text>
<polygon fill="#ffffff" stroke="transparent" points="221,-37.7 221,-56.7 281,-56.7 281,-37.7 221,-37.7"/>
<polygon fill="none" stroke="#000000" points="221,-37.7 221,-56.7 281,-56.7 281,-37.7 221,-37.7"/>
<text text-anchor="start" x="239.4956" y="-43.8" font-family="Helvetica,sans-Serif" font-size="11.00" fill="#000000">30 rows</text>
<polygon fill="#ffffff" stroke="transparent" points="281,-37.7 281,-56.7 310,-56.7 310,-37.7 281,-37.7"/>
<polygon fill="none" stroke="#000000" points="281,-37.7 281,-56.7 310,-56.7 310,-37.7 281,-37.7"/>
<text text-anchor="start" x="300.8862" y="-43.8" font-family="Helvetica,sans-Serif" font-size="11.00" fill="#000000"> &#160;</text>
</a>
</g>
</g>
<!-- theme_member&#45;&gt;member -->
<g id="edge4" class="edge">
<title>theme_member:w&#45;&gt;member:e</title>
<path fill="none" stroke="#000000" d="M152.8371,-68.4167C110.6352,-87.5845 163.3669,-201.7 102,-201.7"/>
<polygon fill="#000000" stroke="#000000" points="159.1432,-67.2071 167.6782,-69.2355 163.0716,-66.4535 167,-65.7 167,-65.7 167,-65.7 163.0716,-66.4535 166.3218,-62.1645 159.1432,-67.2071 159.1432,-67.2071"/>
<ellipse fill="none" stroke="#000000" cx="156.0005" cy="-67.8099" rx="3.2" ry="3.2"/>
</g>
</g>
</svg>
