<?xml version="1.0" encoding="UTF-8" standalone="no"?>
<!DOCTYPE svg PUBLIC "-//W3C//DTD SVG 1.1//EN"
 "http://www.w3.org/Graphics/SVG/1.1/DTD/svg11.dtd">
<!-- Generated by graphviz version 2.40.1 (20161225.0304)
 -->
<!-- Title: oneDegreeRelationshipsDiagram Pages: 1 -->
<svg width="399pt" height="643pt"
 viewBox="0.00 0.00 399.00 643.20" xmlns="http://www.w3.org/2000/svg" xmlns:xlink="http://www.w3.org/1999/xlink">
<g id="graph0" class="graph" transform="scale(1 1) rotate(0) translate(4 639.2)">
<title>oneDegreeRelationshipsDiagram</title>
<polygon fill="#ffffff" stroke="transparent" points="-4,4 -4,-639.2 395,-639.2 395,4 -4,4"/>
<text text-anchor="middle" x="72.4936" y="-7.3" font-family="Helvetica,sans-Serif" font-size="11.00" fill="#000000">Generated by SchemaSpy</text>
<!-- group_member -->
<g id="node1" class="node">
<title>group_member</title>
<g id="a_node1"><a xlink:href="../../tables/group_member.html" xlink:title="group_member" target="_top">
<polygon fill="#ffffff" stroke="transparent" points="241.5,-504.2 241.5,-631.2 381.5,-631.2 381.5,-504.2 241.5,-504.2"/>
<polygon fill="#f5f5f5" stroke="transparent" points="241.5,-607.7 241.5,-630.7 381.5,-630.7 381.5,-607.7 241.5,-607.7"/>
<polygon fill="none" stroke="#000000" points="241.5,-607.7 241.5,-630.7 381.5,-630.7 381.5,-607.7 241.5,-607.7"/>
<text text-anchor="start" x="246.5" y="-616.3" font-family="Helvetica,sans-Serif" font-weight="bold" font-size="11.00" fill="#000000">group_member</text>
<text text-anchor="start" x="347.0219" y="-615.8" font-family="Helvetica,sans-Serif" font-size="11.00" fill="#000000">[table]</text>
<polygon fill="none" stroke="#000000" points="241.5,-585.7 241.5,-607.7 381.5,-607.7 381.5,-585.7 241.5,-585.7"/>
<image xlink:href="../../images/primaryKeys.png" width="11px" height="12px" preserveAspectRatio="xMinYMin meet" x="246.5" y="-602.7"/>
<text text-anchor="start" x="270.5" y="-592.8" font-family="Helvetica,sans-Serif" font-size="11.00" fill="#000000">id</text>
<polygon fill="#ffffff" stroke="transparent" points="241.5,-563.7 241.5,-585.7 381.5,-585.7 381.5,-563.7 241.5,-563.7"/>
<polygon fill="none" stroke="#000000" points="241.5,-563.7 241.5,-585.7 381.5,-585.7 381.5,-563.7 241.5,-563.7"/>
<image xlink:href="../../images/foreignKeys.png" width="11px" height="12px" preserveAspectRatio="xMinYMin meet" x="246.5" y="-580.7"/>
<text text-anchor="start" x="270.5" y="-570.8" font-family="Helvetica,sans-Serif" font-size="11.00" fill="#000000">group_note</text>
<polygon fill="#ffffff" stroke="transparent" points="241.5,-541.7 241.5,-563.7 381.5,-563.7 381.5,-541.7 241.5,-541.7"/>
<polygon fill="none" stroke="#000000" points="241.5,-541.7 241.5,-563.7 381.5,-563.7 381.5,-541.7 241.5,-541.7"/>
<image xlink:href="../../images/foreignKeys.png" width="11px" height="12px" preserveAspectRatio="xMinYMin meet" x="246.5" y="-558.7"/>
<text text-anchor="start" x="270.5" y="-548.8" font-family="Helvetica,sans-Serif" font-size="11.00" fill="#000000">member</text>
<polygon fill="none" stroke="#000000" points="241.5,-522.7 241.5,-541.7 381.5,-541.7 381.5,-522.7 241.5,-522.7"/>
<text text-anchor="start" x="244.5" y="-528.8" font-family="Helvetica,sans-Serif" font-size="11.00" fill="#000000">...</text>
<polygon fill="#ffffff" stroke="transparent" points="241.5,-503.7 241.5,-522.7 296.5,-522.7 296.5,-503.7 241.5,-503.7"/>
<polygon fill="none" stroke="#000000" points="241.5,-503.7 241.5,-522.7 296.5,-522.7 296.5,-503.7 241.5,-503.7"/>
<text text-anchor="start" x="244.5" y="-509.8" font-family="Helvetica,sans-Serif" font-size="11.00" fill="#000000">&lt; 2</text>
<polygon fill="#ffffff" stroke="transparent" points="296.5,-503.7 296.5,-522.7 351.5,-522.7 351.5,-503.7 296.5,-503.7"/>
<polygon fill="none" stroke="#000000" points="296.5,-503.7 296.5,-522.7 351.5,-522.7 351.5,-503.7 296.5,-503.7"/>
<text text-anchor="start" x="316.1105" y="-509.8" font-family="Helvetica,sans-Serif" font-size="11.00" fill="#000000">7 rows</text>
<polygon fill="#ffffff" stroke="transparent" points="351.5,-503.7 351.5,-522.7 381.5,-522.7 381.5,-503.7 351.5,-503.7"/>
<polygon fill="none" stroke="#000000" points="351.5,-503.7 351.5,-522.7 381.5,-522.7 381.5,-503.7 351.5,-503.7"/>
<text text-anchor="start" x="372.3862" y="-509.8" font-family="Helvetica,sans-Serif" font-size="11.00" fill="#000000"> &#160;</text>
</a>
</g>
</g>
<!-- member -->
<g id="node2" class="node">
<title>member</title>
<g id="a_node2"><a xlink:href="../../tables/member.html" xlink:title="member" target="_top">
<polygon fill="#ffffff" stroke="transparent" points="8,-232.7 8,-388.7 191,-388.7 191,-232.7 8,-232.7"/>
<polygon fill="#f5f5f5" stroke="transparent" points="10.5,-363.7 10.5,-386.7 189.5,-386.7 189.5,-363.7 10.5,-363.7"/>
<polygon fill="none" stroke="#000000" points="10.5,-363.7 10.5,-386.7 189.5,-386.7 189.5,-363.7 10.5,-363.7"/>
<text text-anchor="start" x="15.5" y="-372.3" font-family="Helvetica,sans-Serif" font-weight="bold" font-size="11.00" fill="#000000">member</text>
<text text-anchor="start" x="154.5437" y="-371.8" font-family="Helvetica,sans-Serif" font-size="11.00" fill="#000000">[table]</text>
<polygon fill="none" stroke="#000000" points="10.5,-341.7 10.5,-363.7 95.5,-363.7 95.5,-341.7 10.5,-341.7"/>
<image xlink:href="../../images/primaryKeys.png" width="11px" height="12px" preserveAspectRatio="xMinYMin meet" x="15.5" y="-358.7"/>
<text text-anchor="start" x="30.5" y="-348.8" font-family="Helvetica,sans-Serif" font-size="11.00" fill="#000000">id</text>
<polygon fill="none" stroke="#000000" points="95.5,-341.7 95.5,-363.7 189.5,-363.7 189.5,-341.7 95.5,-341.7"/>
<text text-anchor="start" x="98.4758" y="-349.4" font-family="Helvetica,sans-Serif" font-size="11.00" fill="#000000">uuid[2147483647]</text>
<polygon fill="#ffffff" stroke="transparent" points="10.5,-319.7 10.5,-341.7 95.5,-341.7 95.5,-319.7 10.5,-319.7"/>
<polygon fill="none" stroke="#000000" points="10.5,-319.7 10.5,-341.7 95.5,-341.7 95.5,-319.7 10.5,-319.7"/>
<text text-anchor="start" x="30.5" y="-326.8" font-family="Helvetica,sans-Serif" font-size="11.00" fill="#000000">name</text>
<polygon fill="none" stroke="#000000" points="95.5,-319.7 95.5,-341.7 189.5,-341.7 189.5,-319.7 95.5,-319.7"/>
<text text-anchor="start" x="98.5" y="-327.4" font-family="Helvetica,sans-Serif" font-size="11.00" fill="#000000">varchar[255]</text>
<polygon fill="none" stroke="#000000" points="10.5,-297.7 10.5,-319.7 95.5,-319.7 95.5,-297.7 10.5,-297.7"/>
<text text-anchor="start" x="30.5" y="-304.8" font-family="Helvetica,sans-Serif" font-size="11.00" fill="#000000">password</text>
<polygon fill="none" stroke="#000000" points="95.5,-297.7 95.5,-319.7 189.5,-319.7 189.5,-297.7 95.5,-297.7"/>
<text text-anchor="start" x="98.5" y="-305.4" font-family="Helvetica,sans-Serif" font-size="11.00" fill="#000000">varchar[1000]</text>
<polygon fill="none" stroke="#000000" points="10.5,-275.7 10.5,-297.7 95.5,-297.7 95.5,-275.7 10.5,-275.7"/>
<text text-anchor="start" x="30.5" y="-282.8" font-family="Helvetica,sans-Serif" font-size="11.00" fill="#000000">avatar</text>
<polygon fill="none" stroke="#000000" points="95.5,-275.7 95.5,-297.7 189.5,-297.7 189.5,-275.7 95.5,-275.7"/>
<text text-anchor="start" x="98.5" y="-283.4" font-family="Helvetica,sans-Serif" font-size="11.00" fill="#000000">varchar[255]</text>
<polygon fill="none" stroke="#000000" points="10.5,-253.7 10.5,-275.7 95.5,-275.7 95.5,-253.7 10.5,-253.7"/>
<text text-anchor="start" x="30.5" y="-260.8" font-family="Helvetica,sans-Serif" font-size="11.00" fill="#000000">userfrom</text>
<polygon fill="none" stroke="#000000" points="95.5,-253.7 95.5,-275.7 189.5,-275.7 189.5,-253.7 95.5,-253.7"/>
<text text-anchor="start" x="98.4758" y="-261.4" font-family="Helvetica,sans-Serif" font-size="11.00" fill="#000000">uuid[2147483647]</text>
<polygon fill="#ffffff" stroke="transparent" points="10.5,-234.7 10.5,-253.7 47.5,-253.7 47.5,-234.7 10.5,-234.7"/>
<polygon fill="none" stroke="#000000" points="10.5,-234.7 10.5,-253.7 47.5,-253.7 47.5,-234.7 10.5,-234.7"/>
<text text-anchor="start" x="13.5" y="-240.8" font-family="Helvetica,sans-Serif" font-size="11.00" fill="#000000">&lt; 0</text>
<polygon fill="#ffffff" stroke="transparent" points="47.5,-234.7 47.5,-253.7 95.5,-253.7 95.5,-234.7 47.5,-234.7"/>
<polygon fill="none" stroke="#000000" points="47.5,-234.7 47.5,-253.7 95.5,-253.7 95.5,-234.7 47.5,-234.7"/>
<text text-anchor="start" x="65.6105" y="-240.8" font-family="Helvetica,sans-Serif" font-size="11.00" fill="#000000">1 row</text>
<polygon fill="#ffffff" stroke="transparent" points="95.5,-234.7 95.5,-253.7 189.5,-253.7 189.5,-234.7 95.5,-234.7"/>
<polygon fill="none" stroke="#000000" points="95.5,-234.7 95.5,-253.7 189.5,-253.7 189.5,-234.7 95.5,-234.7"/>
<text text-anchor="start" x="170.9053" y="-240.8" font-family="Helvetica,sans-Serif" font-size="11.00" fill="#000000">4 &gt;</text>
<polygon fill="none" stroke="#000000" stroke-width="2" points="9,-233.7 9,-387.7 190,-387.7 190,-233.7 9,-233.7"/>
</a>
</g>
</g>
<!-- group_member&#45;&gt;member -->
<g id="edge1" class="edge">
<title>group_member:w&#45;&gt;member:e</title>
<path fill="none" stroke="#000000" d="M227.1765,-550.5892C164.783,-529.2144 275.7833,-352.7 189.5,-352.7"/>
<polygon fill="#000000" stroke="#000000" points="233.5855,-551.5336 240.9751,-556.2615 237.5427,-552.1168 241.5,-552.7 241.5,-552.7 241.5,-552.7 237.5427,-552.1168 242.0249,-549.1385 233.5855,-551.5336 233.5855,-551.5336"/>
<ellipse fill="none" stroke="#000000" cx="230.4197" cy="-551.0671" rx="3.2" ry="3.2"/>
</g>
<!-- login -->
<g id="node3" class="node">
<title>login</title>
<g id="a_node3"><a xlink:href="../../tables/login.html" xlink:title="login" target="_top">
<polygon fill="#ffffff" stroke="transparent" points="273.5,-400.2 273.5,-483.2 349.5,-483.2 349.5,-400.2 273.5,-400.2"/>
<polygon fill="#f5f5f5" stroke="transparent" points="273.5,-459.7 273.5,-482.7 349.5,-482.7 349.5,-459.7 273.5,-459.7"/>
<polygon fill="none" stroke="#000000" points="273.5,-459.7 273.5,-482.7 349.5,-482.7 349.5,-459.7 273.5,-459.7"/>
<text text-anchor="start" x="278.5" y="-468.3" font-family="Helvetica,sans-Serif" font-weight="bold" font-size="11.00" fill="#000000">login</text>
<text text-anchor="start" x="314.5437" y="-467.8" font-family="Helvetica,sans-Serif" font-size="11.00" fill="#000000">[table]</text>
<polygon fill="none" stroke="#000000" points="273.5,-437.7 273.5,-459.7 349.5,-459.7 349.5,-437.7 273.5,-437.7"/>
<image xlink:href="../../images/primaryKeys.png" width="11px" height="12px" preserveAspectRatio="xMinYMin meet" x="278.5" y="-454.7"/>
<text text-anchor="start" x="293.5" y="-444.8" font-family="Helvetica,sans-Serif" font-size="11.00" fill="#000000">member</text>
<polygon fill="none" stroke="#000000" points="273.5,-418.7 273.5,-437.7 349.5,-437.7 349.5,-418.7 273.5,-418.7"/>
<text text-anchor="start" x="276.5" y="-424.8" font-family="Helvetica,sans-Serif" font-size="11.00" fill="#000000">...</text>
<polygon fill="#ffffff" stroke="transparent" points="273.5,-399.7 273.5,-418.7 296.5,-418.7 296.5,-399.7 273.5,-399.7"/>
<polygon fill="none" stroke="#000000" points="273.5,-399.7 273.5,-418.7 296.5,-418.7 296.5,-399.7 273.5,-399.7"/>
<text text-anchor="start" x="276.5" y="-405.8" font-family="Helvetica,sans-Serif" font-size="11.00" fill="#000000">&lt; 1</text>
<polygon fill="#ffffff" stroke="transparent" points="296.5,-399.7 296.5,-418.7 335.5,-418.7 335.5,-399.7 296.5,-399.7"/>
<polygon fill="none" stroke="#000000" points="296.5,-399.7 296.5,-418.7 335.5,-418.7 335.5,-399.7 296.5,-399.7"/>
<text text-anchor="start" x="300.1105" y="-405.8" font-family="Helvetica,sans-Serif" font-size="11.00" fill="#000000">3 rows</text>
<polygon fill="#ffffff" stroke="transparent" points="335.5,-399.7 335.5,-418.7 349.5,-418.7 349.5,-399.7 335.5,-399.7"/>
<polygon fill="none" stroke="#000000" points="335.5,-399.7 335.5,-418.7 349.5,-418.7 349.5,-399.7 335.5,-399.7"/>
<text text-anchor="start" x="340.3862" y="-405.8" font-family="Helvetica,sans-Serif" font-size="11.00" fill="#000000"> &#160;</text>
</a>
</g>
</g>
<!-- login&#45;&gt;member -->
<g id="edge2" class="edge">
<title>login:w&#45;&gt;member:e</title>
<path fill="none" stroke="#000000" d="M263.0251,-447.4155C220.4215,-436.0236 242.3185,-352.7 189.5,-352.7"/>
<polygon fill="#000000" stroke="#000000" points="273.1928,-444.6324 272.2191,-452.5729 270.631,-452.3781 271.6047,-444.4376 273.1928,-444.6324"/>
<polyline fill="none" stroke="#000000" points="273.5,-448.7 269.5297,-448.2131 "/>
<ellipse fill="none" stroke="#000000" cx="266.3535" cy="-447.8236" rx="3.2" ry="3.2"/>
</g>
<!-- note -->
<g id="node4" class="node">
<title>note</title>
<g id="a_node4"><a xlink:href="../../tables/note.html" xlink:title="note" target="_top">
<polygon fill="#ffffff" stroke="transparent" points="243.5,-186.2 243.5,-379.2 379.5,-379.2 379.5,-186.2 243.5,-186.2"/>
<polygon fill="#f5f5f5" stroke="transparent" points="243.5,-355.7 243.5,-378.7 379.5,-378.7 379.5,-355.7 243.5,-355.7"/>
<polygon fill="none" stroke="#000000" points="243.5,-355.7 243.5,-378.7 379.5,-378.7 379.5,-355.7 243.5,-355.7"/>
<text text-anchor="start" x="248.5" y="-364.3" font-family="Helvetica,sans-Serif" font-weight="bold" font-size="11.00" fill="#000000">note</text>
<text text-anchor="start" x="344.5437" y="-363.8" font-family="Helvetica,sans-Serif" font-size="11.00" fill="#000000">[table]</text>
<polygon fill="none" stroke="#000000" points="243.5,-333.7 243.5,-355.7 379.5,-355.7 379.5,-333.7 243.5,-333.7"/>
<image xlink:href="../../images/primaryKeys.png" width="11px" height="12px" preserveAspectRatio="xMinYMin meet" x="248.5" y="-350.7"/>
<text text-anchor="start" x="263.5" y="-340.8" font-family="Helvetica,sans-Serif" font-size="11.00" fill="#000000">id</text>
<polygon fill="#ffffff" stroke="transparent" points="243.5,-311.7 243.5,-333.7 379.5,-333.7 379.5,-311.7 243.5,-311.7"/>
<polygon fill="none" stroke="#000000" points="243.5,-311.7 243.5,-333.7 379.5,-333.7 379.5,-311.7 243.5,-311.7"/>
<text text-anchor="start" x="263.5" y="-318.8" font-family="Helvetica,sans-Serif" font-size="11.00" fill="#000000">title</text>
<polygon fill="#ffffff" stroke="transparent" points="243.5,-289.7 243.5,-311.7 379.5,-311.7 379.5,-289.7 243.5,-289.7"/>
<polygon fill="none" stroke="#000000" points="243.5,-289.7 243.5,-311.7 379.5,-311.7 379.5,-289.7 243.5,-289.7"/>
<text text-anchor="start" x="263.5" y="-296.8" font-family="Helvetica,sans-Serif" font-size="11.00" fill="#000000">lastmodifieddate</text>
<polygon fill="none" stroke="#000000" points="243.5,-267.7 243.5,-289.7 379.5,-289.7 379.5,-267.7 243.5,-267.7"/>
<image xlink:href="../../images/foreignKeys.png" width="11px" height="12px" preserveAspectRatio="xMinYMin meet" x="248.5" y="-284.7"/>
<text text-anchor="start" x="263.5" y="-274.8" font-family="Helvetica,sans-Serif" font-size="11.00" fill="#000000">subtype</text>
<polygon fill="none" stroke="#000000" points="243.5,-245.7 243.5,-267.7 379.5,-267.7 379.5,-245.7 243.5,-245.7"/>
<image xlink:href="../../images/foreignKeys.png" width="11px" height="12px" preserveAspectRatio="xMinYMin meet" x="248.5" y="-262.7"/>
<text text-anchor="start" x="263.5" y="-252.8" font-family="Helvetica,sans-Serif" font-size="11.00" fill="#000000">member</text>
<polygon fill="#ffffff" stroke="transparent" points="243.5,-223.7 243.5,-245.7 379.5,-245.7 379.5,-223.7 243.5,-223.7"/>
<polygon fill="none" stroke="#000000" points="243.5,-223.7 243.5,-245.7 379.5,-245.7 379.5,-223.7 243.5,-223.7"/>
<text text-anchor="start" x="263.5" y="-230.8" font-family="Helvetica,sans-Serif" font-size="11.00" fill="#000000">category</text>
<polygon fill="none" stroke="#000000" points="243.5,-204.7 243.5,-223.7 379.5,-223.7 379.5,-204.7 243.5,-204.7"/>
<text text-anchor="start" x="246.5" y="-210.8" font-family="Helvetica,sans-Serif" font-size="11.00" fill="#000000">...</text>
<polygon fill="#ffffff" stroke="transparent" points="243.5,-185.7 243.5,-204.7 289.5,-204.7 289.5,-185.7 243.5,-185.7"/>
<polygon fill="none" stroke="#000000" points="243.5,-185.7 243.5,-204.7 289.5,-204.7 289.5,-185.7 243.5,-185.7"/>
<text text-anchor="start" x="246.5" y="-191.8" font-family="Helvetica,sans-Serif" font-size="11.00" fill="#000000">&lt; 2</text>
<polygon fill="#ffffff" stroke="transparent" points="289.5,-185.7 289.5,-204.7 345.5,-204.7 345.5,-185.7 289.5,-185.7"/>
<polygon fill="none" stroke="#000000" points="289.5,-185.7 289.5,-204.7 345.5,-204.7 345.5,-185.7 289.5,-185.7"/>
<text text-anchor="start" x="303.9956" y="-191.8" font-family="Helvetica,sans-Serif" font-size="11.00" fill="#000000">63 rows</text>
<polygon fill="#ffffff" stroke="transparent" points="345.5,-185.7 345.5,-204.7 379.5,-204.7 379.5,-185.7 345.5,-185.7"/>
<polygon fill="none" stroke="#000000" points="345.5,-185.7 345.5,-204.7 379.5,-204.7 379.5,-185.7 345.5,-185.7"/>
<text text-anchor="start" x="360.9053" y="-191.8" font-family="Helvetica,sans-Serif" font-size="11.00" fill="#000000">1 &gt;</text>
</a>
</g>
</g>
<!-- note&#45;&gt;member -->
<g id="edge3" class="edge">
<title>note:w&#45;&gt;member:e</title>
<path fill="none" stroke="#000000" d="M229.4714,-260.5822C203.8186,-278.5423 232.5255,-352.7 189.5,-352.7"/>
<polygon fill="#000000" stroke="#000000" points="235.7898,-258.8337 244.4602,-260.1696 239.6449,-257.7669 243.5,-256.7 243.5,-256.7 243.5,-256.7 239.6449,-257.7669 242.5398,-253.2304 235.7898,-258.8337 235.7898,-258.8337"/>
<ellipse fill="none" stroke="#000000" cx="232.7057" cy="-259.6872" rx="3.2" ry="3.2"/>
</g>
<!-- theme_member -->
<g id="node5" class="node">
<title>theme_member</title>
<g id="a_node5"><a xlink:href="../../tables/theme_member.html" xlink:title="theme_member" target="_top">
<polygon fill="#ffffff" stroke="transparent" points="240,-38.2 240,-165.2 383,-165.2 383,-38.2 240,-38.2"/>
<polygon fill="#f5f5f5" stroke="transparent" points="240.5,-141.7 240.5,-164.7 383.5,-164.7 383.5,-141.7 240.5,-141.7"/>
<polygon fill="none" stroke="#000000" points="240.5,-141.7 240.5,-164.7 383.5,-164.7 383.5,-141.7 240.5,-141.7"/>
<text text-anchor="start" x="245.5" y="-150.3" font-family="Helvetica,sans-Serif" font-weight="bold" font-size="11.00" fill="#000000">theme_member</text>
<text text-anchor="start" x="349.0219" y="-149.8" font-family="Helvetica,sans-Serif" font-size="11.00" fill="#000000">[table]</text>
<polygon fill="none" stroke="#000000" points="240.5,-119.7 240.5,-141.7 383.5,-141.7 383.5,-119.7 240.5,-119.7"/>
<image xlink:href="../../images/primaryKeys.png" width="11px" height="12px" preserveAspectRatio="xMinYMin meet" x="245.5" y="-136.7"/>
<text text-anchor="start" x="269.5" y="-126.8" font-family="Helvetica,sans-Serif" font-size="11.00" fill="#000000">id</text>
<polygon fill="#ffffff" stroke="transparent" points="240.5,-97.7 240.5,-119.7 383.5,-119.7 383.5,-97.7 240.5,-97.7"/>
<polygon fill="none" stroke="#000000" points="240.5,-97.7 240.5,-119.7 383.5,-119.7 383.5,-97.7 240.5,-97.7"/>
<image xlink:href="../../images/foreignKeys.png" width="11px" height="12px" preserveAspectRatio="xMinYMin meet" x="245.5" y="-114.7"/>
<text text-anchor="start" x="269.5" y="-104.8" font-family="Helvetica,sans-Serif" font-size="11.00" fill="#000000">theme</text>
<polygon fill="#ffffff" stroke="transparent" points="240.5,-75.7 240.5,-97.7 383.5,-97.7 383.5,-75.7 240.5,-75.7"/>
<polygon fill="none" stroke="#000000" points="240.5,-75.7 240.5,-97.7 383.5,-97.7 383.5,-75.7 240.5,-75.7"/>
<image xlink:href="../../images/foreignKeys.png" width="11px" height="12px" preserveAspectRatio="xMinYMin meet" x="245.5" y="-92.7"/>
<text text-anchor="start" x="269.5" y="-82.8" font-family="Helvetica,sans-Serif" font-size="11.00" fill="#000000">member</text>
<polygon fill="none" stroke="#000000" points="240.5,-56.7 240.5,-75.7 383.5,-75.7 383.5,-56.7 240.5,-56.7"/>
<text text-anchor="start" x="243.5" y="-62.8" font-family="Helvetica,sans-Serif" font-size="11.00" fill="#000000">...</text>
<polygon fill="#ffffff" stroke="transparent" points="240.5,-37.7 240.5,-56.7 294.5,-56.7 294.5,-37.7 240.5,-37.7"/>
<polygon fill="none" stroke="#000000" points="240.5,-37.7 240.5,-56.7 294.5,-56.7 294.5,-37.7 240.5,-37.7"/>
<text text-anchor="start" x="243.5" y="-43.8" font-family="Helvetica,sans-Serif" font-size="11.00" fill="#000000">&lt; 2</text>
<polygon fill="#ffffff" stroke="transparent" points="294.5,-37.7 294.5,-56.7 354.5,-56.7 354.5,-37.7 294.5,-37.7"/>
<polygon fill="none" stroke="#000000" points="294.5,-37.7 294.5,-56.7 354.5,-56.7 354.5,-37.7 294.5,-37.7"/>
<text text-anchor="start" x="312.9956" y="-43.8" font-family="Helvetica,sans-Serif" font-size="11.00" fill="#000000">30 rows</text>
<polygon fill="#ffffff" stroke="transparent" points="354.5,-37.7 354.5,-56.7 383.5,-56.7 383.5,-37.7 354.5,-37.7"/>
<polygon fill="none" stroke="#000000" points="354.5,-37.7 354.5,-56.7 383.5,-56.7 383.5,-37.7 354.5,-37.7"/>
<text text-anchor="start" x="374.3862" y="-43.8" font-family="Helvetica,sans-Serif" font-size="11.00" fill="#000000"> &#160;</text>
</a>
</g>
</g>
<!-- theme_member&#45;&gt;member -->
<g id="edge4" class="edge">
<title>theme_member:w&#45;&gt;member:e</title>
<path fill="none" stroke="#000000" d="M226.0988,-88.2621C136.5466,-110.0617 304.468,-352.7 189.5,-352.7"/>
<polygon fill="#000000" stroke="#000000" points="232.5467,-87.5628 240.8882,-90.279 236.5233,-87.1314 240.5,-86.7 240.5,-86.7 240.5,-86.7 236.5233,-87.1314 240.1118,-83.121 232.5467,-87.5628 232.5467,-87.5628"/>
<ellipse fill="none" stroke="#000000" cx="229.3653" cy="-87.9079" rx="3.2" ry="3.2"/>
</g>
</g>
</svg>
