<?xml version="1.0" encoding="UTF-8" standalone="no"?>
<!DOCTYPE svg PUBLIC "-//W3C//DTD SVG 1.1//EN"
 "http://www.w3.org/Graphics/SVG/1.1/DTD/svg11.dtd">
<!-- Generated by graphviz version 2.40.1 (20161225.0304)
 -->
<!-- Title: twoDegreesRelationshipsDiagram Pages: 1 -->
<svg width="624pt" height="643pt"
 viewBox="0.00 0.00 624.00 643.20" xmlns="http://www.w3.org/2000/svg" xmlns:xlink="http://www.w3.org/1999/xlink">
<g id="graph0" class="graph" transform="scale(1 1) rotate(0) translate(4 639.2)">
<title>twoDegreesRelationshipsDiagram</title>
<polygon fill="#ffffff" stroke="transparent" points="-4,4 -4,-639.2 620,-639.2 620,4 -4,4"/>
<text text-anchor="middle" x="72.4936" y="-7.3" font-family="Helvetica,sans-Serif" font-size="11.00" fill="#000000">Generated by SchemaSpy</text>
<!-- group_member -->
<g id="node1" class="node">
<title>group_member</title>
<g id="a_node1"><a xlink:href="../../tables/group_member.html" xlink:title="group_member" target="_top">
<polygon fill="#ffffff" stroke="transparent" points="241.5,-504.2 241.5,-631.2 381.5,-631.2 381.5,-504.2 241.5,-504.2"/>
<polygon fill="#f5f5f5" stroke="transparent" points="241.5,-607.7 241.5,-630.7 381.5,-630.7 381.5,-607.7 241.5,-607.7"/>
<polygon fill="none" stroke="#000000" points="241.5,-607.7 241.5,-630.7 381.5,-630.7 381.5,-607.7 241.5,-607.7"/>
<text text-anchor="start" x="246.5" y="-616.3" font-family="Helvetica,sans-Serif" font-weight="bold" font-size="11.00" fill="#000000">group_member</text>
<text text-anchor="start" x="347.0219" y="-615.8" font-family="Helvetica,sans-Serif" font-size="11.00" fill="#000000">[table]</text>
<polygon fill="none" stroke="#000000" points="241.5,-585.7 241.5,-607.7 381.5,-607.7 381.5,-585.7 241.5,-585.7"/>
<image xlink:href="../../images/primaryKeys.png" width="11px" height="12px" preserveAspectRatio="xMinYMin meet" x="246.5" y="-602.7"/>
<text text-anchor="start" x="270.5" y="-592.8" font-family="Helvetica,sans-Serif" font-size="11.00" fill="#000000">id</text>
<polygon fill="#ffffff" stroke="transparent" points="241.5,-563.7 241.5,-585.7 381.5,-585.7 381.5,-563.7 241.5,-563.7"/>
<polygon fill="none" stroke="#000000" points="241.5,-563.7 241.5,-585.7 381.5,-585.7 381.5,-563.7 241.5,-563.7"/>
<image xlink:href="../../images/foreignKeys.png" width="11px" height="12px" preserveAspectRatio="xMinYMin meet" x="246.5" y="-580.7"/>
<text text-anchor="start" x="270.5" y="-570.8" font-family="Helvetica,sans-Serif" font-size="11.00" fill="#000000">group_note</text>
<polygon fill="#ffffff" stroke="transparent" points="241.5,-541.7 241.5,-563.7 381.5,-563.7 381.5,-541.7 241.5,-541.7"/>
<polygon fill="none" stroke="#000000" points="241.5,-541.7 241.5,-563.7 381.5,-563.7 381.5,-541.7 241.5,-541.7"/>
<image xlink:href="../../images/foreignKeys.png" width="11px" height="12px" preserveAspectRatio="xMinYMin meet" x="246.5" y="-558.7"/>
<text text-anchor="start" x="270.5" y="-548.8" font-family="Helvetica,sans-Serif" font-size="11.00" fill="#000000">member</text>
<polygon fill="none" stroke="#000000" points="241.5,-522.7 241.5,-541.7 381.5,-541.7 381.5,-522.7 241.5,-522.7"/>
<text text-anchor="start" x="244.5" y="-528.8" font-family="Helvetica,sans-Serif" font-size="11.00" fill="#000000">...</text>
<polygon fill="#ffffff" stroke="transparent" points="241.5,-503.7 241.5,-522.7 296.5,-522.7 296.5,-503.7 241.5,-503.7"/>
<polygon fill="none" stroke="#000000" points="241.5,-503.7 241.5,-522.7 296.5,-522.7 296.5,-503.7 241.5,-503.7"/>
<text text-anchor="start" x="244.5" y="-509.8" font-family="Helvetica,sans-Serif" font-size="11.00" fill="#000000">&lt; 2</text>
<polygon fill="#ffffff" stroke="transparent" points="296.5,-503.7 296.5,-522.7 351.5,-522.7 351.5,-503.7 296.5,-503.7"/>
<polygon fill="none" stroke="#000000" points="296.5,-503.7 296.5,-522.7 351.5,-522.7 351.5,-503.7 296.5,-503.7"/>
<text text-anchor="start" x="316.1105" y="-509.8" font-family="Helvetica,sans-Serif" font-size="11.00" fill="#000000">7 rows</text>
<polygon fill="#ffffff" stroke="transparent" points="351.5,-503.7 351.5,-522.7 381.5,-522.7 381.5,-503.7 351.5,-503.7"/>
<polygon fill="none" stroke="#000000" points="351.5,-503.7 351.5,-522.7 381.5,-522.7 381.5,-503.7 351.5,-503.7"/>
<text text-anchor="start" x="372.3862" y="-509.8" font-family="Helvetica,sans-Serif" font-size="11.00" fill="#000000"> &#160;</text>
</a>
</g>
</g>
<!-- group_note -->
<g id="node2" class="node">
<title>group_note</title>
<g id="a_node2"><a xlink:href="../../tables/group_note.html" xlink:title="group_note" target="_top">
<polygon fill="#ffffff" stroke="transparent" points="42,-547.2 42,-608.2 157,-608.2 157,-547.2 42,-547.2"/>
<polygon fill="#f5f5f5" stroke="transparent" points="42.5,-584.7 42.5,-607.7 157.5,-607.7 157.5,-584.7 42.5,-584.7"/>
<polygon fill="none" stroke="#000000" points="42.5,-584.7 42.5,-607.7 157.5,-607.7 157.5,-584.7 42.5,-584.7"/>
<text text-anchor="start" x="47.5" y="-593.3" font-family="Helvetica,sans-Serif" font-weight="bold" font-size="11.00" fill="#000000">group_note</text>
<text text-anchor="start" x="123.0219" y="-592.8" font-family="Helvetica,sans-Serif" font-size="11.00" fill="#000000">[table]</text>
<polygon fill="none" stroke="#000000" points="42.5,-565.7 42.5,-584.7 157.5,-584.7 157.5,-565.7 42.5,-565.7"/>
<text text-anchor="start" x="45.5" y="-571.8" font-family="Helvetica,sans-Serif" font-size="11.00" fill="#000000">...</text>
<polygon fill="#ffffff" stroke="transparent" points="42.5,-546.7 42.5,-565.7 89.5,-565.7 89.5,-546.7 42.5,-546.7"/>
<polygon fill="none" stroke="#000000" points="42.5,-546.7 42.5,-565.7 89.5,-565.7 89.5,-546.7 42.5,-546.7"/>
<text text-anchor="start" x="45.5" y="-552.8" font-family="Helvetica,sans-Serif" font-size="11.00" fill="#000000"> &#160;</text>
<polygon fill="#ffffff" stroke="transparent" points="89.5,-546.7 89.5,-565.7 118.5,-565.7 118.5,-546.7 89.5,-546.7"/>
<polygon fill="none" stroke="#000000" points="89.5,-546.7 89.5,-565.7 118.5,-565.7 118.5,-546.7 89.5,-546.7"/>
<text text-anchor="start" x="109.3862" y="-552.8" font-family="Helvetica,sans-Serif" font-size="11.00" fill="#000000"> &#160;</text>
<polygon fill="#ffffff" stroke="transparent" points="118.5,-546.7 118.5,-565.7 157.5,-565.7 157.5,-546.7 118.5,-546.7"/>
<polygon fill="none" stroke="#000000" points="118.5,-546.7 118.5,-565.7 157.5,-565.7 157.5,-546.7 118.5,-546.7"/>
<text text-anchor="start" x="138.9053" y="-552.8" font-family="Helvetica,sans-Serif" font-size="11.00" fill="#000000">2 &gt;</text>
</a>
</g>
</g>
<!-- group_member&#45;&gt;group_note -->
<g id="edge1" class="edge">
<title>group_member:w&#45;&gt;group_note:e</title>
<path fill="none" stroke="#000000" d="M226.8981,-574.7C200.8839,-574.7 189.4375,-574.7 157.5,-574.7"/>
<polygon fill="#000000" stroke="#000000" points="233.5,-574.7001 241.5,-578.3 237.5,-574.7 241.5,-574.7 241.5,-574.7 241.5,-574.7 237.5,-574.7 241.5,-571.1 233.5,-574.7001 233.5,-574.7001"/>
<ellipse fill="none" stroke="#000000" cx="230.3" cy="-574.7001" rx="3.2" ry="3.2"/>
</g>
<!-- member -->
<g id="node3" class="node">
<title>member</title>
<g id="a_node3"><a xlink:href="../../tables/member.html" xlink:title="member" target="_top">
<polygon fill="#ffffff" stroke="transparent" points="8,-170.7 8,-326.7 191,-326.7 191,-170.7 8,-170.7"/>
<polygon fill="#f5f5f5" stroke="transparent" points="10.5,-301.7 10.5,-324.7 189.5,-324.7 189.5,-301.7 10.5,-301.7"/>
<polygon fill="none" stroke="#000000" points="10.5,-301.7 10.5,-324.7 189.5,-324.7 189.5,-301.7 10.5,-301.7"/>
<text text-anchor="start" x="15.5" y="-310.3" font-family="Helvetica,sans-Serif" font-weight="bold" font-size="11.00" fill="#000000">member</text>
<text text-anchor="start" x="154.5437" y="-309.8" font-family="Helvetica,sans-Serif" font-size="11.00" fill="#000000">[table]</text>
<polygon fill="none" stroke="#000000" points="10.5,-279.7 10.5,-301.7 95.5,-301.7 95.5,-279.7 10.5,-279.7"/>
<image xlink:href="../../images/primaryKeys.png" width="11px" height="12px" preserveAspectRatio="xMinYMin meet" x="15.5" y="-296.7"/>
<text text-anchor="start" x="30.5" y="-286.8" font-family="Helvetica,sans-Serif" font-size="11.00" fill="#000000">id</text>
<polygon fill="none" stroke="#000000" points="95.5,-279.7 95.5,-301.7 189.5,-301.7 189.5,-279.7 95.5,-279.7"/>
<text text-anchor="start" x="98.4758" y="-287.4" font-family="Helvetica,sans-Serif" font-size="11.00" fill="#000000">uuid[2147483647]</text>
<polygon fill="#ffffff" stroke="transparent" points="10.5,-257.7 10.5,-279.7 95.5,-279.7 95.5,-257.7 10.5,-257.7"/>
<polygon fill="none" stroke="#000000" points="10.5,-257.7 10.5,-279.7 95.5,-279.7 95.5,-257.7 10.5,-257.7"/>
<text text-anchor="start" x="30.5" y="-264.8" font-family="Helvetica,sans-Serif" font-size="11.00" fill="#000000">name</text>
<polygon fill="none" stroke="#000000" points="95.5,-257.7 95.5,-279.7 189.5,-279.7 189.5,-257.7 95.5,-257.7"/>
<text text-anchor="start" x="98.5" y="-265.4" font-family="Helvetica,sans-Serif" font-size="11.00" fill="#000000">varchar[255]</text>
<polygon fill="none" stroke="#000000" points="10.5,-235.7 10.5,-257.7 95.5,-257.7 95.5,-235.7 10.5,-235.7"/>
<text text-anchor="start" x="30.5" y="-242.8" font-family="Helvetica,sans-Serif" font-size="11.00" fill="#000000">password</text>
<polygon fill="none" stroke="#000000" points="95.5,-235.7 95.5,-257.7 189.5,-257.7 189.5,-235.7 95.5,-235.7"/>
<text text-anchor="start" x="98.5" y="-243.4" font-family="Helvetica,sans-Serif" font-size="11.00" fill="#000000">varchar[1000]</text>
<polygon fill="none" stroke="#000000" points="10.5,-213.7 10.5,-235.7 95.5,-235.7 95.5,-213.7 10.5,-213.7"/>
<text text-anchor="start" x="30.5" y="-220.8" font-family="Helvetica,sans-Serif" font-size="11.00" fill="#000000">avatar</text>
<polygon fill="none" stroke="#000000" points="95.5,-213.7 95.5,-235.7 189.5,-235.7 189.5,-213.7 95.5,-213.7"/>
<text text-anchor="start" x="98.5" y="-221.4" font-family="Helvetica,sans-Serif" font-size="11.00" fill="#000000">varchar[255]</text>
<polygon fill="none" stroke="#000000" points="10.5,-191.7 10.5,-213.7 95.5,-213.7 95.5,-191.7 10.5,-191.7"/>
<text text-anchor="start" x="30.5" y="-198.8" font-family="Helvetica,sans-Serif" font-size="11.00" fill="#000000">userfrom</text>
<polygon fill="none" stroke="#000000" points="95.5,-191.7 95.5,-213.7 189.5,-213.7 189.5,-191.7 95.5,-191.7"/>
<text text-anchor="start" x="98.4758" y="-199.4" font-family="Helvetica,sans-Serif" font-size="11.00" fill="#000000">uuid[2147483647]</text>
<polygon fill="#ffffff" stroke="transparent" points="10.5,-172.7 10.5,-191.7 47.5,-191.7 47.5,-172.7 10.5,-172.7"/>
<polygon fill="none" stroke="#000000" points="10.5,-172.7 10.5,-191.7 47.5,-191.7 47.5,-172.7 10.5,-172.7"/>
<text text-anchor="start" x="13.5" y="-178.8" font-family="Helvetica,sans-Serif" font-size="11.00" fill="#000000">&lt; 0</text>
<polygon fill="#ffffff" stroke="transparent" points="47.5,-172.7 47.5,-191.7 95.5,-191.7 95.5,-172.7 47.5,-172.7"/>
<polygon fill="none" stroke="#000000" points="47.5,-172.7 47.5,-191.7 95.5,-191.7 95.5,-172.7 47.5,-172.7"/>
<text text-anchor="start" x="65.6105" y="-178.8" font-family="Helvetica,sans-Serif" font-size="11.00" fill="#000000">1 row</text>
<polygon fill="#ffffff" stroke="transparent" points="95.5,-172.7 95.5,-191.7 189.5,-191.7 189.5,-172.7 95.5,-172.7"/>
<polygon fill="none" stroke="#000000" points="95.5,-172.7 95.5,-191.7 189.5,-191.7 189.5,-172.7 95.5,-172.7"/>
<text text-anchor="start" x="170.9053" y="-178.8" font-family="Helvetica,sans-Serif" font-size="11.00" fill="#000000">4 &gt;</text>
<polygon fill="none" stroke="#000000" stroke-width="2" points="9,-171.7 9,-325.7 190,-325.7 190,-171.7 9,-171.7"/>
</a>
</g>
</g>
<!-- group_member&#45;&gt;member -->
<g id="edge2" class="edge">
<title>group_member:w&#45;&gt;member:e</title>
<path fill="none" stroke="#000000" d="M227.0168,-551.0948C139.1655,-529.2012 302.7669,-290.7 189.5,-290.7"/>
<polygon fill="#000000" stroke="#000000" points="233.5487,-551.8187 241.1034,-556.2781 237.5243,-552.2594 241.5,-552.7 241.5,-552.7 241.5,-552.7 237.5243,-552.2594 241.8966,-549.1219 233.5487,-551.8187 233.5487,-551.8187"/>
<ellipse fill="none" stroke="#000000" cx="230.3682" cy="-551.4662" rx="3.2" ry="3.2"/>
</g>
<!-- login -->
<g id="node4" class="node">
<title>login</title>
<g id="a_node4"><a xlink:href="../../tables/login.html" xlink:title="login" target="_top">
<polygon fill="#ffffff" stroke="transparent" points="273.5,-186.2 273.5,-269.2 349.5,-269.2 349.5,-186.2 273.5,-186.2"/>
<polygon fill="#f5f5f5" stroke="transparent" points="273.5,-245.7 273.5,-268.7 349.5,-268.7 349.5,-245.7 273.5,-245.7"/>
<polygon fill="none" stroke="#000000" points="273.5,-245.7 273.5,-268.7 349.5,-268.7 349.5,-245.7 273.5,-245.7"/>
<text text-anchor="start" x="278.5" y="-254.3" font-family="Helvetica,sans-Serif" font-weight="bold" font-size="11.00" fill="#000000">login</text>
<text text-anchor="start" x="314.5437" y="-253.8" font-family="Helvetica,sans-Serif" font-size="11.00" fill="#000000">[table]</text>
<polygon fill="none" stroke="#000000" points="273.5,-223.7 273.5,-245.7 349.5,-245.7 349.5,-223.7 273.5,-223.7"/>
<image xlink:href="../../images/primaryKeys.png" width="11px" height="12px" preserveAspectRatio="xMinYMin meet" x="278.5" y="-240.7"/>
<text text-anchor="start" x="293.5" y="-230.8" font-family="Helvetica,sans-Serif" font-size="11.00" fill="#000000">member</text>
<polygon fill="none" stroke="#000000" points="273.5,-204.7 273.5,-223.7 349.5,-223.7 349.5,-204.7 273.5,-204.7"/>
<text text-anchor="start" x="276.5" y="-210.8" font-family="Helvetica,sans-Serif" font-size="11.00" fill="#000000">...</text>
<polygon fill="#ffffff" stroke="transparent" points="273.5,-185.7 273.5,-204.7 296.5,-204.7 296.5,-185.7 273.5,-185.7"/>
<polygon fill="none" stroke="#000000" points="273.5,-185.7 273.5,-204.7 296.5,-204.7 296.5,-185.7 273.5,-185.7"/>
<text text-anchor="start" x="276.5" y="-191.8" font-family="Helvetica,sans-Serif" font-size="11.00" fill="#000000">&lt; 1</text>
<polygon fill="#ffffff" stroke="transparent" points="296.5,-185.7 296.5,-204.7 335.5,-204.7 335.5,-185.7 296.5,-185.7"/>
<polygon fill="none" stroke="#000000" points="296.5,-185.7 296.5,-204.7 335.5,-204.7 335.5,-185.7 296.5,-185.7"/>
<text text-anchor="start" x="300.1105" y="-191.8" font-family="Helvetica,sans-Serif" font-size="11.00" fill="#000000">3 rows</text>
<polygon fill="#ffffff" stroke="transparent" points="335.5,-185.7 335.5,-204.7 349.5,-204.7 349.5,-185.7 335.5,-185.7"/>
<polygon fill="none" stroke="#000000" points="335.5,-185.7 335.5,-204.7 349.5,-204.7 349.5,-185.7 335.5,-185.7"/>
<text text-anchor="start" x="340.3862" y="-191.8" font-family="Helvetica,sans-Serif" font-size="11.00" fill="#000000"> &#160;</text>
</a>
</g>
</g>
<!-- login&#45;&gt;member -->
<g id="edge3" class="edge">
<title>login:w&#45;&gt;member:e</title>
<path fill="none" stroke="#000000" d="M262.9892,-235.8696C229.2434,-243.9114 230.5131,-290.7 189.5,-290.7"/>
<polygon fill="#000000" stroke="#000000" points="272.2625,-230.813 273.1473,-238.7639 271.5571,-238.9409 270.6723,-230.99 272.2625,-230.813"/>
<polyline fill="none" stroke="#000000" points="273.5,-234.7 269.5245,-235.1424 "/>
<ellipse fill="none" stroke="#000000" cx="266.3442" cy="-235.4964" rx="3.2" ry="3.2"/>
</g>
<!-- note -->
<g id="node5" class="node">
<title>note</title>
<g id="a_node5"><a xlink:href="../../tables/note.html" xlink:title="note" target="_top">
<polygon fill="#ffffff" stroke="transparent" points="243.5,-290.2 243.5,-483.2 379.5,-483.2 379.5,-290.2 243.5,-290.2"/>
<polygon fill="#f5f5f5" stroke="transparent" points="243.5,-459.7 243.5,-482.7 379.5,-482.7 379.5,-459.7 243.5,-459.7"/>
<polygon fill="none" stroke="#000000" points="243.5,-459.7 243.5,-482.7 379.5,-482.7 379.5,-459.7 243.5,-459.7"/>
<text text-anchor="start" x="248.5" y="-468.3" font-family="Helvetica,sans-Serif" font-weight="bold" font-size="11.00" fill="#000000">note</text>
<text text-anchor="start" x="344.5437" y="-467.8" font-family="Helvetica,sans-Serif" font-size="11.00" fill="#000000">[table]</text>
<polygon fill="none" stroke="#000000" points="243.5,-437.7 243.5,-459.7 379.5,-459.7 379.5,-437.7 243.5,-437.7"/>
<image xlink:href="../../images/primaryKeys.png" width="11px" height="12px" preserveAspectRatio="xMinYMin meet" x="248.5" y="-454.7"/>
<text text-anchor="start" x="263.5" y="-444.8" font-family="Helvetica,sans-Serif" font-size="11.00" fill="#000000">id</text>
<polygon fill="#ffffff" stroke="transparent" points="243.5,-415.7 243.5,-437.7 379.5,-437.7 379.5,-415.7 243.5,-415.7"/>
<polygon fill="none" stroke="#000000" points="243.5,-415.7 243.5,-437.7 379.5,-437.7 379.5,-415.7 243.5,-415.7"/>
<text text-anchor="start" x="263.5" y="-422.8" font-family="Helvetica,sans-Serif" font-size="11.00" fill="#000000">title</text>
<polygon fill="#ffffff" stroke="transparent" points="243.5,-393.7 243.5,-415.7 379.5,-415.7 379.5,-393.7 243.5,-393.7"/>
<polygon fill="none" stroke="#000000" points="243.5,-393.7 243.5,-415.7 379.5,-415.7 379.5,-393.7 243.5,-393.7"/>
<text text-anchor="start" x="263.5" y="-400.8" font-family="Helvetica,sans-Serif" font-size="11.00" fill="#000000">lastmodifieddate</text>
<polygon fill="none" stroke="#000000" points="243.5,-371.7 243.5,-393.7 379.5,-393.7 379.5,-371.7 243.5,-371.7"/>
<image xlink:href="../../images/foreignKeys.png" width="11px" height="12px" preserveAspectRatio="xMinYMin meet" x="248.5" y="-388.7"/>
<text text-anchor="start" x="263.5" y="-378.8" font-family="Helvetica,sans-Serif" font-size="11.00" fill="#000000">subtype</text>
<polygon fill="none" stroke="#000000" points="243.5,-349.7 243.5,-371.7 379.5,-371.7 379.5,-349.7 243.5,-349.7"/>
<image xlink:href="../../images/foreignKeys.png" width="11px" height="12px" preserveAspectRatio="xMinYMin meet" x="248.5" y="-366.7"/>
<text text-anchor="start" x="263.5" y="-356.8" font-family="Helvetica,sans-Serif" font-size="11.00" fill="#000000">member</text>
<polygon fill="#ffffff" stroke="transparent" points="243.5,-327.7 243.5,-349.7 379.5,-349.7 379.5,-327.7 243.5,-327.7"/>
<polygon fill="none" stroke="#000000" points="243.5,-327.7 243.5,-349.7 379.5,-349.7 379.5,-327.7 243.5,-327.7"/>
<text text-anchor="start" x="263.5" y="-334.8" font-family="Helvetica,sans-Serif" font-size="11.00" fill="#000000">category</text>
<polygon fill="none" stroke="#000000" points="243.5,-308.7 243.5,-327.7 379.5,-327.7 379.5,-308.7 243.5,-308.7"/>
<text text-anchor="start" x="246.5" y="-314.8" font-family="Helvetica,sans-Serif" font-size="11.00" fill="#000000">...</text>
<polygon fill="#ffffff" stroke="transparent" points="243.5,-289.7 243.5,-308.7 289.5,-308.7 289.5,-289.7 243.5,-289.7"/>
<polygon fill="none" stroke="#000000" points="243.5,-289.7 243.5,-308.7 289.5,-308.7 289.5,-289.7 243.5,-289.7"/>
<text text-anchor="start" x="246.5" y="-295.8" font-family="Helvetica,sans-Serif" font-size="11.00" fill="#000000">&lt; 2</text>
<polygon fill="#ffffff" stroke="transparent" points="289.5,-289.7 289.5,-308.7 345.5,-308.7 345.5,-289.7 289.5,-289.7"/>
<polygon fill="none" stroke="#000000" points="289.5,-289.7 289.5,-308.7 345.5,-308.7 345.5,-289.7 289.5,-289.7"/>
<text text-anchor="start" x="303.9956" y="-295.8" font-family="Helvetica,sans-Serif" font-size="11.00" fill="#000000">63 rows</text>
<polygon fill="#ffffff" stroke="transparent" points="345.5,-289.7 345.5,-308.7 379.5,-308.7 379.5,-289.7 345.5,-289.7"/>
<polygon fill="none" stroke="#000000" points="345.5,-289.7 345.5,-308.7 379.5,-308.7 379.5,-289.7 345.5,-289.7"/>
<text text-anchor="start" x="360.9053" y="-295.8" font-family="Helvetica,sans-Serif" font-size="11.00" fill="#000000">1 &gt;</text>
</a>
</g>
</g>
<!-- note&#45;&gt;member -->
<g id="edge4" class="edge">
<title>note:w&#45;&gt;member:e</title>
<path fill="none" stroke="#000000" d="M229.5379,-356.3212C210.2157,-340.9965 222.8065,-290.7 189.5,-290.7"/>
<polygon fill="#000000" stroke="#000000" points="235.8666,-358.306 242.4227,-364.135 239.6833,-359.503 243.5,-360.7 243.5,-360.7 243.5,-360.7 239.6833,-359.503 244.5773,-357.265 235.8666,-358.306 235.8666,-358.306"/>
<ellipse fill="none" stroke="#000000" cx="232.8132" cy="-357.3483" rx="3.2" ry="3.2"/>
</g>
<!-- subtype -->
<g id="node6" class="node">
<title>subtype</title>
<g id="a_node6"><a xlink:href="../../tables/subtype.html" xlink:title="subtype" target="_top">
<polygon fill="#ffffff" stroke="transparent" points="53,-355.2 53,-416.2 146,-416.2 146,-355.2 53,-355.2"/>
<polygon fill="#f5f5f5" stroke="transparent" points="53.5,-392.7 53.5,-415.7 146.5,-415.7 146.5,-392.7 53.5,-392.7"/>
<polygon fill="none" stroke="#000000" points="53.5,-392.7 53.5,-415.7 146.5,-415.7 146.5,-392.7 53.5,-392.7"/>
<text text-anchor="start" x="58.5" y="-401.3" font-family="Helvetica,sans-Serif" font-weight="bold" font-size="11.00" fill="#000000">subtype</text>
<text text-anchor="start" x="112.0219" y="-400.8" font-family="Helvetica,sans-Serif" font-size="11.00" fill="#000000">[table]</text>
<polygon fill="none" stroke="#000000" points="53.5,-373.7 53.5,-392.7 146.5,-392.7 146.5,-373.7 53.5,-373.7"/>
<text text-anchor="start" x="56.5" y="-379.8" font-family="Helvetica,sans-Serif" font-size="11.00" fill="#000000">...</text>
<polygon fill="#ffffff" stroke="transparent" points="53.5,-354.7 53.5,-373.7 76.5,-373.7 76.5,-354.7 53.5,-354.7"/>
<polygon fill="none" stroke="#000000" points="53.5,-354.7 53.5,-373.7 76.5,-373.7 76.5,-354.7 53.5,-354.7"/>
<text text-anchor="start" x="56.5" y="-360.8" font-family="Helvetica,sans-Serif" font-size="11.00" fill="#000000"> &#160;</text>
<polygon fill="#ffffff" stroke="transparent" points="76.5,-354.7 76.5,-373.7 119.5,-373.7 119.5,-354.7 76.5,-354.7"/>
<polygon fill="none" stroke="#000000" points="76.5,-354.7 76.5,-373.7 119.5,-373.7 119.5,-354.7 76.5,-354.7"/>
<text text-anchor="start" x="84.1105" y="-360.8" font-family="Helvetica,sans-Serif" font-size="11.00" fill="#000000">9 rows</text>
<polygon fill="#ffffff" stroke="transparent" points="119.5,-354.7 119.5,-373.7 146.5,-373.7 146.5,-354.7 119.5,-354.7"/>
<polygon fill="none" stroke="#000000" points="119.5,-354.7 119.5,-373.7 146.5,-373.7 146.5,-354.7 119.5,-354.7"/>
<text text-anchor="start" x="127.9053" y="-360.8" font-family="Helvetica,sans-Serif" font-size="11.00" fill="#000000">2 &gt;</text>
</a>
</g>
</g>
<!-- note&#45;&gt;subtype -->
<g id="edge5" class="edge">
<title>note:w&#45;&gt;subtype:e</title>
<path fill="none" stroke="#000000" d="M228.7227,-382.7C197.1892,-382.7 184.2222,-382.7 146.5,-382.7"/>
<polygon fill="#000000" stroke="#000000" points="235.5,-382.7001 243.5,-386.3 239.5,-382.7 243.5,-382.7 243.5,-382.7 243.5,-382.7 239.5,-382.7 243.5,-379.1 235.5,-382.7001 235.5,-382.7001"/>
<ellipse fill="none" stroke="#000000" cx="232.3" cy="-382.7001" rx="3.2" ry="3.2"/>
</g>
<!-- subtype_note_group -->
<g id="node7" class="node">
<title>subtype_note_group</title>
<g id="a_node7"><a xlink:href="../../tables/subtype_note_group.html" xlink:title="subtype_note_group" target="_top">
<polygon fill="#ffffff" stroke="transparent" points="432,-421.2 432,-482.2 608,-482.2 608,-421.2 432,-421.2"/>
<polygon fill="#f5f5f5" stroke="transparent" points="432,-458.7 432,-481.7 608,-481.7 608,-458.7 432,-458.7"/>
<polygon fill="none" stroke="#000000" points="432,-458.7 432,-481.7 608,-481.7 608,-458.7 432,-458.7"/>
<text text-anchor="start" x="437" y="-467.3" font-family="Helvetica,sans-Serif" font-weight="bold" font-size="11.00" fill="#000000">subtype_note_group</text>
<text text-anchor="start" x="573.5219" y="-466.8" font-family="Helvetica,sans-Serif" font-size="11.00" fill="#000000">[table]</text>
<polygon fill="none" stroke="#000000" points="432,-439.7 432,-458.7 608,-458.7 608,-439.7 432,-439.7"/>
<text text-anchor="start" x="435" y="-445.8" font-family="Helvetica,sans-Serif" font-size="11.00" fill="#000000">...</text>
<polygon fill="#ffffff" stroke="transparent" points="432,-420.7 432,-439.7 502,-439.7 502,-420.7 432,-420.7"/>
<polygon fill="none" stroke="#000000" points="432,-420.7 432,-439.7 502,-439.7 502,-420.7 432,-420.7"/>
<text text-anchor="start" x="435" y="-426.8" font-family="Helvetica,sans-Serif" font-size="11.00" fill="#000000">&lt; 2</text>
<polygon fill="#ffffff" stroke="transparent" points="502,-420.7 502,-439.7 571,-439.7 571,-420.7 502,-420.7"/>
<polygon fill="none" stroke="#000000" points="502,-420.7 502,-439.7 571,-439.7 571,-420.7 502,-420.7"/>
<text text-anchor="start" x="529.4956" y="-426.8" font-family="Helvetica,sans-Serif" font-size="11.00" fill="#000000">31 rows</text>
<polygon fill="#ffffff" stroke="transparent" points="571,-420.7 571,-439.7 608,-439.7 608,-420.7 571,-420.7"/>
<polygon fill="none" stroke="#000000" points="571,-420.7 571,-439.7 608,-439.7 608,-420.7 571,-420.7"/>
<text text-anchor="start" x="598.8862" y="-426.8" font-family="Helvetica,sans-Serif" font-size="11.00" fill="#000000"> &#160;</text>
</a>
</g>
</g>
<!-- subtype_note_group&#45;&gt;note -->
<g id="edge6" class="edge">
<title>subtype_note_group:w&#45;&gt;note:e</title>
<path fill="none" stroke="#000000" d="M417.2344,-448.7C404.6563,-448.7 397,-448.7 379.5,-448.7"/>
<polygon fill="#000000" stroke="#000000" points="424,-448.7001 432,-452.3 428,-448.7 432,-448.7 432,-448.7 432,-448.7 428,-448.7 432,-445.1 424,-448.7001 424,-448.7001"/>
<ellipse fill="none" stroke="#000000" cx="420.8" cy="-448.7001" rx="3.2" ry="3.2"/>
</g>
<!-- theme_member -->
<g id="node8" class="node">
<title>theme_member</title>
<g id="a_node8"><a xlink:href="../../tables/theme_member.html" xlink:title="theme_member" target="_top">
<polygon fill="#ffffff" stroke="transparent" points="240,-38.2 240,-165.2 383,-165.2 383,-38.2 240,-38.2"/>
<polygon fill="#f5f5f5" stroke="transparent" points="240.5,-141.7 240.5,-164.7 383.5,-164.7 383.5,-141.7 240.5,-141.7"/>
<polygon fill="none" stroke="#000000" points="240.5,-141.7 240.5,-164.7 383.5,-164.7 383.5,-141.7 240.5,-141.7"/>
<text text-anchor="start" x="245.5" y="-150.3" font-family="Helvetica,sans-Serif" font-weight="bold" font-size="11.00" fill="#000000">theme_member</text>
<text text-anchor="start" x="349.0219" y="-149.8" font-family="Helvetica,sans-Serif" font-size="11.00" fill="#000000">[table]</text>
<polygon fill="none" stroke="#000000" points="240.5,-119.7 240.5,-141.7 383.5,-141.7 383.5,-119.7 240.5,-119.7"/>
<image xlink:href="../../images/primaryKeys.png" width="11px" height="12px" preserveAspectRatio="xMinYMin meet" x="245.5" y="-136.7"/>
<text text-anchor="start" x="269.5" y="-126.8" font-family="Helvetica,sans-Serif" font-size="11.00" fill="#000000">id</text>
<polygon fill="#ffffff" stroke="transparent" points="240.5,-97.7 240.5,-119.7 383.5,-119.7 383.5,-97.7 240.5,-97.7"/>
<polygon fill="none" stroke="#000000" points="240.5,-97.7 240.5,-119.7 383.5,-119.7 383.5,-97.7 240.5,-97.7"/>
<image xlink:href="../../images/foreignKeys.png" width="11px" height="12px" preserveAspectRatio="xMinYMin meet" x="245.5" y="-114.7"/>
<text text-anchor="start" x="269.5" y="-104.8" font-family="Helvetica,sans-Serif" font-size="11.00" fill="#000000">theme</text>
<polygon fill="#ffffff" stroke="transparent" points="240.5,-75.7 240.5,-97.7 383.5,-97.7 383.5,-75.7 240.5,-75.7"/>
<polygon fill="none" stroke="#000000" points="240.5,-75.7 240.5,-97.7 383.5,-97.7 383.5,-75.7 240.5,-75.7"/>
<image xlink:href="../../images/foreignKeys.png" width="11px" height="12px" preserveAspectRatio="xMinYMin meet" x="245.5" y="-92.7"/>
<text text-anchor="start" x="269.5" y="-82.8" font-family="Helvetica,sans-Serif" font-size="11.00" fill="#000000">member</text>
<polygon fill="none" stroke="#000000" points="240.5,-56.7 240.5,-75.7 383.5,-75.7 383.5,-56.7 240.5,-56.7"/>
<text text-anchor="start" x="243.5" y="-62.8" font-family="Helvetica,sans-Serif" font-size="11.00" fill="#000000">...</text>
<polygon fill="#ffffff" stroke="transparent" points="240.5,-37.7 240.5,-56.7 294.5,-56.7 294.5,-37.7 240.5,-37.7"/>
<polygon fill="none" stroke="#000000" points="240.5,-37.7 240.5,-56.7 294.5,-56.7 294.5,-37.7 240.5,-37.7"/>
<text text-anchor="start" x="243.5" y="-43.8" font-family="Helvetica,sans-Serif" font-size="11.00" fill="#000000">&lt; 2</text>
<polygon fill="#ffffff" stroke="transparent" points="294.5,-37.7 294.5,-56.7 354.5,-56.7 354.5,-37.7 294.5,-37.7"/>
<polygon fill="none" stroke="#000000" points="294.5,-37.7 294.5,-56.7 354.5,-56.7 354.5,-37.7 294.5,-37.7"/>
<text text-anchor="start" x="312.9956" y="-43.8" font-family="Helvetica,sans-Serif" font-size="11.00" fill="#000000">30 rows</text>
<polygon fill="#ffffff" stroke="transparent" points="354.5,-37.7 354.5,-56.7 383.5,-56.7 383.5,-37.7 354.5,-37.7"/>
<polygon fill="none" stroke="#000000" points="354.5,-37.7 354.5,-56.7 383.5,-56.7 383.5,-37.7 354.5,-37.7"/>
<text text-anchor="start" x="374.3862" y="-43.8" font-family="Helvetica,sans-Serif" font-size="11.00" fill="#000000"> &#160;</text>
</a>
</g>
</g>
<!-- theme_member&#45;&gt;member -->
<g id="edge7" class="edge">
<title>theme_member:w&#45;&gt;member:e</title>
<path fill="none" stroke="#000000" d="M225.9452,-88.853C162.6604,-110.6553 277.2985,-290.7 189.5,-290.7"/>
<polygon fill="#000000" stroke="#000000" points="232.5861,-87.8707 241.0268,-90.2612 236.5431,-87.2853 240.5,-86.7 240.5,-86.7 240.5,-86.7 236.5431,-87.2853 239.9732,-83.1388 232.5861,-87.8707 232.5861,-87.8707"/>
<ellipse fill="none" stroke="#000000" cx="229.4206" cy="-88.339" rx="3.2" ry="3.2"/>
</g>
<!-- theme -->
<g id="node9" class="node">
<title>theme</title>
<g id="a_node9"><a xlink:href="../../tables/theme.html" xlink:title="theme" target="_top">
<polygon fill="#ffffff" stroke="transparent" points="58.5,-81.2 58.5,-142.2 140.5,-142.2 140.5,-81.2 58.5,-81.2"/>
<polygon fill="#f5f5f5" stroke="transparent" points="58.5,-118.7 58.5,-141.7 140.5,-141.7 140.5,-118.7 58.5,-118.7"/>
<polygon fill="none" stroke="#000000" points="58.5,-118.7 58.5,-141.7 140.5,-141.7 140.5,-118.7 58.5,-118.7"/>
<text text-anchor="start" x="63.5" y="-127.3" font-family="Helvetica,sans-Serif" font-weight="bold" font-size="11.00" fill="#000000">theme</text>
<text text-anchor="start" x="106.0219" y="-126.8" font-family="Helvetica,sans-Serif" font-size="11.00" fill="#000000">[table]</text>
<polygon fill="none" stroke="#000000" points="58.5,-99.7 58.5,-118.7 140.5,-118.7 140.5,-99.7 58.5,-99.7"/>
<text text-anchor="start" x="61.5" y="-105.8" font-family="Helvetica,sans-Serif" font-size="11.00" fill="#000000">...</text>
<polygon fill="#ffffff" stroke="transparent" points="58.5,-80.7 58.5,-99.7 75.5,-99.7 75.5,-80.7 58.5,-80.7"/>
<polygon fill="none" stroke="#000000" points="58.5,-80.7 58.5,-99.7 75.5,-99.7 75.5,-80.7 58.5,-80.7"/>
<text text-anchor="start" x="61.5" y="-86.8" font-family="Helvetica,sans-Serif" font-size="11.00" fill="#000000"> &#160;</text>
<polygon fill="#ffffff" stroke="transparent" points="75.5,-80.7 75.5,-99.7 116.5,-99.7 116.5,-80.7 75.5,-80.7"/>
<polygon fill="none" stroke="#000000" points="75.5,-80.7 75.5,-99.7 116.5,-99.7 116.5,-80.7 75.5,-80.7"/>
<text text-anchor="start" x="81.1105" y="-86.8" font-family="Helvetica,sans-Serif" font-size="11.00" fill="#000000">0 rows</text>
<polygon fill="#ffffff" stroke="transparent" points="116.5,-80.7 116.5,-99.7 140.5,-99.7 140.5,-80.7 116.5,-80.7"/>
<polygon fill="none" stroke="#000000" points="116.5,-80.7 116.5,-99.7 140.5,-99.7 140.5,-80.7 116.5,-80.7"/>
<text text-anchor="start" x="121.9053" y="-86.8" font-family="Helvetica,sans-Serif" font-size="11.00" fill="#000000">1 &gt;</text>
</a>
</g>
</g>
<!-- theme_member&#45;&gt;theme -->
<g id="edge8" class="edge">
<title>theme_member:w&#45;&gt;theme:e</title>
<path fill="none" stroke="#000000" d="M225.7022,-108.7C192.8758,-108.7 179.5625,-108.7 140.5,-108.7"/>
<polygon fill="#000000" stroke="#000000" points="232.5,-108.7001 240.5,-112.3 236.5,-108.7 240.5,-108.7 240.5,-108.7 240.5,-108.7 236.5,-108.7 240.5,-105.1 232.5,-108.7001 232.5,-108.7001"/>
<ellipse fill="none" stroke="#000000" cx="229.3" cy="-108.7001" rx="3.2" ry="3.2"/>
</g>
</g>
</svg>
