<?xml version="1.0" encoding="UTF-8" standalone="no"?>
<!DOCTYPE svg PUBLIC "-//W3C//DTD SVG 1.1//EN"
 "http://www.w3.org/Graphics/SVG/1.1/DTD/svg11.dtd">
<!-- Generated by graphviz version 2.40.1 (20161225.0304)
 -->
<!-- Title: oneDegreeRelationshipsDiagram Pages: 1 -->
<svg width="626pt" height="449pt"
 viewBox="0.00 0.00 626.00 448.70" xmlns="http://www.w3.org/2000/svg" xmlns:xlink="http://www.w3.org/1999/xlink">
<g id="graph0" class="graph" transform="scale(1 1) rotate(0) translate(4 444.7)">
<title>oneDegreeRelationshipsDiagram</title>
<polygon fill="#ffffff" stroke="transparent" points="-4,4 -4,-444.7 622,-444.7 622,4 -4,4"/>
<text text-anchor="middle" x="72.4936" y="-7.3" font-family="Helvetica,sans-Serif" font-size="11.00" fill="#000000">Generated by SchemaSpy</text>
<!-- note -->
<g id="node1" class="node">
<title>note</title>
<g id="a_node1"><a xlink:href="../../tables/note.html" xlink:title="note" target="_top">
<polygon fill="#ffffff" stroke="transparent" points="151,-84.7 151,-394.7 385,-394.7 385,-84.7 151,-84.7"/>
<polygon fill="#f5f5f5" stroke="transparent" points="153,-369.7 153,-392.7 383,-392.7 383,-369.7 153,-369.7"/>
<polygon fill="none" stroke="#000000" points="153,-369.7 153,-392.7 383,-392.7 383,-369.7 153,-369.7"/>
<text text-anchor="start" x="158" y="-378.3" font-family="Helvetica,sans-Serif" font-weight="bold" font-size="11.00" fill="#000000">note</text>
<text text-anchor="start" x="348.0437" y="-377.8" font-family="Helvetica,sans-Serif" font-size="11.00" fill="#000000">[table]</text>
<polygon fill="none" stroke="#000000" points="153,-347.7 153,-369.7 289,-369.7 289,-347.7 153,-347.7"/>
<image xlink:href="../../images/primaryKeys.png" width="11px" height="12px" preserveAspectRatio="xMinYMin meet" x="158" y="-364.7"/>
<text text-anchor="start" x="173" y="-354.8" font-family="Helvetica,sans-Serif" font-size="11.00" fill="#000000">id</text>
<polygon fill="none" stroke="#000000" points="289,-347.7 289,-369.7 383,-369.7 383,-347.7 289,-347.7"/>
<text text-anchor="start" x="291.9758" y="-355.4" font-family="Helvetica,sans-Serif" font-size="11.00" fill="#000000">uuid[2147483647]</text>
<polygon fill="#ffffff" stroke="transparent" points="153,-325.7 153,-347.7 289,-347.7 289,-325.7 153,-325.7"/>
<polygon fill="none" stroke="#000000" points="153,-325.7 153,-347.7 289,-347.7 289,-325.7 153,-325.7"/>
<text text-anchor="start" x="173" y="-332.8" font-family="Helvetica,sans-Serif" font-size="11.00" fill="#000000">title</text>
<polygon fill="none" stroke="#000000" points="289,-325.7 289,-347.7 383,-347.7 383,-325.7 289,-325.7"/>
<text text-anchor="start" x="292" y="-333.4" font-family="Helvetica,sans-Serif" font-size="11.00" fill="#000000">varchar[255]</text>
<polygon fill="none" stroke="#000000" points="153,-303.7 153,-325.7 289,-325.7 289,-303.7 153,-303.7"/>
<text text-anchor="start" x="173" y="-310.8" font-family="Helvetica,sans-Serif" font-size="11.00" fill="#000000">description</text>
<polygon fill="none" stroke="#000000" points="289,-303.7 289,-325.7 383,-325.7 383,-303.7 289,-303.7"/>
<text text-anchor="start" x="292" y="-311.4" font-family="Helvetica,sans-Serif" font-size="11.00" fill="#000000">text[2147483647]</text>
<polygon fill="none" stroke="#000000" points="153,-281.7 153,-303.7 289,-303.7 289,-281.7 153,-281.7"/>
<text text-anchor="start" x="173" y="-288.8" font-family="Helvetica,sans-Serif" font-size="11.00" fill="#000000">keynotes</text>
<polygon fill="none" stroke="#000000" points="289,-281.7 289,-303.7 383,-303.7 383,-281.7 289,-281.7"/>
<text text-anchor="start" x="292" y="-289.4" font-family="Helvetica,sans-Serif" font-size="11.00" fill="#000000">text[2147483647]</text>
<polygon fill="none" stroke="#000000" points="153,-259.7 153,-281.7 289,-281.7 289,-259.7 153,-259.7"/>
<text text-anchor="start" x="173" y="-266.8" font-family="Helvetica,sans-Serif" font-size="11.00" fill="#000000">createdby</text>
<polygon fill="none" stroke="#000000" points="289,-259.7 289,-281.7 383,-281.7 383,-259.7 289,-259.7"/>
<text text-anchor="start" x="292" y="-267.4" font-family="Helvetica,sans-Serif" font-size="11.00" fill="#000000">varchar[300]</text>
<polygon fill="none" stroke="#000000" points="153,-237.7 153,-259.7 289,-259.7 289,-237.7 153,-237.7"/>
<text text-anchor="start" x="173" y="-244.8" font-family="Helvetica,sans-Serif" font-size="11.00" fill="#000000">createddate</text>
<polygon fill="none" stroke="#000000" points="289,-237.7 289,-259.7 383,-259.7 383,-237.7 289,-237.7"/>
<text text-anchor="start" x="292" y="-245.4" font-family="Helvetica,sans-Serif" font-size="11.00" fill="#000000">timestamp[29,6]</text>
<polygon fill="none" stroke="#000000" points="153,-215.7 153,-237.7 289,-237.7 289,-215.7 153,-215.7"/>
<text text-anchor="start" x="173" y="-222.8" font-family="Helvetica,sans-Serif" font-size="11.00" fill="#000000">lastmodifiedby</text>
<polygon fill="none" stroke="#000000" points="289,-215.7 289,-237.7 383,-237.7 383,-215.7 289,-215.7"/>
<text text-anchor="start" x="292" y="-223.4" font-family="Helvetica,sans-Serif" font-size="11.00" fill="#000000">varchar[300]</text>
<polygon fill="#ffffff" stroke="transparent" points="153,-193.7 153,-215.7 289,-215.7 289,-193.7 153,-193.7"/>
<polygon fill="none" stroke="#000000" points="153,-193.7 153,-215.7 289,-215.7 289,-193.7 153,-193.7"/>
<text text-anchor="start" x="173" y="-200.8" font-family="Helvetica,sans-Serif" font-size="11.00" fill="#000000">lastmodifieddate</text>
<polygon fill="none" stroke="#000000" points="289,-193.7 289,-215.7 383,-215.7 383,-193.7 289,-193.7"/>
<text text-anchor="start" x="292" y="-201.4" font-family="Helvetica,sans-Serif" font-size="11.00" fill="#000000">timestamp[29,6]</text>
<polygon fill="none" stroke="#000000" points="153,-171.7 153,-193.7 289,-193.7 289,-171.7 153,-171.7"/>
<image xlink:href="../../images/foreignKeys.png" width="11px" height="12px" preserveAspectRatio="xMinYMin meet" x="158" y="-188.7"/>
<text text-anchor="start" x="173" y="-178.8" font-family="Helvetica,sans-Serif" font-size="11.00" fill="#000000">subtype</text>
<polygon fill="none" stroke="#000000" points="289,-171.7 289,-193.7 383,-193.7 383,-171.7 289,-171.7"/>
<text text-anchor="start" x="291.9758" y="-179.4" font-family="Helvetica,sans-Serif" font-size="11.00" fill="#000000">uuid[2147483647]</text>
<polygon fill="none" stroke="#000000" points="153,-149.7 153,-171.7 289,-171.7 289,-149.7 153,-149.7"/>
<image xlink:href="../../images/foreignKeys.png" width="11px" height="12px" preserveAspectRatio="xMinYMin meet" x="158" y="-166.7"/>
<text text-anchor="start" x="173" y="-156.8" font-family="Helvetica,sans-Serif" font-size="11.00" fill="#000000">member</text>
<polygon fill="none" stroke="#000000" points="289,-149.7 289,-171.7 383,-171.7 383,-149.7 289,-149.7"/>
<text text-anchor="start" x="291.9758" y="-157.4" font-family="Helvetica,sans-Serif" font-size="11.00" fill="#000000">uuid[2147483647]</text>
<polygon fill="#ffffff" stroke="transparent" points="153,-127.7 153,-149.7 289,-149.7 289,-127.7 153,-127.7"/>
<polygon fill="none" stroke="#000000" points="153,-127.7 153,-149.7 289,-149.7 289,-127.7 153,-127.7"/>
<text text-anchor="start" x="173" y="-134.8" font-family="Helvetica,sans-Serif" font-size="11.00" fill="#000000">category</text>
<polygon fill="none" stroke="#000000" points="289,-127.7 289,-149.7 383,-149.7 383,-127.7 289,-127.7"/>
<text text-anchor="start" x="292" y="-135.4" font-family="Helvetica,sans-Serif" font-size="11.00" fill="#000000">varchar[500]</text>
<polygon fill="none" stroke="#000000" points="153,-105.7 153,-127.7 289,-127.7 289,-105.7 153,-105.7"/>
<text text-anchor="start" x="173" y="-112.8" font-family="Helvetica,sans-Serif" font-size="11.00" fill="#000000">severity</text>
<polygon fill="none" stroke="#000000" points="289,-105.7 289,-127.7 383,-127.7 383,-105.7 289,-105.7"/>
<text text-anchor="start" x="292" y="-113.4" font-family="Helvetica,sans-Serif" font-size="11.00" fill="#000000">varchar[500]</text>
<polygon fill="#ffffff" stroke="transparent" points="153,-86.7 153,-105.7 209,-105.7 209,-86.7 153,-86.7"/>
<polygon fill="none" stroke="#000000" points="153,-86.7 153,-105.7 209,-105.7 209,-86.7 153,-86.7"/>
<text text-anchor="start" x="156" y="-92.8" font-family="Helvetica,sans-Serif" font-size="11.00" fill="#000000">&lt; 2</text>
<polygon fill="#ffffff" stroke="transparent" points="209,-86.7 209,-105.7 289,-105.7 289,-86.7 209,-86.7"/>
<polygon fill="none" stroke="#000000" points="209,-86.7 209,-105.7 289,-105.7 289,-86.7 209,-86.7"/>
<text text-anchor="start" x="247.4956" y="-92.8" font-family="Helvetica,sans-Serif" font-size="11.00" fill="#000000">63 rows</text>
<polygon fill="#ffffff" stroke="transparent" points="289,-86.7 289,-105.7 383,-105.7 383,-86.7 289,-86.7"/>
<polygon fill="none" stroke="#000000" points="289,-86.7 289,-105.7 383,-105.7 383,-86.7 289,-86.7"/>
<text text-anchor="start" x="364.4053" y="-92.8" font-family="Helvetica,sans-Serif" font-size="11.00" fill="#000000">1 &gt;</text>
<polygon fill="none" stroke="#000000" stroke-width="2" points="152,-85.7 152,-393.7 384,-393.7 384,-85.7 152,-85.7"/>
</a>
</g>
</g>
<!-- member -->
<g id="node2" class="node">
<title>member</title>
<g id="a_node2"><a xlink:href="../../tables/member.html" xlink:title="member" target="_top">
<polygon fill="#ffffff" stroke="transparent" points="8,-38.2 8,-143.2 102,-143.2 102,-38.2 8,-38.2"/>
<polygon fill="#f5f5f5" stroke="transparent" points="8,-119.7 8,-142.7 102,-142.7 102,-119.7 8,-119.7"/>
<polygon fill="none" stroke="#000000" points="8,-119.7 8,-142.7 102,-142.7 102,-119.7 8,-119.7"/>
<text text-anchor="start" x="13" y="-128.3" font-family="Helvetica,sans-Serif" font-weight="bold" font-size="11.00" fill="#000000">member</text>
<text text-anchor="start" x="67.5219" y="-127.8" font-family="Helvetica,sans-Serif" font-size="11.00" fill="#000000">[table]</text>
<polygon fill="none" stroke="#000000" points="8,-97.7 8,-119.7 102,-119.7 102,-97.7 8,-97.7"/>
<image xlink:href="../../images/primaryKeys.png" width="11px" height="12px" preserveAspectRatio="xMinYMin meet" x="13" y="-114.7"/>
<text text-anchor="start" x="33" y="-104.8" font-family="Helvetica,sans-Serif" font-size="11.00" fill="#000000">id</text>
<polygon fill="#ffffff" stroke="transparent" points="8,-75.7 8,-97.7 102,-97.7 102,-75.7 8,-75.7"/>
<polygon fill="none" stroke="#000000" points="8,-75.7 8,-97.7 102,-97.7 102,-75.7 8,-75.7"/>
<text text-anchor="start" x="33" y="-82.8" font-family="Helvetica,sans-Serif" font-size="11.00" fill="#000000">name</text>
<polygon fill="none" stroke="#000000" points="8,-56.7 8,-75.7 102,-75.7 102,-56.7 8,-56.7"/>
<text text-anchor="start" x="11" y="-62.8" font-family="Helvetica,sans-Serif" font-size="11.00" fill="#000000">...</text>
<polygon fill="#ffffff" stroke="transparent" points="8,-37.7 8,-56.7 34,-56.7 34,-37.7 8,-37.7"/>
<polygon fill="none" stroke="#000000" points="8,-37.7 8,-56.7 34,-56.7 34,-37.7 8,-37.7"/>
<text text-anchor="start" x="11" y="-43.8" font-family="Helvetica,sans-Serif" font-size="11.00" fill="#000000"> &#160;</text>
<polygon fill="#ffffff" stroke="transparent" points="34,-37.7 34,-56.7 73,-56.7 73,-37.7 34,-37.7"/>
<polygon fill="none" stroke="#000000" points="34,-37.7 34,-56.7 73,-56.7 73,-37.7 34,-37.7"/>
<text text-anchor="start" x="43.1105" y="-43.8" font-family="Helvetica,sans-Serif" font-size="11.00" fill="#000000">1 row</text>
<polygon fill="#ffffff" stroke="transparent" points="73,-37.7 73,-56.7 102,-56.7 102,-37.7 73,-37.7"/>
<polygon fill="none" stroke="#000000" points="73,-37.7 73,-56.7 102,-56.7 102,-37.7 73,-37.7"/>
<text text-anchor="start" x="83.4053" y="-43.8" font-family="Helvetica,sans-Serif" font-size="11.00" fill="#000000">4 &gt;</text>
</a>
</g>
</g>
<!-- note&#45;&gt;member -->
<g id="edge1" class="edge">
<title>note:w&#45;&gt;member:e</title>
<path fill="none" stroke="#000000" d="M139.0468,-155.9012C124.161,-143.0281 128.3017,-108.7 102,-108.7"/>
<polygon fill="#000000" stroke="#000000" points="145.4349,-158.0982 151.8292,-164.1043 149.2175,-159.3991 153,-160.7 153,-160.7 153,-160.7 149.2175,-159.3991 154.1708,-157.2957 145.4349,-158.0982 145.4349,-158.0982"/>
<ellipse fill="none" stroke="#000000" cx="142.4089" cy="-157.0574" rx="3.2" ry="3.2"/>
</g>
<!-- subtype -->
<g id="node3" class="node">
<title>subtype</title>
<g id="a_node3"><a xlink:href="../../tables/subtype.html" xlink:title="subtype" target="_top">
<polygon fill="#ffffff" stroke="transparent" points="8.5,-164.2 8.5,-269.2 101.5,-269.2 101.5,-164.2 8.5,-164.2"/>
<polygon fill="#f5f5f5" stroke="transparent" points="9,-245.7 9,-268.7 102,-268.7 102,-245.7 9,-245.7"/>
<polygon fill="none" stroke="#000000" points="9,-245.7 9,-268.7 102,-268.7 102,-245.7 9,-245.7"/>
<text text-anchor="start" x="14" y="-254.3" font-family="Helvetica,sans-Serif" font-weight="bold" font-size="11.00" fill="#000000">subtype</text>
<text text-anchor="start" x="67.5219" y="-253.8" font-family="Helvetica,sans-Serif" font-size="11.00" fill="#000000">[table]</text>
<polygon fill="none" stroke="#000000" points="9,-223.7 9,-245.7 102,-245.7 102,-223.7 9,-223.7"/>
<image xlink:href="../../images/primaryKeys.png" width="11px" height="12px" preserveAspectRatio="xMinYMin meet" x="14" y="-240.7"/>
<text text-anchor="start" x="38" y="-230.8" font-family="Helvetica,sans-Serif" font-size="11.00" fill="#000000">id</text>
<polygon fill="#ffffff" stroke="transparent" points="9,-201.7 9,-223.7 102,-223.7 102,-201.7 9,-201.7"/>
<polygon fill="none" stroke="#000000" points="9,-201.7 9,-223.7 102,-223.7 102,-201.7 9,-201.7"/>
<text text-anchor="start" x="38" y="-208.8" font-family="Helvetica,sans-Serif" font-size="11.00" fill="#000000">name</text>
<polygon fill="none" stroke="#000000" points="9,-182.7 9,-201.7 102,-201.7 102,-182.7 9,-182.7"/>
<text text-anchor="start" x="12" y="-188.8" font-family="Helvetica,sans-Serif" font-size="11.00" fill="#000000">...</text>
<polygon fill="#ffffff" stroke="transparent" points="9,-163.7 9,-182.7 32,-182.7 32,-163.7 9,-163.7"/>
<polygon fill="none" stroke="#000000" points="9,-163.7 9,-182.7 32,-182.7 32,-163.7 9,-163.7"/>
<text text-anchor="start" x="12" y="-169.8" font-family="Helvetica,sans-Serif" font-size="11.00" fill="#000000"> &#160;</text>
<polygon fill="#ffffff" stroke="transparent" points="32,-163.7 32,-182.7 75,-182.7 75,-163.7 32,-163.7"/>
<polygon fill="none" stroke="#000000" points="32,-163.7 32,-182.7 75,-182.7 75,-163.7 32,-163.7"/>
<text text-anchor="start" x="39.6105" y="-169.8" font-family="Helvetica,sans-Serif" font-size="11.00" fill="#000000">9 rows</text>
<polygon fill="#ffffff" stroke="transparent" points="75,-163.7 75,-182.7 102,-182.7 102,-163.7 75,-163.7"/>
<polygon fill="none" stroke="#000000" points="75,-163.7 75,-182.7 102,-182.7 102,-163.7 75,-163.7"/>
<text text-anchor="start" x="83.4053" y="-169.8" font-family="Helvetica,sans-Serif" font-size="11.00" fill="#000000">2 &gt;</text>
</a>
</g>
</g>
<!-- note&#45;&gt;subtype -->
<g id="edge2" class="edge">
<title>note:w&#45;&gt;subtype:e</title>
<path fill="none" stroke="#000000" d="M139.0468,-187.4988C124.161,-200.3719 128.3017,-234.7 102,-234.7"/>
<polygon fill="#000000" stroke="#000000" points="145.4349,-185.3018 154.1708,-186.1043 149.2175,-184.0009 153,-182.7 153,-182.7 153,-182.7 149.2175,-184.0009 151.8292,-179.2957 145.4349,-185.3018 145.4349,-185.3018"/>
<ellipse fill="none" stroke="#000000" cx="142.4089" cy="-186.3426" rx="3.2" ry="3.2"/>
</g>
<!-- subtype_note_group -->
<g id="node4" class="node">
<title>subtype_note_group</title>
<g id="a_node4"><a xlink:href="../../tables/subtype_note_group.html" xlink:title="subtype_note_group" target="_top">
<polygon fill="#ffffff" stroke="transparent" points="434,-328.7 434,-436.7 610,-436.7 610,-328.7 434,-328.7"/>
<polygon fill="#f5f5f5" stroke="transparent" points="434,-413.7 434,-436.7 610,-436.7 610,-413.7 434,-413.7"/>
<polygon fill="none" stroke="#000000" points="434,-413.7 434,-436.7 610,-436.7 610,-413.7 434,-413.7"/>
<text text-anchor="start" x="439" y="-422.3" font-family="Helvetica,sans-Serif" font-weight="bold" font-size="11.00" fill="#000000">subtype_note_group</text>
<text text-anchor="start" x="575.5219" y="-421.8" font-family="Helvetica,sans-Serif" font-size="11.00" fill="#000000">[table]</text>
<polygon fill="none" stroke="#000000" points="434,-391.7 434,-413.7 610,-413.7 610,-391.7 434,-391.7"/>
<image xlink:href="../../images/primaryKeys.png" width="11px" height="12px" preserveAspectRatio="xMinYMin meet" x="439" y="-408.7"/>
<text text-anchor="start" x="463" y="-398.8" font-family="Helvetica,sans-Serif" font-size="11.00" fill="#000000">id</text>
<polygon fill="#ffffff" stroke="transparent" points="434,-369.7 434,-391.7 610,-391.7 610,-369.7 434,-369.7"/>
<polygon fill="none" stroke="#000000" points="434,-369.7 434,-391.7 610,-391.7 610,-369.7 434,-369.7"/>
<image xlink:href="../../images/foreignKeys.png" width="11px" height="12px" preserveAspectRatio="xMinYMin meet" x="439" y="-386.7"/>
<text text-anchor="start" x="463" y="-376.8" font-family="Helvetica,sans-Serif" font-size="11.00" fill="#000000">subtype_group</text>
<polygon fill="none" stroke="#000000" points="434,-347.7 434,-369.7 610,-369.7 610,-347.7 434,-347.7"/>
<image xlink:href="../../images/foreignKeys.png" width="11px" height="12px" preserveAspectRatio="xMinYMin meet" x="439" y="-364.7"/>
<text text-anchor="start" x="463" y="-354.8" font-family="Helvetica,sans-Serif" font-size="11.00" fill="#000000">note</text>
<polygon fill="#ffffff" stroke="transparent" points="434,-328.7 434,-347.7 504,-347.7 504,-328.7 434,-328.7"/>
<polygon fill="none" stroke="#000000" points="434,-328.7 434,-347.7 504,-347.7 504,-328.7 434,-328.7"/>
<text text-anchor="start" x="437" y="-334.8" font-family="Helvetica,sans-Serif" font-size="11.00" fill="#000000">&lt; 2</text>
<polygon fill="#ffffff" stroke="transparent" points="504,-328.7 504,-347.7 573,-347.7 573,-328.7 504,-328.7"/>
<polygon fill="none" stroke="#000000" points="504,-328.7 504,-347.7 573,-347.7 573,-328.7 504,-328.7"/>
<text text-anchor="start" x="531.4956" y="-334.8" font-family="Helvetica,sans-Serif" font-size="11.00" fill="#000000">31 rows</text>
<polygon fill="#ffffff" stroke="transparent" points="573,-328.7 573,-347.7 610,-347.7 610,-328.7 573,-328.7"/>
<polygon fill="none" stroke="#000000" points="573,-328.7 573,-347.7 610,-347.7 610,-328.7 573,-328.7"/>
<text text-anchor="start" x="600.8862" y="-334.8" font-family="Helvetica,sans-Serif" font-size="11.00" fill="#000000"> &#160;</text>
</a>
</g>
</g>
<!-- subtype_note_group&#45;&gt;note -->
<g id="edge3" class="edge">
<title>subtype_note_group:w&#45;&gt;note:e</title>
<path fill="none" stroke="#000000" d="M419.276,-358.7C407.2815,-358.7 399.8229,-358.7 383,-358.7"/>
<polygon fill="#000000" stroke="#000000" points="426,-358.7001 434,-362.3 430,-358.7 434,-358.7 434,-358.7 434,-358.7 430,-358.7 434,-355.1 426,-358.7001 426,-358.7001"/>
<ellipse fill="none" stroke="#000000" cx="422.8" cy="-358.7001" rx="3.2" ry="3.2"/>
</g>
</g>
</svg>
