<?xml version="1.0" encoding="UTF-8" standalone="no"?>
<!DOCTYPE svg PUBLIC "-//W3C//DTD SVG 1.1//EN"
 "http://www.w3.org/Graphics/SVG/1.1/DTD/svg11.dtd">
<!-- Generated by graphviz version 2.40.1 (20161225.0304)
 -->
<!-- Title: twoDegreesRelationshipsDiagram Pages: 1 -->
<svg width="626pt" height="689pt"
 viewBox="0.00 0.00 626.00 688.70" xmlns="http://www.w3.org/2000/svg" xmlns:xlink="http://www.w3.org/1999/xlink">
<g id="graph0" class="graph" transform="scale(1 1) rotate(0) translate(4 684.7)">
<title>twoDegreesRelationshipsDiagram</title>
<polygon fill="#ffffff" stroke="transparent" points="-4,4 -4,-684.7 622,-684.7 622,4 -4,4"/>
<text text-anchor="middle" x="72.4936" y="-7.3" font-family="Helvetica,sans-Serif" font-size="11.00" fill="#000000">Generated by SchemaSpy</text>
<!-- group_member -->
<g id="node1" class="node">
<title>group_member</title>
<g id="a_node1"><a xlink:href="../../tables/group_member.html" xlink:title="group_member" target="_top">
<polygon fill="#ffffff" stroke="transparent" points="198,-615.7 198,-676.7 338,-676.7 338,-615.7 198,-615.7"/>
<polygon fill="#f5f5f5" stroke="transparent" points="198,-653.2 198,-676.2 338,-676.2 338,-653.2 198,-653.2"/>
<polygon fill="none" stroke="#000000" points="198,-653.2 198,-676.2 338,-676.2 338,-653.2 198,-653.2"/>
<text text-anchor="start" x="203" y="-661.8" font-family="Helvetica,sans-Serif" font-weight="bold" font-size="11.00" fill="#000000">group_member</text>
<text text-anchor="start" x="303.5219" y="-661.3" font-family="Helvetica,sans-Serif" font-size="11.00" fill="#000000">[table]</text>
<polygon fill="none" stroke="#000000" points="198,-634.2 198,-653.2 338,-653.2 338,-634.2 198,-634.2"/>
<text text-anchor="start" x="201" y="-640.3" font-family="Helvetica,sans-Serif" font-size="11.00" fill="#000000">...</text>
<polygon fill="#ffffff" stroke="transparent" points="198,-615.2 198,-634.2 253,-634.2 253,-615.2 198,-615.2"/>
<polygon fill="none" stroke="#000000" points="198,-615.2 198,-634.2 253,-634.2 253,-615.2 198,-615.2"/>
<text text-anchor="start" x="201" y="-621.3" font-family="Helvetica,sans-Serif" font-size="11.00" fill="#000000">&lt; 2</text>
<polygon fill="#ffffff" stroke="transparent" points="253,-615.2 253,-634.2 308,-634.2 308,-615.2 253,-615.2"/>
<polygon fill="none" stroke="#000000" points="253,-615.2 253,-634.2 308,-634.2 308,-615.2 253,-615.2"/>
<text text-anchor="start" x="272.6105" y="-621.3" font-family="Helvetica,sans-Serif" font-size="11.00" fill="#000000">7 rows</text>
<polygon fill="#ffffff" stroke="transparent" points="308,-615.2 308,-634.2 338,-634.2 338,-615.2 308,-615.2"/>
<polygon fill="none" stroke="#000000" points="308,-615.2 308,-634.2 338,-634.2 338,-615.2 308,-615.2"/>
<text text-anchor="start" x="328.8862" y="-621.3" font-family="Helvetica,sans-Serif" font-size="11.00" fill="#000000"> &#160;</text>
</a>
</g>
</g>
<!-- member -->
<g id="node2" class="node">
<title>member</title>
<g id="a_node2"><a xlink:href="../../tables/member.html" xlink:title="member" target="_top">
<polygon fill="#ffffff" stroke="transparent" points="8,-449.7 8,-554.7 102,-554.7 102,-449.7 8,-449.7"/>
<polygon fill="#f5f5f5" stroke="transparent" points="8,-531.2 8,-554.2 102,-554.2 102,-531.2 8,-531.2"/>
<polygon fill="none" stroke="#000000" points="8,-531.2 8,-554.2 102,-554.2 102,-531.2 8,-531.2"/>
<text text-anchor="start" x="13" y="-539.8" font-family="Helvetica,sans-Serif" font-weight="bold" font-size="11.00" fill="#000000">member</text>
<text text-anchor="start" x="67.5219" y="-539.3" font-family="Helvetica,sans-Serif" font-size="11.00" fill="#000000">[table]</text>
<polygon fill="none" stroke="#000000" points="8,-509.2 8,-531.2 102,-531.2 102,-509.2 8,-509.2"/>
<image xlink:href="../../images/primaryKeys.png" width="11px" height="12px" preserveAspectRatio="xMinYMin meet" x="13" y="-526.2"/>
<text text-anchor="start" x="33" y="-516.3" font-family="Helvetica,sans-Serif" font-size="11.00" fill="#000000">id</text>
<polygon fill="#ffffff" stroke="transparent" points="8,-487.2 8,-509.2 102,-509.2 102,-487.2 8,-487.2"/>
<polygon fill="none" stroke="#000000" points="8,-487.2 8,-509.2 102,-509.2 102,-487.2 8,-487.2"/>
<text text-anchor="start" x="33" y="-494.3" font-family="Helvetica,sans-Serif" font-size="11.00" fill="#000000">name</text>
<polygon fill="none" stroke="#000000" points="8,-468.2 8,-487.2 102,-487.2 102,-468.2 8,-468.2"/>
<text text-anchor="start" x="11" y="-474.3" font-family="Helvetica,sans-Serif" font-size="11.00" fill="#000000">...</text>
<polygon fill="#ffffff" stroke="transparent" points="8,-449.2 8,-468.2 34,-468.2 34,-449.2 8,-449.2"/>
<polygon fill="none" stroke="#000000" points="8,-449.2 8,-468.2 34,-468.2 34,-449.2 8,-449.2"/>
<text text-anchor="start" x="11" y="-455.3" font-family="Helvetica,sans-Serif" font-size="11.00" fill="#000000"> &#160;</text>
<polygon fill="#ffffff" stroke="transparent" points="34,-449.2 34,-468.2 73,-468.2 73,-449.2 34,-449.2"/>
<polygon fill="none" stroke="#000000" points="34,-449.2 34,-468.2 73,-468.2 73,-449.2 34,-449.2"/>
<text text-anchor="start" x="43.1105" y="-455.3" font-family="Helvetica,sans-Serif" font-size="11.00" fill="#000000">1 row</text>
<polygon fill="#ffffff" stroke="transparent" points="73,-449.2 73,-468.2 102,-468.2 102,-449.2 73,-449.2"/>
<polygon fill="none" stroke="#000000" points="73,-449.2 73,-468.2 102,-468.2 102,-449.2 73,-449.2"/>
<text text-anchor="start" x="83.4053" y="-455.3" font-family="Helvetica,sans-Serif" font-size="11.00" fill="#000000">4 &gt;</text>
</a>
</g>
</g>
<!-- group_member&#45;&gt;member -->
<g id="edge1" class="edge">
<title>group_member:w&#45;&gt;member:e</title>
<path fill="none" stroke="#000000" d="M183.5467,-641.6276C165.5803,-637.164 158.6955,-623.5416 143,-605.2 115.7298,-573.3324 143.9429,-520.2 102,-520.2"/>
<polygon fill="#000000" stroke="#000000" points="190.0469,-642.3347 197.6106,-646.7789 194.0235,-642.7674 198,-643.2 198,-643.2 198,-643.2 194.0235,-642.7674 198.3894,-639.6211 190.0469,-642.3347 190.0469,-642.3347"/>
<ellipse fill="none" stroke="#000000" cx="186.8657" cy="-641.9886" rx="3.2" ry="3.2"/>
</g>
<!-- group_subtype -->
<g id="node3" class="node">
<title>group_subtype</title>
<g id="a_node3"><a xlink:href="../../tables/group_subtype.html" xlink:title="group_subtype" target="_top">
<polygon fill="#ffffff" stroke="transparent" points="198.5,-369.7 198.5,-430.7 337.5,-430.7 337.5,-369.7 198.5,-369.7"/>
<polygon fill="#f5f5f5" stroke="transparent" points="199,-407.2 199,-430.2 338,-430.2 338,-407.2 199,-407.2"/>
<polygon fill="none" stroke="#000000" points="199,-407.2 199,-430.2 338,-430.2 338,-407.2 199,-407.2"/>
<text text-anchor="start" x="204" y="-415.8" font-family="Helvetica,sans-Serif" font-weight="bold" font-size="11.00" fill="#000000">group_subtype</text>
<text text-anchor="start" x="303.5219" y="-415.3" font-family="Helvetica,sans-Serif" font-size="11.00" fill="#000000">[table]</text>
<polygon fill="none" stroke="#000000" points="199,-388.2 199,-407.2 338,-407.2 338,-388.2 199,-388.2"/>
<text text-anchor="start" x="202" y="-394.3" font-family="Helvetica,sans-Serif" font-size="11.00" fill="#000000">...</text>
<polygon fill="#ffffff" stroke="transparent" points="199,-369.2 199,-388.2 249,-388.2 249,-369.2 199,-369.2"/>
<polygon fill="none" stroke="#000000" points="199,-369.2 199,-388.2 249,-388.2 249,-369.2 199,-369.2"/>
<text text-anchor="start" x="202" y="-375.3" font-family="Helvetica,sans-Serif" font-size="11.00" fill="#000000">&lt; 2</text>
<polygon fill="#ffffff" stroke="transparent" points="249,-369.2 249,-388.2 302,-388.2 302,-369.2 249,-369.2"/>
<polygon fill="none" stroke="#000000" points="249,-369.2 249,-388.2 302,-388.2 302,-369.2 249,-369.2"/>
<text text-anchor="start" x="266.6105" y="-375.3" font-family="Helvetica,sans-Serif" font-size="11.00" fill="#000000">5 rows</text>
<polygon fill="#ffffff" stroke="transparent" points="302,-369.2 302,-388.2 338,-388.2 338,-369.2 302,-369.2"/>
<polygon fill="none" stroke="#000000" points="302,-369.2 302,-388.2 338,-388.2 338,-369.2 302,-369.2"/>
<text text-anchor="start" x="319.4053" y="-375.3" font-family="Helvetica,sans-Serif" font-size="11.00" fill="#000000">1 &gt;</text>
</a>
</g>
</g>
<!-- subtype -->
<g id="node4" class="node">
<title>subtype</title>
<g id="a_node4"><a xlink:href="../../tables/subtype.html" xlink:title="subtype" target="_top">
<polygon fill="#ffffff" stroke="transparent" points="8.5,-215.7 8.5,-320.7 101.5,-320.7 101.5,-215.7 8.5,-215.7"/>
<polygon fill="#f5f5f5" stroke="transparent" points="9,-297.2 9,-320.2 102,-320.2 102,-297.2 9,-297.2"/>
<polygon fill="none" stroke="#000000" points="9,-297.2 9,-320.2 102,-320.2 102,-297.2 9,-297.2"/>
<text text-anchor="start" x="14" y="-305.8" font-family="Helvetica,sans-Serif" font-weight="bold" font-size="11.00" fill="#000000">subtype</text>
<text text-anchor="start" x="67.5219" y="-305.3" font-family="Helvetica,sans-Serif" font-size="11.00" fill="#000000">[table]</text>
<polygon fill="none" stroke="#000000" points="9,-275.2 9,-297.2 102,-297.2 102,-275.2 9,-275.2"/>
<image xlink:href="../../images/primaryKeys.png" width="11px" height="12px" preserveAspectRatio="xMinYMin meet" x="14" y="-292.2"/>
<text text-anchor="start" x="38" y="-282.3" font-family="Helvetica,sans-Serif" font-size="11.00" fill="#000000">id</text>
<polygon fill="#ffffff" stroke="transparent" points="9,-253.2 9,-275.2 102,-275.2 102,-253.2 9,-253.2"/>
<polygon fill="none" stroke="#000000" points="9,-253.2 9,-275.2 102,-275.2 102,-253.2 9,-253.2"/>
<text text-anchor="start" x="38" y="-260.3" font-family="Helvetica,sans-Serif" font-size="11.00" fill="#000000">name</text>
<polygon fill="none" stroke="#000000" points="9,-234.2 9,-253.2 102,-253.2 102,-234.2 9,-234.2"/>
<text text-anchor="start" x="12" y="-240.3" font-family="Helvetica,sans-Serif" font-size="11.00" fill="#000000">...</text>
<polygon fill="#ffffff" stroke="transparent" points="9,-215.2 9,-234.2 32,-234.2 32,-215.2 9,-215.2"/>
<polygon fill="none" stroke="#000000" points="9,-215.2 9,-234.2 32,-234.2 32,-215.2 9,-215.2"/>
<text text-anchor="start" x="12" y="-221.3" font-family="Helvetica,sans-Serif" font-size="11.00" fill="#000000"> &#160;</text>
<polygon fill="#ffffff" stroke="transparent" points="32,-215.2 32,-234.2 75,-234.2 75,-215.2 32,-215.2"/>
<polygon fill="none" stroke="#000000" points="32,-215.2 32,-234.2 75,-234.2 75,-215.2 32,-215.2"/>
<text text-anchor="start" x="39.6105" y="-221.3" font-family="Helvetica,sans-Serif" font-size="11.00" fill="#000000">9 rows</text>
<polygon fill="#ffffff" stroke="transparent" points="75,-215.2 75,-234.2 102,-234.2 102,-215.2 75,-215.2"/>
<polygon fill="none" stroke="#000000" points="75,-215.2 75,-234.2 102,-234.2 102,-215.2 75,-215.2"/>
<text text-anchor="start" x="83.4053" y="-221.3" font-family="Helvetica,sans-Serif" font-size="11.00" fill="#000000">2 &gt;</text>
</a>
</g>
</g>
<!-- group_subtype&#45;&gt;subtype -->
<g id="edge2" class="edge">
<title>group_subtype:w&#45;&gt;subtype:e</title>
<path fill="none" stroke="#000000" d="M184.5845,-395.5879C166.2407,-390.9081 159.6975,-376.4846 143,-358.2 118.168,-331.0077 138.8246,-286.2 102,-286.2"/>
<polygon fill="#000000" stroke="#000000" points="191.0496,-396.3109 198.5999,-400.7777 195.0248,-396.7554 199,-397.2 199,-397.2 199,-397.2 195.0248,-396.7554 199.4001,-393.6223 191.0496,-396.3109 191.0496,-396.3109"/>
<ellipse fill="none" stroke="#000000" cx="187.8694" cy="-395.9552" rx="3.2" ry="3.2"/>
</g>
<!-- login -->
<g id="node5" class="node">
<title>login</title>
<g id="a_node5"><a xlink:href="../../tables/login.html" xlink:title="login" target="_top">
<polygon fill="#ffffff" stroke="transparent" points="232,-533.7 232,-594.7 304,-594.7 304,-533.7 232,-533.7"/>
<polygon fill="#f5f5f5" stroke="transparent" points="232,-571.2 232,-594.2 304,-594.2 304,-571.2 232,-571.2"/>
<polygon fill="none" stroke="#000000" points="232,-571.2 232,-594.2 304,-594.2 304,-571.2 232,-571.2"/>
<text text-anchor="start" x="237" y="-579.8" font-family="Helvetica,sans-Serif" font-weight="bold" font-size="11.00" fill="#000000">login</text>
<text text-anchor="start" x="269.5219" y="-579.3" font-family="Helvetica,sans-Serif" font-size="11.00" fill="#000000">[table]</text>
<polygon fill="none" stroke="#000000" points="232,-552.2 232,-571.2 304,-571.2 304,-552.2 232,-552.2"/>
<text text-anchor="start" x="235" y="-558.3" font-family="Helvetica,sans-Serif" font-size="11.00" fill="#000000">...</text>
<polygon fill="#ffffff" stroke="transparent" points="232,-533.2 232,-552.2 253,-552.2 253,-533.2 232,-533.2"/>
<polygon fill="none" stroke="#000000" points="232,-533.2 232,-552.2 253,-552.2 253,-533.2 232,-533.2"/>
<text text-anchor="start" x="234.7027" y="-539.3" font-family="Helvetica,sans-Serif" font-size="11.00" fill="#000000">&lt; 1</text>
<polygon fill="#ffffff" stroke="transparent" points="253,-533.2 253,-552.2 291,-552.2 291,-533.2 253,-533.2"/>
<polygon fill="none" stroke="#000000" points="253,-533.2 253,-552.2 291,-552.2 291,-533.2 253,-533.2"/>
<text text-anchor="start" x="255.8053" y="-539.3" font-family="Helvetica,sans-Serif" font-size="11.00" fill="#000000">3 rows</text>
<polygon fill="#ffffff" stroke="transparent" points="291,-533.2 291,-552.2 304,-552.2 304,-533.2 291,-533.2"/>
<polygon fill="none" stroke="#000000" points="291,-533.2 291,-552.2 304,-552.2 304,-533.2 291,-533.2"/>
<text text-anchor="start" x="294.8862" y="-539.3" font-family="Helvetica,sans-Serif" font-size="11.00" fill="#000000"> &#160;</text>
</a>
</g>
</g>
<!-- login&#45;&gt;member -->
<g id="edge3" class="edge">
<title>login:w&#45;&gt;member:e</title>
<path fill="none" stroke="#000000" d="M221.5418,-560.7673C170.1574,-556.3855 158.9151,-520.2 102,-520.2"/>
<polygon fill="#000000" stroke="#000000" points="231.3661,-557.1703 231.0353,-565.1635 229.4367,-565.0973 229.7674,-557.1042 231.3661,-557.1703"/>
<polyline fill="none" stroke="#000000" points="232,-561.2 228.0034,-561.0346 "/>
<ellipse fill="none" stroke="#000000" cx="224.8062" cy="-560.9023" rx="3.2" ry="3.2"/>
</g>
<!-- note -->
<g id="node6" class="node">
<title>note</title>
<g id="a_node6"><a xlink:href="../../tables/note.html" xlink:title="note" target="_top">
<polygon fill="#ffffff" stroke="transparent" points="151,-38.2 151,-348.2 385,-348.2 385,-38.2 151,-38.2"/>
<polygon fill="#f5f5f5" stroke="transparent" points="153,-323.2 153,-346.2 383,-346.2 383,-323.2 153,-323.2"/>
<polygon fill="none" stroke="#000000" points="153,-323.2 153,-346.2 383,-346.2 383,-323.2 153,-323.2"/>
<text text-anchor="start" x="158" y="-331.8" font-family="Helvetica,sans-Serif" font-weight="bold" font-size="11.00" fill="#000000">note</text>
<text text-anchor="start" x="348.0437" y="-331.3" font-family="Helvetica,sans-Serif" font-size="11.00" fill="#000000">[table]</text>
<polygon fill="none" stroke="#000000" points="153,-301.2 153,-323.2 289,-323.2 289,-301.2 153,-301.2"/>
<image xlink:href="../../images/primaryKeys.png" width="11px" height="12px" preserveAspectRatio="xMinYMin meet" x="158" y="-318.2"/>
<text text-anchor="start" x="173" y="-308.3" font-family="Helvetica,sans-Serif" font-size="11.00" fill="#000000">id</text>
<polygon fill="none" stroke="#000000" points="289,-301.2 289,-323.2 383,-323.2 383,-301.2 289,-301.2"/>
<text text-anchor="start" x="291.9758" y="-308.9" font-family="Helvetica,sans-Serif" font-size="11.00" fill="#000000">uuid[2147483647]</text>
<polygon fill="#ffffff" stroke="transparent" points="153,-279.2 153,-301.2 289,-301.2 289,-279.2 153,-279.2"/>
<polygon fill="none" stroke="#000000" points="153,-279.2 153,-301.2 289,-301.2 289,-279.2 153,-279.2"/>
<text text-anchor="start" x="173" y="-286.3" font-family="Helvetica,sans-Serif" font-size="11.00" fill="#000000">title</text>
<polygon fill="none" stroke="#000000" points="289,-279.2 289,-301.2 383,-301.2 383,-279.2 289,-279.2"/>
<text text-anchor="start" x="292" y="-286.9" font-family="Helvetica,sans-Serif" font-size="11.00" fill="#000000">varchar[255]</text>
<polygon fill="none" stroke="#000000" points="153,-257.2 153,-279.2 289,-279.2 289,-257.2 153,-257.2"/>
<text text-anchor="start" x="173" y="-264.3" font-family="Helvetica,sans-Serif" font-size="11.00" fill="#000000">description</text>
<polygon fill="none" stroke="#000000" points="289,-257.2 289,-279.2 383,-279.2 383,-257.2 289,-257.2"/>
<text text-anchor="start" x="292" y="-264.9" font-family="Helvetica,sans-Serif" font-size="11.00" fill="#000000">text[2147483647]</text>
<polygon fill="none" stroke="#000000" points="153,-235.2 153,-257.2 289,-257.2 289,-235.2 153,-235.2"/>
<text text-anchor="start" x="173" y="-242.3" font-family="Helvetica,sans-Serif" font-size="11.00" fill="#000000">keynotes</text>
<polygon fill="none" stroke="#000000" points="289,-235.2 289,-257.2 383,-257.2 383,-235.2 289,-235.2"/>
<text text-anchor="start" x="292" y="-242.9" font-family="Helvetica,sans-Serif" font-size="11.00" fill="#000000">text[2147483647]</text>
<polygon fill="none" stroke="#000000" points="153,-213.2 153,-235.2 289,-235.2 289,-213.2 153,-213.2"/>
<text text-anchor="start" x="173" y="-220.3" font-family="Helvetica,sans-Serif" font-size="11.00" fill="#000000">createdby</text>
<polygon fill="none" stroke="#000000" points="289,-213.2 289,-235.2 383,-235.2 383,-213.2 289,-213.2"/>
<text text-anchor="start" x="292" y="-220.9" font-family="Helvetica,sans-Serif" font-size="11.00" fill="#000000">varchar[300]</text>
<polygon fill="none" stroke="#000000" points="153,-191.2 153,-213.2 289,-213.2 289,-191.2 153,-191.2"/>
<text text-anchor="start" x="173" y="-198.3" font-family="Helvetica,sans-Serif" font-size="11.00" fill="#000000">createddate</text>
<polygon fill="none" stroke="#000000" points="289,-191.2 289,-213.2 383,-213.2 383,-191.2 289,-191.2"/>
<text text-anchor="start" x="292" y="-198.9" font-family="Helvetica,sans-Serif" font-size="11.00" fill="#000000">timestamp[29,6]</text>
<polygon fill="none" stroke="#000000" points="153,-169.2 153,-191.2 289,-191.2 289,-169.2 153,-169.2"/>
<text text-anchor="start" x="173" y="-176.3" font-family="Helvetica,sans-Serif" font-size="11.00" fill="#000000">lastmodifiedby</text>
<polygon fill="none" stroke="#000000" points="289,-169.2 289,-191.2 383,-191.2 383,-169.2 289,-169.2"/>
<text text-anchor="start" x="292" y="-176.9" font-family="Helvetica,sans-Serif" font-size="11.00" fill="#000000">varchar[300]</text>
<polygon fill="#ffffff" stroke="transparent" points="153,-147.2 153,-169.2 289,-169.2 289,-147.2 153,-147.2"/>
<polygon fill="none" stroke="#000000" points="153,-147.2 153,-169.2 289,-169.2 289,-147.2 153,-147.2"/>
<text text-anchor="start" x="173" y="-154.3" font-family="Helvetica,sans-Serif" font-size="11.00" fill="#000000">lastmodifieddate</text>
<polygon fill="none" stroke="#000000" points="289,-147.2 289,-169.2 383,-169.2 383,-147.2 289,-147.2"/>
<text text-anchor="start" x="292" y="-154.9" font-family="Helvetica,sans-Serif" font-size="11.00" fill="#000000">timestamp[29,6]</text>
<polygon fill="none" stroke="#000000" points="153,-125.2 153,-147.2 289,-147.2 289,-125.2 153,-125.2"/>
<image xlink:href="../../images/foreignKeys.png" width="11px" height="12px" preserveAspectRatio="xMinYMin meet" x="158" y="-142.2"/>
<text text-anchor="start" x="173" y="-132.3" font-family="Helvetica,sans-Serif" font-size="11.00" fill="#000000">subtype</text>
<polygon fill="none" stroke="#000000" points="289,-125.2 289,-147.2 383,-147.2 383,-125.2 289,-125.2"/>
<text text-anchor="start" x="291.9758" y="-132.9" font-family="Helvetica,sans-Serif" font-size="11.00" fill="#000000">uuid[2147483647]</text>
<polygon fill="none" stroke="#000000" points="153,-103.2 153,-125.2 289,-125.2 289,-103.2 153,-103.2"/>
<image xlink:href="../../images/foreignKeys.png" width="11px" height="12px" preserveAspectRatio="xMinYMin meet" x="158" y="-120.2"/>
<text text-anchor="start" x="173" y="-110.3" font-family="Helvetica,sans-Serif" font-size="11.00" fill="#000000">member</text>
<polygon fill="none" stroke="#000000" points="289,-103.2 289,-125.2 383,-125.2 383,-103.2 289,-103.2"/>
<text text-anchor="start" x="291.9758" y="-110.9" font-family="Helvetica,sans-Serif" font-size="11.00" fill="#000000">uuid[2147483647]</text>
<polygon fill="#ffffff" stroke="transparent" points="153,-81.2 153,-103.2 289,-103.2 289,-81.2 153,-81.2"/>
<polygon fill="none" stroke="#000000" points="153,-81.2 153,-103.2 289,-103.2 289,-81.2 153,-81.2"/>
<text text-anchor="start" x="173" y="-88.3" font-family="Helvetica,sans-Serif" font-size="11.00" fill="#000000">category</text>
<polygon fill="none" stroke="#000000" points="289,-81.2 289,-103.2 383,-103.2 383,-81.2 289,-81.2"/>
<text text-anchor="start" x="292" y="-88.9" font-family="Helvetica,sans-Serif" font-size="11.00" fill="#000000">varchar[500]</text>
<polygon fill="none" stroke="#000000" points="153,-59.2 153,-81.2 289,-81.2 289,-59.2 153,-59.2"/>
<text text-anchor="start" x="173" y="-66.3" font-family="Helvetica,sans-Serif" font-size="11.00" fill="#000000">severity</text>
<polygon fill="none" stroke="#000000" points="289,-59.2 289,-81.2 383,-81.2 383,-59.2 289,-59.2"/>
<text text-anchor="start" x="292" y="-66.9" font-family="Helvetica,sans-Serif" font-size="11.00" fill="#000000">varchar[500]</text>
<polygon fill="#ffffff" stroke="transparent" points="153,-40.2 153,-59.2 209,-59.2 209,-40.2 153,-40.2"/>
<polygon fill="none" stroke="#000000" points="153,-40.2 153,-59.2 209,-59.2 209,-40.2 153,-40.2"/>
<text text-anchor="start" x="156" y="-46.3" font-family="Helvetica,sans-Serif" font-size="11.00" fill="#000000">&lt; 2</text>
<polygon fill="#ffffff" stroke="transparent" points="209,-40.2 209,-59.2 289,-59.2 289,-40.2 209,-40.2"/>
<polygon fill="none" stroke="#000000" points="209,-40.2 209,-59.2 289,-59.2 289,-40.2 209,-40.2"/>
<text text-anchor="start" x="247.4956" y="-46.3" font-family="Helvetica,sans-Serif" font-size="11.00" fill="#000000">63 rows</text>
<polygon fill="#ffffff" stroke="transparent" points="289,-40.2 289,-59.2 383,-59.2 383,-40.2 289,-40.2"/>
<polygon fill="none" stroke="#000000" points="289,-40.2 289,-59.2 383,-59.2 383,-40.2 289,-40.2"/>
<text text-anchor="start" x="364.4053" y="-46.3" font-family="Helvetica,sans-Serif" font-size="11.00" fill="#000000">1 &gt;</text>
<polygon fill="none" stroke="#000000" stroke-width="2" points="152,-39.2 152,-347.2 384,-347.2 384,-39.2 152,-39.2"/>
</a>
</g>
</g>
<!-- note&#45;&gt;member -->
<g id="edge4" class="edge">
<title>note:w&#45;&gt;member:e</title>
<path fill="none" stroke="#000000" d="M138.824,-118.4849C77.1023,-161.8757 187.4257,-520.2 102,-520.2"/>
<polygon fill="#000000" stroke="#000000" points="145.3422,-116.5147 154.0416,-117.646 149.1711,-115.3574 153,-114.2 153,-114.2 153,-114.2 149.1711,-115.3574 151.9584,-110.754 145.3422,-116.5147 145.3422,-116.5147"/>
<ellipse fill="none" stroke="#000000" cx="142.279" cy="-117.4406" rx="3.2" ry="3.2"/>
</g>
<!-- note&#45;&gt;subtype -->
<g id="edge5" class="edge">
<title>note:w&#45;&gt;subtype:e</title>
<path fill="none" stroke="#000000" d="M138.7294,-139.0625C96.2447,-159.8 166.6384,-286.2 102,-286.2"/>
<polygon fill="#000000" stroke="#000000" points="145.1562,-137.7734 153.708,-139.7297 149.0781,-136.9867 153,-136.2 153,-136.2 153,-136.2 149.0781,-136.9867 152.292,-132.6703 145.1562,-137.7734 145.1562,-137.7734"/>
<ellipse fill="none" stroke="#000000" cx="142.0187" cy="-138.4028" rx="3.2" ry="3.2"/>
</g>
<!-- subtype_note_group -->
<g id="node7" class="node">
<title>subtype_note_group</title>
<g id="a_node7"><a xlink:href="../../tables/subtype_note_group.html" xlink:title="subtype_note_group" target="_top">
<polygon fill="#ffffff" stroke="transparent" points="434,-313.2 434,-421.2 610,-421.2 610,-313.2 434,-313.2"/>
<polygon fill="#f5f5f5" stroke="transparent" points="434,-398.2 434,-421.2 610,-421.2 610,-398.2 434,-398.2"/>
<polygon fill="none" stroke="#000000" points="434,-398.2 434,-421.2 610,-421.2 610,-398.2 434,-398.2"/>
<text text-anchor="start" x="439" y="-406.8" font-family="Helvetica,sans-Serif" font-weight="bold" font-size="11.00" fill="#000000">subtype_note_group</text>
<text text-anchor="start" x="575.5219" y="-406.3" font-family="Helvetica,sans-Serif" font-size="11.00" fill="#000000">[table]</text>
<polygon fill="none" stroke="#000000" points="434,-376.2 434,-398.2 610,-398.2 610,-376.2 434,-376.2"/>
<image xlink:href="../../images/primaryKeys.png" width="11px" height="12px" preserveAspectRatio="xMinYMin meet" x="439" y="-393.2"/>
<text text-anchor="start" x="463" y="-383.3" font-family="Helvetica,sans-Serif" font-size="11.00" fill="#000000">id</text>
<polygon fill="#ffffff" stroke="transparent" points="434,-354.2 434,-376.2 610,-376.2 610,-354.2 434,-354.2"/>
<polygon fill="none" stroke="#000000" points="434,-354.2 434,-376.2 610,-376.2 610,-354.2 434,-354.2"/>
<image xlink:href="../../images/foreignKeys.png" width="11px" height="12px" preserveAspectRatio="xMinYMin meet" x="439" y="-371.2"/>
<text text-anchor="start" x="463" y="-361.3" font-family="Helvetica,sans-Serif" font-size="11.00" fill="#000000">subtype_group</text>
<polygon fill="none" stroke="#000000" points="434,-332.2 434,-354.2 610,-354.2 610,-332.2 434,-332.2"/>
<image xlink:href="../../images/foreignKeys.png" width="11px" height="12px" preserveAspectRatio="xMinYMin meet" x="439" y="-349.2"/>
<text text-anchor="start" x="463" y="-339.3" font-family="Helvetica,sans-Serif" font-size="11.00" fill="#000000">note</text>
<polygon fill="#ffffff" stroke="transparent" points="434,-313.2 434,-332.2 504,-332.2 504,-313.2 434,-313.2"/>
<polygon fill="none" stroke="#000000" points="434,-313.2 434,-332.2 504,-332.2 504,-313.2 434,-313.2"/>
<text text-anchor="start" x="437" y="-319.3" font-family="Helvetica,sans-Serif" font-size="11.00" fill="#000000">&lt; 2</text>
<polygon fill="#ffffff" stroke="transparent" points="504,-313.2 504,-332.2 573,-332.2 573,-313.2 504,-313.2"/>
<polygon fill="none" stroke="#000000" points="504,-313.2 504,-332.2 573,-332.2 573,-313.2 504,-313.2"/>
<text text-anchor="start" x="531.4956" y="-319.3" font-family="Helvetica,sans-Serif" font-size="11.00" fill="#000000">31 rows</text>
<polygon fill="#ffffff" stroke="transparent" points="573,-313.2 573,-332.2 610,-332.2 610,-313.2 573,-313.2"/>
<polygon fill="none" stroke="#000000" points="573,-313.2 573,-332.2 610,-332.2 610,-313.2 573,-313.2"/>
<text text-anchor="start" x="600.8862" y="-319.3" font-family="Helvetica,sans-Serif" font-size="11.00" fill="#000000"> &#160;</text>
</a>
</g>
</g>
<!-- subtype_note_group&#45;&gt;group_subtype -->
<g id="edge7" class="edge">
<title>subtype_note_group:w&#45;&gt;group_subtype:e</title>
<path fill="none" stroke="#000000" d="M419.2356,-366.4941C386.9892,-372.4808 377.5285,-397.2 338,-397.2"/>
<polygon fill="#000000" stroke="#000000" points="426.0306,-365.8986 434.3144,-368.7863 430.0153,-365.5493 434,-365.2 434,-365.2 434,-365.2 430.0153,-365.5493 433.6856,-361.6137 426.0306,-365.8986 426.0306,-365.8986"/>
<ellipse fill="none" stroke="#000000" cx="422.8428" cy="-366.178" rx="3.2" ry="3.2"/>
</g>
<!-- subtype_note_group&#45;&gt;note -->
<g id="edge6" class="edge">
<title>subtype_note_group:w&#45;&gt;note:e</title>
<path fill="none" stroke="#000000" d="M420.0967,-339.3988C407.0044,-331.1209 403.7231,-312.2 383,-312.2"/>
<polygon fill="#000000" stroke="#000000" points="426.2832,-341.0902 433.0506,-346.6726 430.1416,-342.1451 434,-343.2 434,-343.2 434,-343.2 430.1416,-342.1451 434.9494,-339.7274 426.2832,-341.0902 426.2832,-341.0902"/>
<ellipse fill="none" stroke="#000000" cx="423.1965" cy="-340.2462" rx="3.2" ry="3.2"/>
</g>
<!-- theme_member -->
<g id="node8" class="node">
<title>theme_member</title>
<g id="a_node8"><a xlink:href="../../tables/theme_member.html" xlink:title="theme_member" target="_top">
<polygon fill="#ffffff" stroke="transparent" points="196.5,-451.7 196.5,-512.7 339.5,-512.7 339.5,-451.7 196.5,-451.7"/>
<polygon fill="#f5f5f5" stroke="transparent" points="197,-489.2 197,-512.2 340,-512.2 340,-489.2 197,-489.2"/>
<polygon fill="none" stroke="#000000" points="197,-489.2 197,-512.2 340,-512.2 340,-489.2 197,-489.2"/>
<text text-anchor="start" x="202" y="-497.8" font-family="Helvetica,sans-Serif" font-weight="bold" font-size="11.00" fill="#000000">theme_member</text>
<text text-anchor="start" x="305.5219" y="-497.3" font-family="Helvetica,sans-Serif" font-size="11.00" fill="#000000">[table]</text>
<polygon fill="none" stroke="#000000" points="197,-470.2 197,-489.2 340,-489.2 340,-470.2 197,-470.2"/>
<text text-anchor="start" x="200" y="-476.3" font-family="Helvetica,sans-Serif" font-size="11.00" fill="#000000">...</text>
<polygon fill="#ffffff" stroke="transparent" points="197,-451.2 197,-470.2 251,-470.2 251,-451.2 197,-451.2"/>
<polygon fill="none" stroke="#000000" points="197,-451.2 197,-470.2 251,-470.2 251,-451.2 197,-451.2"/>
<text text-anchor="start" x="200" y="-457.3" font-family="Helvetica,sans-Serif" font-size="11.00" fill="#000000">&lt; 2</text>
<polygon fill="#ffffff" stroke="transparent" points="251,-451.2 251,-470.2 311,-470.2 311,-451.2 251,-451.2"/>
<polygon fill="none" stroke="#000000" points="251,-451.2 251,-470.2 311,-470.2 311,-451.2 251,-451.2"/>
<text text-anchor="start" x="269.4956" y="-457.3" font-family="Helvetica,sans-Serif" font-size="11.00" fill="#000000">30 rows</text>
<polygon fill="#ffffff" stroke="transparent" points="311,-451.2 311,-470.2 340,-470.2 340,-451.2 311,-451.2"/>
<polygon fill="none" stroke="#000000" points="311,-451.2 311,-470.2 340,-470.2 340,-451.2 311,-451.2"/>
<text text-anchor="start" x="330.8862" y="-457.3" font-family="Helvetica,sans-Serif" font-size="11.00" fill="#000000"> &#160;</text>
</a>
</g>
</g>
<!-- theme_member&#45;&gt;member -->
<g id="edge8" class="edge">
<title>theme_member:w&#45;&gt;member:e</title>
<path fill="none" stroke="#000000" d="M182.4645,-480.7572C149.714,-488.2463 142.5975,-520.2 102,-520.2"/>
<polygon fill="#000000" stroke="#000000" points="189.0455,-480.0522 197.3835,-482.7795 193.0228,-479.6261 197,-479.2 197,-479.2 197,-479.2 193.0228,-479.6261 196.6165,-475.6205 189.0455,-480.0522 189.0455,-480.0522"/>
<ellipse fill="none" stroke="#000000" cx="185.8637" cy="-480.3931" rx="3.2" ry="3.2"/>
</g>
</g>
</svg>
