<?xml version="1.0" encoding="UTF-8" standalone="no"?>
<!DOCTYPE svg PUBLIC "-//W3C//DTD SVG 1.1//EN"
 "http://www.w3.org/Graphics/SVG/1.1/DTD/svg11.dtd">
<!-- Generated by graphviz version 2.40.1 (20161225.0304)
 -->
<!-- Title: oneDegreeRelationshipsDiagram Pages: 1 -->
<svg width="385pt" height="413pt"
 viewBox="0.00 0.00 385.00 413.20" xmlns="http://www.w3.org/2000/svg" xmlns:xlink="http://www.w3.org/1999/xlink">
<g id="graph0" class="graph" transform="scale(1 1) rotate(0) translate(4 409.2)">
<title>oneDegreeRelationshipsDiagram</title>
<polygon fill="#ffffff" stroke="transparent" points="-4,4 -4,-409.2 381,-409.2 381,4 -4,4"/>
<text text-anchor="middle" x="72.4936" y="-7.3" font-family="Helvetica,sans-Serif" font-size="11.00" fill="#000000">Generated by SchemaSpy</text>
<!-- group_subtype -->
<g id="node1" class="node">
<title>group_subtype</title>
<g id="a_node1"><a xlink:href="../../tables/group_subtype.html" xlink:title="group_subtype" target="_top">
<polygon fill="#ffffff" stroke="transparent" points="230,-252.2 230,-401.2 369,-401.2 369,-252.2 230,-252.2"/>
<polygon fill="#f5f5f5" stroke="transparent" points="230.5,-377.7 230.5,-400.7 369.5,-400.7 369.5,-377.7 230.5,-377.7"/>
<polygon fill="none" stroke="#000000" points="230.5,-377.7 230.5,-400.7 369.5,-400.7 369.5,-377.7 230.5,-377.7"/>
<text text-anchor="start" x="235.5" y="-386.3" font-family="Helvetica,sans-Serif" font-weight="bold" font-size="11.00" fill="#000000">group_subtype</text>
<text text-anchor="start" x="335.0219" y="-385.8" font-family="Helvetica,sans-Serif" font-size="11.00" fill="#000000">[table]</text>
<polygon fill="none" stroke="#000000" points="230.5,-355.7 230.5,-377.7 369.5,-377.7 369.5,-355.7 230.5,-355.7"/>
<image xlink:href="../../images/primaryKeys.png" width="11px" height="12px" preserveAspectRatio="xMinYMin meet" x="235.5" y="-372.7"/>
<text text-anchor="start" x="259.5" y="-362.8" font-family="Helvetica,sans-Serif" font-size="11.00" fill="#000000">id</text>
<polygon fill="#ffffff" stroke="transparent" points="230.5,-333.7 230.5,-355.7 369.5,-355.7 369.5,-333.7 230.5,-333.7"/>
<polygon fill="none" stroke="#000000" points="230.5,-333.7 230.5,-355.7 369.5,-355.7 369.5,-333.7 230.5,-333.7"/>
<image xlink:href="../../images/foreignKeys.png" width="11px" height="12px" preserveAspectRatio="xMinYMin meet" x="235.5" y="-350.7"/>
<text text-anchor="start" x="259.5" y="-340.8" font-family="Helvetica,sans-Serif" font-size="11.00" fill="#000000">group_note</text>
<polygon fill="#ffffff" stroke="transparent" points="230.5,-311.7 230.5,-333.7 369.5,-333.7 369.5,-311.7 230.5,-311.7"/>
<polygon fill="none" stroke="#000000" points="230.5,-311.7 230.5,-333.7 369.5,-333.7 369.5,-311.7 230.5,-311.7"/>
<image xlink:href="../../images/foreignKeys.png" width="11px" height="12px" preserveAspectRatio="xMinYMin meet" x="235.5" y="-328.7"/>
<text text-anchor="start" x="259.5" y="-318.8" font-family="Helvetica,sans-Serif" font-size="11.00" fill="#000000">subtype</text>
<polygon fill="#ffffff" stroke="transparent" points="230.5,-289.7 230.5,-311.7 369.5,-311.7 369.5,-289.7 230.5,-289.7"/>
<polygon fill="none" stroke="#000000" points="230.5,-289.7 230.5,-311.7 369.5,-311.7 369.5,-289.7 230.5,-289.7"/>
<text text-anchor="start" x="259.5" y="-296.8" font-family="Helvetica,sans-Serif" font-size="11.00" fill="#000000">index</text>
<polygon fill="none" stroke="#000000" points="230.5,-270.7 230.5,-289.7 369.5,-289.7 369.5,-270.7 230.5,-270.7"/>
<text text-anchor="start" x="233.5" y="-276.8" font-family="Helvetica,sans-Serif" font-size="11.00" fill="#000000">...</text>
<polygon fill="#ffffff" stroke="transparent" points="230.5,-251.7 230.5,-270.7 280.5,-270.7 280.5,-251.7 230.5,-251.7"/>
<polygon fill="none" stroke="#000000" points="230.5,-251.7 230.5,-270.7 280.5,-270.7 280.5,-251.7 230.5,-251.7"/>
<text text-anchor="start" x="233.5" y="-257.8" font-family="Helvetica,sans-Serif" font-size="11.00" fill="#000000">&lt; 2</text>
<polygon fill="#ffffff" stroke="transparent" points="280.5,-251.7 280.5,-270.7 333.5,-270.7 333.5,-251.7 280.5,-251.7"/>
<polygon fill="none" stroke="#000000" points="280.5,-251.7 280.5,-270.7 333.5,-270.7 333.5,-251.7 280.5,-251.7"/>
<text text-anchor="start" x="298.1105" y="-257.8" font-family="Helvetica,sans-Serif" font-size="11.00" fill="#000000">5 rows</text>
<polygon fill="#ffffff" stroke="transparent" points="333.5,-251.7 333.5,-270.7 369.5,-270.7 369.5,-251.7 333.5,-251.7"/>
<polygon fill="none" stroke="#000000" points="333.5,-251.7 333.5,-270.7 369.5,-270.7 369.5,-251.7 333.5,-251.7"/>
<text text-anchor="start" x="350.9053" y="-257.8" font-family="Helvetica,sans-Serif" font-size="11.00" fill="#000000">1 &gt;</text>
</a>
</g>
</g>
<!-- subtype -->
<g id="node2" class="node">
<title>subtype</title>
<g id="a_node2"><a xlink:href="../../tables/subtype.html" xlink:title="subtype" target="_top">
<polygon fill="#ffffff" stroke="transparent" points="8,-150.7 8,-262.7 181,-262.7 181,-150.7 8,-150.7"/>
<polygon fill="#f5f5f5" stroke="transparent" points="10.5,-237.7 10.5,-260.7 179.5,-260.7 179.5,-237.7 10.5,-237.7"/>
<polygon fill="none" stroke="#000000" points="10.5,-237.7 10.5,-260.7 179.5,-260.7 179.5,-237.7 10.5,-237.7"/>
<text text-anchor="start" x="15.5" y="-246.3" font-family="Helvetica,sans-Serif" font-weight="bold" font-size="11.00" fill="#000000">subtype</text>
<text text-anchor="start" x="144.5437" y="-245.8" font-family="Helvetica,sans-Serif" font-size="11.00" fill="#000000">[table]</text>
<polygon fill="none" stroke="#000000" points="10.5,-215.7 10.5,-237.7 85.5,-237.7 85.5,-215.7 10.5,-215.7"/>
<image xlink:href="../../images/primaryKeys.png" width="11px" height="12px" preserveAspectRatio="xMinYMin meet" x="15.5" y="-232.7"/>
<text text-anchor="start" x="30.5" y="-222.8" font-family="Helvetica,sans-Serif" font-size="11.00" fill="#000000">id</text>
<polygon fill="none" stroke="#000000" points="85.5,-215.7 85.5,-237.7 179.5,-237.7 179.5,-215.7 85.5,-215.7"/>
<text text-anchor="start" x="88.4758" y="-223.4" font-family="Helvetica,sans-Serif" font-size="11.00" fill="#000000">uuid[2147483647]</text>
<polygon fill="#ffffff" stroke="transparent" points="10.5,-193.7 10.5,-215.7 85.5,-215.7 85.5,-193.7 10.5,-193.7"/>
<polygon fill="none" stroke="#000000" points="10.5,-193.7 10.5,-215.7 85.5,-215.7 85.5,-193.7 10.5,-193.7"/>
<text text-anchor="start" x="30.5" y="-200.8" font-family="Helvetica,sans-Serif" font-size="11.00" fill="#000000">name</text>
<polygon fill="none" stroke="#000000" points="85.5,-193.7 85.5,-215.7 179.5,-215.7 179.5,-193.7 85.5,-193.7"/>
<text text-anchor="start" x="88.5" y="-201.4" font-family="Helvetica,sans-Serif" font-size="11.00" fill="#000000">varchar[255]</text>
<polygon fill="none" stroke="#000000" points="10.5,-171.7 10.5,-193.7 85.5,-193.7 85.5,-171.7 10.5,-171.7"/>
<text text-anchor="start" x="30.5" y="-178.8" font-family="Helvetica,sans-Serif" font-size="11.00" fill="#000000">color</text>
<polygon fill="none" stroke="#000000" points="85.5,-171.7 85.5,-193.7 179.5,-193.7 179.5,-171.7 85.5,-171.7"/>
<text text-anchor="start" x="88.5" y="-179.4" font-family="Helvetica,sans-Serif" font-size="11.00" fill="#000000">varchar[50]</text>
<polygon fill="#ffffff" stroke="transparent" points="10.5,-152.7 10.5,-171.7 39.5,-171.7 39.5,-152.7 10.5,-152.7"/>
<polygon fill="none" stroke="#000000" points="10.5,-152.7 10.5,-171.7 39.5,-171.7 39.5,-152.7 10.5,-152.7"/>
<text text-anchor="start" x="13.5" y="-158.8" font-family="Helvetica,sans-Serif" font-size="11.00" fill="#000000">&lt; 0</text>
<polygon fill="#ffffff" stroke="transparent" points="39.5,-152.7 39.5,-171.7 85.5,-171.7 85.5,-152.7 39.5,-152.7"/>
<polygon fill="none" stroke="#000000" points="39.5,-152.7 39.5,-171.7 85.5,-171.7 85.5,-152.7 39.5,-152.7"/>
<text text-anchor="start" x="50.1105" y="-158.8" font-family="Helvetica,sans-Serif" font-size="11.00" fill="#000000">9 rows</text>
<polygon fill="#ffffff" stroke="transparent" points="85.5,-152.7 85.5,-171.7 179.5,-171.7 179.5,-152.7 85.5,-152.7"/>
<polygon fill="none" stroke="#000000" points="85.5,-152.7 85.5,-171.7 179.5,-171.7 179.5,-152.7 85.5,-152.7"/>
<text text-anchor="start" x="160.9053" y="-158.8" font-family="Helvetica,sans-Serif" font-size="11.00" fill="#000000">2 &gt;</text>
<polygon fill="none" stroke="#000000" stroke-width="2" points="9,-151.7 9,-261.7 180,-261.7 180,-151.7 9,-151.7"/>
</a>
</g>
</g>
<!-- group_subtype&#45;&gt;subtype -->
<g id="edge1" class="edge">
<title>group_subtype:w&#45;&gt;subtype:e</title>
<path fill="none" stroke="#000000" d="M216.4189,-318.575C192.1253,-300.2 221.7746,-226.7 179.5,-226.7"/>
<polygon fill="#000000" stroke="#000000" points="222.8226,-320.4509 229.4879,-326.1548 226.6613,-321.5755 230.5,-322.7 230.5,-322.7 230.5,-322.7 226.6613,-321.5755 231.5121,-319.2452 222.8226,-320.4509 222.8226,-320.4509"/>
<ellipse fill="none" stroke="#000000" cx="219.7517" cy="-319.5513" rx="3.2" ry="3.2"/>
</g>
<!-- note -->
<g id="node3" class="node">
<title>note</title>
<g id="a_node3"><a xlink:href="../../tables/note.html" xlink:title="note" target="_top">
<polygon fill="#ffffff" stroke="transparent" points="231.5,-38.2 231.5,-231.2 367.5,-231.2 367.5,-38.2 231.5,-38.2"/>
<polygon fill="#f5f5f5" stroke="transparent" points="231.5,-207.7 231.5,-230.7 367.5,-230.7 367.5,-207.7 231.5,-207.7"/>
<polygon fill="none" stroke="#000000" points="231.5,-207.7 231.5,-230.7 367.5,-230.7 367.5,-207.7 231.5,-207.7"/>
<text text-anchor="start" x="236.5" y="-216.3" font-family="Helvetica,sans-Serif" font-weight="bold" font-size="11.00" fill="#000000">note</text>
<text text-anchor="start" x="332.5437" y="-215.8" font-family="Helvetica,sans-Serif" font-size="11.00" fill="#000000">[table]</text>
<polygon fill="none" stroke="#000000" points="231.5,-185.7 231.5,-207.7 367.5,-207.7 367.5,-185.7 231.5,-185.7"/>
<image xlink:href="../../images/primaryKeys.png" width="11px" height="12px" preserveAspectRatio="xMinYMin meet" x="236.5" y="-202.7"/>
<text text-anchor="start" x="251.5" y="-192.8" font-family="Helvetica,sans-Serif" font-size="11.00" fill="#000000">id</text>
<polygon fill="#ffffff" stroke="transparent" points="231.5,-163.7 231.5,-185.7 367.5,-185.7 367.5,-163.7 231.5,-163.7"/>
<polygon fill="none" stroke="#000000" points="231.5,-163.7 231.5,-185.7 367.5,-185.7 367.5,-163.7 231.5,-163.7"/>
<text text-anchor="start" x="251.5" y="-170.8" font-family="Helvetica,sans-Serif" font-size="11.00" fill="#000000">title</text>
<polygon fill="#ffffff" stroke="transparent" points="231.5,-141.7 231.5,-163.7 367.5,-163.7 367.5,-141.7 231.5,-141.7"/>
<polygon fill="none" stroke="#000000" points="231.5,-141.7 231.5,-163.7 367.5,-163.7 367.5,-141.7 231.5,-141.7"/>
<text text-anchor="start" x="251.5" y="-148.8" font-family="Helvetica,sans-Serif" font-size="11.00" fill="#000000">lastmodifieddate</text>
<polygon fill="none" stroke="#000000" points="231.5,-119.7 231.5,-141.7 367.5,-141.7 367.5,-119.7 231.5,-119.7"/>
<image xlink:href="../../images/foreignKeys.png" width="11px" height="12px" preserveAspectRatio="xMinYMin meet" x="236.5" y="-136.7"/>
<text text-anchor="start" x="251.5" y="-126.8" font-family="Helvetica,sans-Serif" font-size="11.00" fill="#000000">subtype</text>
<polygon fill="none" stroke="#000000" points="231.5,-97.7 231.5,-119.7 367.5,-119.7 367.5,-97.7 231.5,-97.7"/>
<image xlink:href="../../images/foreignKeys.png" width="11px" height="12px" preserveAspectRatio="xMinYMin meet" x="236.5" y="-114.7"/>
<text text-anchor="start" x="251.5" y="-104.8" font-family="Helvetica,sans-Serif" font-size="11.00" fill="#000000">member</text>
<polygon fill="#ffffff" stroke="transparent" points="231.5,-75.7 231.5,-97.7 367.5,-97.7 367.5,-75.7 231.5,-75.7"/>
<polygon fill="none" stroke="#000000" points="231.5,-75.7 231.5,-97.7 367.5,-97.7 367.5,-75.7 231.5,-75.7"/>
<text text-anchor="start" x="251.5" y="-82.8" font-family="Helvetica,sans-Serif" font-size="11.00" fill="#000000">category</text>
<polygon fill="none" stroke="#000000" points="231.5,-56.7 231.5,-75.7 367.5,-75.7 367.5,-56.7 231.5,-56.7"/>
<text text-anchor="start" x="234.5" y="-62.8" font-family="Helvetica,sans-Serif" font-size="11.00" fill="#000000">...</text>
<polygon fill="#ffffff" stroke="transparent" points="231.5,-37.7 231.5,-56.7 277.5,-56.7 277.5,-37.7 231.5,-37.7"/>
<polygon fill="none" stroke="#000000" points="231.5,-37.7 231.5,-56.7 277.5,-56.7 277.5,-37.7 231.5,-37.7"/>
<text text-anchor="start" x="234.5" y="-43.8" font-family="Helvetica,sans-Serif" font-size="11.00" fill="#000000">&lt; 2</text>
<polygon fill="#ffffff" stroke="transparent" points="277.5,-37.7 277.5,-56.7 333.5,-56.7 333.5,-37.7 277.5,-37.7"/>
<polygon fill="none" stroke="#000000" points="277.5,-37.7 277.5,-56.7 333.5,-56.7 333.5,-37.7 277.5,-37.7"/>
<text text-anchor="start" x="291.9956" y="-43.8" font-family="Helvetica,sans-Serif" font-size="11.00" fill="#000000">63 rows</text>
<polygon fill="#ffffff" stroke="transparent" points="333.5,-37.7 333.5,-56.7 367.5,-56.7 367.5,-37.7 333.5,-37.7"/>
<polygon fill="none" stroke="#000000" points="333.5,-37.7 333.5,-56.7 367.5,-56.7 367.5,-37.7 333.5,-37.7"/>
<text text-anchor="start" x="348.9053" y="-43.8" font-family="Helvetica,sans-Serif" font-size="11.00" fill="#000000">1 &gt;</text>
</a>
</g>
</g>
<!-- note&#45;&gt;subtype -->
<g id="edge2" class="edge">
<title>note:w&#45;&gt;subtype:e</title>
<path fill="none" stroke="#000000" d="M217.3242,-134.825C192.776,-153.2 221.9584,-226.7 179.5,-226.7"/>
<polygon fill="#000000" stroke="#000000" points="223.8186,-132.9352 232.5059,-134.1566 227.6593,-131.8176 231.5,-130.7 231.5,-130.7 231.5,-130.7 227.6593,-131.8176 230.4941,-127.2434 223.8186,-132.9352 223.8186,-132.9352"/>
<ellipse fill="none" stroke="#000000" cx="220.746" cy="-133.8293" rx="3.2" ry="3.2"/>
</g>
</g>
</svg>
