<?xml version="1.0" encoding="UTF-8" standalone="no"?>
<!DOCTYPE svg PUBLIC "-//W3C//DTD SVG 1.1//EN"
 "http://www.w3.org/Graphics/SVG/1.1/DTD/svg11.dtd">
<!-- Generated by graphviz version 2.40.1 (20161225.0304)
 -->
<!-- Title: twoDegreesRelationshipsDiagram Pages: 1 -->
<svg width="632pt" height="413pt"
 viewBox="0.00 0.00 632.00 413.20" xmlns="http://www.w3.org/2000/svg" xmlns:xlink="http://www.w3.org/1999/xlink">
<g id="graph0" class="graph" transform="scale(1 1) rotate(0) translate(4 409.2)">
<title>twoDegreesRelationshipsDiagram</title>
<polygon fill="#ffffff" stroke="transparent" points="-4,4 -4,-409.2 628,-409.2 628,4 -4,4"/>
<text text-anchor="middle" x="72.4936" y="-7.3" font-family="Helvetica,sans-Serif" font-size="11.00" fill="#000000">Generated by SchemaSpy</text>
<!-- group_subtype -->
<g id="node1" class="node">
<title>group_subtype</title>
<g id="a_node1"><a xlink:href="../../tables/group_subtype.html" xlink:title="group_subtype" target="_top">
<polygon fill="#ffffff" stroke="transparent" points="172,-252.2 172,-401.2 311,-401.2 311,-252.2 172,-252.2"/>
<polygon fill="#f5f5f5" stroke="transparent" points="172.5,-377.7 172.5,-400.7 311.5,-400.7 311.5,-377.7 172.5,-377.7"/>
<polygon fill="none" stroke="#000000" points="172.5,-377.7 172.5,-400.7 311.5,-400.7 311.5,-377.7 172.5,-377.7"/>
<text text-anchor="start" x="177.5" y="-386.3" font-family="Helvetica,sans-Serif" font-weight="bold" font-size="11.00" fill="#000000">group_subtype</text>
<text text-anchor="start" x="277.0219" y="-385.8" font-family="Helvetica,sans-Serif" font-size="11.00" fill="#000000">[table]</text>
<polygon fill="none" stroke="#000000" points="172.5,-355.7 172.5,-377.7 311.5,-377.7 311.5,-355.7 172.5,-355.7"/>
<image xlink:href="../../images/primaryKeys.png" width="11px" height="12px" preserveAspectRatio="xMinYMin meet" x="177.5" y="-372.7"/>
<text text-anchor="start" x="201.5" y="-362.8" font-family="Helvetica,sans-Serif" font-size="11.00" fill="#000000">id</text>
<polygon fill="#ffffff" stroke="transparent" points="172.5,-333.7 172.5,-355.7 311.5,-355.7 311.5,-333.7 172.5,-333.7"/>
<polygon fill="none" stroke="#000000" points="172.5,-333.7 172.5,-355.7 311.5,-355.7 311.5,-333.7 172.5,-333.7"/>
<image xlink:href="../../images/foreignKeys.png" width="11px" height="12px" preserveAspectRatio="xMinYMin meet" x="177.5" y="-350.7"/>
<text text-anchor="start" x="201.5" y="-340.8" font-family="Helvetica,sans-Serif" font-size="11.00" fill="#000000">group_note</text>
<polygon fill="#ffffff" stroke="transparent" points="172.5,-311.7 172.5,-333.7 311.5,-333.7 311.5,-311.7 172.5,-311.7"/>
<polygon fill="none" stroke="#000000" points="172.5,-311.7 172.5,-333.7 311.5,-333.7 311.5,-311.7 172.5,-311.7"/>
<image xlink:href="../../images/foreignKeys.png" width="11px" height="12px" preserveAspectRatio="xMinYMin meet" x="177.5" y="-328.7"/>
<text text-anchor="start" x="201.5" y="-318.8" font-family="Helvetica,sans-Serif" font-size="11.00" fill="#000000">subtype</text>
<polygon fill="#ffffff" stroke="transparent" points="172.5,-289.7 172.5,-311.7 311.5,-311.7 311.5,-289.7 172.5,-289.7"/>
<polygon fill="none" stroke="#000000" points="172.5,-289.7 172.5,-311.7 311.5,-311.7 311.5,-289.7 172.5,-289.7"/>
<text text-anchor="start" x="201.5" y="-296.8" font-family="Helvetica,sans-Serif" font-size="11.00" fill="#000000">index</text>
<polygon fill="none" stroke="#000000" points="172.5,-270.7 172.5,-289.7 311.5,-289.7 311.5,-270.7 172.5,-270.7"/>
<text text-anchor="start" x="175.5" y="-276.8" font-family="Helvetica,sans-Serif" font-size="11.00" fill="#000000">...</text>
<polygon fill="#ffffff" stroke="transparent" points="172.5,-251.7 172.5,-270.7 222.5,-270.7 222.5,-251.7 172.5,-251.7"/>
<polygon fill="none" stroke="#000000" points="172.5,-251.7 172.5,-270.7 222.5,-270.7 222.5,-251.7 172.5,-251.7"/>
<text text-anchor="start" x="175.5" y="-257.8" font-family="Helvetica,sans-Serif" font-size="11.00" fill="#000000">&lt; 2</text>
<polygon fill="#ffffff" stroke="transparent" points="222.5,-251.7 222.5,-270.7 275.5,-270.7 275.5,-251.7 222.5,-251.7"/>
<polygon fill="none" stroke="#000000" points="222.5,-251.7 222.5,-270.7 275.5,-270.7 275.5,-251.7 222.5,-251.7"/>
<text text-anchor="start" x="240.1105" y="-257.8" font-family="Helvetica,sans-Serif" font-size="11.00" fill="#000000">5 rows</text>
<polygon fill="#ffffff" stroke="transparent" points="275.5,-251.7 275.5,-270.7 311.5,-270.7 311.5,-251.7 275.5,-251.7"/>
<polygon fill="none" stroke="#000000" points="275.5,-251.7 275.5,-270.7 311.5,-270.7 311.5,-251.7 275.5,-251.7"/>
<text text-anchor="start" x="292.9053" y="-257.8" font-family="Helvetica,sans-Serif" font-size="11.00" fill="#000000">1 &gt;</text>
</a>
</g>
</g>
<!-- group_note -->
<g id="node2" class="node">
<title>group_note</title>
<g id="a_node2"><a xlink:href="../../tables/group_note.html" xlink:title="group_note" target="_top">
<polygon fill="#ffffff" stroke="transparent" points="8,-317.2 8,-378.2 123,-378.2 123,-317.2 8,-317.2"/>
<polygon fill="#f5f5f5" stroke="transparent" points="8.5,-354.7 8.5,-377.7 123.5,-377.7 123.5,-354.7 8.5,-354.7"/>
<polygon fill="none" stroke="#000000" points="8.5,-354.7 8.5,-377.7 123.5,-377.7 123.5,-354.7 8.5,-354.7"/>
<text text-anchor="start" x="13.5" y="-363.3" font-family="Helvetica,sans-Serif" font-weight="bold" font-size="11.00" fill="#000000">group_note</text>
<text text-anchor="start" x="89.0219" y="-362.8" font-family="Helvetica,sans-Serif" font-size="11.00" fill="#000000">[table]</text>
<polygon fill="none" stroke="#000000" points="8.5,-335.7 8.5,-354.7 123.5,-354.7 123.5,-335.7 8.5,-335.7"/>
<text text-anchor="start" x="11.5" y="-341.8" font-family="Helvetica,sans-Serif" font-size="11.00" fill="#000000">...</text>
<polygon fill="#ffffff" stroke="transparent" points="8.5,-316.7 8.5,-335.7 55.5,-335.7 55.5,-316.7 8.5,-316.7"/>
<polygon fill="none" stroke="#000000" points="8.5,-316.7 8.5,-335.7 55.5,-335.7 55.5,-316.7 8.5,-316.7"/>
<text text-anchor="start" x="11.5" y="-322.8" font-family="Helvetica,sans-Serif" font-size="11.00" fill="#000000"> &#160;</text>
<polygon fill="#ffffff" stroke="transparent" points="55.5,-316.7 55.5,-335.7 84.5,-335.7 84.5,-316.7 55.5,-316.7"/>
<polygon fill="none" stroke="#000000" points="55.5,-316.7 55.5,-335.7 84.5,-335.7 84.5,-316.7 55.5,-316.7"/>
<text text-anchor="start" x="75.3862" y="-322.8" font-family="Helvetica,sans-Serif" font-size="11.00" fill="#000000"> &#160;</text>
<polygon fill="#ffffff" stroke="transparent" points="84.5,-316.7 84.5,-335.7 123.5,-335.7 123.5,-316.7 84.5,-316.7"/>
<polygon fill="none" stroke="#000000" points="84.5,-316.7 84.5,-335.7 123.5,-335.7 123.5,-316.7 84.5,-316.7"/>
<text text-anchor="start" x="104.9053" y="-322.8" font-family="Helvetica,sans-Serif" font-size="11.00" fill="#000000">2 &gt;</text>
</a>
</g>
</g>
<!-- group_subtype&#45;&gt;group_note -->
<g id="edge1" class="edge">
<title>group_subtype:w&#45;&gt;group_note:e</title>
<path fill="none" stroke="#000000" d="M157.9909,-344.7C146.6774,-344.7 139.4931,-344.7 123.5,-344.7"/>
<polygon fill="#000000" stroke="#000000" points="164.5,-344.7001 172.5,-348.3 168.5,-344.7 172.5,-344.7 172.5,-344.7 172.5,-344.7 168.5,-344.7 172.5,-341.1 164.5,-344.7001 164.5,-344.7001"/>
<ellipse fill="none" stroke="#000000" cx="161.3" cy="-344.7001" rx="3.2" ry="3.2"/>
</g>
<!-- subtype -->
<g id="node3" class="node">
<title>subtype</title>
<g id="a_node3"><a xlink:href="../../tables/subtype.html" xlink:title="subtype" target="_top">
<polygon fill="#ffffff" stroke="transparent" points="19,-199.2 19,-260.2 112,-260.2 112,-199.2 19,-199.2"/>
<polygon fill="#f5f5f5" stroke="transparent" points="19.5,-236.7 19.5,-259.7 112.5,-259.7 112.5,-236.7 19.5,-236.7"/>
<polygon fill="none" stroke="#000000" points="19.5,-236.7 19.5,-259.7 112.5,-259.7 112.5,-236.7 19.5,-236.7"/>
<text text-anchor="start" x="24.5" y="-245.3" font-family="Helvetica,sans-Serif" font-weight="bold" font-size="11.00" fill="#000000">subtype</text>
<text text-anchor="start" x="78.0219" y="-244.8" font-family="Helvetica,sans-Serif" font-size="11.00" fill="#000000">[table]</text>
<polygon fill="none" stroke="#000000" points="19.5,-217.7 19.5,-236.7 112.5,-236.7 112.5,-217.7 19.5,-217.7"/>
<text text-anchor="start" x="22.5" y="-223.8" font-family="Helvetica,sans-Serif" font-size="11.00" fill="#000000">...</text>
<polygon fill="#ffffff" stroke="transparent" points="19.5,-198.7 19.5,-217.7 42.5,-217.7 42.5,-198.7 19.5,-198.7"/>
<polygon fill="none" stroke="#000000" points="19.5,-198.7 19.5,-217.7 42.5,-217.7 42.5,-198.7 19.5,-198.7"/>
<text text-anchor="start" x="22.5" y="-204.8" font-family="Helvetica,sans-Serif" font-size="11.00" fill="#000000"> &#160;</text>
<polygon fill="#ffffff" stroke="transparent" points="42.5,-198.7 42.5,-217.7 85.5,-217.7 85.5,-198.7 42.5,-198.7"/>
<polygon fill="none" stroke="#000000" points="42.5,-198.7 42.5,-217.7 85.5,-217.7 85.5,-198.7 42.5,-198.7"/>
<text text-anchor="start" x="50.1105" y="-204.8" font-family="Helvetica,sans-Serif" font-size="11.00" fill="#000000">9 rows</text>
<polygon fill="#ffffff" stroke="transparent" points="85.5,-198.7 85.5,-217.7 112.5,-217.7 112.5,-198.7 85.5,-198.7"/>
<polygon fill="none" stroke="#000000" points="85.5,-198.7 85.5,-217.7 112.5,-217.7 112.5,-198.7 85.5,-198.7"/>
<text text-anchor="start" x="93.9053" y="-204.8" font-family="Helvetica,sans-Serif" font-size="11.00" fill="#000000">2 &gt;</text>
</a>
</g>
</g>
<!-- group_subtype&#45;&gt;subtype -->
<g id="edge2" class="edge">
<title>group_subtype:w&#45;&gt;subtype:e</title>
<path fill="none" stroke="#000000" d="M158.2653,-319.0539C130.459,-301.5184 156.9183,-226.7 112.5,-226.7"/>
<polygon fill="#000000" stroke="#000000" points="164.7502,-320.7149 171.6067,-326.1874 168.6251,-321.7075 172.5,-322.7 172.5,-322.7 172.5,-322.7 168.6251,-321.7075 173.3933,-319.2126 164.7502,-320.7149 164.7502,-320.7149"/>
<ellipse fill="none" stroke="#000000" cx="161.6503" cy="-319.9209" rx="3.2" ry="3.2"/>
</g>
<!-- note -->
<g id="node4" class="node">
<title>note</title>
<g id="a_node4"><a xlink:href="../../tables/note.html" xlink:title="note" target="_top">
<polygon fill="#ffffff" stroke="transparent" points="173.5,-38.2 173.5,-231.2 309.5,-231.2 309.5,-38.2 173.5,-38.2"/>
<polygon fill="#f5f5f5" stroke="transparent" points="173.5,-207.7 173.5,-230.7 309.5,-230.7 309.5,-207.7 173.5,-207.7"/>
<polygon fill="none" stroke="#000000" points="173.5,-207.7 173.5,-230.7 309.5,-230.7 309.5,-207.7 173.5,-207.7"/>
<text text-anchor="start" x="178.5" y="-216.3" font-family="Helvetica,sans-Serif" font-weight="bold" font-size="11.00" fill="#000000">note</text>
<text text-anchor="start" x="274.5437" y="-215.8" font-family="Helvetica,sans-Serif" font-size="11.00" fill="#000000">[table]</text>
<polygon fill="none" stroke="#000000" points="173.5,-185.7 173.5,-207.7 309.5,-207.7 309.5,-185.7 173.5,-185.7"/>
<image xlink:href="../../images/primaryKeys.png" width="11px" height="12px" preserveAspectRatio="xMinYMin meet" x="178.5" y="-202.7"/>
<text text-anchor="start" x="193.5" y="-192.8" font-family="Helvetica,sans-Serif" font-size="11.00" fill="#000000">id</text>
<polygon fill="#ffffff" stroke="transparent" points="173.5,-163.7 173.5,-185.7 309.5,-185.7 309.5,-163.7 173.5,-163.7"/>
<polygon fill="none" stroke="#000000" points="173.5,-163.7 173.5,-185.7 309.5,-185.7 309.5,-163.7 173.5,-163.7"/>
<text text-anchor="start" x="193.5" y="-170.8" font-family="Helvetica,sans-Serif" font-size="11.00" fill="#000000">title</text>
<polygon fill="#ffffff" stroke="transparent" points="173.5,-141.7 173.5,-163.7 309.5,-163.7 309.5,-141.7 173.5,-141.7"/>
<polygon fill="none" stroke="#000000" points="173.5,-141.7 173.5,-163.7 309.5,-163.7 309.5,-141.7 173.5,-141.7"/>
<text text-anchor="start" x="193.5" y="-148.8" font-family="Helvetica,sans-Serif" font-size="11.00" fill="#000000">lastmodifieddate</text>
<polygon fill="none" stroke="#000000" points="173.5,-119.7 173.5,-141.7 309.5,-141.7 309.5,-119.7 173.5,-119.7"/>
<image xlink:href="../../images/foreignKeys.png" width="11px" height="12px" preserveAspectRatio="xMinYMin meet" x="178.5" y="-136.7"/>
<text text-anchor="start" x="193.5" y="-126.8" font-family="Helvetica,sans-Serif" font-size="11.00" fill="#000000">subtype</text>
<polygon fill="none" stroke="#000000" points="173.5,-97.7 173.5,-119.7 309.5,-119.7 309.5,-97.7 173.5,-97.7"/>
<image xlink:href="../../images/foreignKeys.png" width="11px" height="12px" preserveAspectRatio="xMinYMin meet" x="178.5" y="-114.7"/>
<text text-anchor="start" x="193.5" y="-104.8" font-family="Helvetica,sans-Serif" font-size="11.00" fill="#000000">member</text>
<polygon fill="#ffffff" stroke="transparent" points="173.5,-75.7 173.5,-97.7 309.5,-97.7 309.5,-75.7 173.5,-75.7"/>
<polygon fill="none" stroke="#000000" points="173.5,-75.7 173.5,-97.7 309.5,-97.7 309.5,-75.7 173.5,-75.7"/>
<text text-anchor="start" x="193.5" y="-82.8" font-family="Helvetica,sans-Serif" font-size="11.00" fill="#000000">category</text>
<polygon fill="none" stroke="#000000" points="173.5,-56.7 173.5,-75.7 309.5,-75.7 309.5,-56.7 173.5,-56.7"/>
<text text-anchor="start" x="176.5" y="-62.8" font-family="Helvetica,sans-Serif" font-size="11.00" fill="#000000">...</text>
<polygon fill="#ffffff" stroke="transparent" points="173.5,-37.7 173.5,-56.7 219.5,-56.7 219.5,-37.7 173.5,-37.7"/>
<polygon fill="none" stroke="#000000" points="173.5,-37.7 173.5,-56.7 219.5,-56.7 219.5,-37.7 173.5,-37.7"/>
<text text-anchor="start" x="176.5" y="-43.8" font-family="Helvetica,sans-Serif" font-size="11.00" fill="#000000">&lt; 2</text>
<polygon fill="#ffffff" stroke="transparent" points="219.5,-37.7 219.5,-56.7 275.5,-56.7 275.5,-37.7 219.5,-37.7"/>
<polygon fill="none" stroke="#000000" points="219.5,-37.7 219.5,-56.7 275.5,-56.7 275.5,-37.7 219.5,-37.7"/>
<text text-anchor="start" x="233.9956" y="-43.8" font-family="Helvetica,sans-Serif" font-size="11.00" fill="#000000">63 rows</text>
<polygon fill="#ffffff" stroke="transparent" points="275.5,-37.7 275.5,-56.7 309.5,-56.7 309.5,-37.7 275.5,-37.7"/>
<polygon fill="none" stroke="#000000" points="275.5,-37.7 275.5,-56.7 309.5,-56.7 309.5,-37.7 275.5,-37.7"/>
<text text-anchor="start" x="290.9053" y="-43.8" font-family="Helvetica,sans-Serif" font-size="11.00" fill="#000000">1 &gt;</text>
</a>
</g>
</g>
<!-- note&#45;&gt;subtype -->
<g id="edge4" class="edge">
<title>note:w&#45;&gt;subtype:e</title>
<path fill="none" stroke="#000000" d="M159.171,-134.3461C131.1027,-151.8816 157.1275,-226.7 112.5,-226.7"/>
<polygon fill="#000000" stroke="#000000" points="165.7471,-132.6728 174.3878,-134.1888 169.6235,-131.6864 173.5,-130.7 173.5,-130.7 173.5,-130.7 169.6235,-131.6864 172.6122,-127.2112 165.7471,-132.6728 165.7471,-132.6728"/>
<ellipse fill="none" stroke="#000000" cx="162.6459" cy="-133.462" rx="3.2" ry="3.2"/>
</g>
<!-- member -->
<g id="node5" class="node">
<title>member</title>
<g id="a_node5"><a xlink:href="../../tables/member.html" xlink:title="member" target="_top">
<polygon fill="#ffffff" stroke="transparent" points="18.5,-81.2 18.5,-142.2 112.5,-142.2 112.5,-81.2 18.5,-81.2"/>
<polygon fill="#f5f5f5" stroke="transparent" points="18.5,-118.7 18.5,-141.7 112.5,-141.7 112.5,-118.7 18.5,-118.7"/>
<polygon fill="none" stroke="#000000" points="18.5,-118.7 18.5,-141.7 112.5,-141.7 112.5,-118.7 18.5,-118.7"/>
<text text-anchor="start" x="23.5" y="-127.3" font-family="Helvetica,sans-Serif" font-weight="bold" font-size="11.00" fill="#000000">member</text>
<text text-anchor="start" x="78.0219" y="-126.8" font-family="Helvetica,sans-Serif" font-size="11.00" fill="#000000">[table]</text>
<polygon fill="none" stroke="#000000" points="18.5,-99.7 18.5,-118.7 112.5,-118.7 112.5,-99.7 18.5,-99.7"/>
<text text-anchor="start" x="21.5" y="-105.8" font-family="Helvetica,sans-Serif" font-size="11.00" fill="#000000">...</text>
<polygon fill="#ffffff" stroke="transparent" points="18.5,-80.7 18.5,-99.7 44.5,-99.7 44.5,-80.7 18.5,-80.7"/>
<polygon fill="none" stroke="#000000" points="18.5,-80.7 18.5,-99.7 44.5,-99.7 44.5,-80.7 18.5,-80.7"/>
<text text-anchor="start" x="21.5" y="-86.8" font-family="Helvetica,sans-Serif" font-size="11.00" fill="#000000"> &#160;</text>
<polygon fill="#ffffff" stroke="transparent" points="44.5,-80.7 44.5,-99.7 83.5,-99.7 83.5,-80.7 44.5,-80.7"/>
<polygon fill="none" stroke="#000000" points="44.5,-80.7 44.5,-99.7 83.5,-99.7 83.5,-80.7 44.5,-80.7"/>
<text text-anchor="start" x="53.6105" y="-86.8" font-family="Helvetica,sans-Serif" font-size="11.00" fill="#000000">1 row</text>
<polygon fill="#ffffff" stroke="transparent" points="83.5,-80.7 83.5,-99.7 112.5,-99.7 112.5,-80.7 83.5,-80.7"/>
<polygon fill="none" stroke="#000000" points="83.5,-80.7 83.5,-99.7 112.5,-99.7 112.5,-80.7 83.5,-80.7"/>
<text text-anchor="start" x="93.9053" y="-86.8" font-family="Helvetica,sans-Serif" font-size="11.00" fill="#000000">4 &gt;</text>
</a>
</g>
</g>
<!-- note&#45;&gt;member -->
<g id="edge3" class="edge">
<title>note:w&#45;&gt;member:e</title>
<path fill="none" stroke="#000000" d="M158.6762,-108.7C142.6248,-108.7 133.8924,-108.7 112.5,-108.7"/>
<polygon fill="#000000" stroke="#000000" points="165.5,-108.7001 173.5,-112.3 169.5,-108.7 173.5,-108.7 173.5,-108.7 173.5,-108.7 169.5,-108.7 173.5,-105.1 165.5,-108.7001 165.5,-108.7001"/>
<ellipse fill="none" stroke="#000000" cx="162.3" cy="-108.7001" rx="3.2" ry="3.2"/>
</g>
<!-- subtype_note_group -->
<g id="node6" class="node">
<title>subtype_note_group</title>
<g id="a_node6"><a xlink:href="../../tables/subtype_note_group.html" xlink:title="subtype_note_group" target="_top">
<polygon fill="#ffffff" stroke="transparent" points="360,-238.7 360,-350.7 616,-350.7 616,-238.7 360,-238.7"/>
<polygon fill="#f5f5f5" stroke="transparent" points="362,-325.7 362,-348.7 614,-348.7 614,-325.7 362,-325.7"/>
<polygon fill="none" stroke="#000000" points="362,-325.7 362,-348.7 614,-348.7 614,-325.7 362,-325.7"/>
<text text-anchor="start" x="367" y="-334.3" font-family="Helvetica,sans-Serif" font-weight="bold" font-size="11.00" fill="#000000">subtype_note_group</text>
<text text-anchor="start" x="579.0437" y="-333.8" font-family="Helvetica,sans-Serif" font-size="11.00" fill="#000000">[table]</text>
<polygon fill="none" stroke="#000000" points="362,-303.7 362,-325.7 520,-325.7 520,-303.7 362,-303.7"/>
<image xlink:href="../../images/primaryKeys.png" width="11px" height="12px" preserveAspectRatio="xMinYMin meet" x="367" y="-320.7"/>
<text text-anchor="start" x="382" y="-310.8" font-family="Helvetica,sans-Serif" font-size="11.00" fill="#000000">id</text>
<polygon fill="none" stroke="#000000" points="520,-303.7 520,-325.7 614,-325.7 614,-303.7 520,-303.7"/>
<text text-anchor="start" x="523" y="-311.4" font-family="Helvetica,sans-Serif" font-size="11.00" fill="#000000">bigserial[19]</text>
<polygon fill="#ffffff" stroke="transparent" points="362,-281.7 362,-303.7 520,-303.7 520,-281.7 362,-281.7"/>
<polygon fill="none" stroke="#000000" points="362,-281.7 362,-303.7 520,-303.7 520,-281.7 362,-281.7"/>
<image xlink:href="../../images/foreignKeys.png" width="11px" height="12px" preserveAspectRatio="xMinYMin meet" x="367" y="-298.7"/>
<text text-anchor="start" x="382" y="-288.8" font-family="Helvetica,sans-Serif" font-size="11.00" fill="#000000">subtype_group</text>
<polygon fill="none" stroke="#000000" points="520,-281.7 520,-303.7 614,-303.7 614,-281.7 520,-281.7"/>
<text text-anchor="start" x="523" y="-289.4" font-family="Helvetica,sans-Serif" font-size="11.00" fill="#000000">bigserial[19]</text>
<polygon fill="none" stroke="#000000" points="362,-259.7 362,-281.7 520,-281.7 520,-259.7 362,-259.7"/>
<image xlink:href="../../images/foreignKeys.png" width="11px" height="12px" preserveAspectRatio="xMinYMin meet" x="367" y="-276.7"/>
<text text-anchor="start" x="382" y="-266.8" font-family="Helvetica,sans-Serif" font-size="11.00" fill="#000000">note</text>
<polygon fill="none" stroke="#000000" points="520,-259.7 520,-281.7 614,-281.7 614,-259.7 520,-259.7"/>
<text text-anchor="start" x="522.9758" y="-267.4" font-family="Helvetica,sans-Serif" font-size="11.00" fill="#000000">uuid[2147483647]</text>
<polygon fill="#ffffff" stroke="transparent" points="362,-240.7 362,-259.7 429,-259.7 429,-240.7 362,-240.7"/>
<polygon fill="none" stroke="#000000" points="362,-240.7 362,-259.7 429,-259.7 429,-240.7 362,-240.7"/>
<text text-anchor="start" x="365" y="-246.8" font-family="Helvetica,sans-Serif" font-size="11.00" fill="#000000">&lt; 2</text>
<polygon fill="#ffffff" stroke="transparent" points="429,-240.7 429,-259.7 520,-259.7 520,-240.7 429,-240.7"/>
<polygon fill="none" stroke="#000000" points="429,-240.7 429,-259.7 520,-259.7 520,-240.7 429,-240.7"/>
<text text-anchor="start" x="478.4956" y="-246.8" font-family="Helvetica,sans-Serif" font-size="11.00" fill="#000000">31 rows</text>
<polygon fill="#ffffff" stroke="transparent" points="520,-240.7 520,-259.7 614,-259.7 614,-240.7 520,-240.7"/>
<polygon fill="none" stroke="#000000" points="520,-240.7 520,-259.7 614,-259.7 614,-240.7 520,-240.7"/>
<text text-anchor="start" x="595.4053" y="-246.8" font-family="Helvetica,sans-Serif" font-size="11.00" fill="#000000">0 &gt;</text>
<polygon fill="none" stroke="#000000" stroke-width="2" points="361,-239.7 361,-349.7 615,-349.7 615,-239.7 361,-239.7"/>
</a>
</g>
</g>
<!-- subtype_note_group&#45;&gt;group_subtype -->
<g id="edge6" class="edge">
<title>subtype_note_group:w&#45;&gt;group_subtype:e</title>
<path fill="none" stroke="#000000" d="M348.1154,-297.329C329.4593,-313.5294 345.2515,-366.7 311.5,-366.7"/>
<polygon fill="#000000" stroke="#000000" points="354.4107,-295.2303 363.1386,-296.1152 358.2053,-293.9651 362,-292.7 362,-292.7 362,-292.7 358.2053,-293.9651 360.8614,-289.2848 354.4107,-295.2303 354.4107,-295.2303"/>
<ellipse fill="none" stroke="#000000" cx="351.3749" cy="-296.2424" rx="3.2" ry="3.2"/>
</g>
<!-- subtype_note_group&#45;&gt;note -->
<g id="edge5" class="edge">
<title>subtype_note_group:w&#45;&gt;note:e</title>
<path fill="none" stroke="#000000" d="M348.1211,-266.2926C328.5232,-250.3617 343.8394,-196.7 309.5,-196.7"/>
<polygon fill="#000000" stroke="#000000" points="354.3752,-268.2786 360.9104,-274.1311 358.1876,-269.4893 362,-270.7 362,-270.7 362,-270.7 358.1876,-269.4893 363.0896,-267.2689 354.3752,-268.2786 354.3752,-268.2786"/>
<ellipse fill="none" stroke="#000000" cx="351.3253" cy="-267.3101" rx="3.2" ry="3.2"/>
</g>
</g>
</svg>
