<?xml version="1.0" encoding="UTF-8" standalone="no"?>
<!DOCTYPE svg PUBLIC "-//W3C//DTD SVG 1.1//EN"
 "http://www.w3.org/Graphics/SVG/1.1/DTD/svg11.dtd">
<!-- Generated by graphviz version 2.40.1 (20161225.0304)
 -->
<!-- Title: oneDegreeRelationshipsDiagram Pages: 1 -->
<svg width="468pt" height="413pt"
 viewBox="0.00 0.00 468.00 413.20" xmlns="http://www.w3.org/2000/svg" xmlns:xlink="http://www.w3.org/1999/xlink">
<g id="graph0" class="graph" transform="scale(1 1) rotate(0) translate(4 409.2)">
<title>oneDegreeRelationshipsDiagram</title>
<polygon fill="#ffffff" stroke="transparent" points="-4,4 -4,-409.2 464,-409.2 464,4 -4,4"/>
<text text-anchor="middle" x="72.4936" y="-7.3" font-family="Helvetica,sans-Serif" font-size="11.00" fill="#000000">Generated by SchemaSpy</text>
<!-- subtype_note_group -->
<g id="node1" class="node">
<title>subtype_note_group</title>
<g id="a_node1"><a xlink:href="../../tables/subtype_note_group.html" xlink:title="subtype_note_group" target="_top">
<polygon fill="#ffffff" stroke="transparent" points="196,-238.7 196,-350.7 452,-350.7 452,-238.7 196,-238.7"/>
<polygon fill="#f5f5f5" stroke="transparent" points="198,-325.7 198,-348.7 450,-348.7 450,-325.7 198,-325.7"/>
<polygon fill="none" stroke="#000000" points="198,-325.7 198,-348.7 450,-348.7 450,-325.7 198,-325.7"/>
<text text-anchor="start" x="203" y="-334.3" font-family="Helvetica,sans-Serif" font-weight="bold" font-size="11.00" fill="#000000">subtype_note_group</text>
<text text-anchor="start" x="415.0437" y="-333.8" font-family="Helvetica,sans-Serif" font-size="11.00" fill="#000000">[table]</text>
<polygon fill="none" stroke="#000000" points="198,-303.7 198,-325.7 356,-325.7 356,-303.7 198,-303.7"/>
<image xlink:href="../../images/primaryKeys.png" width="11px" height="12px" preserveAspectRatio="xMinYMin meet" x="203" y="-320.7"/>
<text text-anchor="start" x="218" y="-310.8" font-family="Helvetica,sans-Serif" font-size="11.00" fill="#000000">id</text>
<polygon fill="none" stroke="#000000" points="356,-303.7 356,-325.7 450,-325.7 450,-303.7 356,-303.7"/>
<text text-anchor="start" x="359" y="-311.4" font-family="Helvetica,sans-Serif" font-size="11.00" fill="#000000">bigserial[19]</text>
<polygon fill="#ffffff" stroke="transparent" points="198,-281.7 198,-303.7 356,-303.7 356,-281.7 198,-281.7"/>
<polygon fill="none" stroke="#000000" points="198,-281.7 198,-303.7 356,-303.7 356,-281.7 198,-281.7"/>
<image xlink:href="../../images/foreignKeys.png" width="11px" height="12px" preserveAspectRatio="xMinYMin meet" x="203" y="-298.7"/>
<text text-anchor="start" x="218" y="-288.8" font-family="Helvetica,sans-Serif" font-size="11.00" fill="#000000">subtype_group</text>
<polygon fill="none" stroke="#000000" points="356,-281.7 356,-303.7 450,-303.7 450,-281.7 356,-281.7"/>
<text text-anchor="start" x="359" y="-289.4" font-family="Helvetica,sans-Serif" font-size="11.00" fill="#000000">bigserial[19]</text>
<polygon fill="none" stroke="#000000" points="198,-259.7 198,-281.7 356,-281.7 356,-259.7 198,-259.7"/>
<image xlink:href="../../images/foreignKeys.png" width="11px" height="12px" preserveAspectRatio="xMinYMin meet" x="203" y="-276.7"/>
<text text-anchor="start" x="218" y="-266.8" font-family="Helvetica,sans-Serif" font-size="11.00" fill="#000000">note</text>
<polygon fill="none" stroke="#000000" points="356,-259.7 356,-281.7 450,-281.7 450,-259.7 356,-259.7"/>
<text text-anchor="start" x="358.9758" y="-267.4" font-family="Helvetica,sans-Serif" font-size="11.00" fill="#000000">uuid[2147483647]</text>
<polygon fill="#ffffff" stroke="transparent" points="198,-240.7 198,-259.7 265,-259.7 265,-240.7 198,-240.7"/>
<polygon fill="none" stroke="#000000" points="198,-240.7 198,-259.7 265,-259.7 265,-240.7 198,-240.7"/>
<text text-anchor="start" x="201" y="-246.8" font-family="Helvetica,sans-Serif" font-size="11.00" fill="#000000">&lt; 2</text>
<polygon fill="#ffffff" stroke="transparent" points="265,-240.7 265,-259.7 356,-259.7 356,-240.7 265,-240.7"/>
<polygon fill="none" stroke="#000000" points="265,-240.7 265,-259.7 356,-259.7 356,-240.7 265,-240.7"/>
<text text-anchor="start" x="314.4956" y="-246.8" font-family="Helvetica,sans-Serif" font-size="11.00" fill="#000000">31 rows</text>
<polygon fill="#ffffff" stroke="transparent" points="356,-240.7 356,-259.7 450,-259.7 450,-240.7 356,-240.7"/>
<polygon fill="none" stroke="#000000" points="356,-240.7 356,-259.7 450,-259.7 450,-240.7 356,-240.7"/>
<text text-anchor="start" x="431.4053" y="-246.8" font-family="Helvetica,sans-Serif" font-size="11.00" fill="#000000">0 &gt;</text>
<polygon fill="none" stroke="#000000" stroke-width="2" points="197,-239.7 197,-349.7 451,-349.7 451,-239.7 197,-239.7"/>
</a>
</g>
</g>
<!-- note -->
<g id="node2" class="node">
<title>note</title>
<g id="a_node2"><a xlink:href="../../tables/note.html" xlink:title="note" target="_top">
<polygon fill="#ffffff" stroke="transparent" points="9.5,-38.2 9.5,-231.2 145.5,-231.2 145.5,-38.2 9.5,-38.2"/>
<polygon fill="#f5f5f5" stroke="transparent" points="9.5,-207.7 9.5,-230.7 145.5,-230.7 145.5,-207.7 9.5,-207.7"/>
<polygon fill="none" stroke="#000000" points="9.5,-207.7 9.5,-230.7 145.5,-230.7 145.5,-207.7 9.5,-207.7"/>
<text text-anchor="start" x="14.5" y="-216.3" font-family="Helvetica,sans-Serif" font-weight="bold" font-size="11.00" fill="#000000">note</text>
<text text-anchor="start" x="110.5437" y="-215.8" font-family="Helvetica,sans-Serif" font-size="11.00" fill="#000000">[table]</text>
<polygon fill="none" stroke="#000000" points="9.5,-185.7 9.5,-207.7 145.5,-207.7 145.5,-185.7 9.5,-185.7"/>
<image xlink:href="../../images/primaryKeys.png" width="11px" height="12px" preserveAspectRatio="xMinYMin meet" x="14.5" y="-202.7"/>
<text text-anchor="start" x="29.5" y="-192.8" font-family="Helvetica,sans-Serif" font-size="11.00" fill="#000000">id</text>
<polygon fill="#ffffff" stroke="transparent" points="9.5,-163.7 9.5,-185.7 145.5,-185.7 145.5,-163.7 9.5,-163.7"/>
<polygon fill="none" stroke="#000000" points="9.5,-163.7 9.5,-185.7 145.5,-185.7 145.5,-163.7 9.5,-163.7"/>
<text text-anchor="start" x="29.5" y="-170.8" font-family="Helvetica,sans-Serif" font-size="11.00" fill="#000000">title</text>
<polygon fill="#ffffff" stroke="transparent" points="9.5,-141.7 9.5,-163.7 145.5,-163.7 145.5,-141.7 9.5,-141.7"/>
<polygon fill="none" stroke="#000000" points="9.5,-141.7 9.5,-163.7 145.5,-163.7 145.5,-141.7 9.5,-141.7"/>
<text text-anchor="start" x="29.5" y="-148.8" font-family="Helvetica,sans-Serif" font-size="11.00" fill="#000000">lastmodifieddate</text>
<polygon fill="none" stroke="#000000" points="9.5,-119.7 9.5,-141.7 145.5,-141.7 145.5,-119.7 9.5,-119.7"/>
<image xlink:href="../../images/foreignKeys.png" width="11px" height="12px" preserveAspectRatio="xMinYMin meet" x="14.5" y="-136.7"/>
<text text-anchor="start" x="29.5" y="-126.8" font-family="Helvetica,sans-Serif" font-size="11.00" fill="#000000">subtype</text>
<polygon fill="none" stroke="#000000" points="9.5,-97.7 9.5,-119.7 145.5,-119.7 145.5,-97.7 9.5,-97.7"/>
<image xlink:href="../../images/foreignKeys.png" width="11px" height="12px" preserveAspectRatio="xMinYMin meet" x="14.5" y="-114.7"/>
<text text-anchor="start" x="29.5" y="-104.8" font-family="Helvetica,sans-Serif" font-size="11.00" fill="#000000">member</text>
<polygon fill="#ffffff" stroke="transparent" points="9.5,-75.7 9.5,-97.7 145.5,-97.7 145.5,-75.7 9.5,-75.7"/>
<polygon fill="none" stroke="#000000" points="9.5,-75.7 9.5,-97.7 145.5,-97.7 145.5,-75.7 9.5,-75.7"/>
<text text-anchor="start" x="29.5" y="-82.8" font-family="Helvetica,sans-Serif" font-size="11.00" fill="#000000">category</text>
<polygon fill="none" stroke="#000000" points="9.5,-56.7 9.5,-75.7 145.5,-75.7 145.5,-56.7 9.5,-56.7"/>
<text text-anchor="start" x="12.5" y="-62.8" font-family="Helvetica,sans-Serif" font-size="11.00" fill="#000000">...</text>
<polygon fill="#ffffff" stroke="transparent" points="9.5,-37.7 9.5,-56.7 55.5,-56.7 55.5,-37.7 9.5,-37.7"/>
<polygon fill="none" stroke="#000000" points="9.5,-37.7 9.5,-56.7 55.5,-56.7 55.5,-37.7 9.5,-37.7"/>
<text text-anchor="start" x="12.5" y="-43.8" font-family="Helvetica,sans-Serif" font-size="11.00" fill="#000000">&lt; 2</text>
<polygon fill="#ffffff" stroke="transparent" points="55.5,-37.7 55.5,-56.7 111.5,-56.7 111.5,-37.7 55.5,-37.7"/>
<polygon fill="none" stroke="#000000" points="55.5,-37.7 55.5,-56.7 111.5,-56.7 111.5,-37.7 55.5,-37.7"/>
<text text-anchor="start" x="69.9956" y="-43.8" font-family="Helvetica,sans-Serif" font-size="11.00" fill="#000000">63 rows</text>
<polygon fill="#ffffff" stroke="transparent" points="111.5,-37.7 111.5,-56.7 145.5,-56.7 145.5,-37.7 111.5,-37.7"/>
<polygon fill="none" stroke="#000000" points="111.5,-37.7 111.5,-56.7 145.5,-56.7 145.5,-37.7 111.5,-37.7"/>
<text text-anchor="start" x="126.9053" y="-43.8" font-family="Helvetica,sans-Serif" font-size="11.00" fill="#000000">1 &gt;</text>
</a>
</g>
</g>
<!-- subtype_note_group&#45;&gt;note -->
<g id="edge1" class="edge">
<title>subtype_note_group:w&#45;&gt;note:e</title>
<path fill="none" stroke="#000000" d="M184.1211,-266.2926C164.5232,-250.3617 179.8394,-196.7 145.5,-196.7"/>
<polygon fill="#000000" stroke="#000000" points="190.3752,-268.2786 196.9104,-274.1311 194.1876,-269.4893 198,-270.7 198,-270.7 198,-270.7 194.1876,-269.4893 199.0896,-267.2689 190.3752,-268.2786 190.3752,-268.2786"/>
<ellipse fill="none" stroke="#000000" cx="187.3253" cy="-267.3101" rx="3.2" ry="3.2"/>
</g>
<!-- group_subtype -->
<g id="node3" class="node">
<title>group_subtype</title>
<g id="a_node3"><a xlink:href="../../tables/group_subtype.html" xlink:title="group_subtype" target="_top">
<polygon fill="#ffffff" stroke="transparent" points="8,-252.2 8,-401.2 147,-401.2 147,-252.2 8,-252.2"/>
<polygon fill="#f5f5f5" stroke="transparent" points="8.5,-377.7 8.5,-400.7 147.5,-400.7 147.5,-377.7 8.5,-377.7"/>
<polygon fill="none" stroke="#000000" points="8.5,-377.7 8.5,-400.7 147.5,-400.7 147.5,-377.7 8.5,-377.7"/>
<text text-anchor="start" x="13.5" y="-386.3" font-family="Helvetica,sans-Serif" font-weight="bold" font-size="11.00" fill="#000000">group_subtype</text>
<text text-anchor="start" x="113.0219" y="-385.8" font-family="Helvetica,sans-Serif" font-size="11.00" fill="#000000">[table]</text>
<polygon fill="none" stroke="#000000" points="8.5,-355.7 8.5,-377.7 147.5,-377.7 147.5,-355.7 8.5,-355.7"/>
<image xlink:href="../../images/primaryKeys.png" width="11px" height="12px" preserveAspectRatio="xMinYMin meet" x="13.5" y="-372.7"/>
<text text-anchor="start" x="37.5" y="-362.8" font-family="Helvetica,sans-Serif" font-size="11.00" fill="#000000">id</text>
<polygon fill="#ffffff" stroke="transparent" points="8.5,-333.7 8.5,-355.7 147.5,-355.7 147.5,-333.7 8.5,-333.7"/>
<polygon fill="none" stroke="#000000" points="8.5,-333.7 8.5,-355.7 147.5,-355.7 147.5,-333.7 8.5,-333.7"/>
<image xlink:href="../../images/foreignKeys.png" width="11px" height="12px" preserveAspectRatio="xMinYMin meet" x="13.5" y="-350.7"/>
<text text-anchor="start" x="37.5" y="-340.8" font-family="Helvetica,sans-Serif" font-size="11.00" fill="#000000">group_note</text>
<polygon fill="#ffffff" stroke="transparent" points="8.5,-311.7 8.5,-333.7 147.5,-333.7 147.5,-311.7 8.5,-311.7"/>
<polygon fill="none" stroke="#000000" points="8.5,-311.7 8.5,-333.7 147.5,-333.7 147.5,-311.7 8.5,-311.7"/>
<image xlink:href="../../images/foreignKeys.png" width="11px" height="12px" preserveAspectRatio="xMinYMin meet" x="13.5" y="-328.7"/>
<text text-anchor="start" x="37.5" y="-318.8" font-family="Helvetica,sans-Serif" font-size="11.00" fill="#000000">subtype</text>
<polygon fill="#ffffff" stroke="transparent" points="8.5,-289.7 8.5,-311.7 147.5,-311.7 147.5,-289.7 8.5,-289.7"/>
<polygon fill="none" stroke="#000000" points="8.5,-289.7 8.5,-311.7 147.5,-311.7 147.5,-289.7 8.5,-289.7"/>
<text text-anchor="start" x="37.5" y="-296.8" font-family="Helvetica,sans-Serif" font-size="11.00" fill="#000000">index</text>
<polygon fill="none" stroke="#000000" points="8.5,-270.7 8.5,-289.7 147.5,-289.7 147.5,-270.7 8.5,-270.7"/>
<text text-anchor="start" x="11.5" y="-276.8" font-family="Helvetica,sans-Serif" font-size="11.00" fill="#000000">...</text>
<polygon fill="#ffffff" stroke="transparent" points="8.5,-251.7 8.5,-270.7 58.5,-270.7 58.5,-251.7 8.5,-251.7"/>
<polygon fill="none" stroke="#000000" points="8.5,-251.7 8.5,-270.7 58.5,-270.7 58.5,-251.7 8.5,-251.7"/>
<text text-anchor="start" x="11.5" y="-257.8" font-family="Helvetica,sans-Serif" font-size="11.00" fill="#000000">&lt; 2</text>
<polygon fill="#ffffff" stroke="transparent" points="58.5,-251.7 58.5,-270.7 111.5,-270.7 111.5,-251.7 58.5,-251.7"/>
<polygon fill="none" stroke="#000000" points="58.5,-251.7 58.5,-270.7 111.5,-270.7 111.5,-251.7 58.5,-251.7"/>
<text text-anchor="start" x="76.1105" y="-257.8" font-family="Helvetica,sans-Serif" font-size="11.00" fill="#000000">5 rows</text>
<polygon fill="#ffffff" stroke="transparent" points="111.5,-251.7 111.5,-270.7 147.5,-270.7 147.5,-251.7 111.5,-251.7"/>
<polygon fill="none" stroke="#000000" points="111.5,-251.7 111.5,-270.7 147.5,-270.7 147.5,-251.7 111.5,-251.7"/>
<text text-anchor="start" x="128.9053" y="-257.8" font-family="Helvetica,sans-Serif" font-size="11.00" fill="#000000">1 &gt;</text>
</a>
</g>
</g>
<!-- subtype_note_group&#45;&gt;group_subtype -->
<g id="edge2" class="edge">
<title>subtype_note_group:w&#45;&gt;group_subtype:e</title>
<path fill="none" stroke="#000000" d="M184.1154,-297.329C165.4593,-313.5294 181.2515,-366.7 147.5,-366.7"/>
<polygon fill="#000000" stroke="#000000" points="190.4107,-295.2303 199.1386,-296.1152 194.2053,-293.9651 198,-292.7 198,-292.7 198,-292.7 194.2053,-293.9651 196.8614,-289.2848 190.4107,-295.2303 190.4107,-295.2303"/>
<ellipse fill="none" stroke="#000000" cx="187.3749" cy="-296.2424" rx="3.2" ry="3.2"/>
</g>
</g>
</svg>
