<?xml version="1.0" encoding="UTF-8" standalone="no"?>
<!DOCTYPE svg PUBLIC "-//W3C//DTD SVG 1.1//EN"
 "http://www.w3.org/Graphics/SVG/1.1/DTD/svg11.dtd">
<!-- Generated by graphviz version 2.40.1 (20161225.0304)
 -->
<!-- Title: twoDegreesRelationshipsDiagram Pages: 1 -->
<svg width="610pt" height="413pt"
 viewBox="0.00 0.00 610.00 413.20" xmlns="http://www.w3.org/2000/svg" xmlns:xlink="http://www.w3.org/1999/xlink">
<g id="graph0" class="graph" transform="scale(1 1) rotate(0) translate(4 409.2)">
<title>twoDegreesRelationshipsDiagram</title>
<polygon fill="#ffffff" stroke="transparent" points="-4,4 -4,-409.2 606,-409.2 606,4 -4,4"/>
<text text-anchor="middle" x="72.4936" y="-7.3" font-family="Helvetica,sans-Serif" font-size="11.00" fill="#000000">Generated by SchemaSpy</text>
<!-- group_subtype -->
<g id="node1" class="node">
<title>group_subtype</title>
<g id="a_node1"><a xlink:href="../../tables/group_subtype.html" xlink:title="group_subtype" target="_top">
<polygon fill="#ffffff" stroke="transparent" points="230,-252.2 230,-401.2 369,-401.2 369,-252.2 230,-252.2"/>
<polygon fill="#f5f5f5" stroke="transparent" points="230.5,-377.7 230.5,-400.7 369.5,-400.7 369.5,-377.7 230.5,-377.7"/>
<polygon fill="none" stroke="#000000" points="230.5,-377.7 230.5,-400.7 369.5,-400.7 369.5,-377.7 230.5,-377.7"/>
<text text-anchor="start" x="235.5" y="-386.3" font-family="Helvetica,sans-Serif" font-weight="bold" font-size="11.00" fill="#000000">group_subtype</text>
<text text-anchor="start" x="335.0219" y="-385.8" font-family="Helvetica,sans-Serif" font-size="11.00" fill="#000000">[table]</text>
<polygon fill="none" stroke="#000000" points="230.5,-355.7 230.5,-377.7 369.5,-377.7 369.5,-355.7 230.5,-355.7"/>
<image xlink:href="../../images/primaryKeys.png" width="11px" height="12px" preserveAspectRatio="xMinYMin meet" x="235.5" y="-372.7"/>
<text text-anchor="start" x="259.5" y="-362.8" font-family="Helvetica,sans-Serif" font-size="11.00" fill="#000000">id</text>
<polygon fill="#ffffff" stroke="transparent" points="230.5,-333.7 230.5,-355.7 369.5,-355.7 369.5,-333.7 230.5,-333.7"/>
<polygon fill="none" stroke="#000000" points="230.5,-333.7 230.5,-355.7 369.5,-355.7 369.5,-333.7 230.5,-333.7"/>
<image xlink:href="../../images/foreignKeys.png" width="11px" height="12px" preserveAspectRatio="xMinYMin meet" x="235.5" y="-350.7"/>
<text text-anchor="start" x="259.5" y="-340.8" font-family="Helvetica,sans-Serif" font-size="11.00" fill="#000000">group_note</text>
<polygon fill="#ffffff" stroke="transparent" points="230.5,-311.7 230.5,-333.7 369.5,-333.7 369.5,-311.7 230.5,-311.7"/>
<polygon fill="none" stroke="#000000" points="230.5,-311.7 230.5,-333.7 369.5,-333.7 369.5,-311.7 230.5,-311.7"/>
<image xlink:href="../../images/foreignKeys.png" width="11px" height="12px" preserveAspectRatio="xMinYMin meet" x="235.5" y="-328.7"/>
<text text-anchor="start" x="259.5" y="-318.8" font-family="Helvetica,sans-Serif" font-size="11.00" fill="#000000">subtype</text>
<polygon fill="#ffffff" stroke="transparent" points="230.5,-289.7 230.5,-311.7 369.5,-311.7 369.5,-289.7 230.5,-289.7"/>
<polygon fill="none" stroke="#000000" points="230.5,-289.7 230.5,-311.7 369.5,-311.7 369.5,-289.7 230.5,-289.7"/>
<text text-anchor="start" x="259.5" y="-296.8" font-family="Helvetica,sans-Serif" font-size="11.00" fill="#000000">index</text>
<polygon fill="none" stroke="#000000" points="230.5,-270.7 230.5,-289.7 369.5,-289.7 369.5,-270.7 230.5,-270.7"/>
<text text-anchor="start" x="233.5" y="-276.8" font-family="Helvetica,sans-Serif" font-size="11.00" fill="#000000">...</text>
<polygon fill="#ffffff" stroke="transparent" points="230.5,-251.7 230.5,-270.7 280.5,-270.7 280.5,-251.7 230.5,-251.7"/>
<polygon fill="none" stroke="#000000" points="230.5,-251.7 230.5,-270.7 280.5,-270.7 280.5,-251.7 230.5,-251.7"/>
<text text-anchor="start" x="233.5" y="-257.8" font-family="Helvetica,sans-Serif" font-size="11.00" fill="#000000">&lt; 2</text>
<polygon fill="#ffffff" stroke="transparent" points="280.5,-251.7 280.5,-270.7 333.5,-270.7 333.5,-251.7 280.5,-251.7"/>
<polygon fill="none" stroke="#000000" points="280.5,-251.7 280.5,-270.7 333.5,-270.7 333.5,-251.7 280.5,-251.7"/>
<text text-anchor="start" x="298.1105" y="-257.8" font-family="Helvetica,sans-Serif" font-size="11.00" fill="#000000">5 rows</text>
<polygon fill="#ffffff" stroke="transparent" points="333.5,-251.7 333.5,-270.7 369.5,-270.7 369.5,-251.7 333.5,-251.7"/>
<polygon fill="none" stroke="#000000" points="333.5,-251.7 333.5,-270.7 369.5,-270.7 369.5,-251.7 333.5,-251.7"/>
<text text-anchor="start" x="350.9053" y="-257.8" font-family="Helvetica,sans-Serif" font-size="11.00" fill="#000000">1 &gt;</text>
</a>
</g>
</g>
<!-- group_note -->
<g id="node2" class="node">
<title>group_note</title>
<g id="a_node2"><a xlink:href="../../tables/group_note.html" xlink:title="group_note" target="_top">
<polygon fill="#ffffff" stroke="transparent" points="37,-317.2 37,-378.2 152,-378.2 152,-317.2 37,-317.2"/>
<polygon fill="#f5f5f5" stroke="transparent" points="37.5,-354.7 37.5,-377.7 152.5,-377.7 152.5,-354.7 37.5,-354.7"/>
<polygon fill="none" stroke="#000000" points="37.5,-354.7 37.5,-377.7 152.5,-377.7 152.5,-354.7 37.5,-354.7"/>
<text text-anchor="start" x="42.5" y="-363.3" font-family="Helvetica,sans-Serif" font-weight="bold" font-size="11.00" fill="#000000">group_note</text>
<text text-anchor="start" x="118.0219" y="-362.8" font-family="Helvetica,sans-Serif" font-size="11.00" fill="#000000">[table]</text>
<polygon fill="none" stroke="#000000" points="37.5,-335.7 37.5,-354.7 152.5,-354.7 152.5,-335.7 37.5,-335.7"/>
<text text-anchor="start" x="40.5" y="-341.8" font-family="Helvetica,sans-Serif" font-size="11.00" fill="#000000">...</text>
<polygon fill="#ffffff" stroke="transparent" points="37.5,-316.7 37.5,-335.7 84.5,-335.7 84.5,-316.7 37.5,-316.7"/>
<polygon fill="none" stroke="#000000" points="37.5,-316.7 37.5,-335.7 84.5,-335.7 84.5,-316.7 37.5,-316.7"/>
<text text-anchor="start" x="40.5" y="-322.8" font-family="Helvetica,sans-Serif" font-size="11.00" fill="#000000"> &#160;</text>
<polygon fill="#ffffff" stroke="transparent" points="84.5,-316.7 84.5,-335.7 113.5,-335.7 113.5,-316.7 84.5,-316.7"/>
<polygon fill="none" stroke="#000000" points="84.5,-316.7 84.5,-335.7 113.5,-335.7 113.5,-316.7 84.5,-316.7"/>
<text text-anchor="start" x="104.3862" y="-322.8" font-family="Helvetica,sans-Serif" font-size="11.00" fill="#000000"> &#160;</text>
<polygon fill="#ffffff" stroke="transparent" points="113.5,-316.7 113.5,-335.7 152.5,-335.7 152.5,-316.7 113.5,-316.7"/>
<polygon fill="none" stroke="#000000" points="113.5,-316.7 113.5,-335.7 152.5,-335.7 152.5,-316.7 113.5,-316.7"/>
<text text-anchor="start" x="133.9053" y="-322.8" font-family="Helvetica,sans-Serif" font-size="11.00" fill="#000000">2 &gt;</text>
</a>
</g>
</g>
<!-- group_subtype&#45;&gt;group_note -->
<g id="edge1" class="edge">
<title>group_subtype:w&#45;&gt;group_note:e</title>
<path fill="none" stroke="#000000" d="M215.9559,-344.7C192.4902,-344.7 181.75,-344.7 152.5,-344.7"/>
<polygon fill="#000000" stroke="#000000" points="222.5,-344.7001 230.5,-348.3 226.5,-344.7 230.5,-344.7 230.5,-344.7 230.5,-344.7 226.5,-344.7 230.5,-341.1 222.5,-344.7001 222.5,-344.7001"/>
<ellipse fill="none" stroke="#000000" cx="219.3" cy="-344.7001" rx="3.2" ry="3.2"/>
</g>
<!-- subtype -->
<g id="node3" class="node">
<title>subtype</title>
<g id="a_node3"><a xlink:href="../../tables/subtype.html" xlink:title="subtype" target="_top">
<polygon fill="#ffffff" stroke="transparent" points="8,-173.7 8,-285.7 181,-285.7 181,-173.7 8,-173.7"/>
<polygon fill="#f5f5f5" stroke="transparent" points="10.5,-260.7 10.5,-283.7 179.5,-283.7 179.5,-260.7 10.5,-260.7"/>
<polygon fill="none" stroke="#000000" points="10.5,-260.7 10.5,-283.7 179.5,-283.7 179.5,-260.7 10.5,-260.7"/>
<text text-anchor="start" x="15.5" y="-269.3" font-family="Helvetica,sans-Serif" font-weight="bold" font-size="11.00" fill="#000000">subtype</text>
<text text-anchor="start" x="144.5437" y="-268.8" font-family="Helvetica,sans-Serif" font-size="11.00" fill="#000000">[table]</text>
<polygon fill="none" stroke="#000000" points="10.5,-238.7 10.5,-260.7 85.5,-260.7 85.5,-238.7 10.5,-238.7"/>
<image xlink:href="../../images/primaryKeys.png" width="11px" height="12px" preserveAspectRatio="xMinYMin meet" x="15.5" y="-255.7"/>
<text text-anchor="start" x="30.5" y="-245.8" font-family="Helvetica,sans-Serif" font-size="11.00" fill="#000000">id</text>
<polygon fill="none" stroke="#000000" points="85.5,-238.7 85.5,-260.7 179.5,-260.7 179.5,-238.7 85.5,-238.7"/>
<text text-anchor="start" x="88.4758" y="-246.4" font-family="Helvetica,sans-Serif" font-size="11.00" fill="#000000">uuid[2147483647]</text>
<polygon fill="#ffffff" stroke="transparent" points="10.5,-216.7 10.5,-238.7 85.5,-238.7 85.5,-216.7 10.5,-216.7"/>
<polygon fill="none" stroke="#000000" points="10.5,-216.7 10.5,-238.7 85.5,-238.7 85.5,-216.7 10.5,-216.7"/>
<text text-anchor="start" x="30.5" y="-223.8" font-family="Helvetica,sans-Serif" font-size="11.00" fill="#000000">name</text>
<polygon fill="none" stroke="#000000" points="85.5,-216.7 85.5,-238.7 179.5,-238.7 179.5,-216.7 85.5,-216.7"/>
<text text-anchor="start" x="88.5" y="-224.4" font-family="Helvetica,sans-Serif" font-size="11.00" fill="#000000">varchar[255]</text>
<polygon fill="none" stroke="#000000" points="10.5,-194.7 10.5,-216.7 85.5,-216.7 85.5,-194.7 10.5,-194.7"/>
<text text-anchor="start" x="30.5" y="-201.8" font-family="Helvetica,sans-Serif" font-size="11.00" fill="#000000">color</text>
<polygon fill="none" stroke="#000000" points="85.5,-194.7 85.5,-216.7 179.5,-216.7 179.5,-194.7 85.5,-194.7"/>
<text text-anchor="start" x="88.5" y="-202.4" font-family="Helvetica,sans-Serif" font-size="11.00" fill="#000000">varchar[50]</text>
<polygon fill="#ffffff" stroke="transparent" points="10.5,-175.7 10.5,-194.7 39.5,-194.7 39.5,-175.7 10.5,-175.7"/>
<polygon fill="none" stroke="#000000" points="10.5,-175.7 10.5,-194.7 39.5,-194.7 39.5,-175.7 10.5,-175.7"/>
<text text-anchor="start" x="13.5" y="-181.8" font-family="Helvetica,sans-Serif" font-size="11.00" fill="#000000">&lt; 0</text>
<polygon fill="#ffffff" stroke="transparent" points="39.5,-175.7 39.5,-194.7 85.5,-194.7 85.5,-175.7 39.5,-175.7"/>
<polygon fill="none" stroke="#000000" points="39.5,-175.7 39.5,-194.7 85.5,-194.7 85.5,-175.7 39.5,-175.7"/>
<text text-anchor="start" x="50.1105" y="-181.8" font-family="Helvetica,sans-Serif" font-size="11.00" fill="#000000">9 rows</text>
<polygon fill="#ffffff" stroke="transparent" points="85.5,-175.7 85.5,-194.7 179.5,-194.7 179.5,-175.7 85.5,-175.7"/>
<polygon fill="none" stroke="#000000" points="85.5,-175.7 85.5,-194.7 179.5,-194.7 179.5,-175.7 85.5,-175.7"/>
<text text-anchor="start" x="160.9053" y="-181.8" font-family="Helvetica,sans-Serif" font-size="11.00" fill="#000000">2 &gt;</text>
<polygon fill="none" stroke="#000000" stroke-width="2" points="9,-174.7 9,-284.7 180,-284.7 180,-174.7 9,-174.7"/>
</a>
</g>
</g>
<!-- group_subtype&#45;&gt;subtype -->
<g id="edge2" class="edge">
<title>group_subtype:w&#45;&gt;subtype:e</title>
<path fill="none" stroke="#000000" d="M216.6487,-318.1335C197.9288,-302.152 213.0486,-249.7 179.5,-249.7"/>
<polygon fill="#000000" stroke="#000000" points="222.9022,-320.1951 229.3728,-326.119 226.7011,-321.4476 230.5,-322.7 230.5,-322.7 230.5,-322.7 226.7011,-321.4476 231.6272,-319.281 222.9022,-320.1951 222.9022,-320.1951"/>
<ellipse fill="none" stroke="#000000" cx="219.8631" cy="-319.1932" rx="3.2" ry="3.2"/>
</g>
<!-- note -->
<g id="node4" class="node">
<title>note</title>
<g id="a_node4"><a xlink:href="../../tables/note.html" xlink:title="note" target="_top">
<polygon fill="#ffffff" stroke="transparent" points="231.5,-38.2 231.5,-231.2 367.5,-231.2 367.5,-38.2 231.5,-38.2"/>
<polygon fill="#f5f5f5" stroke="transparent" points="231.5,-207.7 231.5,-230.7 367.5,-230.7 367.5,-207.7 231.5,-207.7"/>
<polygon fill="none" stroke="#000000" points="231.5,-207.7 231.5,-230.7 367.5,-230.7 367.5,-207.7 231.5,-207.7"/>
<text text-anchor="start" x="236.5" y="-216.3" font-family="Helvetica,sans-Serif" font-weight="bold" font-size="11.00" fill="#000000">note</text>
<text text-anchor="start" x="332.5437" y="-215.8" font-family="Helvetica,sans-Serif" font-size="11.00" fill="#000000">[table]</text>
<polygon fill="none" stroke="#000000" points="231.5,-185.7 231.5,-207.7 367.5,-207.7 367.5,-185.7 231.5,-185.7"/>
<image xlink:href="../../images/primaryKeys.png" width="11px" height="12px" preserveAspectRatio="xMinYMin meet" x="236.5" y="-202.7"/>
<text text-anchor="start" x="251.5" y="-192.8" font-family="Helvetica,sans-Serif" font-size="11.00" fill="#000000">id</text>
<polygon fill="#ffffff" stroke="transparent" points="231.5,-163.7 231.5,-185.7 367.5,-185.7 367.5,-163.7 231.5,-163.7"/>
<polygon fill="none" stroke="#000000" points="231.5,-163.7 231.5,-185.7 367.5,-185.7 367.5,-163.7 231.5,-163.7"/>
<text text-anchor="start" x="251.5" y="-170.8" font-family="Helvetica,sans-Serif" font-size="11.00" fill="#000000">title</text>
<polygon fill="#ffffff" stroke="transparent" points="231.5,-141.7 231.5,-163.7 367.5,-163.7 367.5,-141.7 231.5,-141.7"/>
<polygon fill="none" stroke="#000000" points="231.5,-141.7 231.5,-163.7 367.5,-163.7 367.5,-141.7 231.5,-141.7"/>
<text text-anchor="start" x="251.5" y="-148.8" font-family="Helvetica,sans-Serif" font-size="11.00" fill="#000000">lastmodifieddate</text>
<polygon fill="none" stroke="#000000" points="231.5,-119.7 231.5,-141.7 367.5,-141.7 367.5,-119.7 231.5,-119.7"/>
<image xlink:href="../../images/foreignKeys.png" width="11px" height="12px" preserveAspectRatio="xMinYMin meet" x="236.5" y="-136.7"/>
<text text-anchor="start" x="251.5" y="-126.8" font-family="Helvetica,sans-Serif" font-size="11.00" fill="#000000">subtype</text>
<polygon fill="none" stroke="#000000" points="231.5,-97.7 231.5,-119.7 367.5,-119.7 367.5,-97.7 231.5,-97.7"/>
<image xlink:href="../../images/foreignKeys.png" width="11px" height="12px" preserveAspectRatio="xMinYMin meet" x="236.5" y="-114.7"/>
<text text-anchor="start" x="251.5" y="-104.8" font-family="Helvetica,sans-Serif" font-size="11.00" fill="#000000">member</text>
<polygon fill="#ffffff" stroke="transparent" points="231.5,-75.7 231.5,-97.7 367.5,-97.7 367.5,-75.7 231.5,-75.7"/>
<polygon fill="none" stroke="#000000" points="231.5,-75.7 231.5,-97.7 367.5,-97.7 367.5,-75.7 231.5,-75.7"/>
<text text-anchor="start" x="251.5" y="-82.8" font-family="Helvetica,sans-Serif" font-size="11.00" fill="#000000">category</text>
<polygon fill="none" stroke="#000000" points="231.5,-56.7 231.5,-75.7 367.5,-75.7 367.5,-56.7 231.5,-56.7"/>
<text text-anchor="start" x="234.5" y="-62.8" font-family="Helvetica,sans-Serif" font-size="11.00" fill="#000000">...</text>
<polygon fill="#ffffff" stroke="transparent" points="231.5,-37.7 231.5,-56.7 277.5,-56.7 277.5,-37.7 231.5,-37.7"/>
<polygon fill="none" stroke="#000000" points="231.5,-37.7 231.5,-56.7 277.5,-56.7 277.5,-37.7 231.5,-37.7"/>
<text text-anchor="start" x="234.5" y="-43.8" font-family="Helvetica,sans-Serif" font-size="11.00" fill="#000000">&lt; 2</text>
<polygon fill="#ffffff" stroke="transparent" points="277.5,-37.7 277.5,-56.7 333.5,-56.7 333.5,-37.7 277.5,-37.7"/>
<polygon fill="none" stroke="#000000" points="277.5,-37.7 277.5,-56.7 333.5,-56.7 333.5,-37.7 277.5,-37.7"/>
<text text-anchor="start" x="291.9956" y="-43.8" font-family="Helvetica,sans-Serif" font-size="11.00" fill="#000000">63 rows</text>
<polygon fill="#ffffff" stroke="transparent" points="333.5,-37.7 333.5,-56.7 367.5,-56.7 367.5,-37.7 333.5,-37.7"/>
<polygon fill="none" stroke="#000000" points="333.5,-37.7 333.5,-56.7 367.5,-56.7 367.5,-37.7 333.5,-37.7"/>
<text text-anchor="start" x="348.9053" y="-43.8" font-family="Helvetica,sans-Serif" font-size="11.00" fill="#000000">1 &gt;</text>
</a>
</g>
</g>
<!-- note&#45;&gt;subtype -->
<g id="edge4" class="edge">
<title>note:w&#45;&gt;subtype:e</title>
<path fill="none" stroke="#000000" d="M217.4093,-134.1331C185.4178,-153.6444 231.3559,-249.7 179.5,-249.7"/>
<polygon fill="#000000" stroke="#000000" points="223.7274,-132.5938 232.3522,-134.1977 227.6137,-131.6469 231.5,-130.7 231.5,-130.7 231.5,-130.7 227.6137,-131.6469 230.6478,-127.2023 223.7274,-132.5938 223.7274,-132.5938"/>
<ellipse fill="none" stroke="#000000" cx="220.6183" cy="-133.3513" rx="3.2" ry="3.2"/>
</g>
<!-- member -->
<g id="node5" class="node">
<title>member</title>
<g id="a_node5"><a xlink:href="../../tables/member.html" xlink:title="member" target="_top">
<polygon fill="#ffffff" stroke="transparent" points="47.5,-81.2 47.5,-142.2 141.5,-142.2 141.5,-81.2 47.5,-81.2"/>
<polygon fill="#f5f5f5" stroke="transparent" points="47.5,-118.7 47.5,-141.7 141.5,-141.7 141.5,-118.7 47.5,-118.7"/>
<polygon fill="none" stroke="#000000" points="47.5,-118.7 47.5,-141.7 141.5,-141.7 141.5,-118.7 47.5,-118.7"/>
<text text-anchor="start" x="52.5" y="-127.3" font-family="Helvetica,sans-Serif" font-weight="bold" font-size="11.00" fill="#000000">member</text>
<text text-anchor="start" x="107.0219" y="-126.8" font-family="Helvetica,sans-Serif" font-size="11.00" fill="#000000">[table]</text>
<polygon fill="none" stroke="#000000" points="47.5,-99.7 47.5,-118.7 141.5,-118.7 141.5,-99.7 47.5,-99.7"/>
<text text-anchor="start" x="50.5" y="-105.8" font-family="Helvetica,sans-Serif" font-size="11.00" fill="#000000">...</text>
<polygon fill="#ffffff" stroke="transparent" points="47.5,-80.7 47.5,-99.7 73.5,-99.7 73.5,-80.7 47.5,-80.7"/>
<polygon fill="none" stroke="#000000" points="47.5,-80.7 47.5,-99.7 73.5,-99.7 73.5,-80.7 47.5,-80.7"/>
<text text-anchor="start" x="50.5" y="-86.8" font-family="Helvetica,sans-Serif" font-size="11.00" fill="#000000"> &#160;</text>
<polygon fill="#ffffff" stroke="transparent" points="73.5,-80.7 73.5,-99.7 112.5,-99.7 112.5,-80.7 73.5,-80.7"/>
<polygon fill="none" stroke="#000000" points="73.5,-80.7 73.5,-99.7 112.5,-99.7 112.5,-80.7 73.5,-80.7"/>
<text text-anchor="start" x="82.6105" y="-86.8" font-family="Helvetica,sans-Serif" font-size="11.00" fill="#000000">1 row</text>
<polygon fill="#ffffff" stroke="transparent" points="112.5,-80.7 112.5,-99.7 141.5,-99.7 141.5,-80.7 112.5,-80.7"/>
<polygon fill="none" stroke="#000000" points="112.5,-80.7 112.5,-99.7 141.5,-99.7 141.5,-80.7 112.5,-80.7"/>
<text text-anchor="start" x="122.9053" y="-86.8" font-family="Helvetica,sans-Serif" font-size="11.00" fill="#000000">4 &gt;</text>
</a>
</g>
</g>
<!-- note&#45;&gt;member -->
<g id="edge3" class="edge">
<title>note:w&#45;&gt;member:e</title>
<path fill="none" stroke="#000000" d="M217.0095,-108.7C188.3146,-108.7 176.1875,-108.7 141.5,-108.7"/>
<polygon fill="#000000" stroke="#000000" points="223.5,-108.7001 231.5,-112.3 227.5,-108.7 231.5,-108.7 231.5,-108.7 231.5,-108.7 227.5,-108.7 231.5,-105.1 223.5,-108.7001 223.5,-108.7001"/>
<ellipse fill="none" stroke="#000000" cx="220.3" cy="-108.7001" rx="3.2" ry="3.2"/>
</g>
<!-- subtype_note_group -->
<g id="node6" class="node">
<title>subtype_note_group</title>
<g id="a_node6"><a xlink:href="../../tables/subtype_note_group.html" xlink:title="subtype_note_group" target="_top">
<polygon fill="#ffffff" stroke="transparent" points="418,-254.2 418,-315.2 594,-315.2 594,-254.2 418,-254.2"/>
<polygon fill="#f5f5f5" stroke="transparent" points="418,-291.7 418,-314.7 594,-314.7 594,-291.7 418,-291.7"/>
<polygon fill="none" stroke="#000000" points="418,-291.7 418,-314.7 594,-314.7 594,-291.7 418,-291.7"/>
<text text-anchor="start" x="423" y="-300.3" font-family="Helvetica,sans-Serif" font-weight="bold" font-size="11.00" fill="#000000">subtype_note_group</text>
<text text-anchor="start" x="559.5219" y="-299.8" font-family="Helvetica,sans-Serif" font-size="11.00" fill="#000000">[table]</text>
<polygon fill="none" stroke="#000000" points="418,-272.7 418,-291.7 594,-291.7 594,-272.7 418,-272.7"/>
<text text-anchor="start" x="421" y="-278.8" font-family="Helvetica,sans-Serif" font-size="11.00" fill="#000000">...</text>
<polygon fill="#ffffff" stroke="transparent" points="418,-253.7 418,-272.7 488,-272.7 488,-253.7 418,-253.7"/>
<polygon fill="none" stroke="#000000" points="418,-253.7 418,-272.7 488,-272.7 488,-253.7 418,-253.7"/>
<text text-anchor="start" x="421" y="-259.8" font-family="Helvetica,sans-Serif" font-size="11.00" fill="#000000">&lt; 2</text>
<polygon fill="#ffffff" stroke="transparent" points="488,-253.7 488,-272.7 557,-272.7 557,-253.7 488,-253.7"/>
<polygon fill="none" stroke="#000000" points="488,-253.7 488,-272.7 557,-272.7 557,-253.7 488,-253.7"/>
<text text-anchor="start" x="515.4956" y="-259.8" font-family="Helvetica,sans-Serif" font-size="11.00" fill="#000000">31 rows</text>
<polygon fill="#ffffff" stroke="transparent" points="557,-253.7 557,-272.7 594,-272.7 594,-253.7 557,-253.7"/>
<polygon fill="none" stroke="#000000" points="557,-253.7 557,-272.7 594,-272.7 594,-253.7 557,-253.7"/>
<text text-anchor="start" x="584.8862" y="-259.8" font-family="Helvetica,sans-Serif" font-size="11.00" fill="#000000"> &#160;</text>
</a>
</g>
</g>
<!-- subtype_note_group&#45;&gt;group_subtype -->
<g id="edge6" class="edge">
<title>subtype_note_group:w&#45;&gt;group_subtype:e</title>
<path fill="none" stroke="#000000" d="M404.0585,-286.27C383.7091,-303.9253 406.8784,-366.7 369.5,-366.7"/>
<polygon fill="#000000" stroke="#000000" points="410.398,-284.1919 419.1214,-285.1209 414.199,-282.946 418,-281.7 418,-281.7 418,-281.7 414.199,-282.946 416.8786,-278.2791 410.398,-284.1919 410.398,-284.1919"/>
<ellipse fill="none" stroke="#000000" cx="407.3572" cy="-285.1887" rx="3.2" ry="3.2"/>
</g>
<!-- subtype_note_group&#45;&gt;note -->
<g id="edge5" class="edge">
<title>subtype_note_group:w&#45;&gt;note:e</title>
<path fill="none" stroke="#000000" d="M404.1216,-277.368C382.76,-260.0466 405.4344,-196.7 367.5,-196.7"/>
<polygon fill="#000000" stroke="#000000" points="410.3634,-279.3163 416.9273,-285.1365 414.1817,-280.5081 418,-281.7 418,-281.7 418,-281.7 414.1817,-280.5081 419.0727,-278.2635 410.3634,-279.3163 410.3634,-279.3163"/>
<ellipse fill="none" stroke="#000000" cx="407.3087" cy="-278.3628" rx="3.2" ry="3.2"/>
</g>
</g>
</svg>
