<?xml version="1.0" encoding="UTF-8" standalone="no"?>
<!DOCTYPE svg PUBLIC "-//W3C//DTD SVG 1.1//EN"
 "http://www.w3.org/Graphics/SVG/1.1/DTD/svg11.dtd">
<!-- Generated by graphviz version 2.40.1 (20161225.0304)
 -->
<!-- Title: oneDegreeRelationshipsDiagram Pages: 1 -->
<svg width="469pt" height="469pt"
 viewBox="0.00 0.00 469.00 468.70" xmlns="http://www.w3.org/2000/svg" xmlns:xlink="http://www.w3.org/1999/xlink">
<g id="graph0" class="graph" transform="scale(1 1) rotate(0) translate(4 464.7)">
<title>oneDegreeRelationshipsDiagram</title>
<polygon fill="#ffffff" stroke="transparent" points="-4,4 -4,-464.7 465,-464.7 465,4 -4,4"/>
<text text-anchor="middle" x="72.4936" y="-7.3" font-family="Helvetica,sans-Serif" font-size="11.00" fill="#000000">Generated by SchemaSpy</text>
<!-- theme_member -->
<g id="node1" class="node">
<title>theme_member</title>
<g id="a_node1"><a xlink:href="../../tables/theme_member.html" xlink:title="theme_member" target="_top">
<polygon fill="#ffffff" stroke="transparent" points="310,-329.7 310,-456.7 453,-456.7 453,-329.7 310,-329.7"/>
<polygon fill="#f5f5f5" stroke="transparent" points="310.5,-433.2 310.5,-456.2 453.5,-456.2 453.5,-433.2 310.5,-433.2"/>
<polygon fill="none" stroke="#000000" points="310.5,-433.2 310.5,-456.2 453.5,-456.2 453.5,-433.2 310.5,-433.2"/>
<text text-anchor="start" x="315.5" y="-441.8" font-family="Helvetica,sans-Serif" font-weight="bold" font-size="11.00" fill="#000000">theme_member</text>
<text text-anchor="start" x="419.0219" y="-441.3" font-family="Helvetica,sans-Serif" font-size="11.00" fill="#000000">[table]</text>
<polygon fill="none" stroke="#000000" points="310.5,-411.2 310.5,-433.2 453.5,-433.2 453.5,-411.2 310.5,-411.2"/>
<image xlink:href="../../images/primaryKeys.png" width="11px" height="12px" preserveAspectRatio="xMinYMin meet" x="315.5" y="-428.2"/>
<text text-anchor="start" x="339.5" y="-418.3" font-family="Helvetica,sans-Serif" font-size="11.00" fill="#000000">id</text>
<polygon fill="#ffffff" stroke="transparent" points="310.5,-389.2 310.5,-411.2 453.5,-411.2 453.5,-389.2 310.5,-389.2"/>
<polygon fill="none" stroke="#000000" points="310.5,-389.2 310.5,-411.2 453.5,-411.2 453.5,-389.2 310.5,-389.2"/>
<image xlink:href="../../images/foreignKeys.png" width="11px" height="12px" preserveAspectRatio="xMinYMin meet" x="315.5" y="-406.2"/>
<text text-anchor="start" x="339.5" y="-396.3" font-family="Helvetica,sans-Serif" font-size="11.00" fill="#000000">theme</text>
<polygon fill="#ffffff" stroke="transparent" points="310.5,-367.2 310.5,-389.2 453.5,-389.2 453.5,-367.2 310.5,-367.2"/>
<polygon fill="none" stroke="#000000" points="310.5,-367.2 310.5,-389.2 453.5,-389.2 453.5,-367.2 310.5,-367.2"/>
<image xlink:href="../../images/foreignKeys.png" width="11px" height="12px" preserveAspectRatio="xMinYMin meet" x="315.5" y="-384.2"/>
<text text-anchor="start" x="339.5" y="-374.3" font-family="Helvetica,sans-Serif" font-size="11.00" fill="#000000">member</text>
<polygon fill="none" stroke="#000000" points="310.5,-348.2 310.5,-367.2 453.5,-367.2 453.5,-348.2 310.5,-348.2"/>
<text text-anchor="start" x="313.5" y="-354.3" font-family="Helvetica,sans-Serif" font-size="11.00" fill="#000000">...</text>
<polygon fill="#ffffff" stroke="transparent" points="310.5,-329.2 310.5,-348.2 364.5,-348.2 364.5,-329.2 310.5,-329.2"/>
<polygon fill="none" stroke="#000000" points="310.5,-329.2 310.5,-348.2 364.5,-348.2 364.5,-329.2 310.5,-329.2"/>
<text text-anchor="start" x="313.5" y="-335.3" font-family="Helvetica,sans-Serif" font-size="11.00" fill="#000000">&lt; 2</text>
<polygon fill="#ffffff" stroke="transparent" points="364.5,-329.2 364.5,-348.2 424.5,-348.2 424.5,-329.2 364.5,-329.2"/>
<polygon fill="none" stroke="#000000" points="364.5,-329.2 364.5,-348.2 424.5,-348.2 424.5,-329.2 364.5,-329.2"/>
<text text-anchor="start" x="382.9956" y="-335.3" font-family="Helvetica,sans-Serif" font-size="11.00" fill="#000000">30 rows</text>
<polygon fill="#ffffff" stroke="transparent" points="424.5,-329.2 424.5,-348.2 453.5,-348.2 453.5,-329.2 424.5,-329.2"/>
<polygon fill="none" stroke="#000000" points="424.5,-329.2 424.5,-348.2 453.5,-348.2 453.5,-329.2 424.5,-329.2"/>
<text text-anchor="start" x="444.3862" y="-335.3" font-family="Helvetica,sans-Serif" font-size="11.00" fill="#000000"> &#160;</text>
</a>
</g>
</g>
<!-- theme -->
<g id="node2" class="node">
<title>theme</title>
<g id="a_node2"><a xlink:href="../../tables/theme.html" xlink:title="theme" target="_top">
<polygon fill="#ffffff" stroke="transparent" points="8,-38.2 8,-436.2 261,-436.2 261,-38.2 8,-38.2"/>
<polygon fill="#f5f5f5" stroke="transparent" points="10.5,-411.2 10.5,-434.2 259.5,-434.2 259.5,-411.2 10.5,-411.2"/>
<polygon fill="none" stroke="#000000" points="10.5,-411.2 10.5,-434.2 259.5,-434.2 259.5,-411.2 10.5,-411.2"/>
<text text-anchor="start" x="15.5" y="-419.8" font-family="Helvetica,sans-Serif" font-weight="bold" font-size="11.00" fill="#000000">theme</text>
<text text-anchor="start" x="224.5437" y="-419.3" font-family="Helvetica,sans-Serif" font-size="11.00" fill="#000000">[table]</text>
<polygon fill="none" stroke="#000000" points="10.5,-389.2 10.5,-411.2 165.5,-411.2 165.5,-389.2 10.5,-389.2"/>
<image xlink:href="../../images/primaryKeys.png" width="11px" height="12px" preserveAspectRatio="xMinYMin meet" x="15.5" y="-406.2"/>
<text text-anchor="start" x="30.5" y="-396.3" font-family="Helvetica,sans-Serif" font-size="11.00" fill="#000000">id</text>
<polygon fill="none" stroke="#000000" points="165.5,-389.2 165.5,-411.2 259.5,-411.2 259.5,-389.2 165.5,-389.2"/>
<text text-anchor="start" x="168.4758" y="-396.9" font-family="Helvetica,sans-Serif" font-size="11.00" fill="#000000">uuid[2147483647]</text>
<polygon fill="#ffffff" stroke="transparent" points="10.5,-367.2 10.5,-389.2 165.5,-389.2 165.5,-367.2 10.5,-367.2"/>
<polygon fill="none" stroke="#000000" points="10.5,-367.2 10.5,-389.2 165.5,-389.2 165.5,-367.2 10.5,-367.2"/>
<text text-anchor="start" x="30.5" y="-374.3" font-family="Helvetica,sans-Serif" font-size="11.00" fill="#000000">name</text>
<polygon fill="none" stroke="#000000" points="165.5,-367.2 165.5,-389.2 259.5,-389.2 259.5,-367.2 165.5,-367.2"/>
<text text-anchor="start" x="168.5" y="-374.9" font-family="Helvetica,sans-Serif" font-size="11.00" fill="#000000">varchar[255]</text>
<polygon fill="none" stroke="#000000" points="10.5,-345.2 10.5,-367.2 165.5,-367.2 165.5,-345.2 10.5,-345.2"/>
<text text-anchor="start" x="30.5" y="-352.3" font-family="Helvetica,sans-Serif" font-size="11.00" fill="#000000">background_color</text>
<polygon fill="none" stroke="#000000" points="165.5,-345.2 165.5,-367.2 259.5,-367.2 259.5,-345.2 165.5,-345.2"/>
<text text-anchor="start" x="168.5" y="-352.9" font-family="Helvetica,sans-Serif" font-size="11.00" fill="#000000">varchar[255]</text>
<polygon fill="none" stroke="#000000" points="10.5,-323.2 10.5,-345.2 165.5,-345.2 165.5,-323.2 10.5,-323.2"/>
<text text-anchor="start" x="30.5" y="-330.3" font-family="Helvetica,sans-Serif" font-size="11.00" fill="#000000">background_images</text>
<polygon fill="none" stroke="#000000" points="165.5,-323.2 165.5,-345.2 259.5,-345.2 259.5,-323.2 165.5,-323.2"/>
<text text-anchor="start" x="168.5" y="-330.9" font-family="Helvetica,sans-Serif" font-size="11.00" fill="#000000">varchar[255]</text>
<polygon fill="none" stroke="#000000" points="10.5,-301.2 10.5,-323.2 165.5,-323.2 165.5,-301.2 10.5,-301.2"/>
<text text-anchor="start" x="30.5" y="-308.3" font-family="Helvetica,sans-Serif" font-size="11.00" fill="#000000">border_color</text>
<polygon fill="none" stroke="#000000" points="165.5,-301.2 165.5,-323.2 259.5,-323.2 259.5,-301.2 165.5,-301.2"/>
<text text-anchor="start" x="168.5" y="-308.9" font-family="Helvetica,sans-Serif" font-size="11.00" fill="#000000">varchar[255]</text>
<polygon fill="none" stroke="#000000" points="10.5,-279.2 10.5,-301.2 165.5,-301.2 165.5,-279.2 10.5,-279.2"/>
<text text-anchor="start" x="30.5" y="-286.3" font-family="Helvetica,sans-Serif" font-size="11.00" fill="#000000">note_background</text>
<polygon fill="none" stroke="#000000" points="165.5,-279.2 165.5,-301.2 259.5,-301.2 259.5,-279.2 165.5,-279.2"/>
<text text-anchor="start" x="168.5" y="-286.9" font-family="Helvetica,sans-Serif" font-size="11.00" fill="#000000">varchar[255]</text>
<polygon fill="none" stroke="#000000" points="10.5,-257.2 10.5,-279.2 165.5,-279.2 165.5,-257.2 10.5,-257.2"/>
<text text-anchor="start" x="30.5" y="-264.3" font-family="Helvetica,sans-Serif" font-size="11.00" fill="#000000">note_foreground</text>
<polygon fill="none" stroke="#000000" points="165.5,-257.2 165.5,-279.2 259.5,-279.2 259.5,-257.2 165.5,-257.2"/>
<text text-anchor="start" x="168.5" y="-264.9" font-family="Helvetica,sans-Serif" font-size="11.00" fill="#000000">varchar[255]</text>
<polygon fill="none" stroke="#000000" points="10.5,-235.2 10.5,-257.2 165.5,-257.2 165.5,-235.2 10.5,-235.2"/>
<text text-anchor="start" x="30.5" y="-242.3" font-family="Helvetica,sans-Serif" font-size="11.00" fill="#000000">createdby</text>
<polygon fill="none" stroke="#000000" points="165.5,-235.2 165.5,-257.2 259.5,-257.2 259.5,-235.2 165.5,-235.2"/>
<text text-anchor="start" x="168.5" y="-242.9" font-family="Helvetica,sans-Serif" font-size="11.00" fill="#000000">varchar[300]</text>
<polygon fill="none" stroke="#000000" points="10.5,-213.2 10.5,-235.2 165.5,-235.2 165.5,-213.2 10.5,-213.2"/>
<text text-anchor="start" x="30.5" y="-220.3" font-family="Helvetica,sans-Serif" font-size="11.00" fill="#000000">createddate</text>
<polygon fill="none" stroke="#000000" points="165.5,-213.2 165.5,-235.2 259.5,-235.2 259.5,-213.2 165.5,-213.2"/>
<text text-anchor="start" x="168.5" y="-220.9" font-family="Helvetica,sans-Serif" font-size="11.00" fill="#000000">timestamp[29,6]</text>
<polygon fill="none" stroke="#000000" points="10.5,-191.2 10.5,-213.2 165.5,-213.2 165.5,-191.2 10.5,-191.2"/>
<text text-anchor="start" x="30.5" y="-198.3" font-family="Helvetica,sans-Serif" font-size="11.00" fill="#000000">foreground_color</text>
<polygon fill="none" stroke="#000000" points="165.5,-191.2 165.5,-213.2 259.5,-213.2 259.5,-191.2 165.5,-191.2"/>
<text text-anchor="start" x="168.5" y="-198.9" font-family="Helvetica,sans-Serif" font-size="11.00" fill="#000000">varchar[50]</text>
<polygon fill="none" stroke="#000000" points="10.5,-169.2 10.5,-191.2 165.5,-191.2 165.5,-169.2 10.5,-169.2"/>
<text text-anchor="start" x="30.5" y="-176.3" font-family="Helvetica,sans-Serif" font-size="11.00" fill="#000000">danger_background</text>
<polygon fill="none" stroke="#000000" points="165.5,-169.2 165.5,-191.2 259.5,-191.2 259.5,-169.2 165.5,-169.2"/>
<text text-anchor="start" x="168.5" y="-176.9" font-family="Helvetica,sans-Serif" font-size="11.00" fill="#000000">varchar[50]</text>
<polygon fill="none" stroke="#000000" points="10.5,-147.2 10.5,-169.2 165.5,-169.2 165.5,-147.2 10.5,-147.2"/>
<text text-anchor="start" x="30.5" y="-154.3" font-family="Helvetica,sans-Serif" font-size="11.00" fill="#000000">danger_foreground</text>
<polygon fill="none" stroke="#000000" points="165.5,-147.2 165.5,-169.2 259.5,-169.2 259.5,-147.2 165.5,-147.2"/>
<text text-anchor="start" x="168.5" y="-154.9" font-family="Helvetica,sans-Serif" font-size="11.00" fill="#000000">varchar[50]</text>
<polygon fill="none" stroke="#000000" points="10.5,-125.2 10.5,-147.2 165.5,-147.2 165.5,-125.2 10.5,-125.2"/>
<text text-anchor="start" x="30.5" y="-132.3" font-family="Helvetica,sans-Serif" font-size="11.00" fill="#000000">info_background</text>
<polygon fill="none" stroke="#000000" points="165.5,-125.2 165.5,-147.2 259.5,-147.2 259.5,-125.2 165.5,-125.2"/>
<text text-anchor="start" x="168.5" y="-132.9" font-family="Helvetica,sans-Serif" font-size="11.00" fill="#000000">varchar[50]</text>
<polygon fill="none" stroke="#000000" points="10.5,-103.2 10.5,-125.2 165.5,-125.2 165.5,-103.2 10.5,-103.2"/>
<text text-anchor="start" x="30.5" y="-110.3" font-family="Helvetica,sans-Serif" font-size="11.00" fill="#000000">info_foreground</text>
<polygon fill="none" stroke="#000000" points="165.5,-103.2 165.5,-125.2 259.5,-125.2 259.5,-103.2 165.5,-103.2"/>
<text text-anchor="start" x="168.5" y="-110.9" font-family="Helvetica,sans-Serif" font-size="11.00" fill="#000000">varchar[50]</text>
<polygon fill="none" stroke="#000000" points="10.5,-81.2 10.5,-103.2 165.5,-103.2 165.5,-81.2 10.5,-81.2"/>
<text text-anchor="start" x="30.5" y="-88.3" font-family="Helvetica,sans-Serif" font-size="11.00" fill="#000000">default_background</text>
<polygon fill="none" stroke="#000000" points="165.5,-81.2 165.5,-103.2 259.5,-103.2 259.5,-81.2 165.5,-81.2"/>
<text text-anchor="start" x="168.5" y="-88.9" font-family="Helvetica,sans-Serif" font-size="11.00" fill="#000000">varchar[50]</text>
<polygon fill="none" stroke="#000000" points="10.5,-59.2 10.5,-81.2 165.5,-81.2 165.5,-59.2 10.5,-59.2"/>
<text text-anchor="start" x="30.5" y="-66.3" font-family="Helvetica,sans-Serif" font-size="11.00" fill="#000000">default_foreground</text>
<polygon fill="none" stroke="#000000" points="165.5,-59.2 165.5,-81.2 259.5,-81.2 259.5,-59.2 165.5,-59.2"/>
<text text-anchor="start" x="168.5" y="-66.9" font-family="Helvetica,sans-Serif" font-size="11.00" fill="#000000">varchar[50]</text>
<polygon fill="#ffffff" stroke="transparent" points="10.5,-40.2 10.5,-59.2 79.5,-59.2 79.5,-40.2 10.5,-40.2"/>
<polygon fill="none" stroke="#000000" points="10.5,-40.2 10.5,-59.2 79.5,-59.2 79.5,-40.2 10.5,-40.2"/>
<text text-anchor="start" x="13.5" y="-46.3" font-family="Helvetica,sans-Serif" font-size="11.00" fill="#000000">&lt; 0</text>
<polygon fill="#ffffff" stroke="transparent" points="79.5,-40.2 79.5,-59.2 165.5,-59.2 165.5,-40.2 79.5,-40.2"/>
<polygon fill="none" stroke="#000000" points="79.5,-40.2 79.5,-59.2 165.5,-59.2 165.5,-40.2 79.5,-40.2"/>
<text text-anchor="start" x="130.1105" y="-46.3" font-family="Helvetica,sans-Serif" font-size="11.00" fill="#000000">0 rows</text>
<polygon fill="#ffffff" stroke="transparent" points="165.5,-40.2 165.5,-59.2 259.5,-59.2 259.5,-40.2 165.5,-40.2"/>
<polygon fill="none" stroke="#000000" points="165.5,-40.2 165.5,-59.2 259.5,-59.2 259.5,-40.2 165.5,-40.2"/>
<text text-anchor="start" x="240.9053" y="-46.3" font-family="Helvetica,sans-Serif" font-size="11.00" fill="#000000">1 &gt;</text>
<polygon fill="none" stroke="#000000" stroke-width="2" points="9,-39.2 9,-435.2 260,-435.2 260,-39.2 9,-39.2"/>
</a>
</g>
</g>
<!-- theme_member&#45;&gt;theme -->
<g id="edge1" class="edge">
<title>theme_member:w&#45;&gt;theme:e</title>
<path fill="none" stroke="#000000" d="M295.776,-400.2C283.7815,-400.2 276.3229,-400.2 259.5,-400.2"/>
<polygon fill="#000000" stroke="#000000" points="302.5,-400.2001 310.5,-403.8 306.5,-400.2 310.5,-400.2 310.5,-400.2 310.5,-400.2 306.5,-400.2 310.5,-396.6 302.5,-400.2001 302.5,-400.2001"/>
<ellipse fill="none" stroke="#000000" cx="299.3" cy="-400.2001" rx="3.2" ry="3.2"/>
</g>
</g>
</svg>
