<?xml version="1.0" encoding="UTF-8" standalone="no"?>
<!DOCTYPE svg PUBLIC "-//W3C//DTD SVG 1.1//EN"
 "http://www.w3.org/Graphics/SVG/1.1/DTD/svg11.dtd">
<!-- Generated by graphviz version 2.40.1 (20161225.0304)
 -->
<!-- Title: twoDegreesRelationshipsDiagram Pages: 1 -->
<svg width="451pt" height="431pt"
 viewBox="0.00 0.00 451.00 430.70" xmlns="http://www.w3.org/2000/svg" xmlns:xlink="http://www.w3.org/1999/xlink">
<g id="graph0" class="graph" transform="scale(1 1) rotate(0) translate(4 426.7)">
<title>twoDegreesRelationshipsDiagram</title>
<polygon fill="#ffffff" stroke="transparent" points="-4,4 -4,-426.7 447,-426.7 447,4 -4,4"/>
<text text-anchor="middle" x="72.4936" y="-7.3" font-family="Helvetica,sans-Serif" font-size="11.00" fill="#000000">Generated by SchemaSpy</text>
<!-- group_member -->
<g id="node1" class="node">
<title>group_member</title>
<g id="a_node1"><a xlink:href="../../tables/group_member.html" xlink:title="group_member" target="_top">
<polygon fill="#ffffff" stroke="transparent" points="253.5,-357.7 253.5,-418.7 393.5,-418.7 393.5,-357.7 253.5,-357.7"/>
<polygon fill="#f5f5f5" stroke="transparent" points="253.5,-395.2 253.5,-418.2 393.5,-418.2 393.5,-395.2 253.5,-395.2"/>
<polygon fill="none" stroke="#000000" points="253.5,-395.2 253.5,-418.2 393.5,-418.2 393.5,-395.2 253.5,-395.2"/>
<text text-anchor="start" x="258.5" y="-403.8" font-family="Helvetica,sans-Serif" font-weight="bold" font-size="11.00" fill="#000000">group_member</text>
<text text-anchor="start" x="359.0219" y="-403.3" font-family="Helvetica,sans-Serif" font-size="11.00" fill="#000000">[table]</text>
<polygon fill="none" stroke="#000000" points="253.5,-376.2 253.5,-395.2 393.5,-395.2 393.5,-376.2 253.5,-376.2"/>
<text text-anchor="start" x="256.5" y="-382.3" font-family="Helvetica,sans-Serif" font-size="11.00" fill="#000000">...</text>
<polygon fill="#ffffff" stroke="transparent" points="253.5,-357.2 253.5,-376.2 308.5,-376.2 308.5,-357.2 253.5,-357.2"/>
<polygon fill="none" stroke="#000000" points="253.5,-357.2 253.5,-376.2 308.5,-376.2 308.5,-357.2 253.5,-357.2"/>
<text text-anchor="start" x="256.5" y="-363.3" font-family="Helvetica,sans-Serif" font-size="11.00" fill="#000000">&lt; 2</text>
<polygon fill="#ffffff" stroke="transparent" points="308.5,-357.2 308.5,-376.2 363.5,-376.2 363.5,-357.2 308.5,-357.2"/>
<polygon fill="none" stroke="#000000" points="308.5,-357.2 308.5,-376.2 363.5,-376.2 363.5,-357.2 308.5,-357.2"/>
<text text-anchor="start" x="328.1105" y="-363.3" font-family="Helvetica,sans-Serif" font-size="11.00" fill="#000000">7 rows</text>
<polygon fill="#ffffff" stroke="transparent" points="363.5,-357.2 363.5,-376.2 393.5,-376.2 393.5,-357.2 363.5,-357.2"/>
<polygon fill="none" stroke="#000000" points="363.5,-357.2 363.5,-376.2 393.5,-376.2 393.5,-357.2 363.5,-357.2"/>
<text text-anchor="start" x="384.3862" y="-363.3" font-family="Helvetica,sans-Serif" font-size="11.00" fill="#000000"> &#160;</text>
</a>
</g>
</g>
<!-- member -->
<g id="node2" class="node">
<title>member</title>
<g id="a_node2"><a xlink:href="../../tables/member.html" xlink:title="member" target="_top">
<polygon fill="#ffffff" stroke="transparent" points="38.5,-200.7 38.5,-305.7 132.5,-305.7 132.5,-200.7 38.5,-200.7"/>
<polygon fill="#f5f5f5" stroke="transparent" points="38.5,-282.2 38.5,-305.2 132.5,-305.2 132.5,-282.2 38.5,-282.2"/>
<polygon fill="none" stroke="#000000" points="38.5,-282.2 38.5,-305.2 132.5,-305.2 132.5,-282.2 38.5,-282.2"/>
<text text-anchor="start" x="43.5" y="-290.8" font-family="Helvetica,sans-Serif" font-weight="bold" font-size="11.00" fill="#000000">member</text>
<text text-anchor="start" x="98.0219" y="-290.3" font-family="Helvetica,sans-Serif" font-size="11.00" fill="#000000">[table]</text>
<polygon fill="none" stroke="#000000" points="38.5,-260.2 38.5,-282.2 132.5,-282.2 132.5,-260.2 38.5,-260.2"/>
<image xlink:href="../../images/primaryKeys.png" width="11px" height="12px" preserveAspectRatio="xMinYMin meet" x="43.5" y="-277.2"/>
<text text-anchor="start" x="63.5" y="-267.3" font-family="Helvetica,sans-Serif" font-size="11.00" fill="#000000">id</text>
<polygon fill="#ffffff" stroke="transparent" points="38.5,-238.2 38.5,-260.2 132.5,-260.2 132.5,-238.2 38.5,-238.2"/>
<polygon fill="none" stroke="#000000" points="38.5,-238.2 38.5,-260.2 132.5,-260.2 132.5,-238.2 38.5,-238.2"/>
<text text-anchor="start" x="63.5" y="-245.3" font-family="Helvetica,sans-Serif" font-size="11.00" fill="#000000">name</text>
<polygon fill="none" stroke="#000000" points="38.5,-219.2 38.5,-238.2 132.5,-238.2 132.5,-219.2 38.5,-219.2"/>
<text text-anchor="start" x="41.5" y="-225.3" font-family="Helvetica,sans-Serif" font-size="11.00" fill="#000000">...</text>
<polygon fill="#ffffff" stroke="transparent" points="38.5,-200.2 38.5,-219.2 64.5,-219.2 64.5,-200.2 38.5,-200.2"/>
<polygon fill="none" stroke="#000000" points="38.5,-200.2 38.5,-219.2 64.5,-219.2 64.5,-200.2 38.5,-200.2"/>
<text text-anchor="start" x="41.5" y="-206.3" font-family="Helvetica,sans-Serif" font-size="11.00" fill="#000000"> &#160;</text>
<polygon fill="#ffffff" stroke="transparent" points="64.5,-200.2 64.5,-219.2 103.5,-219.2 103.5,-200.2 64.5,-200.2"/>
<polygon fill="none" stroke="#000000" points="64.5,-200.2 64.5,-219.2 103.5,-219.2 103.5,-200.2 64.5,-200.2"/>
<text text-anchor="start" x="73.6105" y="-206.3" font-family="Helvetica,sans-Serif" font-size="11.00" fill="#000000">1 row</text>
<polygon fill="#ffffff" stroke="transparent" points="103.5,-200.2 103.5,-219.2 132.5,-219.2 132.5,-200.2 103.5,-200.2"/>
<polygon fill="none" stroke="#000000" points="103.5,-200.2 103.5,-219.2 132.5,-219.2 132.5,-200.2 103.5,-200.2"/>
<text text-anchor="start" x="113.9053" y="-206.3" font-family="Helvetica,sans-Serif" font-size="11.00" fill="#000000">4 &gt;</text>
</a>
</g>
</g>
<!-- group_member&#45;&gt;member -->
<g id="edge1" class="edge">
<title>group_member:w&#45;&gt;member:e</title>
<path fill="none" stroke="#000000" d="M238.9828,-383.5C182.9576,-369.3188 201.0467,-271.2 132.5,-271.2"/>
<polygon fill="#000000" stroke="#000000" points="245.5543,-384.2695 253.0813,-388.7756 249.5271,-384.7347 253.5,-385.2 253.5,-385.2 253.5,-385.2 249.5271,-384.7347 253.9187,-381.6244 245.5543,-384.2695 245.5543,-384.2695"/>
<ellipse fill="none" stroke="#000000" cx="242.376" cy="-383.8973" rx="3.2" ry="3.2"/>
</g>
<!-- login -->
<g id="node3" class="node">
<title>login</title>
<g id="a_node3"><a xlink:href="../../tables/login.html" xlink:title="login" target="_top">
<polygon fill="#ffffff" stroke="transparent" points="287.5,-275.7 287.5,-336.7 359.5,-336.7 359.5,-275.7 287.5,-275.7"/>
<polygon fill="#f5f5f5" stroke="transparent" points="287.5,-313.2 287.5,-336.2 359.5,-336.2 359.5,-313.2 287.5,-313.2"/>
<polygon fill="none" stroke="#000000" points="287.5,-313.2 287.5,-336.2 359.5,-336.2 359.5,-313.2 287.5,-313.2"/>
<text text-anchor="start" x="292.5" y="-321.8" font-family="Helvetica,sans-Serif" font-weight="bold" font-size="11.00" fill="#000000">login</text>
<text text-anchor="start" x="325.0219" y="-321.3" font-family="Helvetica,sans-Serif" font-size="11.00" fill="#000000">[table]</text>
<polygon fill="none" stroke="#000000" points="287.5,-294.2 287.5,-313.2 359.5,-313.2 359.5,-294.2 287.5,-294.2"/>
<text text-anchor="start" x="290.5" y="-300.3" font-family="Helvetica,sans-Serif" font-size="11.00" fill="#000000">...</text>
<polygon fill="#ffffff" stroke="transparent" points="287.5,-275.2 287.5,-294.2 308.5,-294.2 308.5,-275.2 287.5,-275.2"/>
<polygon fill="none" stroke="#000000" points="287.5,-275.2 287.5,-294.2 308.5,-294.2 308.5,-275.2 287.5,-275.2"/>
<text text-anchor="start" x="290.2027" y="-281.3" font-family="Helvetica,sans-Serif" font-size="11.00" fill="#000000">&lt; 1</text>
<polygon fill="#ffffff" stroke="transparent" points="308.5,-275.2 308.5,-294.2 346.5,-294.2 346.5,-275.2 308.5,-275.2"/>
<polygon fill="none" stroke="#000000" points="308.5,-275.2 308.5,-294.2 346.5,-294.2 346.5,-275.2 308.5,-275.2"/>
<text text-anchor="start" x="311.3053" y="-281.3" font-family="Helvetica,sans-Serif" font-size="11.00" fill="#000000">3 rows</text>
<polygon fill="#ffffff" stroke="transparent" points="346.5,-275.2 346.5,-294.2 359.5,-294.2 359.5,-275.2 346.5,-275.2"/>
<polygon fill="none" stroke="#000000" points="346.5,-275.2 346.5,-294.2 359.5,-294.2 359.5,-275.2 346.5,-275.2"/>
<text text-anchor="start" x="350.3862" y="-281.3" font-family="Helvetica,sans-Serif" font-size="11.00" fill="#000000"> &#160;</text>
</a>
</g>
</g>
<!-- login&#45;&gt;member -->
<g id="edge2" class="edge">
<title>login:w&#45;&gt;member:e</title>
<path fill="none" stroke="#000000" d="M276.8227,-302.9424C215.4926,-299.914 199.1322,-271.2 132.5,-271.2"/>
<polygon fill="#000000" stroke="#000000" points="286.7967,-299.1819 286.6037,-307.1795 285.0042,-307.1409 285.1972,-299.1433 286.7967,-299.1819"/>
<polyline fill="none" stroke="#000000" points="287.5,-303.2 283.5012,-303.1035 "/>
<ellipse fill="none" stroke="#000000" cx="280.3021" cy="-303.0263" rx="3.2" ry="3.2"/>
</g>
<!-- note -->
<g id="node4" class="node">
<title>note</title>
<g id="a_node4"><a xlink:href="../../tables/note.html" xlink:title="note" target="_top">
<polygon fill="#ffffff" stroke="transparent" points="280.5,-193.7 280.5,-254.7 366.5,-254.7 366.5,-193.7 280.5,-193.7"/>
<polygon fill="#f5f5f5" stroke="transparent" points="280.5,-231.2 280.5,-254.2 366.5,-254.2 366.5,-231.2 280.5,-231.2"/>
<polygon fill="none" stroke="#000000" points="280.5,-231.2 280.5,-254.2 366.5,-254.2 366.5,-231.2 280.5,-231.2"/>
<text text-anchor="start" x="285.5" y="-239.8" font-family="Helvetica,sans-Serif" font-weight="bold" font-size="11.00" fill="#000000">note</text>
<text text-anchor="start" x="331.5437" y="-239.3" font-family="Helvetica,sans-Serif" font-size="11.00" fill="#000000">[table]</text>
<polygon fill="none" stroke="#000000" points="280.5,-212.2 280.5,-231.2 366.5,-231.2 366.5,-212.2 280.5,-212.2"/>
<text text-anchor="start" x="283.5" y="-218.3" font-family="Helvetica,sans-Serif" font-size="11.00" fill="#000000">...</text>
<polygon fill="#ffffff" stroke="transparent" points="280.5,-193.2 280.5,-212.2 301.5,-212.2 301.5,-193.2 280.5,-193.2"/>
<polygon fill="none" stroke="#000000" points="280.5,-193.2 280.5,-212.2 301.5,-212.2 301.5,-193.2 280.5,-193.2"/>
<text text-anchor="start" x="283.2027" y="-199.3" font-family="Helvetica,sans-Serif" font-size="11.00" fill="#000000">&lt; 2</text>
<polygon fill="#ffffff" stroke="transparent" points="301.5,-193.2 301.5,-212.2 345.5,-212.2 345.5,-193.2 301.5,-193.2"/>
<polygon fill="none" stroke="#000000" points="301.5,-193.2 301.5,-212.2 345.5,-212.2 345.5,-193.2 301.5,-193.2"/>
<text text-anchor="start" x="304.2478" y="-199.3" font-family="Helvetica,sans-Serif" font-size="11.00" fill="#000000">63 rows</text>
<polygon fill="#ffffff" stroke="transparent" points="345.5,-193.2 345.5,-212.2 366.5,-212.2 366.5,-193.2 345.5,-193.2"/>
<polygon fill="none" stroke="#000000" points="345.5,-193.2 345.5,-212.2 366.5,-212.2 366.5,-193.2 345.5,-193.2"/>
<text text-anchor="start" x="348.2027" y="-199.3" font-family="Helvetica,sans-Serif" font-size="11.00" fill="#000000">1 &gt;</text>
</a>
</g>
</g>
<!-- note&#45;&gt;member -->
<g id="edge3" class="edge">
<title>note:w&#45;&gt;member:e</title>
<path fill="none" stroke="#000000" d="M265.988,-221.9854C209.3811,-228.3465 196.7771,-271.2 132.5,-271.2"/>
<polygon fill="#000000" stroke="#000000" points="272.5117,-221.6324 280.6946,-224.7947 276.5058,-221.4162 280.5,-221.2 280.5,-221.2 280.5,-221.2 276.5058,-221.4162 280.3054,-217.6053 272.5117,-221.6324 272.5117,-221.6324"/>
<ellipse fill="none" stroke="#000000" cx="269.3164" cy="-221.8053" rx="3.2" ry="3.2"/>
</g>
<!-- theme_member -->
<g id="node5" class="node">
<title>theme_member</title>
<g id="a_node5"><a xlink:href="../../tables/theme_member.html" xlink:title="theme_member" target="_top">
<polygon fill="#ffffff" stroke="transparent" points="212,-38.2 212,-172.2 435,-172.2 435,-38.2 212,-38.2"/>
<polygon fill="#f5f5f5" stroke="transparent" points="214.5,-147.2 214.5,-170.2 433.5,-170.2 433.5,-147.2 214.5,-147.2"/>
<polygon fill="none" stroke="#000000" points="214.5,-147.2 214.5,-170.2 433.5,-170.2 433.5,-147.2 214.5,-147.2"/>
<text text-anchor="start" x="219.5" y="-155.8" font-family="Helvetica,sans-Serif" font-weight="bold" font-size="11.00" fill="#000000">theme_member</text>
<text text-anchor="start" x="398.5437" y="-155.3" font-family="Helvetica,sans-Serif" font-size="11.00" fill="#000000">[table]</text>
<polygon fill="none" stroke="#000000" points="214.5,-125.2 214.5,-147.2 339.5,-147.2 339.5,-125.2 214.5,-125.2"/>
<image xlink:href="../../images/primaryKeys.png" width="11px" height="12px" preserveAspectRatio="xMinYMin meet" x="219.5" y="-142.2"/>
<text text-anchor="start" x="234.5" y="-132.3" font-family="Helvetica,sans-Serif" font-size="11.00" fill="#000000">id</text>
<polygon fill="none" stroke="#000000" points="339.5,-125.2 339.5,-147.2 433.5,-147.2 433.5,-125.2 339.5,-125.2"/>
<text text-anchor="start" x="342.5" y="-132.9" font-family="Helvetica,sans-Serif" font-size="11.00" fill="#000000">bigserial[19]</text>
<polygon fill="#ffffff" stroke="transparent" points="214.5,-103.2 214.5,-125.2 339.5,-125.2 339.5,-103.2 214.5,-103.2"/>
<polygon fill="none" stroke="#000000" points="214.5,-103.2 214.5,-125.2 339.5,-125.2 339.5,-103.2 214.5,-103.2"/>
<image xlink:href="../../images/foreignKeys.png" width="11px" height="12px" preserveAspectRatio="xMinYMin meet" x="219.5" y="-120.2"/>
<text text-anchor="start" x="234.5" y="-110.3" font-family="Helvetica,sans-Serif" font-size="11.00" fill="#000000">theme</text>
<polygon fill="none" stroke="#000000" points="339.5,-103.2 339.5,-125.2 433.5,-125.2 433.5,-103.2 339.5,-103.2"/>
<text text-anchor="start" x="342.4758" y="-110.9" font-family="Helvetica,sans-Serif" font-size="11.00" fill="#000000">uuid[2147483647]</text>
<polygon fill="#ffffff" stroke="transparent" points="214.5,-81.2 214.5,-103.2 339.5,-103.2 339.5,-81.2 214.5,-81.2"/>
<polygon fill="none" stroke="#000000" points="214.5,-81.2 214.5,-103.2 339.5,-103.2 339.5,-81.2 214.5,-81.2"/>
<image xlink:href="../../images/foreignKeys.png" width="11px" height="12px" preserveAspectRatio="xMinYMin meet" x="219.5" y="-98.2"/>
<text text-anchor="start" x="234.5" y="-88.3" font-family="Helvetica,sans-Serif" font-size="11.00" fill="#000000">member</text>
<polygon fill="none" stroke="#000000" points="339.5,-81.2 339.5,-103.2 433.5,-103.2 433.5,-81.2 339.5,-81.2"/>
<text text-anchor="start" x="342.4758" y="-88.9" font-family="Helvetica,sans-Serif" font-size="11.00" fill="#000000">uuid[2147483647]</text>
<polygon fill="none" stroke="#000000" points="214.5,-59.2 214.5,-81.2 339.5,-81.2 339.5,-59.2 214.5,-59.2"/>
<text text-anchor="start" x="234.5" y="-66.3" font-family="Helvetica,sans-Serif" font-size="11.00" fill="#000000">isactive</text>
<polygon fill="none" stroke="#000000" points="339.5,-59.2 339.5,-81.2 433.5,-81.2 433.5,-59.2 339.5,-59.2"/>
<text text-anchor="start" x="342.5" y="-66.9" font-family="Helvetica,sans-Serif" font-size="11.00" fill="#000000">int4[10]</text>
<polygon fill="#ffffff" stroke="transparent" points="214.5,-40.2 214.5,-59.2 265.5,-59.2 265.5,-40.2 214.5,-40.2"/>
<polygon fill="none" stroke="#000000" points="214.5,-40.2 214.5,-59.2 265.5,-59.2 265.5,-40.2 214.5,-40.2"/>
<text text-anchor="start" x="217.5" y="-46.3" font-family="Helvetica,sans-Serif" font-size="11.00" fill="#000000">&lt; 2</text>
<polygon fill="#ffffff" stroke="transparent" points="265.5,-40.2 265.5,-59.2 339.5,-59.2 339.5,-40.2 265.5,-40.2"/>
<polygon fill="none" stroke="#000000" points="265.5,-40.2 265.5,-59.2 339.5,-59.2 339.5,-40.2 265.5,-40.2"/>
<text text-anchor="start" x="297.9956" y="-46.3" font-family="Helvetica,sans-Serif" font-size="11.00" fill="#000000">30 rows</text>
<polygon fill="#ffffff" stroke="transparent" points="339.5,-40.2 339.5,-59.2 433.5,-59.2 433.5,-40.2 339.5,-40.2"/>
<polygon fill="none" stroke="#000000" points="339.5,-40.2 339.5,-59.2 433.5,-59.2 433.5,-40.2 339.5,-40.2"/>
<text text-anchor="start" x="414.9053" y="-46.3" font-family="Helvetica,sans-Serif" font-size="11.00" fill="#000000">0 &gt;</text>
<polygon fill="none" stroke="#000000" stroke-width="2" points="213,-39.2 213,-171.2 434,-171.2 434,-39.2 213,-39.2"/>
</a>
</g>
</g>
<!-- theme_member&#45;&gt;member -->
<g id="edge4" class="edge">
<title>theme_member:w&#45;&gt;member:e</title>
<path fill="none" stroke="#000000" d="M200.1199,-94.2103C137.9154,-113.8758 214.5368,-271.2 132.5,-271.2"/>
<polygon fill="#000000" stroke="#000000" points="206.577,-93.3076 214.9984,-95.7653 210.5385,-92.7538 214.5,-92.2 214.5,-92.2 214.5,-92.2 210.5385,-92.7538 214.0016,-88.6347 206.577,-93.3076 206.577,-93.3076"/>
<ellipse fill="none" stroke="#000000" cx="203.4079" cy="-93.7507" rx="3.2" ry="3.2"/>
</g>
<!-- theme -->
<g id="node6" class="node">
<title>theme</title>
<g id="a_node6"><a xlink:href="../../tables/theme.html" xlink:title="theme" target="_top">
<polygon fill="#ffffff" stroke="transparent" points="8,-43.7 8,-148.7 163,-148.7 163,-43.7 8,-43.7"/>
<polygon fill="#f5f5f5" stroke="transparent" points="8.5,-125.2 8.5,-148.2 163.5,-148.2 163.5,-125.2 8.5,-125.2"/>
<polygon fill="none" stroke="#000000" points="8.5,-125.2 8.5,-148.2 163.5,-148.2 163.5,-125.2 8.5,-125.2"/>
<text text-anchor="start" x="13.5" y="-133.8" font-family="Helvetica,sans-Serif" font-weight="bold" font-size="11.00" fill="#000000">theme</text>
<text text-anchor="start" x="128.5437" y="-133.3" font-family="Helvetica,sans-Serif" font-size="11.00" fill="#000000">[table]</text>
<polygon fill="none" stroke="#000000" points="8.5,-103.2 8.5,-125.2 163.5,-125.2 163.5,-103.2 8.5,-103.2"/>
<image xlink:href="../../images/primaryKeys.png" width="11px" height="12px" preserveAspectRatio="xMinYMin meet" x="13.5" y="-120.2"/>
<text text-anchor="start" x="28.5" y="-110.3" font-family="Helvetica,sans-Serif" font-size="11.00" fill="#000000">id</text>
<polygon fill="#ffffff" stroke="transparent" points="8.5,-81.2 8.5,-103.2 163.5,-103.2 163.5,-81.2 8.5,-81.2"/>
<polygon fill="none" stroke="#000000" points="8.5,-81.2 8.5,-103.2 163.5,-103.2 163.5,-81.2 8.5,-81.2"/>
<text text-anchor="start" x="28.5" y="-88.3" font-family="Helvetica,sans-Serif" font-size="11.00" fill="#000000">name</text>
<polygon fill="none" stroke="#000000" points="8.5,-62.2 8.5,-81.2 163.5,-81.2 163.5,-62.2 8.5,-62.2"/>
<text text-anchor="start" x="11.5" y="-68.3" font-family="Helvetica,sans-Serif" font-size="11.00" fill="#000000">...</text>
<polygon fill="#ffffff" stroke="transparent" points="8.5,-43.2 8.5,-62.2 62.5,-62.2 62.5,-43.2 8.5,-43.2"/>
<polygon fill="none" stroke="#000000" points="8.5,-43.2 8.5,-62.2 62.5,-62.2 62.5,-43.2 8.5,-43.2"/>
<text text-anchor="start" x="11.5" y="-49.3" font-family="Helvetica,sans-Serif" font-size="11.00" fill="#000000"> &#160;</text>
<polygon fill="#ffffff" stroke="transparent" points="62.5,-43.2 62.5,-62.2 121.5,-62.2 121.5,-43.2 62.5,-43.2"/>
<polygon fill="none" stroke="#000000" points="62.5,-43.2 62.5,-62.2 121.5,-62.2 121.5,-43.2 62.5,-43.2"/>
<text text-anchor="start" x="86.1105" y="-49.3" font-family="Helvetica,sans-Serif" font-size="11.00" fill="#000000">0 rows</text>
<polygon fill="#ffffff" stroke="transparent" points="121.5,-43.2 121.5,-62.2 163.5,-62.2 163.5,-43.2 121.5,-43.2"/>
<polygon fill="none" stroke="#000000" points="121.5,-43.2 121.5,-62.2 163.5,-62.2 163.5,-43.2 121.5,-43.2"/>
<text text-anchor="start" x="144.9053" y="-49.3" font-family="Helvetica,sans-Serif" font-size="11.00" fill="#000000">1 &gt;</text>
</a>
</g>
</g>
<!-- theme_member&#45;&gt;theme -->
<g id="edge5" class="edge">
<title>theme_member:w&#45;&gt;theme:e</title>
<path fill="none" stroke="#000000" d="M199.776,-114.2C187.7815,-114.2 180.3229,-114.2 163.5,-114.2"/>
<polygon fill="#000000" stroke="#000000" points="206.5,-114.2001 214.5,-117.8 210.5,-114.2 214.5,-114.2 214.5,-114.2 214.5,-114.2 210.5,-114.2 214.5,-110.6 206.5,-114.2001 206.5,-114.2001"/>
<ellipse fill="none" stroke="#000000" cx="203.3" cy="-114.2001" rx="3.2" ry="3.2"/>
</g>
</g>
</svg>
