<?xml version="1.0" encoding="UTF-8" standalone="no"?>
<!DOCTYPE svg PUBLIC "-//W3C//DTD SVG 1.1//EN"
 "http://www.w3.org/Graphics/SVG/1.1/DTD/svg11.dtd">
<!-- Generated by graphviz version 2.40.1 (20161225.0304)
 -->
<!-- Title: twoDegreesRelationshipsDiagram Pages: 1 -->
<svg width="469pt" height="531pt"
 viewBox="0.00 0.00 469.00 530.70" xmlns="http://www.w3.org/2000/svg" xmlns:xlink="http://www.w3.org/1999/xlink">
<g id="graph0" class="graph" transform="scale(1 1) rotate(0) translate(4 526.7)">
<title>twoDegreesRelationshipsDiagram</title>
<polygon fill="#ffffff" stroke="transparent" points="-4,4 -4,-526.7 465,-526.7 465,4 -4,4"/>
<text text-anchor="middle" x="72.4936" y="-7.3" font-family="Helvetica,sans-Serif" font-size="11.00" fill="#000000">Generated by SchemaSpy</text>
<!-- theme_member -->
<g id="node1" class="node">
<title>theme_member</title>
<g id="a_node1"><a xlink:href="../../tables/theme_member.html" xlink:title="theme_member" target="_top">
<polygon fill="#ffffff" stroke="transparent" points="310,-214.2 310,-341.2 453,-341.2 453,-214.2 310,-214.2"/>
<polygon fill="#f5f5f5" stroke="transparent" points="310.5,-317.7 310.5,-340.7 453.5,-340.7 453.5,-317.7 310.5,-317.7"/>
<polygon fill="none" stroke="#000000" points="310.5,-317.7 310.5,-340.7 453.5,-340.7 453.5,-317.7 310.5,-317.7"/>
<text text-anchor="start" x="315.5" y="-326.3" font-family="Helvetica,sans-Serif" font-weight="bold" font-size="11.00" fill="#000000">theme_member</text>
<text text-anchor="start" x="419.0219" y="-325.8" font-family="Helvetica,sans-Serif" font-size="11.00" fill="#000000">[table]</text>
<polygon fill="none" stroke="#000000" points="310.5,-295.7 310.5,-317.7 453.5,-317.7 453.5,-295.7 310.5,-295.7"/>
<image xlink:href="../../images/primaryKeys.png" width="11px" height="12px" preserveAspectRatio="xMinYMin meet" x="315.5" y="-312.7"/>
<text text-anchor="start" x="339.5" y="-302.8" font-family="Helvetica,sans-Serif" font-size="11.00" fill="#000000">id</text>
<polygon fill="#ffffff" stroke="transparent" points="310.5,-273.7 310.5,-295.7 453.5,-295.7 453.5,-273.7 310.5,-273.7"/>
<polygon fill="none" stroke="#000000" points="310.5,-273.7 310.5,-295.7 453.5,-295.7 453.5,-273.7 310.5,-273.7"/>
<image xlink:href="../../images/foreignKeys.png" width="11px" height="12px" preserveAspectRatio="xMinYMin meet" x="315.5" y="-290.7"/>
<text text-anchor="start" x="339.5" y="-280.8" font-family="Helvetica,sans-Serif" font-size="11.00" fill="#000000">theme</text>
<polygon fill="#ffffff" stroke="transparent" points="310.5,-251.7 310.5,-273.7 453.5,-273.7 453.5,-251.7 310.5,-251.7"/>
<polygon fill="none" stroke="#000000" points="310.5,-251.7 310.5,-273.7 453.5,-273.7 453.5,-251.7 310.5,-251.7"/>
<image xlink:href="../../images/foreignKeys.png" width="11px" height="12px" preserveAspectRatio="xMinYMin meet" x="315.5" y="-268.7"/>
<text text-anchor="start" x="339.5" y="-258.8" font-family="Helvetica,sans-Serif" font-size="11.00" fill="#000000">member</text>
<polygon fill="none" stroke="#000000" points="310.5,-232.7 310.5,-251.7 453.5,-251.7 453.5,-232.7 310.5,-232.7"/>
<text text-anchor="start" x="313.5" y="-238.8" font-family="Helvetica,sans-Serif" font-size="11.00" fill="#000000">...</text>
<polygon fill="#ffffff" stroke="transparent" points="310.5,-213.7 310.5,-232.7 364.5,-232.7 364.5,-213.7 310.5,-213.7"/>
<polygon fill="none" stroke="#000000" points="310.5,-213.7 310.5,-232.7 364.5,-232.7 364.5,-213.7 310.5,-213.7"/>
<text text-anchor="start" x="313.5" y="-219.8" font-family="Helvetica,sans-Serif" font-size="11.00" fill="#000000">&lt; 2</text>
<polygon fill="#ffffff" stroke="transparent" points="364.5,-213.7 364.5,-232.7 424.5,-232.7 424.5,-213.7 364.5,-213.7"/>
<polygon fill="none" stroke="#000000" points="364.5,-213.7 364.5,-232.7 424.5,-232.7 424.5,-213.7 364.5,-213.7"/>
<text text-anchor="start" x="382.9956" y="-219.8" font-family="Helvetica,sans-Serif" font-size="11.00" fill="#000000">30 rows</text>
<polygon fill="#ffffff" stroke="transparent" points="424.5,-213.7 424.5,-232.7 453.5,-232.7 453.5,-213.7 424.5,-213.7"/>
<polygon fill="none" stroke="#000000" points="424.5,-213.7 424.5,-232.7 453.5,-232.7 453.5,-213.7 424.5,-213.7"/>
<text text-anchor="start" x="444.3862" y="-219.8" font-family="Helvetica,sans-Serif" font-size="11.00" fill="#000000"> &#160;</text>
</a>
</g>
</g>
<!-- member -->
<g id="node2" class="node">
<title>member</title>
<g id="a_node2"><a xlink:href="../../tables/member.html" xlink:title="member" target="_top">
<polygon fill="#ffffff" stroke="transparent" points="87.5,-38.2 87.5,-99.2 181.5,-99.2 181.5,-38.2 87.5,-38.2"/>
<polygon fill="#f5f5f5" stroke="transparent" points="87.5,-75.7 87.5,-98.7 181.5,-98.7 181.5,-75.7 87.5,-75.7"/>
<polygon fill="none" stroke="#000000" points="87.5,-75.7 87.5,-98.7 181.5,-98.7 181.5,-75.7 87.5,-75.7"/>
<text text-anchor="start" x="92.5" y="-84.3" font-family="Helvetica,sans-Serif" font-weight="bold" font-size="11.00" fill="#000000">member</text>
<text text-anchor="start" x="147.0219" y="-83.8" font-family="Helvetica,sans-Serif" font-size="11.00" fill="#000000">[table]</text>
<polygon fill="none" stroke="#000000" points="87.5,-56.7 87.5,-75.7 181.5,-75.7 181.5,-56.7 87.5,-56.7"/>
<text text-anchor="start" x="90.5" y="-62.8" font-family="Helvetica,sans-Serif" font-size="11.00" fill="#000000">...</text>
<polygon fill="#ffffff" stroke="transparent" points="87.5,-37.7 87.5,-56.7 113.5,-56.7 113.5,-37.7 87.5,-37.7"/>
<polygon fill="none" stroke="#000000" points="87.5,-37.7 87.5,-56.7 113.5,-56.7 113.5,-37.7 87.5,-37.7"/>
<text text-anchor="start" x="90.5" y="-43.8" font-family="Helvetica,sans-Serif" font-size="11.00" fill="#000000"> &#160;</text>
<polygon fill="#ffffff" stroke="transparent" points="113.5,-37.7 113.5,-56.7 152.5,-56.7 152.5,-37.7 113.5,-37.7"/>
<polygon fill="none" stroke="#000000" points="113.5,-37.7 113.5,-56.7 152.5,-56.7 152.5,-37.7 113.5,-37.7"/>
<text text-anchor="start" x="122.6105" y="-43.8" font-family="Helvetica,sans-Serif" font-size="11.00" fill="#000000">1 row</text>
<polygon fill="#ffffff" stroke="transparent" points="152.5,-37.7 152.5,-56.7 181.5,-56.7 181.5,-37.7 152.5,-37.7"/>
<polygon fill="none" stroke="#000000" points="152.5,-37.7 152.5,-56.7 181.5,-56.7 181.5,-37.7 152.5,-37.7"/>
<text text-anchor="start" x="162.9053" y="-43.8" font-family="Helvetica,sans-Serif" font-size="11.00" fill="#000000">4 &gt;</text>
</a>
</g>
</g>
<!-- theme_member&#45;&gt;member -->
<g id="edge1" class="edge">
<title>theme_member:w&#45;&gt;member:e</title>
<path fill="none" stroke="#000000" d="M296.2091,-260.8795C251.0613,-247.217 310,-159.8994 269,-109.7 241.4649,-75.9867 225.0289,-65.7 181.5,-65.7"/>
<polygon fill="#000000" stroke="#000000" points="302.5641,-261.689 310.0451,-266.2711 306.5321,-262.1945 310.5,-262.7 310.5,-262.7 310.5,-262.7 306.5321,-262.1945 310.9549,-259.1289 302.5641,-261.689 302.5641,-261.689"/>
<ellipse fill="none" stroke="#000000" cx="299.3898" cy="-261.2846" rx="3.2" ry="3.2"/>
</g>
<!-- theme -->
<g id="node3" class="node">
<title>theme</title>
<g id="a_node3"><a xlink:href="../../tables/theme.html" xlink:title="theme" target="_top">
<polygon fill="#ffffff" stroke="transparent" points="8,-120.7 8,-518.7 261,-518.7 261,-120.7 8,-120.7"/>
<polygon fill="#f5f5f5" stroke="transparent" points="10.5,-493.7 10.5,-516.7 259.5,-516.7 259.5,-493.7 10.5,-493.7"/>
<polygon fill="none" stroke="#000000" points="10.5,-493.7 10.5,-516.7 259.5,-516.7 259.5,-493.7 10.5,-493.7"/>
<text text-anchor="start" x="15.5" y="-502.3" font-family="Helvetica,sans-Serif" font-weight="bold" font-size="11.00" fill="#000000">theme</text>
<text text-anchor="start" x="224.5437" y="-501.8" font-family="Helvetica,sans-Serif" font-size="11.00" fill="#000000">[table]</text>
<polygon fill="none" stroke="#000000" points="10.5,-471.7 10.5,-493.7 165.5,-493.7 165.5,-471.7 10.5,-471.7"/>
<image xlink:href="../../images/primaryKeys.png" width="11px" height="12px" preserveAspectRatio="xMinYMin meet" x="15.5" y="-488.7"/>
<text text-anchor="start" x="30.5" y="-478.8" font-family="Helvetica,sans-Serif" font-size="11.00" fill="#000000">id</text>
<polygon fill="none" stroke="#000000" points="165.5,-471.7 165.5,-493.7 259.5,-493.7 259.5,-471.7 165.5,-471.7"/>
<text text-anchor="start" x="168.4758" y="-479.4" font-family="Helvetica,sans-Serif" font-size="11.00" fill="#000000">uuid[2147483647]</text>
<polygon fill="#ffffff" stroke="transparent" points="10.5,-449.7 10.5,-471.7 165.5,-471.7 165.5,-449.7 10.5,-449.7"/>
<polygon fill="none" stroke="#000000" points="10.5,-449.7 10.5,-471.7 165.5,-471.7 165.5,-449.7 10.5,-449.7"/>
<text text-anchor="start" x="30.5" y="-456.8" font-family="Helvetica,sans-Serif" font-size="11.00" fill="#000000">name</text>
<polygon fill="none" stroke="#000000" points="165.5,-449.7 165.5,-471.7 259.5,-471.7 259.5,-449.7 165.5,-449.7"/>
<text text-anchor="start" x="168.5" y="-457.4" font-family="Helvetica,sans-Serif" font-size="11.00" fill="#000000">varchar[255]</text>
<polygon fill="none" stroke="#000000" points="10.5,-427.7 10.5,-449.7 165.5,-449.7 165.5,-427.7 10.5,-427.7"/>
<text text-anchor="start" x="30.5" y="-434.8" font-family="Helvetica,sans-Serif" font-size="11.00" fill="#000000">background_color</text>
<polygon fill="none" stroke="#000000" points="165.5,-427.7 165.5,-449.7 259.5,-449.7 259.5,-427.7 165.5,-427.7"/>
<text text-anchor="start" x="168.5" y="-435.4" font-family="Helvetica,sans-Serif" font-size="11.00" fill="#000000">varchar[255]</text>
<polygon fill="none" stroke="#000000" points="10.5,-405.7 10.5,-427.7 165.5,-427.7 165.5,-405.7 10.5,-405.7"/>
<text text-anchor="start" x="30.5" y="-412.8" font-family="Helvetica,sans-Serif" font-size="11.00" fill="#000000">background_images</text>
<polygon fill="none" stroke="#000000" points="165.5,-405.7 165.5,-427.7 259.5,-427.7 259.5,-405.7 165.5,-405.7"/>
<text text-anchor="start" x="168.5" y="-413.4" font-family="Helvetica,sans-Serif" font-size="11.00" fill="#000000">varchar[255]</text>
<polygon fill="none" stroke="#000000" points="10.5,-383.7 10.5,-405.7 165.5,-405.7 165.5,-383.7 10.5,-383.7"/>
<text text-anchor="start" x="30.5" y="-390.8" font-family="Helvetica,sans-Serif" font-size="11.00" fill="#000000">border_color</text>
<polygon fill="none" stroke="#000000" points="165.5,-383.7 165.5,-405.7 259.5,-405.7 259.5,-383.7 165.5,-383.7"/>
<text text-anchor="start" x="168.5" y="-391.4" font-family="Helvetica,sans-Serif" font-size="11.00" fill="#000000">varchar[255]</text>
<polygon fill="none" stroke="#000000" points="10.5,-361.7 10.5,-383.7 165.5,-383.7 165.5,-361.7 10.5,-361.7"/>
<text text-anchor="start" x="30.5" y="-368.8" font-family="Helvetica,sans-Serif" font-size="11.00" fill="#000000">note_background</text>
<polygon fill="none" stroke="#000000" points="165.5,-361.7 165.5,-383.7 259.5,-383.7 259.5,-361.7 165.5,-361.7"/>
<text text-anchor="start" x="168.5" y="-369.4" font-family="Helvetica,sans-Serif" font-size="11.00" fill="#000000">varchar[255]</text>
<polygon fill="none" stroke="#000000" points="10.5,-339.7 10.5,-361.7 165.5,-361.7 165.5,-339.7 10.5,-339.7"/>
<text text-anchor="start" x="30.5" y="-346.8" font-family="Helvetica,sans-Serif" font-size="11.00" fill="#000000">note_foreground</text>
<polygon fill="none" stroke="#000000" points="165.5,-339.7 165.5,-361.7 259.5,-361.7 259.5,-339.7 165.5,-339.7"/>
<text text-anchor="start" x="168.5" y="-347.4" font-family="Helvetica,sans-Serif" font-size="11.00" fill="#000000">varchar[255]</text>
<polygon fill="none" stroke="#000000" points="10.5,-317.7 10.5,-339.7 165.5,-339.7 165.5,-317.7 10.5,-317.7"/>
<text text-anchor="start" x="30.5" y="-324.8" font-family="Helvetica,sans-Serif" font-size="11.00" fill="#000000">createdby</text>
<polygon fill="none" stroke="#000000" points="165.5,-317.7 165.5,-339.7 259.5,-339.7 259.5,-317.7 165.5,-317.7"/>
<text text-anchor="start" x="168.5" y="-325.4" font-family="Helvetica,sans-Serif" font-size="11.00" fill="#000000">varchar[300]</text>
<polygon fill="none" stroke="#000000" points="10.5,-295.7 10.5,-317.7 165.5,-317.7 165.5,-295.7 10.5,-295.7"/>
<text text-anchor="start" x="30.5" y="-302.8" font-family="Helvetica,sans-Serif" font-size="11.00" fill="#000000">createddate</text>
<polygon fill="none" stroke="#000000" points="165.5,-295.7 165.5,-317.7 259.5,-317.7 259.5,-295.7 165.5,-295.7"/>
<text text-anchor="start" x="168.5" y="-303.4" font-family="Helvetica,sans-Serif" font-size="11.00" fill="#000000">timestamp[29,6]</text>
<polygon fill="none" stroke="#000000" points="10.5,-273.7 10.5,-295.7 165.5,-295.7 165.5,-273.7 10.5,-273.7"/>
<text text-anchor="start" x="30.5" y="-280.8" font-family="Helvetica,sans-Serif" font-size="11.00" fill="#000000">foreground_color</text>
<polygon fill="none" stroke="#000000" points="165.5,-273.7 165.5,-295.7 259.5,-295.7 259.5,-273.7 165.5,-273.7"/>
<text text-anchor="start" x="168.5" y="-281.4" font-family="Helvetica,sans-Serif" font-size="11.00" fill="#000000">varchar[50]</text>
<polygon fill="none" stroke="#000000" points="10.5,-251.7 10.5,-273.7 165.5,-273.7 165.5,-251.7 10.5,-251.7"/>
<text text-anchor="start" x="30.5" y="-258.8" font-family="Helvetica,sans-Serif" font-size="11.00" fill="#000000">danger_background</text>
<polygon fill="none" stroke="#000000" points="165.5,-251.7 165.5,-273.7 259.5,-273.7 259.5,-251.7 165.5,-251.7"/>
<text text-anchor="start" x="168.5" y="-259.4" font-family="Helvetica,sans-Serif" font-size="11.00" fill="#000000">varchar[50]</text>
<polygon fill="none" stroke="#000000" points="10.5,-229.7 10.5,-251.7 165.5,-251.7 165.5,-229.7 10.5,-229.7"/>
<text text-anchor="start" x="30.5" y="-236.8" font-family="Helvetica,sans-Serif" font-size="11.00" fill="#000000">danger_foreground</text>
<polygon fill="none" stroke="#000000" points="165.5,-229.7 165.5,-251.7 259.5,-251.7 259.5,-229.7 165.5,-229.7"/>
<text text-anchor="start" x="168.5" y="-237.4" font-family="Helvetica,sans-Serif" font-size="11.00" fill="#000000">varchar[50]</text>
<polygon fill="none" stroke="#000000" points="10.5,-207.7 10.5,-229.7 165.5,-229.7 165.5,-207.7 10.5,-207.7"/>
<text text-anchor="start" x="30.5" y="-214.8" font-family="Helvetica,sans-Serif" font-size="11.00" fill="#000000">info_background</text>
<polygon fill="none" stroke="#000000" points="165.5,-207.7 165.5,-229.7 259.5,-229.7 259.5,-207.7 165.5,-207.7"/>
<text text-anchor="start" x="168.5" y="-215.4" font-family="Helvetica,sans-Serif" font-size="11.00" fill="#000000">varchar[50]</text>
<polygon fill="none" stroke="#000000" points="10.5,-185.7 10.5,-207.7 165.5,-207.7 165.5,-185.7 10.5,-185.7"/>
<text text-anchor="start" x="30.5" y="-192.8" font-family="Helvetica,sans-Serif" font-size="11.00" fill="#000000">info_foreground</text>
<polygon fill="none" stroke="#000000" points="165.5,-185.7 165.5,-207.7 259.5,-207.7 259.5,-185.7 165.5,-185.7"/>
<text text-anchor="start" x="168.5" y="-193.4" font-family="Helvetica,sans-Serif" font-size="11.00" fill="#000000">varchar[50]</text>
<polygon fill="none" stroke="#000000" points="10.5,-163.7 10.5,-185.7 165.5,-185.7 165.5,-163.7 10.5,-163.7"/>
<text text-anchor="start" x="30.5" y="-170.8" font-family="Helvetica,sans-Serif" font-size="11.00" fill="#000000">default_background</text>
<polygon fill="none" stroke="#000000" points="165.5,-163.7 165.5,-185.7 259.5,-185.7 259.5,-163.7 165.5,-163.7"/>
<text text-anchor="start" x="168.5" y="-171.4" font-family="Helvetica,sans-Serif" font-size="11.00" fill="#000000">varchar[50]</text>
<polygon fill="none" stroke="#000000" points="10.5,-141.7 10.5,-163.7 165.5,-163.7 165.5,-141.7 10.5,-141.7"/>
<text text-anchor="start" x="30.5" y="-148.8" font-family="Helvetica,sans-Serif" font-size="11.00" fill="#000000">default_foreground</text>
<polygon fill="none" stroke="#000000" points="165.5,-141.7 165.5,-163.7 259.5,-163.7 259.5,-141.7 165.5,-141.7"/>
<text text-anchor="start" x="168.5" y="-149.4" font-family="Helvetica,sans-Serif" font-size="11.00" fill="#000000">varchar[50]</text>
<polygon fill="#ffffff" stroke="transparent" points="10.5,-122.7 10.5,-141.7 79.5,-141.7 79.5,-122.7 10.5,-122.7"/>
<polygon fill="none" stroke="#000000" points="10.5,-122.7 10.5,-141.7 79.5,-141.7 79.5,-122.7 10.5,-122.7"/>
<text text-anchor="start" x="13.5" y="-128.8" font-family="Helvetica,sans-Serif" font-size="11.00" fill="#000000">&lt; 0</text>
<polygon fill="#ffffff" stroke="transparent" points="79.5,-122.7 79.5,-141.7 165.5,-141.7 165.5,-122.7 79.5,-122.7"/>
<polygon fill="none" stroke="#000000" points="79.5,-122.7 79.5,-141.7 165.5,-141.7 165.5,-122.7 79.5,-122.7"/>
<text text-anchor="start" x="130.1105" y="-128.8" font-family="Helvetica,sans-Serif" font-size="11.00" fill="#000000">0 rows</text>
<polygon fill="#ffffff" stroke="transparent" points="165.5,-122.7 165.5,-141.7 259.5,-141.7 259.5,-122.7 165.5,-122.7"/>
<polygon fill="none" stroke="#000000" points="165.5,-122.7 165.5,-141.7 259.5,-141.7 259.5,-122.7 165.5,-122.7"/>
<text text-anchor="start" x="240.9053" y="-128.8" font-family="Helvetica,sans-Serif" font-size="11.00" fill="#000000">1 &gt;</text>
<polygon fill="none" stroke="#000000" stroke-width="2" points="9,-121.7 9,-517.7 260,-517.7 260,-121.7 9,-121.7"/>
</a>
</g>
</g>
<!-- theme_member&#45;&gt;theme -->
<g id="edge2" class="edge">
<title>theme_member:w&#45;&gt;theme:e</title>
<path fill="none" stroke="#000000" d="M295.9503,-286.9236C235.1051,-308.6766 344.6928,-482.7 259.5,-482.7"/>
<polygon fill="#000000" stroke="#000000" points="302.5918,-285.9087 311.0439,-288.2587 306.5459,-285.3043 310.5,-284.7 310.5,-284.7 310.5,-284.7 306.5459,-285.3043 309.9561,-281.1413 302.5918,-285.9087 302.5918,-285.9087"/>
<ellipse fill="none" stroke="#000000" cx="299.4286" cy="-286.3921" rx="3.2" ry="3.2"/>
</g>
</g>
</svg>
