<?xml version="1.0" encoding="UTF-8" standalone="no"?>
<!DOCTYPE svg PUBLIC "-//W3C//DTD SVG 1.1//EN"
 "http://www.w3.org/Graphics/SVG/1.1/DTD/svg11.dtd">
<!-- Generated by graphviz version 2.40.1 (20161225.0304)
 -->
<!-- Title: oneDegreeRelationshipsDiagram Pages: 1 -->
<svg width="451pt" height="281pt"
 viewBox="0.00 0.00 451.00 281.20" xmlns="http://www.w3.org/2000/svg" xmlns:xlink="http://www.w3.org/1999/xlink">
<g id="graph0" class="graph" transform="scale(1 1) rotate(0) translate(4 277.2)">
<title>oneDegreeRelationshipsDiagram</title>
<polygon fill="#ffffff" stroke="transparent" points="-4,4 -4,-277.2 447,-277.2 447,4 -4,4"/>
<text text-anchor="middle" x="72.4936" y="-7.3" font-family="Helvetica,sans-Serif" font-size="11.00" fill="#000000">Generated by SchemaSpy</text>
<!-- theme_member -->
<g id="node1" class="node">
<title>theme_member</title>
<g id="a_node1"><a xlink:href="../../tables/theme_member.html" xlink:title="theme_member" target="_top">
<polygon fill="#ffffff" stroke="transparent" points="212,-106.7 212,-240.7 435,-240.7 435,-106.7 212,-106.7"/>
<polygon fill="#f5f5f5" stroke="transparent" points="214.5,-215.7 214.5,-238.7 433.5,-238.7 433.5,-215.7 214.5,-215.7"/>
<polygon fill="none" stroke="#000000" points="214.5,-215.7 214.5,-238.7 433.5,-238.7 433.5,-215.7 214.5,-215.7"/>
<text text-anchor="start" x="219.5" y="-224.3" font-family="Helvetica,sans-Serif" font-weight="bold" font-size="11.00" fill="#000000">theme_member</text>
<text text-anchor="start" x="398.5437" y="-223.8" font-family="Helvetica,sans-Serif" font-size="11.00" fill="#000000">[table]</text>
<polygon fill="none" stroke="#000000" points="214.5,-193.7 214.5,-215.7 339.5,-215.7 339.5,-193.7 214.5,-193.7"/>
<image xlink:href="../../images/primaryKeys.png" width="11px" height="12px" preserveAspectRatio="xMinYMin meet" x="219.5" y="-210.7"/>
<text text-anchor="start" x="234.5" y="-200.8" font-family="Helvetica,sans-Serif" font-size="11.00" fill="#000000">id</text>
<polygon fill="none" stroke="#000000" points="339.5,-193.7 339.5,-215.7 433.5,-215.7 433.5,-193.7 339.5,-193.7"/>
<text text-anchor="start" x="342.5" y="-201.4" font-family="Helvetica,sans-Serif" font-size="11.00" fill="#000000">bigserial[19]</text>
<polygon fill="#ffffff" stroke="transparent" points="214.5,-171.7 214.5,-193.7 339.5,-193.7 339.5,-171.7 214.5,-171.7"/>
<polygon fill="none" stroke="#000000" points="214.5,-171.7 214.5,-193.7 339.5,-193.7 339.5,-171.7 214.5,-171.7"/>
<image xlink:href="../../images/foreignKeys.png" width="11px" height="12px" preserveAspectRatio="xMinYMin meet" x="219.5" y="-188.7"/>
<text text-anchor="start" x="234.5" y="-178.8" font-family="Helvetica,sans-Serif" font-size="11.00" fill="#000000">theme</text>
<polygon fill="none" stroke="#000000" points="339.5,-171.7 339.5,-193.7 433.5,-193.7 433.5,-171.7 339.5,-171.7"/>
<text text-anchor="start" x="342.4758" y="-179.4" font-family="Helvetica,sans-Serif" font-size="11.00" fill="#000000">uuid[2147483647]</text>
<polygon fill="#ffffff" stroke="transparent" points="214.5,-149.7 214.5,-171.7 339.5,-171.7 339.5,-149.7 214.5,-149.7"/>
<polygon fill="none" stroke="#000000" points="214.5,-149.7 214.5,-171.7 339.5,-171.7 339.5,-149.7 214.5,-149.7"/>
<image xlink:href="../../images/foreignKeys.png" width="11px" height="12px" preserveAspectRatio="xMinYMin meet" x="219.5" y="-166.7"/>
<text text-anchor="start" x="234.5" y="-156.8" font-family="Helvetica,sans-Serif" font-size="11.00" fill="#000000">member</text>
<polygon fill="none" stroke="#000000" points="339.5,-149.7 339.5,-171.7 433.5,-171.7 433.5,-149.7 339.5,-149.7"/>
<text text-anchor="start" x="342.4758" y="-157.4" font-family="Helvetica,sans-Serif" font-size="11.00" fill="#000000">uuid[2147483647]</text>
<polygon fill="none" stroke="#000000" points="214.5,-127.7 214.5,-149.7 339.5,-149.7 339.5,-127.7 214.5,-127.7"/>
<text text-anchor="start" x="234.5" y="-134.8" font-family="Helvetica,sans-Serif" font-size="11.00" fill="#000000">isactive</text>
<polygon fill="none" stroke="#000000" points="339.5,-127.7 339.5,-149.7 433.5,-149.7 433.5,-127.7 339.5,-127.7"/>
<text text-anchor="start" x="342.5" y="-135.4" font-family="Helvetica,sans-Serif" font-size="11.00" fill="#000000">int4[10]</text>
<polygon fill="#ffffff" stroke="transparent" points="214.5,-108.7 214.5,-127.7 265.5,-127.7 265.5,-108.7 214.5,-108.7"/>
<polygon fill="none" stroke="#000000" points="214.5,-108.7 214.5,-127.7 265.5,-127.7 265.5,-108.7 214.5,-108.7"/>
<text text-anchor="start" x="217.5" y="-114.8" font-family="Helvetica,sans-Serif" font-size="11.00" fill="#000000">&lt; 2</text>
<polygon fill="#ffffff" stroke="transparent" points="265.5,-108.7 265.5,-127.7 339.5,-127.7 339.5,-108.7 265.5,-108.7"/>
<polygon fill="none" stroke="#000000" points="265.5,-108.7 265.5,-127.7 339.5,-127.7 339.5,-108.7 265.5,-108.7"/>
<text text-anchor="start" x="297.9956" y="-114.8" font-family="Helvetica,sans-Serif" font-size="11.00" fill="#000000">30 rows</text>
<polygon fill="#ffffff" stroke="transparent" points="339.5,-108.7 339.5,-127.7 433.5,-127.7 433.5,-108.7 339.5,-108.7"/>
<polygon fill="none" stroke="#000000" points="339.5,-108.7 339.5,-127.7 433.5,-127.7 433.5,-108.7 339.5,-108.7"/>
<text text-anchor="start" x="414.9053" y="-114.8" font-family="Helvetica,sans-Serif" font-size="11.00" fill="#000000">0 &gt;</text>
<polygon fill="none" stroke="#000000" stroke-width="2" points="213,-107.7 213,-239.7 434,-239.7 434,-107.7 213,-107.7"/>
</a>
</g>
</g>
<!-- member -->
<g id="node2" class="node">
<title>member</title>
<g id="a_node2"><a xlink:href="../../tables/member.html" xlink:title="member" target="_top">
<polygon fill="#ffffff" stroke="transparent" points="38.5,-38.2 38.5,-143.2 132.5,-143.2 132.5,-38.2 38.5,-38.2"/>
<polygon fill="#f5f5f5" stroke="transparent" points="38.5,-119.7 38.5,-142.7 132.5,-142.7 132.5,-119.7 38.5,-119.7"/>
<polygon fill="none" stroke="#000000" points="38.5,-119.7 38.5,-142.7 132.5,-142.7 132.5,-119.7 38.5,-119.7"/>
<text text-anchor="start" x="43.5" y="-128.3" font-family="Helvetica,sans-Serif" font-weight="bold" font-size="11.00" fill="#000000">member</text>
<text text-anchor="start" x="98.0219" y="-127.8" font-family="Helvetica,sans-Serif" font-size="11.00" fill="#000000">[table]</text>
<polygon fill="none" stroke="#000000" points="38.5,-97.7 38.5,-119.7 132.5,-119.7 132.5,-97.7 38.5,-97.7"/>
<image xlink:href="../../images/primaryKeys.png" width="11px" height="12px" preserveAspectRatio="xMinYMin meet" x="43.5" y="-114.7"/>
<text text-anchor="start" x="63.5" y="-104.8" font-family="Helvetica,sans-Serif" font-size="11.00" fill="#000000">id</text>
<polygon fill="#ffffff" stroke="transparent" points="38.5,-75.7 38.5,-97.7 132.5,-97.7 132.5,-75.7 38.5,-75.7"/>
<polygon fill="none" stroke="#000000" points="38.5,-75.7 38.5,-97.7 132.5,-97.7 132.5,-75.7 38.5,-75.7"/>
<text text-anchor="start" x="63.5" y="-82.8" font-family="Helvetica,sans-Serif" font-size="11.00" fill="#000000">name</text>
<polygon fill="none" stroke="#000000" points="38.5,-56.7 38.5,-75.7 132.5,-75.7 132.5,-56.7 38.5,-56.7"/>
<text text-anchor="start" x="41.5" y="-62.8" font-family="Helvetica,sans-Serif" font-size="11.00" fill="#000000">...</text>
<polygon fill="#ffffff" stroke="transparent" points="38.5,-37.7 38.5,-56.7 64.5,-56.7 64.5,-37.7 38.5,-37.7"/>
<polygon fill="none" stroke="#000000" points="38.5,-37.7 38.5,-56.7 64.5,-56.7 64.5,-37.7 38.5,-37.7"/>
<text text-anchor="start" x="41.5" y="-43.8" font-family="Helvetica,sans-Serif" font-size="11.00" fill="#000000"> &#160;</text>
<polygon fill="#ffffff" stroke="transparent" points="64.5,-37.7 64.5,-56.7 103.5,-56.7 103.5,-37.7 64.5,-37.7"/>
<polygon fill="none" stroke="#000000" points="64.5,-37.7 64.5,-56.7 103.5,-56.7 103.5,-37.7 64.5,-37.7"/>
<text text-anchor="start" x="73.6105" y="-43.8" font-family="Helvetica,sans-Serif" font-size="11.00" fill="#000000">1 row</text>
<polygon fill="#ffffff" stroke="transparent" points="103.5,-37.7 103.5,-56.7 132.5,-56.7 132.5,-37.7 103.5,-37.7"/>
<polygon fill="none" stroke="#000000" points="103.5,-37.7 103.5,-56.7 132.5,-56.7 132.5,-37.7 103.5,-37.7"/>
<text text-anchor="start" x="113.9053" y="-43.8" font-family="Helvetica,sans-Serif" font-size="11.00" fill="#000000">4 &gt;</text>
</a>
</g>
</g>
<!-- theme_member&#45;&gt;member -->
<g id="edge1" class="edge">
<title>theme_member:w&#45;&gt;member:e</title>
<path fill="none" stroke="#000000" d="M199.9741,-158.3305C171.6677,-148.1578 170.0917,-108.7 132.5,-108.7"/>
<polygon fill="#000000" stroke="#000000" points="206.6044,-159.412 213.9204,-164.253 210.5522,-160.056 214.5,-160.7 214.5,-160.7 214.5,-160.7 210.5522,-160.056 215.0796,-157.147 206.6044,-159.412 206.6044,-159.412"/>
<ellipse fill="none" stroke="#000000" cx="203.4461" cy="-158.8968" rx="3.2" ry="3.2"/>
</g>
<!-- theme -->
<g id="node3" class="node">
<title>theme</title>
<g id="a_node3"><a xlink:href="../../tables/theme.html" xlink:title="theme" target="_top">
<polygon fill="#ffffff" stroke="transparent" points="8,-164.2 8,-269.2 163,-269.2 163,-164.2 8,-164.2"/>
<polygon fill="#f5f5f5" stroke="transparent" points="8.5,-245.7 8.5,-268.7 163.5,-268.7 163.5,-245.7 8.5,-245.7"/>
<polygon fill="none" stroke="#000000" points="8.5,-245.7 8.5,-268.7 163.5,-268.7 163.5,-245.7 8.5,-245.7"/>
<text text-anchor="start" x="13.5" y="-254.3" font-family="Helvetica,sans-Serif" font-weight="bold" font-size="11.00" fill="#000000">theme</text>
<text text-anchor="start" x="128.5437" y="-253.8" font-family="Helvetica,sans-Serif" font-size="11.00" fill="#000000">[table]</text>
<polygon fill="none" stroke="#000000" points="8.5,-223.7 8.5,-245.7 163.5,-245.7 163.5,-223.7 8.5,-223.7"/>
<image xlink:href="../../images/primaryKeys.png" width="11px" height="12px" preserveAspectRatio="xMinYMin meet" x="13.5" y="-240.7"/>
<text text-anchor="start" x="28.5" y="-230.8" font-family="Helvetica,sans-Serif" font-size="11.00" fill="#000000">id</text>
<polygon fill="#ffffff" stroke="transparent" points="8.5,-201.7 8.5,-223.7 163.5,-223.7 163.5,-201.7 8.5,-201.7"/>
<polygon fill="none" stroke="#000000" points="8.5,-201.7 8.5,-223.7 163.5,-223.7 163.5,-201.7 8.5,-201.7"/>
<text text-anchor="start" x="28.5" y="-208.8" font-family="Helvetica,sans-Serif" font-size="11.00" fill="#000000">name</text>
<polygon fill="none" stroke="#000000" points="8.5,-182.7 8.5,-201.7 163.5,-201.7 163.5,-182.7 8.5,-182.7"/>
<text text-anchor="start" x="11.5" y="-188.8" font-family="Helvetica,sans-Serif" font-size="11.00" fill="#000000">...</text>
<polygon fill="#ffffff" stroke="transparent" points="8.5,-163.7 8.5,-182.7 62.5,-182.7 62.5,-163.7 8.5,-163.7"/>
<polygon fill="none" stroke="#000000" points="8.5,-163.7 8.5,-182.7 62.5,-182.7 62.5,-163.7 8.5,-163.7"/>
<text text-anchor="start" x="11.5" y="-169.8" font-family="Helvetica,sans-Serif" font-size="11.00" fill="#000000"> &#160;</text>
<polygon fill="#ffffff" stroke="transparent" points="62.5,-163.7 62.5,-182.7 121.5,-182.7 121.5,-163.7 62.5,-163.7"/>
<polygon fill="none" stroke="#000000" points="62.5,-163.7 62.5,-182.7 121.5,-182.7 121.5,-163.7 62.5,-163.7"/>
<text text-anchor="start" x="86.1105" y="-169.8" font-family="Helvetica,sans-Serif" font-size="11.00" fill="#000000">0 rows</text>
<polygon fill="#ffffff" stroke="transparent" points="121.5,-163.7 121.5,-182.7 163.5,-182.7 163.5,-163.7 121.5,-163.7"/>
<polygon fill="none" stroke="#000000" points="121.5,-163.7 121.5,-182.7 163.5,-182.7 163.5,-163.7 121.5,-163.7"/>
<text text-anchor="start" x="144.9053" y="-169.8" font-family="Helvetica,sans-Serif" font-size="11.00" fill="#000000">1 &gt;</text>
</a>
</g>
</g>
<!-- theme_member&#45;&gt;theme -->
<g id="edge2" class="edge">
<title>theme_member:w&#45;&gt;theme:e</title>
<path fill="none" stroke="#000000" d="M200.5468,-187.4988C185.661,-200.3719 189.8017,-234.7 163.5,-234.7"/>
<polygon fill="#000000" stroke="#000000" points="206.9349,-185.3018 215.6708,-186.1043 210.7175,-184.0009 214.5,-182.7 214.5,-182.7 214.5,-182.7 210.7175,-184.0009 213.3292,-179.2957 206.9349,-185.3018 206.9349,-185.3018"/>
<ellipse fill="none" stroke="#000000" cx="203.9089" cy="-186.3426" rx="3.2" ry="3.2"/>
</g>
</g>
</svg>
