<?xml version="1.0" encoding="UTF-8" standalone="no"?>
<!DOCTYPE svg PUBLIC "-//W3C//DTD SVG 1.1//EN"
 "http://www.w3.org/Graphics/SVG/1.1/DTD/svg11.dtd">
<!-- Generated by graphviz version 2.40.1 (20161225.0304)
 -->
<!-- Title: largeRelationshipsDiagram Pages: 1 -->
<svg width="596pt" height="1290pt"
 viewBox="0.00 0.00 596.00 1290.20" xmlns="http://www.w3.org/2000/svg" xmlns:xlink="http://www.w3.org/1999/xlink">
<g id="graph0" class="graph" transform="scale(1 1) rotate(0) translate(4 1286.2)">
<title>largeRelationshipsDiagram</title>
<polygon fill="#ffffff" stroke="transparent" points="-4,4 -4,-1286.2 592,-1286.2 592,4 -4,4"/>
<text text-anchor="middle" x="72.4936" y="-7.3" font-family="Helvetica,sans-Serif" font-size="11.00" fill="#000000">Generated by SchemaSpy</text>
<!-- subtype -->
<g id="node1" class="node">
<title>subtype</title>
<g id="a_node1"><a xlink:href="../../tables/subtype.html" xlink:title="subtype" target="_top">
<polygon fill="#ffffff" stroke="transparent" points="39,-767.2 39,-875.2 132,-875.2 132,-767.2 39,-767.2"/>
<polygon fill="#f5f5f5" stroke="transparent" points="39.5,-852.2 39.5,-875.2 132.5,-875.2 132.5,-852.2 39.5,-852.2"/>
<polygon fill="none" stroke="#000000" points="39.5,-852.2 39.5,-875.2 132.5,-875.2 132.5,-852.2 39.5,-852.2"/>
<text text-anchor="start" x="44.5" y="-860.8" font-family="Helvetica,sans-Serif" font-weight="bold" font-size="11.00" fill="#000000">subtype</text>
<text text-anchor="start" x="98.0219" y="-860.3" font-family="Helvetica,sans-Serif" font-size="11.00" fill="#000000">[table]</text>
<polygon fill="none" stroke="#000000" points="39.5,-830.2 39.5,-852.2 132.5,-852.2 132.5,-830.2 39.5,-830.2"/>
<image xlink:href="../../images/primaryKeys.png" width="11px" height="12px" preserveAspectRatio="xMinYMin meet" x="44.5" y="-847.2"/>
<text text-anchor="start" x="68.5" y="-837.3" font-family="Helvetica,sans-Serif" font-size="11.00" fill="#000000">id</text>
<polygon fill="#ffffff" stroke="transparent" points="39.5,-808.2 39.5,-830.2 132.5,-830.2 132.5,-808.2 39.5,-808.2"/>
<polygon fill="none" stroke="#000000" points="39.5,-808.2 39.5,-830.2 132.5,-830.2 132.5,-808.2 39.5,-808.2"/>
<text text-anchor="start" x="68.5" y="-815.3" font-family="Helvetica,sans-Serif" font-size="11.00" fill="#000000">name</text>
<polygon fill="none" stroke="#000000" points="39.5,-786.2 39.5,-808.2 132.5,-808.2 132.5,-786.2 39.5,-786.2"/>
<text text-anchor="start" x="68.5" y="-793.3" font-family="Helvetica,sans-Serif" font-size="11.00" fill="#000000">color</text>
<polygon fill="#ffffff" stroke="transparent" points="39.5,-767.2 39.5,-786.2 62.5,-786.2 62.5,-767.2 39.5,-767.2"/>
<polygon fill="none" stroke="#000000" points="39.5,-767.2 39.5,-786.2 62.5,-786.2 62.5,-767.2 39.5,-767.2"/>
<text text-anchor="start" x="42.5" y="-773.3" font-family="Helvetica,sans-Serif" font-size="11.00" fill="#000000"> &#160;</text>
<polygon fill="#ffffff" stroke="transparent" points="62.5,-767.2 62.5,-786.2 105.5,-786.2 105.5,-767.2 62.5,-767.2"/>
<polygon fill="none" stroke="#000000" points="62.5,-767.2 62.5,-786.2 105.5,-786.2 105.5,-767.2 62.5,-767.2"/>
<text text-anchor="start" x="70.1105" y="-773.3" font-family="Helvetica,sans-Serif" font-size="11.00" fill="#000000">9 rows</text>
<polygon fill="#ffffff" stroke="transparent" points="105.5,-767.2 105.5,-786.2 132.5,-786.2 132.5,-767.2 105.5,-767.2"/>
<polygon fill="none" stroke="#000000" points="105.5,-767.2 105.5,-786.2 132.5,-786.2 132.5,-767.2 105.5,-767.2"/>
<text text-anchor="start" x="113.9053" y="-773.3" font-family="Helvetica,sans-Serif" font-size="11.00" fill="#000000">2 &gt;</text>
</a>
</g>
</g>
<!-- theme_member -->
<g id="node2" class="node">
<title>theme_member</title>
<g id="a_node2"><a xlink:href="../../tables/theme_member.html" xlink:title="theme_member" target="_top">
<polygon fill="#ffffff" stroke="transparent" points="212,-324.2 212,-454.2 355,-454.2 355,-324.2 212,-324.2"/>
<polygon fill="#f5f5f5" stroke="transparent" points="212.5,-431.2 212.5,-454.2 355.5,-454.2 355.5,-431.2 212.5,-431.2"/>
<polygon fill="none" stroke="#000000" points="212.5,-431.2 212.5,-454.2 355.5,-454.2 355.5,-431.2 212.5,-431.2"/>
<text text-anchor="start" x="217.5" y="-439.8" font-family="Helvetica,sans-Serif" font-weight="bold" font-size="11.00" fill="#000000">theme_member</text>
<text text-anchor="start" x="321.0219" y="-439.3" font-family="Helvetica,sans-Serif" font-size="11.00" fill="#000000">[table]</text>
<polygon fill="none" stroke="#000000" points="212.5,-409.2 212.5,-431.2 355.5,-431.2 355.5,-409.2 212.5,-409.2"/>
<image xlink:href="../../images/primaryKeys.png" width="11px" height="12px" preserveAspectRatio="xMinYMin meet" x="217.5" y="-426.2"/>
<text text-anchor="start" x="241.5" y="-416.3" font-family="Helvetica,sans-Serif" font-size="11.00" fill="#000000">id</text>
<polygon fill="#ffffff" stroke="transparent" points="212.5,-387.2 212.5,-409.2 355.5,-409.2 355.5,-387.2 212.5,-387.2"/>
<polygon fill="none" stroke="#000000" points="212.5,-387.2 212.5,-409.2 355.5,-409.2 355.5,-387.2 212.5,-387.2"/>
<image xlink:href="../../images/foreignKeys.png" width="11px" height="12px" preserveAspectRatio="xMinYMin meet" x="217.5" y="-404.2"/>
<text text-anchor="start" x="241.5" y="-394.3" font-family="Helvetica,sans-Serif" font-size="11.00" fill="#000000">theme</text>
<polygon fill="#ffffff" stroke="transparent" points="212.5,-365.2 212.5,-387.2 355.5,-387.2 355.5,-365.2 212.5,-365.2"/>
<polygon fill="none" stroke="#000000" points="212.5,-365.2 212.5,-387.2 355.5,-387.2 355.5,-365.2 212.5,-365.2"/>
<image xlink:href="../../images/foreignKeys.png" width="11px" height="12px" preserveAspectRatio="xMinYMin meet" x="217.5" y="-382.2"/>
<text text-anchor="start" x="241.5" y="-372.3" font-family="Helvetica,sans-Serif" font-size="11.00" fill="#000000">member</text>
<polygon fill="none" stroke="#000000" points="212.5,-343.2 212.5,-365.2 355.5,-365.2 355.5,-343.2 212.5,-343.2"/>
<text text-anchor="start" x="241.5" y="-350.3" font-family="Helvetica,sans-Serif" font-size="11.00" fill="#000000">isactive</text>
<polygon fill="#ffffff" stroke="transparent" points="212.5,-324.2 212.5,-343.2 266.5,-343.2 266.5,-324.2 212.5,-324.2"/>
<polygon fill="none" stroke="#000000" points="212.5,-324.2 212.5,-343.2 266.5,-343.2 266.5,-324.2 212.5,-324.2"/>
<text text-anchor="start" x="215.5" y="-330.3" font-family="Helvetica,sans-Serif" font-size="11.00" fill="#000000">&lt; 2</text>
<polygon fill="#ffffff" stroke="transparent" points="266.5,-324.2 266.5,-343.2 326.5,-343.2 326.5,-324.2 266.5,-324.2"/>
<polygon fill="none" stroke="#000000" points="266.5,-324.2 266.5,-343.2 326.5,-343.2 326.5,-324.2 266.5,-324.2"/>
<text text-anchor="start" x="284.9956" y="-330.3" font-family="Helvetica,sans-Serif" font-size="11.00" fill="#000000">30 rows</text>
<polygon fill="#ffffff" stroke="transparent" points="326.5,-324.2 326.5,-343.2 355.5,-343.2 355.5,-324.2 326.5,-324.2"/>
<polygon fill="none" stroke="#000000" points="326.5,-324.2 326.5,-343.2 355.5,-343.2 355.5,-324.2 326.5,-324.2"/>
<text text-anchor="start" x="346.3862" y="-330.3" font-family="Helvetica,sans-Serif" font-size="11.00" fill="#000000"> &#160;</text>
</a>
</g>
</g>
<!-- theme -->
<g id="node6" class="node">
<title>theme</title>
<g id="a_node6"><a xlink:href="../../tables/theme.html" xlink:title="theme" target="_top">
<polygon fill="#ffffff" stroke="transparent" points="8,-38.2 8,-432.2 163,-432.2 163,-38.2 8,-38.2"/>
<polygon fill="#f5f5f5" stroke="transparent" points="8.5,-409.2 8.5,-432.2 163.5,-432.2 163.5,-409.2 8.5,-409.2"/>
<polygon fill="none" stroke="#000000" points="8.5,-409.2 8.5,-432.2 163.5,-432.2 163.5,-409.2 8.5,-409.2"/>
<text text-anchor="start" x="13.5" y="-417.8" font-family="Helvetica,sans-Serif" font-weight="bold" font-size="11.00" fill="#000000">theme</text>
<text text-anchor="start" x="128.5437" y="-417.3" font-family="Helvetica,sans-Serif" font-size="11.00" fill="#000000">[table]</text>
<polygon fill="none" stroke="#000000" points="8.5,-387.2 8.5,-409.2 163.5,-409.2 163.5,-387.2 8.5,-387.2"/>
<image xlink:href="../../images/primaryKeys.png" width="11px" height="12px" preserveAspectRatio="xMinYMin meet" x="13.5" y="-404.2"/>
<text text-anchor="start" x="28.5" y="-394.3" font-family="Helvetica,sans-Serif" font-size="11.00" fill="#000000">id</text>
<polygon fill="#ffffff" stroke="transparent" points="8.5,-365.2 8.5,-387.2 163.5,-387.2 163.5,-365.2 8.5,-365.2"/>
<polygon fill="none" stroke="#000000" points="8.5,-365.2 8.5,-387.2 163.5,-387.2 163.5,-365.2 8.5,-365.2"/>
<text text-anchor="start" x="28.5" y="-372.3" font-family="Helvetica,sans-Serif" font-size="11.00" fill="#000000">name</text>
<polygon fill="none" stroke="#000000" points="8.5,-343.2 8.5,-365.2 163.5,-365.2 163.5,-343.2 8.5,-343.2"/>
<text text-anchor="start" x="28.5" y="-350.3" font-family="Helvetica,sans-Serif" font-size="11.00" fill="#000000">background_color</text>
<polygon fill="none" stroke="#000000" points="8.5,-321.2 8.5,-343.2 163.5,-343.2 163.5,-321.2 8.5,-321.2"/>
<text text-anchor="start" x="28.5" y="-328.3" font-family="Helvetica,sans-Serif" font-size="11.00" fill="#000000">background_images</text>
<polygon fill="none" stroke="#000000" points="8.5,-299.2 8.5,-321.2 163.5,-321.2 163.5,-299.2 8.5,-299.2"/>
<text text-anchor="start" x="28.5" y="-306.3" font-family="Helvetica,sans-Serif" font-size="11.00" fill="#000000">border_color</text>
<polygon fill="none" stroke="#000000" points="8.5,-277.2 8.5,-299.2 163.5,-299.2 163.5,-277.2 8.5,-277.2"/>
<text text-anchor="start" x="28.5" y="-284.3" font-family="Helvetica,sans-Serif" font-size="11.00" fill="#000000">note_background</text>
<polygon fill="none" stroke="#000000" points="8.5,-255.2 8.5,-277.2 163.5,-277.2 163.5,-255.2 8.5,-255.2"/>
<text text-anchor="start" x="28.5" y="-262.3" font-family="Helvetica,sans-Serif" font-size="11.00" fill="#000000">note_foreground</text>
<polygon fill="none" stroke="#000000" points="8.5,-233.2 8.5,-255.2 163.5,-255.2 163.5,-233.2 8.5,-233.2"/>
<text text-anchor="start" x="28.5" y="-240.3" font-family="Helvetica,sans-Serif" font-size="11.00" fill="#000000">createdby</text>
<polygon fill="none" stroke="#000000" points="8.5,-211.2 8.5,-233.2 163.5,-233.2 163.5,-211.2 8.5,-211.2"/>
<text text-anchor="start" x="28.5" y="-218.3" font-family="Helvetica,sans-Serif" font-size="11.00" fill="#000000">createddate</text>
<polygon fill="none" stroke="#000000" points="8.5,-189.2 8.5,-211.2 163.5,-211.2 163.5,-189.2 8.5,-189.2"/>
<text text-anchor="start" x="28.5" y="-196.3" font-family="Helvetica,sans-Serif" font-size="11.00" fill="#000000">foreground_color</text>
<polygon fill="none" stroke="#000000" points="8.5,-167.2 8.5,-189.2 163.5,-189.2 163.5,-167.2 8.5,-167.2"/>
<text text-anchor="start" x="28.5" y="-174.3" font-family="Helvetica,sans-Serif" font-size="11.00" fill="#000000">danger_background</text>
<polygon fill="none" stroke="#000000" points="8.5,-145.2 8.5,-167.2 163.5,-167.2 163.5,-145.2 8.5,-145.2"/>
<text text-anchor="start" x="28.5" y="-152.3" font-family="Helvetica,sans-Serif" font-size="11.00" fill="#000000">danger_foreground</text>
<polygon fill="none" stroke="#000000" points="8.5,-123.2 8.5,-145.2 163.5,-145.2 163.5,-123.2 8.5,-123.2"/>
<text text-anchor="start" x="28.5" y="-130.3" font-family="Helvetica,sans-Serif" font-size="11.00" fill="#000000">info_background</text>
<polygon fill="none" stroke="#000000" points="8.5,-101.2 8.5,-123.2 163.5,-123.2 163.5,-101.2 8.5,-101.2"/>
<text text-anchor="start" x="28.5" y="-108.3" font-family="Helvetica,sans-Serif" font-size="11.00" fill="#000000">info_foreground</text>
<polygon fill="none" stroke="#000000" points="8.5,-79.2 8.5,-101.2 163.5,-101.2 163.5,-79.2 8.5,-79.2"/>
<text text-anchor="start" x="28.5" y="-86.3" font-family="Helvetica,sans-Serif" font-size="11.00" fill="#000000">default_background</text>
<polygon fill="none" stroke="#000000" points="8.5,-57.2 8.5,-79.2 163.5,-79.2 163.5,-57.2 8.5,-57.2"/>
<text text-anchor="start" x="28.5" y="-64.3" font-family="Helvetica,sans-Serif" font-size="11.00" fill="#000000">default_foreground</text>
<polygon fill="#ffffff" stroke="transparent" points="8.5,-38.2 8.5,-57.2 62.5,-57.2 62.5,-38.2 8.5,-38.2"/>
<polygon fill="none" stroke="#000000" points="8.5,-38.2 8.5,-57.2 62.5,-57.2 62.5,-38.2 8.5,-38.2"/>
<text text-anchor="start" x="11.5" y="-44.3" font-family="Helvetica,sans-Serif" font-size="11.00" fill="#000000"> &#160;</text>
<polygon fill="#ffffff" stroke="transparent" points="62.5,-38.2 62.5,-57.2 121.5,-57.2 121.5,-38.2 62.5,-38.2"/>
<polygon fill="none" stroke="#000000" points="62.5,-38.2 62.5,-57.2 121.5,-57.2 121.5,-38.2 62.5,-38.2"/>
<text text-anchor="start" x="86.1105" y="-44.3" font-family="Helvetica,sans-Serif" font-size="11.00" fill="#000000">0 rows</text>
<polygon fill="#ffffff" stroke="transparent" points="121.5,-38.2 121.5,-57.2 163.5,-57.2 163.5,-38.2 121.5,-38.2"/>
<polygon fill="none" stroke="#000000" points="121.5,-38.2 121.5,-57.2 163.5,-57.2 163.5,-38.2 121.5,-38.2"/>
<text text-anchor="start" x="144.9053" y="-44.3" font-family="Helvetica,sans-Serif" font-size="11.00" fill="#000000">1 &gt;</text>
</a>
</g>
</g>
<!-- theme_member&#45;&gt;theme -->
<g id="edge11" class="edge">
<title>theme_member:w&#45;&gt;theme:e</title>
<path fill="none" stroke="#000000" d="M197.9909,-398.2C186.6774,-398.2 179.4931,-398.2 163.5,-398.2"/>
<polygon fill="#000000" stroke="#000000" points="204.5,-398.2001 212.5,-401.8 208.5,-398.2 212.5,-398.2 212.5,-398.2 212.5,-398.2 208.5,-398.2 212.5,-394.6 204.5,-398.2001 204.5,-398.2001"/>
<ellipse fill="none" stroke="#000000" cx="201.3" cy="-398.2001" rx="3.2" ry="3.2"/>
</g>
<!-- member -->
<g id="node10" class="node">
<title>member</title>
<g id="a_node10"><a xlink:href="../../tables/member.html" xlink:title="member" target="_top">
<polygon fill="#ffffff" stroke="transparent" points="38.5,-495.2 38.5,-647.2 132.5,-647.2 132.5,-495.2 38.5,-495.2"/>
<polygon fill="#f5f5f5" stroke="transparent" points="38.5,-624.2 38.5,-647.2 132.5,-647.2 132.5,-624.2 38.5,-624.2"/>
<polygon fill="none" stroke="#000000" points="38.5,-624.2 38.5,-647.2 132.5,-647.2 132.5,-624.2 38.5,-624.2"/>
<text text-anchor="start" x="43.5" y="-632.8" font-family="Helvetica,sans-Serif" font-weight="bold" font-size="11.00" fill="#000000">member</text>
<text text-anchor="start" x="98.0219" y="-632.3" font-family="Helvetica,sans-Serif" font-size="11.00" fill="#000000">[table]</text>
<polygon fill="none" stroke="#000000" points="38.5,-602.2 38.5,-624.2 132.5,-624.2 132.5,-602.2 38.5,-602.2"/>
<image xlink:href="../../images/primaryKeys.png" width="11px" height="12px" preserveAspectRatio="xMinYMin meet" x="43.5" y="-619.2"/>
<text text-anchor="start" x="63.5" y="-609.3" font-family="Helvetica,sans-Serif" font-size="11.00" fill="#000000">id</text>
<polygon fill="#ffffff" stroke="transparent" points="38.5,-580.2 38.5,-602.2 132.5,-602.2 132.5,-580.2 38.5,-580.2"/>
<polygon fill="none" stroke="#000000" points="38.5,-580.2 38.5,-602.2 132.5,-602.2 132.5,-580.2 38.5,-580.2"/>
<text text-anchor="start" x="63.5" y="-587.3" font-family="Helvetica,sans-Serif" font-size="11.00" fill="#000000">name</text>
<polygon fill="none" stroke="#000000" points="38.5,-558.2 38.5,-580.2 132.5,-580.2 132.5,-558.2 38.5,-558.2"/>
<text text-anchor="start" x="63.5" y="-565.3" font-family="Helvetica,sans-Serif" font-size="11.00" fill="#000000">password</text>
<polygon fill="none" stroke="#000000" points="38.5,-536.2 38.5,-558.2 132.5,-558.2 132.5,-536.2 38.5,-536.2"/>
<text text-anchor="start" x="63.5" y="-543.3" font-family="Helvetica,sans-Serif" font-size="11.00" fill="#000000">avatar</text>
<polygon fill="none" stroke="#000000" points="38.5,-514.2 38.5,-536.2 132.5,-536.2 132.5,-514.2 38.5,-514.2"/>
<text text-anchor="start" x="63.5" y="-521.3" font-family="Helvetica,sans-Serif" font-size="11.00" fill="#000000">userfrom</text>
<polygon fill="#ffffff" stroke="transparent" points="38.5,-495.2 38.5,-514.2 64.5,-514.2 64.5,-495.2 38.5,-495.2"/>
<polygon fill="none" stroke="#000000" points="38.5,-495.2 38.5,-514.2 64.5,-514.2 64.5,-495.2 38.5,-495.2"/>
<text text-anchor="start" x="41.5" y="-501.3" font-family="Helvetica,sans-Serif" font-size="11.00" fill="#000000"> &#160;</text>
<polygon fill="#ffffff" stroke="transparent" points="64.5,-495.2 64.5,-514.2 103.5,-514.2 103.5,-495.2 64.5,-495.2"/>
<polygon fill="none" stroke="#000000" points="64.5,-495.2 64.5,-514.2 103.5,-514.2 103.5,-495.2 64.5,-495.2"/>
<text text-anchor="start" x="73.6105" y="-501.3" font-family="Helvetica,sans-Serif" font-size="11.00" fill="#000000">1 row</text>
<polygon fill="#ffffff" stroke="transparent" points="103.5,-495.2 103.5,-514.2 132.5,-514.2 132.5,-495.2 103.5,-495.2"/>
<polygon fill="none" stroke="#000000" points="103.5,-495.2 103.5,-514.2 132.5,-514.2 132.5,-495.2 103.5,-495.2"/>
<text text-anchor="start" x="113.9053" y="-501.3" font-family="Helvetica,sans-Serif" font-size="11.00" fill="#000000">4 &gt;</text>
</a>
</g>
</g>
<!-- theme_member&#45;&gt;member -->
<g id="edge10" class="edge">
<title>theme_member:w&#45;&gt;member:e</title>
<path fill="none" stroke="#000000" d="M199.011,-382.0585C161.9961,-418.5545 182.875,-613.2 132.5,-613.2"/>
<polygon fill="#000000" stroke="#000000" points="205.1622,-379.3869 213.9341,-379.502 208.8311,-377.7935 212.5,-376.2 212.5,-376.2 212.5,-376.2 208.8311,-377.7935 211.0659,-372.898 205.1622,-379.3869 205.1622,-379.3869"/>
<ellipse fill="none" stroke="#000000" cx="202.227" cy="-380.6617" rx="3.2" ry="3.2"/>
</g>
<!-- subtype_note_group -->
<g id="node3" class="node">
<title>subtype_note_group</title>
<g id="a_node3"><a xlink:href="../../tables/subtype_note_group.html" xlink:title="subtype_note_group" target="_top">
<polygon fill="#ffffff" stroke="transparent" points="404,-1008.2 404,-1116.2 580,-1116.2 580,-1008.2 404,-1008.2"/>
<polygon fill="#f5f5f5" stroke="transparent" points="404,-1093.2 404,-1116.2 580,-1116.2 580,-1093.2 404,-1093.2"/>
<polygon fill="none" stroke="#000000" points="404,-1093.2 404,-1116.2 580,-1116.2 580,-1093.2 404,-1093.2"/>
<text text-anchor="start" x="409" y="-1101.8" font-family="Helvetica,sans-Serif" font-weight="bold" font-size="11.00" fill="#000000">subtype_note_group</text>
<text text-anchor="start" x="545.5219" y="-1101.3" font-family="Helvetica,sans-Serif" font-size="11.00" fill="#000000">[table]</text>
<polygon fill="none" stroke="#000000" points="404,-1071.2 404,-1093.2 580,-1093.2 580,-1071.2 404,-1071.2"/>
<image xlink:href="../../images/primaryKeys.png" width="11px" height="12px" preserveAspectRatio="xMinYMin meet" x="409" y="-1088.2"/>
<text text-anchor="start" x="433" y="-1078.3" font-family="Helvetica,sans-Serif" font-size="11.00" fill="#000000">id</text>
<polygon fill="#ffffff" stroke="transparent" points="404,-1049.2 404,-1071.2 580,-1071.2 580,-1049.2 404,-1049.2"/>
<polygon fill="none" stroke="#000000" points="404,-1049.2 404,-1071.2 580,-1071.2 580,-1049.2 404,-1049.2"/>
<image xlink:href="../../images/foreignKeys.png" width="11px" height="12px" preserveAspectRatio="xMinYMin meet" x="409" y="-1066.2"/>
<text text-anchor="start" x="433" y="-1056.3" font-family="Helvetica,sans-Serif" font-size="11.00" fill="#000000">subtype_group</text>
<polygon fill="none" stroke="#000000" points="404,-1027.2 404,-1049.2 580,-1049.2 580,-1027.2 404,-1027.2"/>
<image xlink:href="../../images/foreignKeys.png" width="11px" height="12px" preserveAspectRatio="xMinYMin meet" x="409" y="-1044.2"/>
<text text-anchor="start" x="433" y="-1034.3" font-family="Helvetica,sans-Serif" font-size="11.00" fill="#000000">note</text>
<polygon fill="#ffffff" stroke="transparent" points="404,-1008.2 404,-1027.2 474,-1027.2 474,-1008.2 404,-1008.2"/>
<polygon fill="none" stroke="#000000" points="404,-1008.2 404,-1027.2 474,-1027.2 474,-1008.2 404,-1008.2"/>
<text text-anchor="start" x="407" y="-1014.3" font-family="Helvetica,sans-Serif" font-size="11.00" fill="#000000">&lt; 2</text>
<polygon fill="#ffffff" stroke="transparent" points="474,-1008.2 474,-1027.2 543,-1027.2 543,-1008.2 474,-1008.2"/>
<polygon fill="none" stroke="#000000" points="474,-1008.2 474,-1027.2 543,-1027.2 543,-1008.2 474,-1008.2"/>
<text text-anchor="start" x="501.4956" y="-1014.3" font-family="Helvetica,sans-Serif" font-size="11.00" fill="#000000">31 rows</text>
<polygon fill="#ffffff" stroke="transparent" points="543,-1008.2 543,-1027.2 580,-1027.2 580,-1008.2 543,-1008.2"/>
<polygon fill="none" stroke="#000000" points="543,-1008.2 543,-1027.2 580,-1027.2 580,-1008.2 543,-1008.2"/>
<text text-anchor="start" x="570.8862" y="-1014.3" font-family="Helvetica,sans-Serif" font-size="11.00" fill="#000000"> &#160;</text>
</a>
</g>
</g>
<!-- note -->
<g id="node5" class="node">
<title>note</title>
<g id="a_node5"><a xlink:href="../../tables/note.html" xlink:title="note" target="_top">
<polygon fill="#ffffff" stroke="transparent" points="215.5,-582.2 215.5,-888.2 351.5,-888.2 351.5,-582.2 215.5,-582.2"/>
<polygon fill="#f5f5f5" stroke="transparent" points="215.5,-865.2 215.5,-888.2 351.5,-888.2 351.5,-865.2 215.5,-865.2"/>
<polygon fill="none" stroke="#000000" points="215.5,-865.2 215.5,-888.2 351.5,-888.2 351.5,-865.2 215.5,-865.2"/>
<text text-anchor="start" x="220.5" y="-873.8" font-family="Helvetica,sans-Serif" font-weight="bold" font-size="11.00" fill="#000000">note</text>
<text text-anchor="start" x="316.5437" y="-873.3" font-family="Helvetica,sans-Serif" font-size="11.00" fill="#000000">[table]</text>
<polygon fill="none" stroke="#000000" points="215.5,-843.2 215.5,-865.2 351.5,-865.2 351.5,-843.2 215.5,-843.2"/>
<image xlink:href="../../images/primaryKeys.png" width="11px" height="12px" preserveAspectRatio="xMinYMin meet" x="220.5" y="-860.2"/>
<text text-anchor="start" x="235.5" y="-850.3" font-family="Helvetica,sans-Serif" font-size="11.00" fill="#000000">id</text>
<polygon fill="#ffffff" stroke="transparent" points="215.5,-821.2 215.5,-843.2 351.5,-843.2 351.5,-821.2 215.5,-821.2"/>
<polygon fill="none" stroke="#000000" points="215.5,-821.2 215.5,-843.2 351.5,-843.2 351.5,-821.2 215.5,-821.2"/>
<text text-anchor="start" x="235.5" y="-828.3" font-family="Helvetica,sans-Serif" font-size="11.00" fill="#000000">title</text>
<polygon fill="none" stroke="#000000" points="215.5,-799.2 215.5,-821.2 351.5,-821.2 351.5,-799.2 215.5,-799.2"/>
<text text-anchor="start" x="235.5" y="-806.3" font-family="Helvetica,sans-Serif" font-size="11.00" fill="#000000">description</text>
<polygon fill="none" stroke="#000000" points="215.5,-777.2 215.5,-799.2 351.5,-799.2 351.5,-777.2 215.5,-777.2"/>
<text text-anchor="start" x="235.5" y="-784.3" font-family="Helvetica,sans-Serif" font-size="11.00" fill="#000000">keynotes</text>
<polygon fill="none" stroke="#000000" points="215.5,-755.2 215.5,-777.2 351.5,-777.2 351.5,-755.2 215.5,-755.2"/>
<text text-anchor="start" x="235.5" y="-762.3" font-family="Helvetica,sans-Serif" font-size="11.00" fill="#000000">createdby</text>
<polygon fill="none" stroke="#000000" points="215.5,-733.2 215.5,-755.2 351.5,-755.2 351.5,-733.2 215.5,-733.2"/>
<text text-anchor="start" x="235.5" y="-740.3" font-family="Helvetica,sans-Serif" font-size="11.00" fill="#000000">createddate</text>
<polygon fill="none" stroke="#000000" points="215.5,-711.2 215.5,-733.2 351.5,-733.2 351.5,-711.2 215.5,-711.2"/>
<text text-anchor="start" x="235.5" y="-718.3" font-family="Helvetica,sans-Serif" font-size="11.00" fill="#000000">lastmodifiedby</text>
<polygon fill="#ffffff" stroke="transparent" points="215.5,-689.2 215.5,-711.2 351.5,-711.2 351.5,-689.2 215.5,-689.2"/>
<polygon fill="none" stroke="#000000" points="215.5,-689.2 215.5,-711.2 351.5,-711.2 351.5,-689.2 215.5,-689.2"/>
<text text-anchor="start" x="235.5" y="-696.3" font-family="Helvetica,sans-Serif" font-size="11.00" fill="#000000">lastmodifieddate</text>
<polygon fill="none" stroke="#000000" points="215.5,-667.2 215.5,-689.2 351.5,-689.2 351.5,-667.2 215.5,-667.2"/>
<image xlink:href="../../images/foreignKeys.png" width="11px" height="12px" preserveAspectRatio="xMinYMin meet" x="220.5" y="-684.2"/>
<text text-anchor="start" x="235.5" y="-674.3" font-family="Helvetica,sans-Serif" font-size="11.00" fill="#000000">subtype</text>
<polygon fill="none" stroke="#000000" points="215.5,-645.2 215.5,-667.2 351.5,-667.2 351.5,-645.2 215.5,-645.2"/>
<image xlink:href="../../images/foreignKeys.png" width="11px" height="12px" preserveAspectRatio="xMinYMin meet" x="220.5" y="-662.2"/>
<text text-anchor="start" x="235.5" y="-652.3" font-family="Helvetica,sans-Serif" font-size="11.00" fill="#000000">member</text>
<polygon fill="#ffffff" stroke="transparent" points="215.5,-623.2 215.5,-645.2 351.5,-645.2 351.5,-623.2 215.5,-623.2"/>
<polygon fill="none" stroke="#000000" points="215.5,-623.2 215.5,-645.2 351.5,-645.2 351.5,-623.2 215.5,-623.2"/>
<text text-anchor="start" x="235.5" y="-630.3" font-family="Helvetica,sans-Serif" font-size="11.00" fill="#000000">category</text>
<polygon fill="none" stroke="#000000" points="215.5,-601.2 215.5,-623.2 351.5,-623.2 351.5,-601.2 215.5,-601.2"/>
<text text-anchor="start" x="235.5" y="-608.3" font-family="Helvetica,sans-Serif" font-size="11.00" fill="#000000">severity</text>
<polygon fill="#ffffff" stroke="transparent" points="215.5,-582.2 215.5,-601.2 261.5,-601.2 261.5,-582.2 215.5,-582.2"/>
<polygon fill="none" stroke="#000000" points="215.5,-582.2 215.5,-601.2 261.5,-601.2 261.5,-582.2 215.5,-582.2"/>
<text text-anchor="start" x="218.5" y="-588.3" font-family="Helvetica,sans-Serif" font-size="11.00" fill="#000000">&lt; 2</text>
<polygon fill="#ffffff" stroke="transparent" points="261.5,-582.2 261.5,-601.2 317.5,-601.2 317.5,-582.2 261.5,-582.2"/>
<polygon fill="none" stroke="#000000" points="261.5,-582.2 261.5,-601.2 317.5,-601.2 317.5,-582.2 261.5,-582.2"/>
<text text-anchor="start" x="275.9956" y="-588.3" font-family="Helvetica,sans-Serif" font-size="11.00" fill="#000000">63 rows</text>
<polygon fill="#ffffff" stroke="transparent" points="317.5,-582.2 317.5,-601.2 351.5,-601.2 351.5,-582.2 317.5,-582.2"/>
<polygon fill="none" stroke="#000000" points="317.5,-582.2 317.5,-601.2 351.5,-601.2 351.5,-582.2 317.5,-582.2"/>
<text text-anchor="start" x="332.9053" y="-588.3" font-family="Helvetica,sans-Serif" font-size="11.00" fill="#000000">1 &gt;</text>
</a>
</g>
</g>
<!-- subtype_note_group&#45;&gt;note -->
<g id="edge8" class="edge">
<title>subtype_note_group:w&#45;&gt;note:e</title>
<path fill="none" stroke="#000000" d="M389.6201,-1035.8736C333.6815,-1014.5739 430.8942,-854.2 351.5,-854.2"/>
<polygon fill="#000000" stroke="#000000" points="396.1027,-1036.9223 403.425,-1041.7538 400.0513,-1037.5611 404,-1038.2 404,-1038.2 404,-1038.2 400.0513,-1037.5611 404.575,-1034.6462 396.1027,-1036.9223 396.1027,-1036.9223"/>
<ellipse fill="none" stroke="#000000" cx="392.9438" cy="-1036.4112" rx="3.2" ry="3.2"/>
</g>
<!-- group_subtype -->
<g id="node8" class="node">
<title>group_subtype</title>
<g id="a_node8"><a xlink:href="../../tables/group_subtype.html" xlink:title="group_subtype" target="_top">
<polygon fill="#ffffff" stroke="transparent" points="214,-1126.2 214,-1278.2 353,-1278.2 353,-1126.2 214,-1126.2"/>
<polygon fill="#f5f5f5" stroke="transparent" points="214.5,-1255.2 214.5,-1278.2 353.5,-1278.2 353.5,-1255.2 214.5,-1255.2"/>
<polygon fill="none" stroke="#000000" points="214.5,-1255.2 214.5,-1278.2 353.5,-1278.2 353.5,-1255.2 214.5,-1255.2"/>
<text text-anchor="start" x="219.5" y="-1263.8" font-family="Helvetica,sans-Serif" font-weight="bold" font-size="11.00" fill="#000000">group_subtype</text>
<text text-anchor="start" x="319.0219" y="-1263.3" font-family="Helvetica,sans-Serif" font-size="11.00" fill="#000000">[table]</text>
<polygon fill="none" stroke="#000000" points="214.5,-1233.2 214.5,-1255.2 353.5,-1255.2 353.5,-1233.2 214.5,-1233.2"/>
<image xlink:href="../../images/primaryKeys.png" width="11px" height="12px" preserveAspectRatio="xMinYMin meet" x="219.5" y="-1250.2"/>
<text text-anchor="start" x="243.5" y="-1240.3" font-family="Helvetica,sans-Serif" font-size="11.00" fill="#000000">id</text>
<polygon fill="#ffffff" stroke="transparent" points="214.5,-1211.2 214.5,-1233.2 353.5,-1233.2 353.5,-1211.2 214.5,-1211.2"/>
<polygon fill="none" stroke="#000000" points="214.5,-1211.2 214.5,-1233.2 353.5,-1233.2 353.5,-1211.2 214.5,-1211.2"/>
<image xlink:href="../../images/foreignKeys.png" width="11px" height="12px" preserveAspectRatio="xMinYMin meet" x="219.5" y="-1228.2"/>
<text text-anchor="start" x="243.5" y="-1218.3" font-family="Helvetica,sans-Serif" font-size="11.00" fill="#000000">group_note</text>
<polygon fill="#ffffff" stroke="transparent" points="214.5,-1189.2 214.5,-1211.2 353.5,-1211.2 353.5,-1189.2 214.5,-1189.2"/>
<polygon fill="none" stroke="#000000" points="214.5,-1189.2 214.5,-1211.2 353.5,-1211.2 353.5,-1189.2 214.5,-1189.2"/>
<image xlink:href="../../images/foreignKeys.png" width="11px" height="12px" preserveAspectRatio="xMinYMin meet" x="219.5" y="-1206.2"/>
<text text-anchor="start" x="243.5" y="-1196.3" font-family="Helvetica,sans-Serif" font-size="11.00" fill="#000000">subtype</text>
<polygon fill="#ffffff" stroke="transparent" points="214.5,-1167.2 214.5,-1189.2 353.5,-1189.2 353.5,-1167.2 214.5,-1167.2"/>
<polygon fill="none" stroke="#000000" points="214.5,-1167.2 214.5,-1189.2 353.5,-1189.2 353.5,-1167.2 214.5,-1167.2"/>
<text text-anchor="start" x="243.5" y="-1174.3" font-family="Helvetica,sans-Serif" font-size="11.00" fill="#000000">index</text>
<polygon fill="none" stroke="#000000" points="214.5,-1145.2 214.5,-1167.2 353.5,-1167.2 353.5,-1145.2 214.5,-1145.2"/>
<text text-anchor="start" x="243.5" y="-1152.3" font-family="Helvetica,sans-Serif" font-size="11.00" fill="#000000">color</text>
<polygon fill="#ffffff" stroke="transparent" points="214.5,-1126.2 214.5,-1145.2 264.5,-1145.2 264.5,-1126.2 214.5,-1126.2"/>
<polygon fill="none" stroke="#000000" points="214.5,-1126.2 214.5,-1145.2 264.5,-1145.2 264.5,-1126.2 214.5,-1126.2"/>
<text text-anchor="start" x="217.5" y="-1132.3" font-family="Helvetica,sans-Serif" font-size="11.00" fill="#000000">&lt; 2</text>
<polygon fill="#ffffff" stroke="transparent" points="264.5,-1126.2 264.5,-1145.2 317.5,-1145.2 317.5,-1126.2 264.5,-1126.2"/>
<polygon fill="none" stroke="#000000" points="264.5,-1126.2 264.5,-1145.2 317.5,-1145.2 317.5,-1126.2 264.5,-1126.2"/>
<text text-anchor="start" x="282.1105" y="-1132.3" font-family="Helvetica,sans-Serif" font-size="11.00" fill="#000000">5 rows</text>
<polygon fill="#ffffff" stroke="transparent" points="317.5,-1126.2 317.5,-1145.2 353.5,-1145.2 353.5,-1126.2 317.5,-1126.2"/>
<polygon fill="none" stroke="#000000" points="317.5,-1126.2 317.5,-1145.2 353.5,-1145.2 353.5,-1126.2 317.5,-1126.2"/>
<text text-anchor="start" x="334.9053" y="-1132.3" font-family="Helvetica,sans-Serif" font-size="11.00" fill="#000000">1 &gt;</text>
</a>
</g>
</g>
<!-- subtype_note_group&#45;&gt;group_subtype -->
<g id="edge9" class="edge">
<title>subtype_note_group:w&#45;&gt;group_subtype:e</title>
<path fill="none" stroke="#000000" d="M389.684,-1062.5264C334.1174,-1083.8261 432.6705,-1244.2 353.5,-1244.2"/>
<polygon fill="#000000" stroke="#000000" points="396.1036,-1061.4833 404.5775,-1063.7534 400.0518,-1060.8416 404,-1060.2 404,-1060.2 404,-1060.2 400.0518,-1060.8416 403.4225,-1056.6466 396.1036,-1061.4833 396.1036,-1061.4833"/>
<ellipse fill="none" stroke="#000000" cx="392.945" cy="-1061.9966" rx="3.2" ry="3.2"/>
</g>
<!-- group_member -->
<g id="node4" class="node">
<title>group_member</title>
<g id="a_node4"><a xlink:href="../../tables/group_member.html" xlink:title="group_member" target="_top">
<polygon fill="#ffffff" stroke="transparent" points="213.5,-909.2 213.5,-1105.2 353.5,-1105.2 353.5,-909.2 213.5,-909.2"/>
<polygon fill="#f5f5f5" stroke="transparent" points="213.5,-1082.2 213.5,-1105.2 353.5,-1105.2 353.5,-1082.2 213.5,-1082.2"/>
<polygon fill="none" stroke="#000000" points="213.5,-1082.2 213.5,-1105.2 353.5,-1105.2 353.5,-1082.2 213.5,-1082.2"/>
<text text-anchor="start" x="218.5" y="-1090.8" font-family="Helvetica,sans-Serif" font-weight="bold" font-size="11.00" fill="#000000">group_member</text>
<text text-anchor="start" x="319.0219" y="-1090.3" font-family="Helvetica,sans-Serif" font-size="11.00" fill="#000000">[table]</text>
<polygon fill="none" stroke="#000000" points="213.5,-1060.2 213.5,-1082.2 353.5,-1082.2 353.5,-1060.2 213.5,-1060.2"/>
<image xlink:href="../../images/primaryKeys.png" width="11px" height="12px" preserveAspectRatio="xMinYMin meet" x="218.5" y="-1077.2"/>
<text text-anchor="start" x="242.5" y="-1067.3" font-family="Helvetica,sans-Serif" font-size="11.00" fill="#000000">id</text>
<polygon fill="#ffffff" stroke="transparent" points="213.5,-1038.2 213.5,-1060.2 353.5,-1060.2 353.5,-1038.2 213.5,-1038.2"/>
<polygon fill="none" stroke="#000000" points="213.5,-1038.2 213.5,-1060.2 353.5,-1060.2 353.5,-1038.2 213.5,-1038.2"/>
<image xlink:href="../../images/foreignKeys.png" width="11px" height="12px" preserveAspectRatio="xMinYMin meet" x="218.5" y="-1055.2"/>
<text text-anchor="start" x="242.5" y="-1045.3" font-family="Helvetica,sans-Serif" font-size="11.00" fill="#000000">group_note</text>
<polygon fill="#ffffff" stroke="transparent" points="213.5,-1016.2 213.5,-1038.2 353.5,-1038.2 353.5,-1016.2 213.5,-1016.2"/>
<polygon fill="none" stroke="#000000" points="213.5,-1016.2 213.5,-1038.2 353.5,-1038.2 353.5,-1016.2 213.5,-1016.2"/>
<image xlink:href="../../images/foreignKeys.png" width="11px" height="12px" preserveAspectRatio="xMinYMin meet" x="218.5" y="-1033.2"/>
<text text-anchor="start" x="242.5" y="-1023.3" font-family="Helvetica,sans-Serif" font-size="11.00" fill="#000000">member</text>
<polygon fill="none" stroke="#000000" points="213.5,-994.2 213.5,-1016.2 353.5,-1016.2 353.5,-994.2 213.5,-994.2"/>
<text text-anchor="start" x="242.5" y="-1001.3" font-family="Helvetica,sans-Serif" font-size="11.00" fill="#000000">role</text>
<polygon fill="none" stroke="#000000" points="213.5,-972.2 213.5,-994.2 353.5,-994.2 353.5,-972.2 213.5,-972.2"/>
<text text-anchor="start" x="242.5" y="-979.3" font-family="Helvetica,sans-Serif" font-size="11.00" fill="#000000">isconfirmed</text>
<polygon fill="none" stroke="#000000" points="213.5,-950.2 213.5,-972.2 353.5,-972.2 353.5,-950.2 213.5,-950.2"/>
<text text-anchor="start" x="242.5" y="-957.3" font-family="Helvetica,sans-Serif" font-size="11.00" fill="#000000">isdeleted</text>
<polygon fill="none" stroke="#000000" points="213.5,-928.2 213.5,-950.2 353.5,-950.2 353.5,-928.2 213.5,-928.2"/>
<text text-anchor="start" x="242.5" y="-935.3" font-family="Helvetica,sans-Serif" font-size="11.00" fill="#000000">userfrom</text>
<polygon fill="#ffffff" stroke="transparent" points="213.5,-909.2 213.5,-928.2 268.5,-928.2 268.5,-909.2 213.5,-909.2"/>
<polygon fill="none" stroke="#000000" points="213.5,-909.2 213.5,-928.2 268.5,-928.2 268.5,-909.2 213.5,-909.2"/>
<text text-anchor="start" x="216.5" y="-915.3" font-family="Helvetica,sans-Serif" font-size="11.00" fill="#000000">&lt; 2</text>
<polygon fill="#ffffff" stroke="transparent" points="268.5,-909.2 268.5,-928.2 323.5,-928.2 323.5,-909.2 268.5,-909.2"/>
<polygon fill="none" stroke="#000000" points="268.5,-909.2 268.5,-928.2 323.5,-928.2 323.5,-909.2 268.5,-909.2"/>
<text text-anchor="start" x="288.1105" y="-915.3" font-family="Helvetica,sans-Serif" font-size="11.00" fill="#000000">7 rows</text>
<polygon fill="#ffffff" stroke="transparent" points="323.5,-909.2 323.5,-928.2 353.5,-928.2 353.5,-909.2 323.5,-909.2"/>
<polygon fill="none" stroke="#000000" points="323.5,-909.2 323.5,-928.2 353.5,-928.2 353.5,-909.2 323.5,-909.2"/>
<text text-anchor="start" x="344.3862" y="-915.3" font-family="Helvetica,sans-Serif" font-size="11.00" fill="#000000"> &#160;</text>
</a>
</g>
</g>
<!-- group_note -->
<g id="node7" class="node">
<title>group_note</title>
<g id="a_node7"><a xlink:href="../../tables/group_note.html" xlink:title="group_note" target="_top">
<polygon fill="#ffffff" stroke="transparent" points="28,-1039.2 28,-1169.2 143,-1169.2 143,-1039.2 28,-1039.2"/>
<polygon fill="#f5f5f5" stroke="transparent" points="28.5,-1146.2 28.5,-1169.2 143.5,-1169.2 143.5,-1146.2 28.5,-1146.2"/>
<polygon fill="none" stroke="#000000" points="28.5,-1146.2 28.5,-1169.2 143.5,-1169.2 143.5,-1146.2 28.5,-1146.2"/>
<text text-anchor="start" x="33.5" y="-1154.8" font-family="Helvetica,sans-Serif" font-weight="bold" font-size="11.00" fill="#000000">group_note</text>
<text text-anchor="start" x="109.0219" y="-1154.3" font-family="Helvetica,sans-Serif" font-size="11.00" fill="#000000">[table]</text>
<polygon fill="none" stroke="#000000" points="28.5,-1124.2 28.5,-1146.2 143.5,-1146.2 143.5,-1124.2 28.5,-1124.2"/>
<image xlink:href="../../images/primaryKeys.png" width="11px" height="12px" preserveAspectRatio="xMinYMin meet" x="33.5" y="-1141.2"/>
<text text-anchor="start" x="57.5" y="-1131.3" font-family="Helvetica,sans-Serif" font-size="11.00" fill="#000000">id</text>
<polygon fill="#ffffff" stroke="transparent" points="28.5,-1102.2 28.5,-1124.2 143.5,-1124.2 143.5,-1102.2 28.5,-1102.2"/>
<polygon fill="none" stroke="#000000" points="28.5,-1102.2 28.5,-1124.2 143.5,-1124.2 143.5,-1102.2 28.5,-1102.2"/>
<text text-anchor="start" x="57.5" y="-1109.3" font-family="Helvetica,sans-Serif" font-size="11.00" fill="#000000">name</text>
<polygon fill="none" stroke="#000000" points="28.5,-1080.2 28.5,-1102.2 143.5,-1102.2 143.5,-1080.2 28.5,-1080.2"/>
<text text-anchor="start" x="57.5" y="-1087.3" font-family="Helvetica,sans-Serif" font-size="11.00" fill="#000000">avatar</text>
<polygon fill="none" stroke="#000000" points="28.5,-1058.2 28.5,-1080.2 143.5,-1080.2 143.5,-1058.2 28.5,-1058.2"/>
<text text-anchor="start" x="57.5" y="-1065.3" font-family="Helvetica,sans-Serif" font-size="11.00" fill="#000000">userfrom</text>
<polygon fill="#ffffff" stroke="transparent" points="28.5,-1039.2 28.5,-1058.2 75.5,-1058.2 75.5,-1039.2 28.5,-1039.2"/>
<polygon fill="none" stroke="#000000" points="28.5,-1039.2 28.5,-1058.2 75.5,-1058.2 75.5,-1039.2 28.5,-1039.2"/>
<text text-anchor="start" x="31.5" y="-1045.3" font-family="Helvetica,sans-Serif" font-size="11.00" fill="#000000"> &#160;</text>
<polygon fill="#ffffff" stroke="transparent" points="75.5,-1039.2 75.5,-1058.2 104.5,-1058.2 104.5,-1039.2 75.5,-1039.2"/>
<polygon fill="none" stroke="#000000" points="75.5,-1039.2 75.5,-1058.2 104.5,-1058.2 104.5,-1039.2 75.5,-1039.2"/>
<text text-anchor="start" x="95.3862" y="-1045.3" font-family="Helvetica,sans-Serif" font-size="11.00" fill="#000000"> &#160;</text>
<polygon fill="#ffffff" stroke="transparent" points="104.5,-1039.2 104.5,-1058.2 143.5,-1058.2 143.5,-1039.2 104.5,-1039.2"/>
<polygon fill="none" stroke="#000000" points="104.5,-1039.2 104.5,-1058.2 143.5,-1058.2 143.5,-1039.2 104.5,-1039.2"/>
<text text-anchor="start" x="124.9053" y="-1045.3" font-family="Helvetica,sans-Serif" font-size="11.00" fill="#000000">2 &gt;</text>
</a>
</g>
</g>
<!-- group_member&#45;&gt;group_note -->
<g id="edge1" class="edge">
<title>group_member:w&#45;&gt;group_note:e</title>
<path fill="none" stroke="#000000" d="M199.1306,-1052.4663C169.8429,-1068.1752 187.0079,-1135.2 143.5,-1135.2"/>
<polygon fill="#000000" stroke="#000000" points="205.699,-1050.9733 214.298,-1052.7105 209.5995,-1050.0866 213.5,-1049.2 213.5,-1049.2 213.5,-1049.2 209.5995,-1050.0866 212.702,-1045.6895 205.699,-1050.9733 205.699,-1050.9733"/>
<ellipse fill="none" stroke="#000000" cx="202.5786" cy="-1051.6826" rx="3.2" ry="3.2"/>
</g>
<!-- group_member&#45;&gt;member -->
<g id="edge2" class="edge">
<title>group_member:w&#45;&gt;member:e</title>
<path fill="none" stroke="#000000" d="M199.4252,-1023.3659C131.1765,-981.6297 220.9346,-613.2 132.5,-613.2"/>
<polygon fill="#000000" stroke="#000000" points="205.7813,-1025.0973 212.5538,-1030.6734 209.6406,-1026.1487 213.5,-1027.2 213.5,-1027.2 213.5,-1027.2 209.6406,-1026.1487 214.4462,-1023.7266 205.7813,-1025.0973 205.7813,-1025.0973"/>
<ellipse fill="none" stroke="#000000" cx="202.6938" cy="-1024.2563" rx="3.2" ry="3.2"/>
</g>
<!-- note&#45;&gt;subtype -->
<g id="edge7" class="edge">
<title>note:w&#45;&gt;subtype:e</title>
<path fill="none" stroke="#000000" d="M200.9807,-680.381C144.3341,-699.7235 208.2384,-841.2 132.5,-841.2"/>
<polygon fill="#000000" stroke="#000000" points="207.5888,-679.3884 216.0348,-681.7601 211.5444,-678.7942 215.5,-678.2 215.5,-678.2 215.5,-678.2 211.5444,-678.7942 214.9652,-674.6399 207.5888,-679.3884 207.5888,-679.3884"/>
<ellipse fill="none" stroke="#000000" cx="204.4243" cy="-679.8638" rx="3.2" ry="3.2"/>
</g>
<!-- note&#45;&gt;member -->
<g id="edge6" class="edge">
<title>note:w&#45;&gt;member:e</title>
<path fill="none" stroke="#000000" d="M200.9549,-654.126C173.2443,-645.5366 168.5277,-613.2 132.5,-613.2"/>
<polygon fill="#000000" stroke="#000000" points="207.5801,-655.0707 214.9918,-659.764 211.5401,-655.6353 215.5,-656.2 215.5,-656.2 215.5,-656.2 211.5401,-655.6353 216.0082,-652.636 207.5801,-655.0707 207.5801,-655.0707"/>
<ellipse fill="none" stroke="#000000" cx="204.4122" cy="-654.6189" rx="3.2" ry="3.2"/>
</g>
<!-- group_subtype&#45;&gt;subtype -->
<g id="edge4" class="edge">
<title>group_subtype:w&#45;&gt;subtype:e</title>
<path fill="none" stroke="#000000" d="M200.627,-1195.9182C142.5155,-1155.414 209.0581,-841.2 132.5,-841.2"/>
<polygon fill="#000000" stroke="#000000" points="206.8558,-1197.8406 213.4383,-1203.6399 210.6779,-1199.0203 214.5,-1200.2 214.5,-1200.2 214.5,-1200.2 210.6779,-1199.0203 215.5617,-1196.7601 206.8558,-1197.8406 206.8558,-1197.8406"/>
<ellipse fill="none" stroke="#000000" cx="203.7981" cy="-1196.8969" rx="3.2" ry="3.2"/>
</g>
<!-- group_subtype&#45;&gt;group_note -->
<g id="edge3" class="edge">
<title>group_subtype:w&#45;&gt;group_note:e</title>
<path fill="none" stroke="#000000" d="M200.3408,-1219.1036C170.1101,-1203.6055 187.7549,-1135.2 143.5,-1135.2"/>
<polygon fill="#000000" stroke="#000000" points="206.6847,-1220.4909 213.7309,-1225.7169 210.5923,-1221.3454 214.5,-1222.2 214.5,-1222.2 214.5,-1222.2 210.5923,-1221.3454 215.2691,-1218.6831 206.6847,-1220.4909 206.6847,-1220.4909"/>
<ellipse fill="none" stroke="#000000" cx="203.5586" cy="-1219.8072" rx="3.2" ry="3.2"/>
</g>
<!-- login -->
<g id="node9" class="node">
<title>login</title>
<g id="a_node9"><a xlink:href="../../tables/login.html" xlink:title="login" target="_top">
<polygon fill="#ffffff" stroke="transparent" points="245.5,-475.2 245.5,-561.2 321.5,-561.2 321.5,-475.2 245.5,-475.2"/>
<polygon fill="#f5f5f5" stroke="transparent" points="245.5,-538.2 245.5,-561.2 321.5,-561.2 321.5,-538.2 245.5,-538.2"/>
<polygon fill="none" stroke="#000000" points="245.5,-538.2 245.5,-561.2 321.5,-561.2 321.5,-538.2 245.5,-538.2"/>
<text text-anchor="start" x="250.5" y="-546.8" font-family="Helvetica,sans-Serif" font-weight="bold" font-size="11.00" fill="#000000">login</text>
<text text-anchor="start" x="286.5437" y="-546.3" font-family="Helvetica,sans-Serif" font-size="11.00" fill="#000000">[table]</text>
<polygon fill="none" stroke="#000000" points="245.5,-516.2 245.5,-538.2 321.5,-538.2 321.5,-516.2 245.5,-516.2"/>
<image xlink:href="../../images/primaryKeys.png" width="11px" height="12px" preserveAspectRatio="xMinYMin meet" x="250.5" y="-533.2"/>
<text text-anchor="start" x="265.5" y="-523.3" font-family="Helvetica,sans-Serif" font-size="11.00" fill="#000000">member</text>
<polygon fill="none" stroke="#000000" points="245.5,-494.2 245.5,-516.2 321.5,-516.2 321.5,-494.2 245.5,-494.2"/>
<text text-anchor="start" x="265.5" y="-501.3" font-family="Helvetica,sans-Serif" font-size="11.00" fill="#000000">token</text>
<polygon fill="#ffffff" stroke="transparent" points="245.5,-475.2 245.5,-494.2 268.5,-494.2 268.5,-475.2 245.5,-475.2"/>
<polygon fill="none" stroke="#000000" points="245.5,-475.2 245.5,-494.2 268.5,-494.2 268.5,-475.2 245.5,-475.2"/>
<text text-anchor="start" x="248.5" y="-481.3" font-family="Helvetica,sans-Serif" font-size="11.00" fill="#000000">&lt; 1</text>
<polygon fill="#ffffff" stroke="transparent" points="268.5,-475.2 268.5,-494.2 307.5,-494.2 307.5,-475.2 268.5,-475.2"/>
<polygon fill="none" stroke="#000000" points="268.5,-475.2 268.5,-494.2 307.5,-494.2 307.5,-475.2 268.5,-475.2"/>
<text text-anchor="start" x="272.1105" y="-481.3" font-family="Helvetica,sans-Serif" font-size="11.00" fill="#000000">3 rows</text>
<polygon fill="#ffffff" stroke="transparent" points="307.5,-475.2 307.5,-494.2 321.5,-494.2 321.5,-475.2 307.5,-475.2"/>
<polygon fill="none" stroke="#000000" points="307.5,-475.2 307.5,-494.2 321.5,-494.2 321.5,-475.2 307.5,-475.2"/>
<text text-anchor="start" x="312.3862" y="-481.3" font-family="Helvetica,sans-Serif" font-size="11.00" fill="#000000"> &#160;</text>
</a>
</g>
</g>
<!-- login&#45;&gt;member -->
<g id="edge5" class="edge">
<title>login:w&#45;&gt;member:e</title>
<path fill="none" stroke="#000000" d="M234.8418,-528.1076C183.709,-537.2988 191.7914,-613.2 132.5,-613.2"/>
<polygon fill="#000000" stroke="#000000" points="244.3634,-523.2823 245.0423,-531.2535 243.4481,-531.3892 242.7692,-523.4181 244.3634,-523.2823"/>
<polyline fill="none" stroke="#000000" points="245.5,-527.2 241.5144,-527.5394 "/>
<ellipse fill="none" stroke="#000000" cx="238.326" cy="-527.811" rx="3.2" ry="3.2"/>
</g>
</g>
</svg>
