<?xml version="1.0" encoding="UTF-8" standalone="no"?>
<!DOCTYPE svg PUBLIC "-//W3C//DTD SVG 1.1//EN"
 "http://www.w3.org/Graphics/SVG/1.1/DTD/svg11.dtd">
<!-- Generated by graphviz version 2.40.1 (20161225.0304)
 -->
<!-- Title: compactRelationshipsDiagram Pages: 1 -->
<svg width="596pt" height="813pt"
 viewBox="0.00 0.00 596.00 813.20" xmlns="http://www.w3.org/2000/svg" xmlns:xlink="http://www.w3.org/1999/xlink">
<g id="graph0" class="graph" transform="scale(1 1) rotate(0) translate(4 809.2)">
<title>compactRelationshipsDiagram</title>
<polygon fill="#ffffff" stroke="transparent" points="-4,4 -4,-809.2 592,-809.2 592,4 -4,4"/>
<text text-anchor="middle" x="72.4936" y="-7.3" font-family="Helvetica,sans-Serif" font-size="11.00" fill="#000000">Generated by SchemaSpy</text>
<!-- subtype -->
<g id="node1" class="node">
<title>subtype</title>
<g id="a_node1"><a xlink:href="../../tables/subtype.html" xlink:title="subtype" target="_top">
<polygon fill="#ffffff" stroke="transparent" points="39,-345.2 39,-450.2 132,-450.2 132,-345.2 39,-345.2"/>
<polygon fill="#f5f5f5" stroke="transparent" points="39.5,-426.7 39.5,-449.7 132.5,-449.7 132.5,-426.7 39.5,-426.7"/>
<polygon fill="none" stroke="#000000" points="39.5,-426.7 39.5,-449.7 132.5,-449.7 132.5,-426.7 39.5,-426.7"/>
<text text-anchor="start" x="44.5" y="-435.3" font-family="Helvetica,sans-Serif" font-weight="bold" font-size="11.00" fill="#000000">subtype</text>
<text text-anchor="start" x="98.0219" y="-434.8" font-family="Helvetica,sans-Serif" font-size="11.00" fill="#000000">[table]</text>
<polygon fill="none" stroke="#000000" points="39.5,-404.7 39.5,-426.7 132.5,-426.7 132.5,-404.7 39.5,-404.7"/>
<image xlink:href="../../images/primaryKeys.png" width="11px" height="12px" preserveAspectRatio="xMinYMin meet" x="44.5" y="-421.7"/>
<text text-anchor="start" x="68.5" y="-411.8" font-family="Helvetica,sans-Serif" font-size="11.00" fill="#000000">id</text>
<polygon fill="#ffffff" stroke="transparent" points="39.5,-382.7 39.5,-404.7 132.5,-404.7 132.5,-382.7 39.5,-382.7"/>
<polygon fill="none" stroke="#000000" points="39.5,-382.7 39.5,-404.7 132.5,-404.7 132.5,-382.7 39.5,-382.7"/>
<text text-anchor="start" x="68.5" y="-389.8" font-family="Helvetica,sans-Serif" font-size="11.00" fill="#000000">name</text>
<polygon fill="none" stroke="#000000" points="39.5,-363.7 39.5,-382.7 132.5,-382.7 132.5,-363.7 39.5,-363.7"/>
<text text-anchor="start" x="42.5" y="-369.8" font-family="Helvetica,sans-Serif" font-size="11.00" fill="#000000">...</text>
<polygon fill="#ffffff" stroke="transparent" points="39.5,-344.7 39.5,-363.7 62.5,-363.7 62.5,-344.7 39.5,-344.7"/>
<polygon fill="none" stroke="#000000" points="39.5,-344.7 39.5,-363.7 62.5,-363.7 62.5,-344.7 39.5,-344.7"/>
<text text-anchor="start" x="42.5" y="-350.8" font-family="Helvetica,sans-Serif" font-size="11.00" fill="#000000"> &#160;</text>
<polygon fill="#ffffff" stroke="transparent" points="62.5,-344.7 62.5,-363.7 105.5,-363.7 105.5,-344.7 62.5,-344.7"/>
<polygon fill="none" stroke="#000000" points="62.5,-344.7 62.5,-363.7 105.5,-363.7 105.5,-344.7 62.5,-344.7"/>
<text text-anchor="start" x="70.1105" y="-350.8" font-family="Helvetica,sans-Serif" font-size="11.00" fill="#000000">9 rows</text>
<polygon fill="#ffffff" stroke="transparent" points="105.5,-344.7 105.5,-363.7 132.5,-363.7 132.5,-344.7 105.5,-344.7"/>
<polygon fill="none" stroke="#000000" points="105.5,-344.7 105.5,-363.7 132.5,-363.7 132.5,-344.7 105.5,-344.7"/>
<text text-anchor="start" x="113.9053" y="-350.8" font-family="Helvetica,sans-Serif" font-size="11.00" fill="#000000">2 &gt;</text>
</a>
</g>
</g>
<!-- theme_member -->
<g id="node2" class="node">
<title>theme_member</title>
<g id="a_node2"><a xlink:href="../../tables/theme_member.html" xlink:title="theme_member" target="_top">
<polygon fill="#ffffff" stroke="transparent" points="212,-38.2 212,-165.2 355,-165.2 355,-38.2 212,-38.2"/>
<polygon fill="#f5f5f5" stroke="transparent" points="212.5,-141.7 212.5,-164.7 355.5,-164.7 355.5,-141.7 212.5,-141.7"/>
<polygon fill="none" stroke="#000000" points="212.5,-141.7 212.5,-164.7 355.5,-164.7 355.5,-141.7 212.5,-141.7"/>
<text text-anchor="start" x="217.5" y="-150.3" font-family="Helvetica,sans-Serif" font-weight="bold" font-size="11.00" fill="#000000">theme_member</text>
<text text-anchor="start" x="321.0219" y="-149.8" font-family="Helvetica,sans-Serif" font-size="11.00" fill="#000000">[table]</text>
<polygon fill="none" stroke="#000000" points="212.5,-119.7 212.5,-141.7 355.5,-141.7 355.5,-119.7 212.5,-119.7"/>
<image xlink:href="../../images/primaryKeys.png" width="11px" height="12px" preserveAspectRatio="xMinYMin meet" x="217.5" y="-136.7"/>
<text text-anchor="start" x="241.5" y="-126.8" font-family="Helvetica,sans-Serif" font-size="11.00" fill="#000000">id</text>
<polygon fill="#ffffff" stroke="transparent" points="212.5,-97.7 212.5,-119.7 355.5,-119.7 355.5,-97.7 212.5,-97.7"/>
<polygon fill="none" stroke="#000000" points="212.5,-97.7 212.5,-119.7 355.5,-119.7 355.5,-97.7 212.5,-97.7"/>
<image xlink:href="../../images/foreignKeys.png" width="11px" height="12px" preserveAspectRatio="xMinYMin meet" x="217.5" y="-114.7"/>
<text text-anchor="start" x="241.5" y="-104.8" font-family="Helvetica,sans-Serif" font-size="11.00" fill="#000000">theme</text>
<polygon fill="#ffffff" stroke="transparent" points="212.5,-75.7 212.5,-97.7 355.5,-97.7 355.5,-75.7 212.5,-75.7"/>
<polygon fill="none" stroke="#000000" points="212.5,-75.7 212.5,-97.7 355.5,-97.7 355.5,-75.7 212.5,-75.7"/>
<image xlink:href="../../images/foreignKeys.png" width="11px" height="12px" preserveAspectRatio="xMinYMin meet" x="217.5" y="-92.7"/>
<text text-anchor="start" x="241.5" y="-82.8" font-family="Helvetica,sans-Serif" font-size="11.00" fill="#000000">member</text>
<polygon fill="none" stroke="#000000" points="212.5,-56.7 212.5,-75.7 355.5,-75.7 355.5,-56.7 212.5,-56.7"/>
<text text-anchor="start" x="215.5" y="-62.8" font-family="Helvetica,sans-Serif" font-size="11.00" fill="#000000">...</text>
<polygon fill="#ffffff" stroke="transparent" points="212.5,-37.7 212.5,-56.7 266.5,-56.7 266.5,-37.7 212.5,-37.7"/>
<polygon fill="none" stroke="#000000" points="212.5,-37.7 212.5,-56.7 266.5,-56.7 266.5,-37.7 212.5,-37.7"/>
<text text-anchor="start" x="215.5" y="-43.8" font-family="Helvetica,sans-Serif" font-size="11.00" fill="#000000">&lt; 2</text>
<polygon fill="#ffffff" stroke="transparent" points="266.5,-37.7 266.5,-56.7 326.5,-56.7 326.5,-37.7 266.5,-37.7"/>
<polygon fill="none" stroke="#000000" points="266.5,-37.7 266.5,-56.7 326.5,-56.7 326.5,-37.7 266.5,-37.7"/>
<text text-anchor="start" x="284.9956" y="-43.8" font-family="Helvetica,sans-Serif" font-size="11.00" fill="#000000">30 rows</text>
<polygon fill="#ffffff" stroke="transparent" points="326.5,-37.7 326.5,-56.7 355.5,-56.7 355.5,-37.7 326.5,-37.7"/>
<polygon fill="none" stroke="#000000" points="326.5,-37.7 326.5,-56.7 355.5,-56.7 355.5,-37.7 326.5,-37.7"/>
<text text-anchor="start" x="346.3862" y="-43.8" font-family="Helvetica,sans-Serif" font-size="11.00" fill="#000000"> &#160;</text>
</a>
</g>
</g>
<!-- theme -->
<g id="node6" class="node">
<title>theme</title>
<g id="a_node6"><a xlink:href="../../tables/theme.html" xlink:title="theme" target="_top">
<polygon fill="#ffffff" stroke="transparent" points="8,-38.2 8,-143.2 163,-143.2 163,-38.2 8,-38.2"/>
<polygon fill="#f5f5f5" stroke="transparent" points="8.5,-119.7 8.5,-142.7 163.5,-142.7 163.5,-119.7 8.5,-119.7"/>
<polygon fill="none" stroke="#000000" points="8.5,-119.7 8.5,-142.7 163.5,-142.7 163.5,-119.7 8.5,-119.7"/>
<text text-anchor="start" x="13.5" y="-128.3" font-family="Helvetica,sans-Serif" font-weight="bold" font-size="11.00" fill="#000000">theme</text>
<text text-anchor="start" x="128.5437" y="-127.8" font-family="Helvetica,sans-Serif" font-size="11.00" fill="#000000">[table]</text>
<polygon fill="none" stroke="#000000" points="8.5,-97.7 8.5,-119.7 163.5,-119.7 163.5,-97.7 8.5,-97.7"/>
<image xlink:href="../../images/primaryKeys.png" width="11px" height="12px" preserveAspectRatio="xMinYMin meet" x="13.5" y="-114.7"/>
<text text-anchor="start" x="28.5" y="-104.8" font-family="Helvetica,sans-Serif" font-size="11.00" fill="#000000">id</text>
<polygon fill="#ffffff" stroke="transparent" points="8.5,-75.7 8.5,-97.7 163.5,-97.7 163.5,-75.7 8.5,-75.7"/>
<polygon fill="none" stroke="#000000" points="8.5,-75.7 8.5,-97.7 163.5,-97.7 163.5,-75.7 8.5,-75.7"/>
<text text-anchor="start" x="28.5" y="-82.8" font-family="Helvetica,sans-Serif" font-size="11.00" fill="#000000">name</text>
<polygon fill="none" stroke="#000000" points="8.5,-56.7 8.5,-75.7 163.5,-75.7 163.5,-56.7 8.5,-56.7"/>
<text text-anchor="start" x="11.5" y="-62.8" font-family="Helvetica,sans-Serif" font-size="11.00" fill="#000000">...</text>
<polygon fill="#ffffff" stroke="transparent" points="8.5,-37.7 8.5,-56.7 62.5,-56.7 62.5,-37.7 8.5,-37.7"/>
<polygon fill="none" stroke="#000000" points="8.5,-37.7 8.5,-56.7 62.5,-56.7 62.5,-37.7 8.5,-37.7"/>
<text text-anchor="start" x="11.5" y="-43.8" font-family="Helvetica,sans-Serif" font-size="11.00" fill="#000000"> &#160;</text>
<polygon fill="#ffffff" stroke="transparent" points="62.5,-37.7 62.5,-56.7 121.5,-56.7 121.5,-37.7 62.5,-37.7"/>
<polygon fill="none" stroke="#000000" points="62.5,-37.7 62.5,-56.7 121.5,-56.7 121.5,-37.7 62.5,-37.7"/>
<text text-anchor="start" x="86.1105" y="-43.8" font-family="Helvetica,sans-Serif" font-size="11.00" fill="#000000">0 rows</text>
<polygon fill="#ffffff" stroke="transparent" points="121.5,-37.7 121.5,-56.7 163.5,-56.7 163.5,-37.7 121.5,-37.7"/>
<polygon fill="none" stroke="#000000" points="121.5,-37.7 121.5,-56.7 163.5,-56.7 163.5,-37.7 121.5,-37.7"/>
<text text-anchor="start" x="144.9053" y="-43.8" font-family="Helvetica,sans-Serif" font-size="11.00" fill="#000000">1 &gt;</text>
</a>
</g>
</g>
<!-- theme_member&#45;&gt;theme -->
<g id="edge11" class="edge">
<title>theme_member:w&#45;&gt;theme:e</title>
<path fill="none" stroke="#000000" d="M197.9909,-108.7C186.6774,-108.7 179.4931,-108.7 163.5,-108.7"/>
<polygon fill="#000000" stroke="#000000" points="204.5,-108.7001 212.5,-112.3 208.5,-108.7 212.5,-108.7 212.5,-108.7 212.5,-108.7 208.5,-108.7 212.5,-105.1 204.5,-108.7001 204.5,-108.7001"/>
<ellipse fill="none" stroke="#000000" cx="201.3" cy="-108.7001" rx="3.2" ry="3.2"/>
</g>
<!-- member -->
<g id="node10" class="node">
<title>member</title>
<g id="a_node10"><a xlink:href="../../tables/member.html" xlink:title="member" target="_top">
<polygon fill="#ffffff" stroke="transparent" points="38.5,-175.2 38.5,-280.2 132.5,-280.2 132.5,-175.2 38.5,-175.2"/>
<polygon fill="#f5f5f5" stroke="transparent" points="38.5,-256.7 38.5,-279.7 132.5,-279.7 132.5,-256.7 38.5,-256.7"/>
<polygon fill="none" stroke="#000000" points="38.5,-256.7 38.5,-279.7 132.5,-279.7 132.5,-256.7 38.5,-256.7"/>
<text text-anchor="start" x="43.5" y="-265.3" font-family="Helvetica,sans-Serif" font-weight="bold" font-size="11.00" fill="#000000">member</text>
<text text-anchor="start" x="98.0219" y="-264.8" font-family="Helvetica,sans-Serif" font-size="11.00" fill="#000000">[table]</text>
<polygon fill="none" stroke="#000000" points="38.5,-234.7 38.5,-256.7 132.5,-256.7 132.5,-234.7 38.5,-234.7"/>
<image xlink:href="../../images/primaryKeys.png" width="11px" height="12px" preserveAspectRatio="xMinYMin meet" x="43.5" y="-251.7"/>
<text text-anchor="start" x="63.5" y="-241.8" font-family="Helvetica,sans-Serif" font-size="11.00" fill="#000000">id</text>
<polygon fill="#ffffff" stroke="transparent" points="38.5,-212.7 38.5,-234.7 132.5,-234.7 132.5,-212.7 38.5,-212.7"/>
<polygon fill="none" stroke="#000000" points="38.5,-212.7 38.5,-234.7 132.5,-234.7 132.5,-212.7 38.5,-212.7"/>
<text text-anchor="start" x="63.5" y="-219.8" font-family="Helvetica,sans-Serif" font-size="11.00" fill="#000000">name</text>
<polygon fill="none" stroke="#000000" points="38.5,-193.7 38.5,-212.7 132.5,-212.7 132.5,-193.7 38.5,-193.7"/>
<text text-anchor="start" x="41.5" y="-199.8" font-family="Helvetica,sans-Serif" font-size="11.00" fill="#000000">...</text>
<polygon fill="#ffffff" stroke="transparent" points="38.5,-174.7 38.5,-193.7 64.5,-193.7 64.5,-174.7 38.5,-174.7"/>
<polygon fill="none" stroke="#000000" points="38.5,-174.7 38.5,-193.7 64.5,-193.7 64.5,-174.7 38.5,-174.7"/>
<text text-anchor="start" x="41.5" y="-180.8" font-family="Helvetica,sans-Serif" font-size="11.00" fill="#000000"> &#160;</text>
<polygon fill="#ffffff" stroke="transparent" points="64.5,-174.7 64.5,-193.7 103.5,-193.7 103.5,-174.7 64.5,-174.7"/>
<polygon fill="none" stroke="#000000" points="64.5,-174.7 64.5,-193.7 103.5,-193.7 103.5,-174.7 64.5,-174.7"/>
<text text-anchor="start" x="73.6105" y="-180.8" font-family="Helvetica,sans-Serif" font-size="11.00" fill="#000000">1 row</text>
<polygon fill="#ffffff" stroke="transparent" points="103.5,-174.7 103.5,-193.7 132.5,-193.7 132.5,-174.7 103.5,-174.7"/>
<polygon fill="none" stroke="#000000" points="103.5,-174.7 103.5,-193.7 132.5,-193.7 132.5,-174.7 103.5,-174.7"/>
<text text-anchor="start" x="113.9053" y="-180.8" font-family="Helvetica,sans-Serif" font-size="11.00" fill="#000000">4 &gt;</text>
</a>
</g>
</g>
<!-- theme_member&#45;&gt;member -->
<g id="edge10" class="edge">
<title>theme_member:w&#45;&gt;member:e</title>
<path fill="none" stroke="#000000" d="M198.0372,-88.9477C143.6138,-108.2733 206.0451,-245.7 132.5,-245.7"/>
<polygon fill="#000000" stroke="#000000" points="204.5949,-87.9286 213.0529,-90.2573 208.5474,-87.3143 212.5,-86.7 212.5,-86.7 212.5,-86.7 208.5474,-87.3143 211.9471,-83.1427 204.5949,-87.9286 204.5949,-87.9286"/>
<ellipse fill="none" stroke="#000000" cx="201.4329" cy="-88.42" rx="3.2" ry="3.2"/>
</g>
<!-- subtype_note_group -->
<g id="node3" class="node">
<title>subtype_note_group</title>
<g id="a_node3"><a xlink:href="../../tables/subtype_note_group.html" xlink:title="subtype_note_group" target="_top">
<polygon fill="#ffffff" stroke="transparent" points="404,-566.7 404,-674.7 580,-674.7 580,-566.7 404,-566.7"/>
<polygon fill="#f5f5f5" stroke="transparent" points="404,-651.7 404,-674.7 580,-674.7 580,-651.7 404,-651.7"/>
<polygon fill="none" stroke="#000000" points="404,-651.7 404,-674.7 580,-674.7 580,-651.7 404,-651.7"/>
<text text-anchor="start" x="409" y="-660.3" font-family="Helvetica,sans-Serif" font-weight="bold" font-size="11.00" fill="#000000">subtype_note_group</text>
<text text-anchor="start" x="545.5219" y="-659.8" font-family="Helvetica,sans-Serif" font-size="11.00" fill="#000000">[table]</text>
<polygon fill="none" stroke="#000000" points="404,-629.7 404,-651.7 580,-651.7 580,-629.7 404,-629.7"/>
<image xlink:href="../../images/primaryKeys.png" width="11px" height="12px" preserveAspectRatio="xMinYMin meet" x="409" y="-646.7"/>
<text text-anchor="start" x="433" y="-636.8" font-family="Helvetica,sans-Serif" font-size="11.00" fill="#000000">id</text>
<polygon fill="#ffffff" stroke="transparent" points="404,-607.7 404,-629.7 580,-629.7 580,-607.7 404,-607.7"/>
<polygon fill="none" stroke="#000000" points="404,-607.7 404,-629.7 580,-629.7 580,-607.7 404,-607.7"/>
<image xlink:href="../../images/foreignKeys.png" width="11px" height="12px" preserveAspectRatio="xMinYMin meet" x="409" y="-624.7"/>
<text text-anchor="start" x="433" y="-614.8" font-family="Helvetica,sans-Serif" font-size="11.00" fill="#000000">subtype_group</text>
<polygon fill="none" stroke="#000000" points="404,-585.7 404,-607.7 580,-607.7 580,-585.7 404,-585.7"/>
<image xlink:href="../../images/foreignKeys.png" width="11px" height="12px" preserveAspectRatio="xMinYMin meet" x="409" y="-602.7"/>
<text text-anchor="start" x="433" y="-592.8" font-family="Helvetica,sans-Serif" font-size="11.00" fill="#000000">note</text>
<polygon fill="#ffffff" stroke="transparent" points="404,-566.7 404,-585.7 474,-585.7 474,-566.7 404,-566.7"/>
<polygon fill="none" stroke="#000000" points="404,-566.7 404,-585.7 474,-585.7 474,-566.7 404,-566.7"/>
<text text-anchor="start" x="407" y="-572.8" font-family="Helvetica,sans-Serif" font-size="11.00" fill="#000000">&lt; 2</text>
<polygon fill="#ffffff" stroke="transparent" points="474,-566.7 474,-585.7 543,-585.7 543,-566.7 474,-566.7"/>
<polygon fill="none" stroke="#000000" points="474,-566.7 474,-585.7 543,-585.7 543,-566.7 474,-566.7"/>
<text text-anchor="start" x="501.4956" y="-572.8" font-family="Helvetica,sans-Serif" font-size="11.00" fill="#000000">31 rows</text>
<polygon fill="#ffffff" stroke="transparent" points="543,-566.7 543,-585.7 580,-585.7 580,-566.7 543,-566.7"/>
<polygon fill="none" stroke="#000000" points="543,-566.7 543,-585.7 580,-585.7 580,-566.7 543,-566.7"/>
<text text-anchor="start" x="570.8862" y="-572.8" font-family="Helvetica,sans-Serif" font-size="11.00" fill="#000000"> &#160;</text>
</a>
</g>
</g>
<!-- note -->
<g id="node5" class="node">
<title>note</title>
<g id="a_node5"><a xlink:href="../../tables/note.html" xlink:title="note" target="_top">
<polygon fill="#ffffff" stroke="transparent" points="215.5,-290.2 215.5,-483.2 351.5,-483.2 351.5,-290.2 215.5,-290.2"/>
<polygon fill="#f5f5f5" stroke="transparent" points="215.5,-459.7 215.5,-482.7 351.5,-482.7 351.5,-459.7 215.5,-459.7"/>
<polygon fill="none" stroke="#000000" points="215.5,-459.7 215.5,-482.7 351.5,-482.7 351.5,-459.7 215.5,-459.7"/>
<text text-anchor="start" x="220.5" y="-468.3" font-family="Helvetica,sans-Serif" font-weight="bold" font-size="11.00" fill="#000000">note</text>
<text text-anchor="start" x="316.5437" y="-467.8" font-family="Helvetica,sans-Serif" font-size="11.00" fill="#000000">[table]</text>
<polygon fill="none" stroke="#000000" points="215.5,-437.7 215.5,-459.7 351.5,-459.7 351.5,-437.7 215.5,-437.7"/>
<image xlink:href="../../images/primaryKeys.png" width="11px" height="12px" preserveAspectRatio="xMinYMin meet" x="220.5" y="-454.7"/>
<text text-anchor="start" x="235.5" y="-444.8" font-family="Helvetica,sans-Serif" font-size="11.00" fill="#000000">id</text>
<polygon fill="#ffffff" stroke="transparent" points="215.5,-415.7 215.5,-437.7 351.5,-437.7 351.5,-415.7 215.5,-415.7"/>
<polygon fill="none" stroke="#000000" points="215.5,-415.7 215.5,-437.7 351.5,-437.7 351.5,-415.7 215.5,-415.7"/>
<text text-anchor="start" x="235.5" y="-422.8" font-family="Helvetica,sans-Serif" font-size="11.00" fill="#000000">title</text>
<polygon fill="#ffffff" stroke="transparent" points="215.5,-393.7 215.5,-415.7 351.5,-415.7 351.5,-393.7 215.5,-393.7"/>
<polygon fill="none" stroke="#000000" points="215.5,-393.7 215.5,-415.7 351.5,-415.7 351.5,-393.7 215.5,-393.7"/>
<text text-anchor="start" x="235.5" y="-400.8" font-family="Helvetica,sans-Serif" font-size="11.00" fill="#000000">lastmodifieddate</text>
<polygon fill="none" stroke="#000000" points="215.5,-371.7 215.5,-393.7 351.5,-393.7 351.5,-371.7 215.5,-371.7"/>
<image xlink:href="../../images/foreignKeys.png" width="11px" height="12px" preserveAspectRatio="xMinYMin meet" x="220.5" y="-388.7"/>
<text text-anchor="start" x="235.5" y="-378.8" font-family="Helvetica,sans-Serif" font-size="11.00" fill="#000000">subtype</text>
<polygon fill="none" stroke="#000000" points="215.5,-349.7 215.5,-371.7 351.5,-371.7 351.5,-349.7 215.5,-349.7"/>
<image xlink:href="../../images/foreignKeys.png" width="11px" height="12px" preserveAspectRatio="xMinYMin meet" x="220.5" y="-366.7"/>
<text text-anchor="start" x="235.5" y="-356.8" font-family="Helvetica,sans-Serif" font-size="11.00" fill="#000000">member</text>
<polygon fill="#ffffff" stroke="transparent" points="215.5,-327.7 215.5,-349.7 351.5,-349.7 351.5,-327.7 215.5,-327.7"/>
<polygon fill="none" stroke="#000000" points="215.5,-327.7 215.5,-349.7 351.5,-349.7 351.5,-327.7 215.5,-327.7"/>
<text text-anchor="start" x="235.5" y="-334.8" font-family="Helvetica,sans-Serif" font-size="11.00" fill="#000000">category</text>
<polygon fill="none" stroke="#000000" points="215.5,-308.7 215.5,-327.7 351.5,-327.7 351.5,-308.7 215.5,-308.7"/>
<text text-anchor="start" x="218.5" y="-314.8" font-family="Helvetica,sans-Serif" font-size="11.00" fill="#000000">...</text>
<polygon fill="#ffffff" stroke="transparent" points="215.5,-289.7 215.5,-308.7 261.5,-308.7 261.5,-289.7 215.5,-289.7"/>
<polygon fill="none" stroke="#000000" points="215.5,-289.7 215.5,-308.7 261.5,-308.7 261.5,-289.7 215.5,-289.7"/>
<text text-anchor="start" x="218.5" y="-295.8" font-family="Helvetica,sans-Serif" font-size="11.00" fill="#000000">&lt; 2</text>
<polygon fill="#ffffff" stroke="transparent" points="261.5,-289.7 261.5,-308.7 317.5,-308.7 317.5,-289.7 261.5,-289.7"/>
<polygon fill="none" stroke="#000000" points="261.5,-289.7 261.5,-308.7 317.5,-308.7 317.5,-289.7 261.5,-289.7"/>
<text text-anchor="start" x="275.9956" y="-295.8" font-family="Helvetica,sans-Serif" font-size="11.00" fill="#000000">63 rows</text>
<polygon fill="#ffffff" stroke="transparent" points="317.5,-289.7 317.5,-308.7 351.5,-308.7 351.5,-289.7 317.5,-289.7"/>
<polygon fill="none" stroke="#000000" points="317.5,-289.7 317.5,-308.7 351.5,-308.7 351.5,-289.7 317.5,-289.7"/>
<text text-anchor="start" x="332.9053" y="-295.8" font-family="Helvetica,sans-Serif" font-size="11.00" fill="#000000">1 &gt;</text>
</a>
</g>
</g>
<!-- subtype_note_group&#45;&gt;note -->
<g id="edge8" class="edge">
<title>subtype_note_group:w&#45;&gt;note:e</title>
<path fill="none" stroke="#000000" d="M389.818,-593.8757C347.4384,-573.4147 415.5684,-448.7 351.5,-448.7"/>
<polygon fill="#000000" stroke="#000000" points="396.1541,-595.1374 403.2968,-600.2307 400.077,-595.9187 404,-596.7 404,-596.7 404,-596.7 400.077,-595.9187 404.7032,-593.1693 396.1541,-595.1374 396.1541,-595.1374"/>
<ellipse fill="none" stroke="#000000" cx="393.0157" cy="-594.5124" rx="3.2" ry="3.2"/>
</g>
<!-- group_subtype -->
<g id="node8" class="node">
<title>group_subtype</title>
<g id="a_node8"><a xlink:href="../../tables/group_subtype.html" xlink:title="group_subtype" target="_top">
<polygon fill="#ffffff" stroke="transparent" points="214,-652.2 214,-801.2 353,-801.2 353,-652.2 214,-652.2"/>
<polygon fill="#f5f5f5" stroke="transparent" points="214.5,-777.7 214.5,-800.7 353.5,-800.7 353.5,-777.7 214.5,-777.7"/>
<polygon fill="none" stroke="#000000" points="214.5,-777.7 214.5,-800.7 353.5,-800.7 353.5,-777.7 214.5,-777.7"/>
<text text-anchor="start" x="219.5" y="-786.3" font-family="Helvetica,sans-Serif" font-weight="bold" font-size="11.00" fill="#000000">group_subtype</text>
<text text-anchor="start" x="319.0219" y="-785.8" font-family="Helvetica,sans-Serif" font-size="11.00" fill="#000000">[table]</text>
<polygon fill="none" stroke="#000000" points="214.5,-755.7 214.5,-777.7 353.5,-777.7 353.5,-755.7 214.5,-755.7"/>
<image xlink:href="../../images/primaryKeys.png" width="11px" height="12px" preserveAspectRatio="xMinYMin meet" x="219.5" y="-772.7"/>
<text text-anchor="start" x="243.5" y="-762.8" font-family="Helvetica,sans-Serif" font-size="11.00" fill="#000000">id</text>
<polygon fill="#ffffff" stroke="transparent" points="214.5,-733.7 214.5,-755.7 353.5,-755.7 353.5,-733.7 214.5,-733.7"/>
<polygon fill="none" stroke="#000000" points="214.5,-733.7 214.5,-755.7 353.5,-755.7 353.5,-733.7 214.5,-733.7"/>
<image xlink:href="../../images/foreignKeys.png" width="11px" height="12px" preserveAspectRatio="xMinYMin meet" x="219.5" y="-750.7"/>
<text text-anchor="start" x="243.5" y="-740.8" font-family="Helvetica,sans-Serif" font-size="11.00" fill="#000000">group_note</text>
<polygon fill="#ffffff" stroke="transparent" points="214.5,-711.7 214.5,-733.7 353.5,-733.7 353.5,-711.7 214.5,-711.7"/>
<polygon fill="none" stroke="#000000" points="214.5,-711.7 214.5,-733.7 353.5,-733.7 353.5,-711.7 214.5,-711.7"/>
<image xlink:href="../../images/foreignKeys.png" width="11px" height="12px" preserveAspectRatio="xMinYMin meet" x="219.5" y="-728.7"/>
<text text-anchor="start" x="243.5" y="-718.8" font-family="Helvetica,sans-Serif" font-size="11.00" fill="#000000">subtype</text>
<polygon fill="#ffffff" stroke="transparent" points="214.5,-689.7 214.5,-711.7 353.5,-711.7 353.5,-689.7 214.5,-689.7"/>
<polygon fill="none" stroke="#000000" points="214.5,-689.7 214.5,-711.7 353.5,-711.7 353.5,-689.7 214.5,-689.7"/>
<text text-anchor="start" x="243.5" y="-696.8" font-family="Helvetica,sans-Serif" font-size="11.00" fill="#000000">index</text>
<polygon fill="none" stroke="#000000" points="214.5,-670.7 214.5,-689.7 353.5,-689.7 353.5,-670.7 214.5,-670.7"/>
<text text-anchor="start" x="217.5" y="-676.8" font-family="Helvetica,sans-Serif" font-size="11.00" fill="#000000">...</text>
<polygon fill="#ffffff" stroke="transparent" points="214.5,-651.7 214.5,-670.7 264.5,-670.7 264.5,-651.7 214.5,-651.7"/>
<polygon fill="none" stroke="#000000" points="214.5,-651.7 214.5,-670.7 264.5,-670.7 264.5,-651.7 214.5,-651.7"/>
<text text-anchor="start" x="217.5" y="-657.8" font-family="Helvetica,sans-Serif" font-size="11.00" fill="#000000">&lt; 2</text>
<polygon fill="#ffffff" stroke="transparent" points="264.5,-651.7 264.5,-670.7 317.5,-670.7 317.5,-651.7 264.5,-651.7"/>
<polygon fill="none" stroke="#000000" points="264.5,-651.7 264.5,-670.7 317.5,-670.7 317.5,-651.7 264.5,-651.7"/>
<text text-anchor="start" x="282.1105" y="-657.8" font-family="Helvetica,sans-Serif" font-size="11.00" fill="#000000">5 rows</text>
<polygon fill="#ffffff" stroke="transparent" points="317.5,-651.7 317.5,-670.7 353.5,-670.7 353.5,-651.7 317.5,-651.7"/>
<polygon fill="none" stroke="#000000" points="317.5,-651.7 317.5,-670.7 353.5,-670.7 353.5,-651.7 317.5,-651.7"/>
<text text-anchor="start" x="334.9053" y="-657.8" font-family="Helvetica,sans-Serif" font-size="11.00" fill="#000000">1 &gt;</text>
</a>
</g>
</g>
<!-- subtype_note_group&#45;&gt;group_subtype -->
<g id="edge9" class="edge">
<title>subtype_note_group:w&#45;&gt;group_subtype:e</title>
<path fill="none" stroke="#000000" d="M389.6451,-621.6564C348.2497,-642.5155 417.1645,-766.7 353.5,-766.7"/>
<polygon fill="#000000" stroke="#000000" points="396.1644,-620.3138 404.7262,-622.226 400.0822,-619.5069 404,-618.7 404,-618.7 404,-618.7 400.0822,-619.5069 403.2738,-615.174 396.1644,-620.3138 396.1644,-620.3138"/>
<ellipse fill="none" stroke="#000000" cx="393.0302" cy="-620.9593" rx="3.2" ry="3.2"/>
</g>
<!-- group_member -->
<g id="node4" class="node">
<title>group_member</title>
<g id="a_node4"><a xlink:href="../../tables/group_member.html" xlink:title="group_member" target="_top">
<polygon fill="#ffffff" stroke="transparent" points="213.5,-504.2 213.5,-631.2 353.5,-631.2 353.5,-504.2 213.5,-504.2"/>
<polygon fill="#f5f5f5" stroke="transparent" points="213.5,-607.7 213.5,-630.7 353.5,-630.7 353.5,-607.7 213.5,-607.7"/>
<polygon fill="none" stroke="#000000" points="213.5,-607.7 213.5,-630.7 353.5,-630.7 353.5,-607.7 213.5,-607.7"/>
<text text-anchor="start" x="218.5" y="-616.3" font-family="Helvetica,sans-Serif" font-weight="bold" font-size="11.00" fill="#000000">group_member</text>
<text text-anchor="start" x="319.0219" y="-615.8" font-family="Helvetica,sans-Serif" font-size="11.00" fill="#000000">[table]</text>
<polygon fill="none" stroke="#000000" points="213.5,-585.7 213.5,-607.7 353.5,-607.7 353.5,-585.7 213.5,-585.7"/>
<image xlink:href="../../images/primaryKeys.png" width="11px" height="12px" preserveAspectRatio="xMinYMin meet" x="218.5" y="-602.7"/>
<text text-anchor="start" x="242.5" y="-592.8" font-family="Helvetica,sans-Serif" font-size="11.00" fill="#000000">id</text>
<polygon fill="#ffffff" stroke="transparent" points="213.5,-563.7 213.5,-585.7 353.5,-585.7 353.5,-563.7 213.5,-563.7"/>
<polygon fill="none" stroke="#000000" points="213.5,-563.7 213.5,-585.7 353.5,-585.7 353.5,-563.7 213.5,-563.7"/>
<image xlink:href="../../images/foreignKeys.png" width="11px" height="12px" preserveAspectRatio="xMinYMin meet" x="218.5" y="-580.7"/>
<text text-anchor="start" x="242.5" y="-570.8" font-family="Helvetica,sans-Serif" font-size="11.00" fill="#000000">group_note</text>
<polygon fill="#ffffff" stroke="transparent" points="213.5,-541.7 213.5,-563.7 353.5,-563.7 353.5,-541.7 213.5,-541.7"/>
<polygon fill="none" stroke="#000000" points="213.5,-541.7 213.5,-563.7 353.5,-563.7 353.5,-541.7 213.5,-541.7"/>
<image xlink:href="../../images/foreignKeys.png" width="11px" height="12px" preserveAspectRatio="xMinYMin meet" x="218.5" y="-558.7"/>
<text text-anchor="start" x="242.5" y="-548.8" font-family="Helvetica,sans-Serif" font-size="11.00" fill="#000000">member</text>
<polygon fill="none" stroke="#000000" points="213.5,-522.7 213.5,-541.7 353.5,-541.7 353.5,-522.7 213.5,-522.7"/>
<text text-anchor="start" x="216.5" y="-528.8" font-family="Helvetica,sans-Serif" font-size="11.00" fill="#000000">...</text>
<polygon fill="#ffffff" stroke="transparent" points="213.5,-503.7 213.5,-522.7 268.5,-522.7 268.5,-503.7 213.5,-503.7"/>
<polygon fill="none" stroke="#000000" points="213.5,-503.7 213.5,-522.7 268.5,-522.7 268.5,-503.7 213.5,-503.7"/>
<text text-anchor="start" x="216.5" y="-509.8" font-family="Helvetica,sans-Serif" font-size="11.00" fill="#000000">&lt; 2</text>
<polygon fill="#ffffff" stroke="transparent" points="268.5,-503.7 268.5,-522.7 323.5,-522.7 323.5,-503.7 268.5,-503.7"/>
<polygon fill="none" stroke="#000000" points="268.5,-503.7 268.5,-522.7 323.5,-522.7 323.5,-503.7 268.5,-503.7"/>
<text text-anchor="start" x="288.1105" y="-509.8" font-family="Helvetica,sans-Serif" font-size="11.00" fill="#000000">7 rows</text>
<polygon fill="#ffffff" stroke="transparent" points="323.5,-503.7 323.5,-522.7 353.5,-522.7 353.5,-503.7 323.5,-503.7"/>
<polygon fill="none" stroke="#000000" points="323.5,-503.7 323.5,-522.7 353.5,-522.7 353.5,-503.7 323.5,-503.7"/>
<text text-anchor="start" x="344.3862" y="-509.8" font-family="Helvetica,sans-Serif" font-size="11.00" fill="#000000"> &#160;</text>
</a>
</g>
</g>
<!-- group_note -->
<g id="node7" class="node">
<title>group_note</title>
<g id="a_node7"><a xlink:href="../../tables/group_note.html" xlink:title="group_note" target="_top">
<polygon fill="#ffffff" stroke="transparent" points="28,-589.2 28,-694.2 143,-694.2 143,-589.2 28,-589.2"/>
<polygon fill="#f5f5f5" stroke="transparent" points="28.5,-670.7 28.5,-693.7 143.5,-693.7 143.5,-670.7 28.5,-670.7"/>
<polygon fill="none" stroke="#000000" points="28.5,-670.7 28.5,-693.7 143.5,-693.7 143.5,-670.7 28.5,-670.7"/>
<text text-anchor="start" x="33.5" y="-679.3" font-family="Helvetica,sans-Serif" font-weight="bold" font-size="11.00" fill="#000000">group_note</text>
<text text-anchor="start" x="109.0219" y="-678.8" font-family="Helvetica,sans-Serif" font-size="11.00" fill="#000000">[table]</text>
<polygon fill="none" stroke="#000000" points="28.5,-648.7 28.5,-670.7 143.5,-670.7 143.5,-648.7 28.5,-648.7"/>
<image xlink:href="../../images/primaryKeys.png" width="11px" height="12px" preserveAspectRatio="xMinYMin meet" x="33.5" y="-665.7"/>
<text text-anchor="start" x="57.5" y="-655.8" font-family="Helvetica,sans-Serif" font-size="11.00" fill="#000000">id</text>
<polygon fill="#ffffff" stroke="transparent" points="28.5,-626.7 28.5,-648.7 143.5,-648.7 143.5,-626.7 28.5,-626.7"/>
<polygon fill="none" stroke="#000000" points="28.5,-626.7 28.5,-648.7 143.5,-648.7 143.5,-626.7 28.5,-626.7"/>
<text text-anchor="start" x="57.5" y="-633.8" font-family="Helvetica,sans-Serif" font-size="11.00" fill="#000000">name</text>
<polygon fill="none" stroke="#000000" points="28.5,-607.7 28.5,-626.7 143.5,-626.7 143.5,-607.7 28.5,-607.7"/>
<text text-anchor="start" x="31.5" y="-613.8" font-family="Helvetica,sans-Serif" font-size="11.00" fill="#000000">...</text>
<polygon fill="#ffffff" stroke="transparent" points="28.5,-588.7 28.5,-607.7 75.5,-607.7 75.5,-588.7 28.5,-588.7"/>
<polygon fill="none" stroke="#000000" points="28.5,-588.7 28.5,-607.7 75.5,-607.7 75.5,-588.7 28.5,-588.7"/>
<text text-anchor="start" x="31.5" y="-594.8" font-family="Helvetica,sans-Serif" font-size="11.00" fill="#000000"> &#160;</text>
<polygon fill="#ffffff" stroke="transparent" points="75.5,-588.7 75.5,-607.7 104.5,-607.7 104.5,-588.7 75.5,-588.7"/>
<polygon fill="none" stroke="#000000" points="75.5,-588.7 75.5,-607.7 104.5,-607.7 104.5,-588.7 75.5,-588.7"/>
<text text-anchor="start" x="95.3862" y="-594.8" font-family="Helvetica,sans-Serif" font-size="11.00" fill="#000000"> &#160;</text>
<polygon fill="#ffffff" stroke="transparent" points="104.5,-588.7 104.5,-607.7 143.5,-607.7 143.5,-588.7 104.5,-588.7"/>
<polygon fill="none" stroke="#000000" points="104.5,-588.7 104.5,-607.7 143.5,-607.7 143.5,-588.7 104.5,-588.7"/>
<text text-anchor="start" x="124.9053" y="-594.8" font-family="Helvetica,sans-Serif" font-size="11.00" fill="#000000">2 &gt;</text>
</a>
</g>
</g>
<!-- group_member&#45;&gt;group_note -->
<g id="edge1" class="edge">
<title>group_member:w&#45;&gt;group_note:e</title>
<path fill="none" stroke="#000000" d="M199.2123,-577.9283C170.0398,-593.4546 186.7043,-659.7 143.5,-659.7"/>
<polygon fill="#000000" stroke="#000000" points="205.6967,-576.4632 214.2934,-578.2115 209.5984,-575.5816 213.5,-574.7 213.5,-574.7 213.5,-574.7 209.5984,-575.5816 212.7066,-571.1885 205.6967,-576.4632 205.6967,-576.4632"/>
<ellipse fill="none" stroke="#000000" cx="202.5754" cy="-577.1685" rx="3.2" ry="3.2"/>
</g>
<!-- group_member&#45;&gt;member -->
<g id="edge2" class="edge">
<title>group_member:w&#45;&gt;member:e</title>
<path fill="none" stroke="#000000" d="M200.1212,-547.344C168.2694,-518.0366 184.0647,-376.8736 171,-334.7 158.2469,-293.5322 175.5979,-245.7 132.5,-245.7"/>
<polygon fill="#000000" stroke="#000000" points="206.073,-549.7267 212.162,-556.0421 209.7865,-551.2134 213.5,-552.7 213.5,-552.7 213.5,-552.7 209.7865,-551.2134 214.838,-549.3579 206.073,-549.7267 206.073,-549.7267"/>
<ellipse fill="none" stroke="#000000" cx="203.1022" cy="-548.5374" rx="3.2" ry="3.2"/>
</g>
<!-- note&#45;&gt;subtype -->
<g id="edge7" class="edge">
<title>note:w&#45;&gt;subtype:e</title>
<path fill="none" stroke="#000000" d="M201.0572,-384.3818C174.1421,-391.1066 166.7702,-415.7 132.5,-415.7"/>
<polygon fill="#000000" stroke="#000000" points="207.5537,-383.6254 215.9164,-386.2758 211.5268,-383.1627 215.5,-382.7 215.5,-382.7 215.5,-382.7 211.5268,-383.1627 215.0836,-379.1242 207.5537,-383.6254 207.5537,-383.6254"/>
<ellipse fill="none" stroke="#000000" cx="204.3752" cy="-383.9955" rx="3.2" ry="3.2"/>
</g>
<!-- note&#45;&gt;member -->
<g id="edge6" class="edge">
<title>note:w&#45;&gt;member:e</title>
<path fill="none" stroke="#000000" d="M201.1947,-358.1911C159.2177,-341.3735 189.9928,-245.7 132.5,-245.7"/>
<polygon fill="#000000" stroke="#000000" points="207.6203,-359.318 214.8781,-364.2459 211.5601,-360.009 215.5,-360.7 215.5,-360.7 215.5,-360.7 211.5601,-360.009 216.1219,-357.1541 207.6203,-359.318 207.6203,-359.318"/>
<ellipse fill="none" stroke="#000000" cx="204.4684" cy="-358.7652" rx="3.2" ry="3.2"/>
</g>
<!-- group_subtype&#45;&gt;subtype -->
<g id="edge4" class="edge">
<title>group_subtype:w&#45;&gt;subtype:e</title>
<path fill="none" stroke="#000000" d="M200.8169,-717.8778C151.9625,-678.8208 197.873,-415.7 132.5,-415.7"/>
<polygon fill="#000000" stroke="#000000" points="206.9548,-720.0409 213.3034,-726.0953 210.7274,-721.3704 214.5,-722.7 214.5,-722.7 214.5,-722.7 210.7274,-721.3704 215.6966,-719.3047 206.9548,-720.0409 206.9548,-720.0409"/>
<ellipse fill="none" stroke="#000000" cx="203.9368" cy="-718.9772" rx="3.2" ry="3.2"/>
</g>
<!-- group_subtype&#45;&gt;group_note -->
<g id="edge3" class="edge">
<title>group_subtype:w&#45;&gt;group_note:e</title>
<path fill="none" stroke="#000000" d="M200.1069,-741.4717C170.6567,-725.9454 186.9548,-659.7 143.5,-659.7"/>
<polygon fill="#000000" stroke="#000000" points="206.6939,-742.9491 213.7121,-748.2127 210.597,-743.8245 214.5,-744.7 214.5,-744.7 214.5,-744.7 210.597,-743.8245 215.2879,-741.1873 206.6939,-742.9491 206.6939,-742.9491"/>
<ellipse fill="none" stroke="#000000" cx="203.5715" cy="-742.2487" rx="3.2" ry="3.2"/>
</g>
<!-- login -->
<g id="node9" class="node">
<title>login</title>
<g id="a_node9"><a xlink:href="../../tables/login.html" xlink:title="login" target="_top">
<polygon fill="#ffffff" stroke="transparent" points="245.5,-186.2 245.5,-269.2 321.5,-269.2 321.5,-186.2 245.5,-186.2"/>
<polygon fill="#f5f5f5" stroke="transparent" points="245.5,-245.7 245.5,-268.7 321.5,-268.7 321.5,-245.7 245.5,-245.7"/>
<polygon fill="none" stroke="#000000" points="245.5,-245.7 245.5,-268.7 321.5,-268.7 321.5,-245.7 245.5,-245.7"/>
<text text-anchor="start" x="250.5" y="-254.3" font-family="Helvetica,sans-Serif" font-weight="bold" font-size="11.00" fill="#000000">login</text>
<text text-anchor="start" x="286.5437" y="-253.8" font-family="Helvetica,sans-Serif" font-size="11.00" fill="#000000">[table]</text>
<polygon fill="none" stroke="#000000" points="245.5,-223.7 245.5,-245.7 321.5,-245.7 321.5,-223.7 245.5,-223.7"/>
<image xlink:href="../../images/primaryKeys.png" width="11px" height="12px" preserveAspectRatio="xMinYMin meet" x="250.5" y="-240.7"/>
<text text-anchor="start" x="265.5" y="-230.8" font-family="Helvetica,sans-Serif" font-size="11.00" fill="#000000">member</text>
<polygon fill="none" stroke="#000000" points="245.5,-204.7 245.5,-223.7 321.5,-223.7 321.5,-204.7 245.5,-204.7"/>
<text text-anchor="start" x="248.5" y="-210.8" font-family="Helvetica,sans-Serif" font-size="11.00" fill="#000000">...</text>
<polygon fill="#ffffff" stroke="transparent" points="245.5,-185.7 245.5,-204.7 268.5,-204.7 268.5,-185.7 245.5,-185.7"/>
<polygon fill="none" stroke="#000000" points="245.5,-185.7 245.5,-204.7 268.5,-204.7 268.5,-185.7 245.5,-185.7"/>
<text text-anchor="start" x="248.5" y="-191.8" font-family="Helvetica,sans-Serif" font-size="11.00" fill="#000000">&lt; 1</text>
<polygon fill="#ffffff" stroke="transparent" points="268.5,-185.7 268.5,-204.7 307.5,-204.7 307.5,-185.7 268.5,-185.7"/>
<polygon fill="none" stroke="#000000" points="268.5,-185.7 268.5,-204.7 307.5,-204.7 307.5,-185.7 268.5,-185.7"/>
<text text-anchor="start" x="272.1105" y="-191.8" font-family="Helvetica,sans-Serif" font-size="11.00" fill="#000000">3 rows</text>
<polygon fill="#ffffff" stroke="transparent" points="307.5,-185.7 307.5,-204.7 321.5,-204.7 321.5,-185.7 307.5,-185.7"/>
<polygon fill="none" stroke="#000000" points="307.5,-185.7 307.5,-204.7 321.5,-204.7 321.5,-185.7 307.5,-185.7"/>
<text text-anchor="start" x="312.3862" y="-191.8" font-family="Helvetica,sans-Serif" font-size="11.00" fill="#000000"> &#160;</text>
</a>
</g>
</g>
<!-- login&#45;&gt;member -->
<g id="edge5" class="edge">
<title>login:w&#45;&gt;member:e</title>
<path fill="none" stroke="#000000" d="M234.8677,-234.8728C193.0357,-236.2722 179.2146,-245.7 132.5,-245.7"/>
<polygon fill="#000000" stroke="#000000" points="244.6351,-230.7135 244.7651,-238.7125 243.1653,-238.7385 243.0353,-230.7395 244.6351,-230.7135"/>
<polyline fill="none" stroke="#000000" points="245.5,-234.7 241.5005,-234.765 "/>
<ellipse fill="none" stroke="#000000" cx="238.301" cy="-234.8171" rx="3.2" ry="3.2"/>
</g>
</g>
</svg>
