<?xml version="1.0" encoding="UTF-8" standalone="no"?>
<!DOCTYPE svg PUBLIC "-//W3C//DTD SVG 1.1//EN"
 "http://www.w3.org/Graphics/SVG/1.1/DTD/svg11.dtd">
<!-- Generated by graphviz version 2.40.1 (20161225.0304)
 -->
<!-- Title: orphans Pages: 1 -->
<svg width="292pt" height="525pt"
 viewBox="0.00 0.00 292.00 525.00" xmlns="http://www.w3.org/2000/svg" xmlns:xlink="http://www.w3.org/1999/xlink">
<g id="graph0" class="graph" transform="scale(1 1) rotate(0) translate(4 521)">
<title>orphans</title>
<polygon fill="#ffffff" stroke="transparent" points="-4,4 -4,-521 288,-521 288,4 -4,4"/>
<!-- databasechangelog -->
<g id="node1" class="node">
<title>databasechangelog</title>
<g id="a_node1"><a xlink:href="../../tables/databasechangelog.html" xlink:title="databasechangelog" target="_top">
<polygon fill="#ffffff" stroke="transparent" points="21.5,-4 21.5,-358 262.5,-358 262.5,-4 21.5,-4"/>
<polygon fill="#f5f5f5" stroke="transparent" points="24,-333 24,-356 261,-356 261,-333 24,-333"/>
<polygon fill="none" stroke="#000000" points="24,-333 24,-356 261,-356 261,-333 24,-333"/>
<text text-anchor="start" x="29" y="-341.6" font-family="Helvetica,sans-Serif" font-weight="bold" font-size="11.00" fill="#000000">databasechangelog</text>
<text text-anchor="start" x="226.0437" y="-341.1" font-family="Helvetica,sans-Serif" font-size="11.00" fill="#000000">[table]</text>
<polygon fill="none" stroke="#000000" points="24,-311 24,-333 177,-333 177,-311 24,-311"/>
<text text-anchor="start" x="44" y="-318.1" font-family="Helvetica,sans-Serif" font-size="11.00" fill="#000000">id</text>
<polygon fill="none" stroke="#000000" points="177,-311 177,-333 261,-333 261,-311 177,-311"/>
<text text-anchor="start" x="180" y="-318.7" font-family="Helvetica,sans-Serif" font-size="11.00" fill="#000000">varchar[255]</text>
<polygon fill="none" stroke="#000000" points="24,-289 24,-311 177,-311 177,-289 24,-289"/>
<text text-anchor="start" x="44" y="-296.1" font-family="Helvetica,sans-Serif" font-size="11.00" fill="#000000">author</text>
<polygon fill="none" stroke="#000000" points="177,-289 177,-311 261,-311 261,-289 177,-289"/>
<text text-anchor="start" x="180" y="-296.7" font-family="Helvetica,sans-Serif" font-size="11.00" fill="#000000">varchar[255]</text>
<polygon fill="none" stroke="#000000" points="24,-267 24,-289 177,-289 177,-267 24,-267"/>
<text text-anchor="start" x="44" y="-274.1" font-family="Helvetica,sans-Serif" font-size="11.00" fill="#000000">filename</text>
<polygon fill="none" stroke="#000000" points="177,-267 177,-289 261,-289 261,-267 177,-267"/>
<text text-anchor="start" x="180" y="-274.7" font-family="Helvetica,sans-Serif" font-size="11.00" fill="#000000">varchar[255]</text>
<polygon fill="none" stroke="#000000" points="24,-245 24,-267 177,-267 177,-245 24,-245"/>
<text text-anchor="start" x="44" y="-252.1" font-family="Helvetica,sans-Serif" font-size="11.00" fill="#000000">dateexecuted</text>
<polygon fill="none" stroke="#000000" points="177,-245 177,-267 261,-267 261,-245 177,-245"/>
<text text-anchor="start" x="179.8807" y="-252.7" font-family="Helvetica,sans-Serif" font-size="11.00" fill="#000000">timestamp[29,6]</text>
<polygon fill="none" stroke="#000000" points="24,-223 24,-245 177,-245 177,-223 24,-223"/>
<text text-anchor="start" x="44" y="-230.1" font-family="Helvetica,sans-Serif" font-size="11.00" fill="#000000">orderexecuted</text>
<polygon fill="none" stroke="#000000" points="177,-223 177,-245 261,-245 261,-223 177,-223"/>
<text text-anchor="start" x="180" y="-230.7" font-family="Helvetica,sans-Serif" font-size="11.00" fill="#000000">int4[10]</text>
<polygon fill="none" stroke="#000000" points="24,-201 24,-223 177,-223 177,-201 24,-201"/>
<text text-anchor="start" x="44" y="-208.1" font-family="Helvetica,sans-Serif" font-size="11.00" fill="#000000">exectype</text>
<polygon fill="none" stroke="#000000" points="177,-201 177,-223 261,-223 261,-201 177,-201"/>
<text text-anchor="start" x="180" y="-208.7" font-family="Helvetica,sans-Serif" font-size="11.00" fill="#000000">varchar[10]</text>
<polygon fill="none" stroke="#000000" points="24,-179 24,-201 177,-201 177,-179 24,-179"/>
<text text-anchor="start" x="44" y="-186.1" font-family="Helvetica,sans-Serif" font-size="11.00" fill="#000000">md5sum</text>
<polygon fill="none" stroke="#000000" points="177,-179 177,-201 261,-201 261,-179 177,-179"/>
<text text-anchor="start" x="180" y="-186.7" font-family="Helvetica,sans-Serif" font-size="11.00" fill="#000000">varchar[35]</text>
<polygon fill="none" stroke="#000000" points="24,-157 24,-179 177,-179 177,-157 24,-157"/>
<text text-anchor="start" x="44" y="-164.1" font-family="Helvetica,sans-Serif" font-size="11.00" fill="#000000">description</text>
<polygon fill="none" stroke="#000000" points="177,-157 177,-179 261,-179 261,-157 177,-157"/>
<text text-anchor="start" x="180" y="-164.7" font-family="Helvetica,sans-Serif" font-size="11.00" fill="#000000">varchar[255]</text>
<polygon fill="none" stroke="#000000" points="24,-135 24,-157 177,-157 177,-135 24,-135"/>
<text text-anchor="start" x="44" y="-142.1" font-family="Helvetica,sans-Serif" font-size="11.00" fill="#000000">comments</text>
<polygon fill="none" stroke="#000000" points="177,-135 177,-157 261,-157 261,-135 177,-135"/>
<text text-anchor="start" x="180" y="-142.7" font-family="Helvetica,sans-Serif" font-size="11.00" fill="#000000">varchar[255]</text>
<polygon fill="none" stroke="#000000" points="24,-113 24,-135 177,-135 177,-113 24,-113"/>
<text text-anchor="start" x="44" y="-120.1" font-family="Helvetica,sans-Serif" font-size="11.00" fill="#000000">tag</text>
<polygon fill="none" stroke="#000000" points="177,-113 177,-135 261,-135 261,-113 177,-113"/>
<text text-anchor="start" x="180" y="-120.7" font-family="Helvetica,sans-Serif" font-size="11.00" fill="#000000">varchar[255]</text>
<polygon fill="none" stroke="#000000" points="24,-91 24,-113 177,-113 177,-91 24,-91"/>
<text text-anchor="start" x="44" y="-98.1" font-family="Helvetica,sans-Serif" font-size="11.00" fill="#000000">liquibase</text>
<polygon fill="none" stroke="#000000" points="177,-91 177,-113 261,-113 261,-91 177,-91"/>
<text text-anchor="start" x="180" y="-98.7" font-family="Helvetica,sans-Serif" font-size="11.00" fill="#000000">varchar[20]</text>
<polygon fill="none" stroke="#000000" points="24,-69 24,-91 177,-91 177,-69 24,-69"/>
<text text-anchor="start" x="44" y="-76.1" font-family="Helvetica,sans-Serif" font-size="11.00" fill="#000000">contexts</text>
<polygon fill="none" stroke="#000000" points="177,-69 177,-91 261,-91 261,-69 177,-69"/>
<text text-anchor="start" x="180" y="-76.7" font-family="Helvetica,sans-Serif" font-size="11.00" fill="#000000">varchar[255]</text>
<polygon fill="none" stroke="#000000" points="24,-47 24,-69 177,-69 177,-47 24,-47"/>
<text text-anchor="start" x="44" y="-54.1" font-family="Helvetica,sans-Serif" font-size="11.00" fill="#000000">labels</text>
<polygon fill="none" stroke="#000000" points="177,-47 177,-69 261,-69 261,-47 177,-47"/>
<text text-anchor="start" x="180" y="-54.7" font-family="Helvetica,sans-Serif" font-size="11.00" fill="#000000">varchar[255]</text>
<polygon fill="none" stroke="#000000" points="24,-25 24,-47 177,-47 177,-25 24,-25"/>
<text text-anchor="start" x="44" y="-32.1" font-family="Helvetica,sans-Serif" font-size="11.00" fill="#000000">deployment_id</text>
<polygon fill="none" stroke="#000000" points="177,-25 177,-47 261,-47 261,-25 177,-25"/>
<text text-anchor="start" x="180" y="-32.7" font-family="Helvetica,sans-Serif" font-size="11.00" fill="#000000">varchar[10]</text>
<polygon fill="#ffffff" stroke="transparent" points="24,-6 24,-25 105,-25 105,-6 24,-6"/>
<polygon fill="none" stroke="#000000" points="24,-6 24,-25 105,-25 105,-6 24,-6"/>
<text text-anchor="start" x="27" y="-12.1" font-family="Helvetica,sans-Serif" font-size="11.00" fill="#000000">&lt; 0</text>
<polygon fill="#ffffff" stroke="transparent" points="105,-6 105,-25 177,-25 177,-6 105,-6"/>
<polygon fill="none" stroke="#000000" points="105,-6 105,-25 177,-25 177,-6 105,-6"/>
<text text-anchor="start" x="167.8862" y="-12.1" font-family="Helvetica,sans-Serif" font-size="11.00" fill="#000000"> &#160;</text>
<polygon fill="#ffffff" stroke="transparent" points="177,-6 177,-25 261,-25 261,-6 177,-6"/>
<polygon fill="none" stroke="#000000" points="177,-6 177,-25 261,-25 261,-6 177,-6"/>
<text text-anchor="start" x="242.4053" y="-12.1" font-family="Helvetica,sans-Serif" font-size="11.00" fill="#000000">0 &gt;</text>
<polygon fill="none" stroke="#000000" stroke-width="2" points="22.5,-5 22.5,-357 261.5,-357 261.5,-5 22.5,-5"/>
</a>
</g>
</g>
<!-- databasechangeloglock -->
<g id="node2" class="node">
<title>databasechangeloglock</title>
<g id="a_node2"><a xlink:href="../../tables/databasechangeloglock.html" xlink:title="databasechangeloglock" target="_top">
<polygon fill="#ffffff" stroke="transparent" points="8,-379 8,-513 276,-513 276,-379 8,-379"/>
<polygon fill="#f5f5f5" stroke="transparent" points="10,-488 10,-511 274,-511 274,-488 10,-488"/>
<polygon fill="none" stroke="#000000" points="10,-488 10,-511 274,-511 274,-488 10,-488"/>
<text text-anchor="start" x="15" y="-496.6" font-family="Helvetica,sans-Serif" font-weight="bold" font-size="11.00" fill="#000000">databasechangeloglock</text>
<text text-anchor="start" x="239.0437" y="-496.1" font-family="Helvetica,sans-Serif" font-size="11.00" fill="#000000">[table]</text>
<polygon fill="none" stroke="#000000" points="10,-466 10,-488 190,-488 190,-466 10,-466"/>
<image xlink:href="../../images/primaryKeys.png" width="11px" height="12px" preserveAspectRatio="xMinYMin meet" x="15" y="-483"/>
<text text-anchor="start" x="30" y="-473.1" font-family="Helvetica,sans-Serif" font-size="11.00" fill="#000000">id</text>
<polygon fill="none" stroke="#000000" points="190,-466 190,-488 274,-488 274,-466 190,-466"/>
<text text-anchor="start" x="193" y="-473.7" font-family="Helvetica,sans-Serif" font-size="11.00" fill="#000000">int4[10]</text>
<polygon fill="none" stroke="#000000" points="10,-444 10,-466 190,-466 190,-444 10,-444"/>
<text text-anchor="start" x="30" y="-451.1" font-family="Helvetica,sans-Serif" font-size="11.00" fill="#000000">locked</text>
<polygon fill="none" stroke="#000000" points="190,-444 190,-466 274,-466 274,-444 190,-444"/>
<text text-anchor="start" x="193" y="-451.7" font-family="Helvetica,sans-Serif" font-size="11.00" fill="#000000">bool[1]</text>
<polygon fill="none" stroke="#000000" points="10,-422 10,-444 190,-444 190,-422 10,-422"/>
<text text-anchor="start" x="30" y="-429.1" font-family="Helvetica,sans-Serif" font-size="11.00" fill="#000000">lockgranted</text>
<polygon fill="none" stroke="#000000" points="190,-422 190,-444 274,-444 274,-422 190,-422"/>
<text text-anchor="start" x="192.8807" y="-429.7" font-family="Helvetica,sans-Serif" font-size="11.00" fill="#000000">timestamp[29,6]</text>
<polygon fill="none" stroke="#000000" points="10,-400 10,-422 190,-422 190,-400 10,-400"/>
<text text-anchor="start" x="30" y="-407.1" font-family="Helvetica,sans-Serif" font-size="11.00" fill="#000000">lockedby</text>
<polygon fill="none" stroke="#000000" points="190,-400 190,-422 274,-422 274,-400 190,-400"/>
<text text-anchor="start" x="193" y="-407.7" font-family="Helvetica,sans-Serif" font-size="11.00" fill="#000000">varchar[255]</text>
<polygon fill="#ffffff" stroke="transparent" points="10,-381 10,-400 94,-400 94,-381 10,-381"/>
<polygon fill="none" stroke="#000000" points="10,-381 10,-400 94,-400 94,-381 10,-381"/>
<text text-anchor="start" x="13" y="-387.1" font-family="Helvetica,sans-Serif" font-size="11.00" fill="#000000">&lt; 0</text>
<polygon fill="#ffffff" stroke="transparent" points="94,-381 94,-400 190,-400 190,-381 94,-381"/>
<polygon fill="none" stroke="#000000" points="94,-381 94,-400 190,-400 190,-381 94,-381"/>
<text text-anchor="start" x="160.1105" y="-387.1" font-family="Helvetica,sans-Serif" font-size="11.00" fill="#000000">1 row</text>
<polygon fill="#ffffff" stroke="transparent" points="190,-381 190,-400 274,-400 274,-381 190,-381"/>
<polygon fill="none" stroke="#000000" points="190,-381 190,-400 274,-400 274,-381 190,-381"/>
<text text-anchor="start" x="255.4053" y="-387.1" font-family="Helvetica,sans-Serif" font-size="11.00" fill="#000000">0 &gt;</text>
<polygon fill="none" stroke="#000000" stroke-width="2" points="9,-380 9,-512 275,-512 275,-380 9,-380"/>
</a>
</g>
</g>
</g>
</svg>
